<svg width="125" height="125" viewBox="0 0 125 125" fill="none" xmlns="http://www.w3.org/2000/svg">
<path fill-rule="evenodd" clip-rule="evenodd" d="M42.0625 37.8125L42.5573 38.2448L86.7552 82.4375C87.3345 83.0162 87.7691 83.7233 88.0239 84.5015C88.2787 85.2796 88.3465 86.1069 88.2217 86.9162C88.0969 87.7254 87.783 88.4938 87.3056 89.159C86.8282 89.8243 86.2007 90.3676 85.4739 90.7448L84.8698 91.0052L30.7812 110.938C20.6146 114.688 10.7135 105.13 13.8021 94.9792L14.0625 94.2188L33.9896 40.1302C34.253 39.4137 34.6707 38.7639 35.2132 38.2268C35.7556 37.6896 36.4095 37.2783 37.1285 37.0219C37.8476 36.7655 38.6142 36.6703 39.3741 36.743C40.134 36.8157 40.8687 37.0546 41.526 37.4427L42.0625 37.8125ZM40.9479 51.3646L23.8385 97.8229C23.6794 98.2552 23.6379 98.7219 23.718 99.1754C23.7981 99.629 23.9971 100.053 24.2947 100.405C24.5922 100.756 24.9777 101.023 25.4118 101.177C25.8459 101.331 26.313 101.367 26.7656 101.281L27.1823 101.161L73.6302 84.0469L40.9479 51.3646ZM89.0989 60.4375C93.8437 60.6875 100.349 61.6875 106.005 65.0834C107.152 65.7632 107.994 66.8568 108.359 68.139C108.723 69.4212 108.583 70.7944 107.965 71.9758C107.348 73.1573 106.301 74.057 105.04 74.4898C103.779 74.9225 102.4 74.8554 101.187 74.3021L100.646 74.0156C97.0937 71.8802 92.5521 71.0469 88.5521 70.8386C86.9038 70.7475 85.2516 70.7544 83.6041 70.8594L81.9583 71.0209C80.5996 71.1962 79.2266 70.8292 78.1366 69.9993C77.0467 69.1694 76.3275 67.9435 76.1351 66.5872C75.9426 65.2308 76.2922 63.8533 77.1082 62.7529C77.9243 61.6525 79.141 60.918 80.4948 60.7084C83.3473 60.3403 86.2287 60.2479 89.0989 60.4323M99.6458 45.9219C100.973 45.9247 102.249 46.4339 103.213 47.3456C104.177 48.2573 104.757 49.5028 104.834 50.8276C104.912 52.1524 104.48 53.4567 103.628 54.4741C102.776 55.4916 101.568 56.1454 100.25 56.3021L99.6458 56.3386H95.9583C94.6312 56.3358 93.3553 55.8265 92.391 54.9148C91.4267 54.0031 90.8468 52.7577 90.7697 51.4329C90.6926 50.1081 91.1241 48.8038 91.9761 47.7863C92.8281 46.7689 94.0364 46.1151 95.3541 45.9584L95.9583 45.9219H99.6458ZM83.0729 41.9271C83.9696 42.8239 84.5083 44.0172 84.5879 45.2829C84.6675 46.5487 84.2825 47.8 83.5052 48.8021L83.0729 49.2917L77.5521 54.8177C76.6169 55.7618 75.3564 56.3127 74.0284 56.3577C72.7004 56.4028 71.4054 55.9386 70.4084 55.0601C69.4115 54.1816 68.788 52.9553 68.6656 51.6322C68.5432 50.3091 68.9311 48.9892 69.75 47.9427L70.1823 47.4531L75.7031 41.9323C76.1868 41.4481 76.7612 41.0639 77.3935 40.8018C78.0258 40.5397 78.7035 40.4048 79.388 40.4048C80.0725 40.4048 80.7502 40.5397 81.3825 40.8018C82.0148 41.0639 82.5892 41.4429 83.0729 41.9271ZM69.5989 14.5052C71.9323 21.5156 70.6823 29.1927 69.2239 34.5573C68.3511 37.903 67.1472 41.1534 65.6302 44.2604C65.0134 45.4967 63.9308 46.4374 62.6205 46.8755C61.3102 47.3135 59.8795 47.2131 58.6432 46.5964C57.4069 45.9796 56.4663 44.897 56.0282 43.5867C55.5901 42.2764 55.6905 40.8457 56.3073 39.6094C57.5191 37.114 58.4787 34.5038 59.1718 31.8177C60.3541 27.4844 60.9479 22.7813 60.0364 18.9271L59.7187 17.8021C59.4917 17.1507 59.3964 16.4608 59.4382 15.7723C59.4801 15.0838 59.6583 14.4104 59.9625 13.7914C60.2666 13.1723 60.6908 12.6198 61.2102 12.166C61.7297 11.7121 62.3341 11.366 62.9884 11.1477C63.6427 10.9293 64.3339 10.8432 65.0218 10.8941C65.7097 10.9451 66.3806 11.1322 66.9956 11.4445C67.6106 11.7569 68.1574 12.1883 68.6043 12.7137C69.0512 13.2391 69.3893 13.8481 69.5989 14.5052ZM97.8021 27.2031C98.7785 28.1799 99.327 29.5044 99.327 30.8854C99.327 32.2665 98.7785 33.591 97.8021 34.5677L94.1198 38.25C93.6393 38.7475 93.0646 39.1443 92.4292 39.4172C91.7937 39.6902 91.1103 39.8339 90.4187 39.8399C89.7272 39.8459 89.0413 39.7141 88.4013 39.4522C87.7612 39.1903 87.1797 38.8036 86.6906 38.3146C86.2016 37.8256 85.8149 37.244 85.553 36.6039C85.2911 35.9639 85.1593 35.278 85.1653 34.5865C85.1713 33.8949 85.315 33.2115 85.588 32.576C85.861 31.9406 86.2577 31.3659 86.7552 30.8854L90.4375 27.2031C91.4142 26.2267 92.7387 25.6782 94.1198 25.6782C95.5008 25.6782 96.8253 26.2267 97.8021 27.2031Z" fill="#00246B"/>
</svg>
