<svg width="346" height="191" viewBox="0 0 346 191" fill="none" xmlns="http://www.w3.org/2000/svg">
<g clip-path="url(#clip0_2309_2338)">
<path d="M22.7011 27.6226C15.3509 21.9633 5.68683 22.2328 3.9854 23.9171C-0.778598 28.6331 -0.0980368 33.3492 0.242229 37.3915C0.525784 40.7601 2.62426 46.4868 9.42996 54.5714C13.4041 59.2924 21.4534 64.2281 25.0831 66.0247C24.2891 67.4844 22.8372 70.6734 23.3817 71.7513C23.9262 72.8293 26.3309 74.8953 27.4651 75.7936C30.5277 78.7131 37.1973 85.1584 39.3752 87.5838C41.553 90.0092 42.5512 93.9841 42.778 95.6684C45.2281 107.526 52.6463 126.66 56.0492 134.744C57.1835 136.316 59.9285 139.662 61.8341 140.471C63.7397 141.279 69.2069 140.134 71.7024 139.46L87.6958 128.344L91.439 129.354L95.5224 125.312C99.0614 122.078 109.928 117.228 114.919 115.206C115.826 117.901 119.138 124.841 125.127 131.039C131.116 137.237 151.67 152.261 161.198 158.998C159.837 164.927 156.483 182.915 155.008 191H199.296L202.032 189.316C208.021 186.082 219.046 178.985 223.81 175.841C232.522 175.841 244.228 185.947 248.992 191H310.016C308.995 187.968 287.872 157.783 285.062 154.282C283.398 152.209 269.182 136.204 261.922 128.681L253.415 118.575L248.311 113.185C243.774 106.897 234.087 93.4451 231.637 89.9418C229.187 86.4384 224.491 77.0288 222.449 72.7619C224.627 70.3365 231.524 69.281 234.7 69.0564V63.6667C238.511 63.3972 250.806 56.368 256.478 52.8871C261.128 55.3574 271.859 60.7697 277.576 62.6561C283.292 64.5425 297.879 75.5691 304.458 80.8466C306.046 82.6432 309.495 86.7753 310.583 88.9312C311.672 91.0871 314.667 93.4227 316.028 94.321L327.598 101.732C329.776 99.576 326.69 94.9947 324.875 92.9735L333.042 99.3739L341.549 103.079C342.57 103.304 344.816 103.551 345.633 102.743C346.654 101.732 345.293 99.7108 344.612 99.3739C344.068 99.1044 340.302 96.7913 338.487 95.6684L331.341 89.9418C333.042 91.1769 336.854 93.7146 338.487 93.9841C340.529 94.321 340.529 92.9735 341.89 92.6367C342.979 92.3672 342.343 90.0541 341.89 88.9312L334.403 84.552C335.084 84.8889 336.854 85.5626 338.487 85.5626C340.529 85.5626 341.549 84.2152 341.89 82.8677C342.162 81.7898 341.096 80.3974 340.529 79.836L336.445 77.8148C338.26 76.8042 341.209 74.3788 338.487 72.7619C335.765 71.145 329.413 69.6179 326.577 69.0564C324.762 68.495 320.316 67.3048 317.049 67.0353C312.965 66.6984 293.909 48.1711 288.125 43.455C283.497 39.6822 270.543 32.6755 264.645 29.6437C258.746 30.3175 244.704 32.5407 235.72 36.0441C226.737 39.5474 211.333 41.097 204.754 41.4339C200.331 41.097 190.53 40.4907 186.719 40.7601C182.908 41.0296 179.913 42.2199 178.893 42.7813L176.851 39.7496C176.851 38.4021 175.943 35.5949 175.49 34.3598C174.809 33.1246 173.72 30.4522 174.809 29.6437C175.898 28.8353 175.263 26.1628 174.809 24.9277L167.323 14.1481V10.4427V7.07407C168.571 6.06349 170.726 4.1097 169.365 4.37919C168.003 4.64868 165.395 2.91947 164.26 2.02117L162.899 0C161.765 0.673724 158.271 1.81906 153.371 1.01059C148.471 0.202126 142.255 1.34745 139.76 2.02117C133.861 5.38978 122.065 13.946 122.065 21.2222C122.065 30.3175 126.488 38.739 127.85 40.4233C128.939 41.7707 133.748 48.6202 136.017 51.8766C135.563 52.2134 134.451 53.224 133.635 54.5714C132.818 55.9189 132.16 58.2769 131.933 59.2875C124.106 62.6561 108.045 69.5954 106.412 70.4039C104.37 71.4145 100.967 77.1411 100.627 78.8254C100.286 80.5097 92.1196 94.321 90.0778 95.6684C88.4445 96.7464 81.911 102.855 78.8484 105.774L69.6607 111.164L68.6398 109.817C63.4221 101.844 52.7144 85.4279 51.6255 83.5415C49.924 81.1834 49.2435 73.4356 48.9032 70.4039C48.631 67.9785 45.16 63.5544 43.4586 61.6455C42.3243 60.6349 40.328 58.5464 41.4169 58.2769C42.778 57.94 42.778 56.9295 42.778 56.2557C42.778 55.7168 41.4169 54.9083 40.7363 54.5714L37.6737 47.4974C35.7454 43.2305 30.0513 33.2819 22.7011 27.6226Z" fill="#3F3F3F"/>
</g>
<defs>
<clipPath id="clip0_2309_2338">
<rect width="346" height="191" fill="white"/>
</clipPath>
</defs>
</svg>
