<svg width="151" height="151" viewBox="0 0 151 151" fill="none" xmlns="http://www.w3.org/2000/svg">
<g clip-path="url(#clip0_2882_3777)">
<mask id="mask0_2882_3777" style="mask-type:luminance" maskUnits="userSpaceOnUse" x="0" y="0" width="151" height="151">
<path d="M151 0H0V151H151V0Z" fill="white"/>
</mask>
<g mask="url(#mask0_2882_3777)">
<path d="M73.9958 2.00691C73.6039 2.0108 74.3762 2.00313 73.9958 2.00691C74.405 2.00933 76.8927 2.00524 73.9958 2.00691C74.4174 2.00576 73.9863 2.01674 74.4207 2.01556C75.3119 2.01474 74.1588 2.00649 75.05 2.0115C76.4155 2.01791 77.7804 2.01156 79.1459 2.00389C80.0114 2.00468 80.8769 2.00622 81.7424 2.00857C82.1515 2.00614 82.5787 2.00218 83.0002 1.99968C83.5708 2.00535 81.3475 1.98823 82.5002 1.99968C81.3893 1.98865 81.4823 2.00133 83.0002 1.99968C83.898 3.2106 84.0355 3.08835 84.0001 4.49966C83.9981 4.79069 84.0001 5.99966 84.0001 6.49966C83.9924 7.42819 84.0175 8.57123 84.0001 9.49966C83.9932 10.1296 84.0059 11.8698 84.0002 12.4997C83.9851 14.043 84.0285 14.9566 84.0002 16.4997C84.2181 16.4984 87.8431 16.5524 88.0675 16.5509C93.3687 16.5178 98.6699 16.493 103.971 16.4775C106.535 16.4697 109.099 16.4592 111.662 16.4421C113.897 16.4271 116.131 16.4175 118.366 16.4141C119.549 16.4122 120.732 16.4076 121.915 16.3967C123.236 16.3846 124.557 16.3843 125.878 16.385C126.27 16.3796 126.662 16.3742 127.066 16.3687C129.715 16.3838 129.715 16.3838 131.027 17.2297C131.359 17.6376 131.359 17.6376 131.698 18.0538C131.889 18.2765 132.08 18.4992 132.278 18.7286C132.449 18.9569 132.62 19.1851 132.796 19.4203C132.993 19.6813 133.19 19.9424 133.393 20.2113C133.6 20.4892 133.806 20.7671 134.019 21.0535C134.236 21.342 134.453 21.6304 134.677 21.9277C135.367 22.8458 136.054 23.7656 136.741 24.6854C137.206 25.3065 137.672 25.9274 138.139 26.5482C139.163 27.9123 140.185 29.2774 141.206 30.6434C141.581 31.1444 141.961 31.6431 142.341 32.1413C142.721 34.4497 141.692 35.721 140.224 37.5846C140.007 37.8689 139.79 38.1533 139.566 38.4463C138.873 39.3518 138.172 40.2519 137.47 41.1521C137.004 41.7585 136.539 42.3652 136.075 42.9722C134.854 44.563 133.628 46.15 132.384 47.7275C132.218 47.9395 132.052 48.1514 131.881 48.3698C130.75 49.7899 130.75 49.7899 129.981 50.1254C129.416 50.1533 128.849 50.162 128.282 50.1615C127.923 50.1619 127.564 50.1623 127.194 50.1627C126.798 50.1616 126.403 50.1606 125.995 50.1594C125.58 50.1595 125.164 50.1595 124.736 50.1596C123.596 50.1594 122.455 50.1579 121.315 50.1558C120.123 50.1539 118.932 50.1538 117.74 50.1534C115.484 50.1525 113.227 50.15 110.97 50.147C108.401 50.1437 105.832 50.142 103.263 50.1405C97.9779 50.1374 89.2855 50.1599 84.0002 50.1534C84.0002 53.3186 84.0002 56.3937 84.0002 59.6548C85.4248 59.6454 88.8319 59.7075 90.2852 59.6979C93.4206 59.678 96.5561 59.6648 99.6915 59.6548C101.593 59.6486 103.494 59.6401 105.395 59.6265C107.23 59.6135 109.064 59.6063 110.898 59.6032C111.599 59.601 112.299 59.5966 112.999 59.5902C113.979 59.5815 114.959 59.5803 115.939 59.5808C116.229 59.5765 116.52 59.5722 116.819 59.5678C118.027 59.5752 118.794 59.6195 119.861 60.1387C120.655 61.3563 120.559 62.5163 120.545 63.8945C120.549 64.3479 120.549 64.3479 120.553 64.8105C120.559 65.8104 120.555 66.8099 120.55 67.8098C120.551 68.5041 120.552 69.1984 120.554 69.8927C120.556 71.3481 120.553 72.8034 120.547 74.2587C120.539 76.1255 120.543 77.992 120.552 79.8588C120.557 81.2926 120.555 82.7263 120.551 84.1601C120.551 84.8484 120.552 85.5368 120.555 86.2252C120.558 87.1868 120.553 88.1481 120.545 89.1097C120.548 89.3949 120.551 89.6802 120.554 89.9742C120.537 91.1094 120.511 91.8687 119.861 92.8654C118.562 93.4979 117.404 93.445 115.939 93.4233C115.626 93.4235 115.312 93.4236 114.99 93.4238C113.976 93.4229 112.964 93.4137 111.951 93.4043C111.325 93.4025 110.699 93.4013 110.073 93.4006C107.754 93.3944 105.434 93.3776 103.115 93.3621C97.9315 93.3374 89.3408 93.3127 84.0002 93.2872C84.0002 110.696 84.0002 128.105 84.0002 146.041C89.8919 146.041 108.43 146 114.5 146C114.928 146 115.318 147.401 115.5 148C115.497 148.198 115.497 148.302 115.5 148.5C115.504 148.698 115.496 149.296 115.5 149.5C115 150.5 115 150.511 114.5 151C113.5 151 103.464 150.999 102.498 150.989C102.077 150.992 102.077 150.992 101.648 150.994C100.706 150.999 99.7649 150.995 98.8234 150.992C98.1489 150.993 97.4744 150.995 96.7999 150.998C94.9669 151.003 93.134 151.001 91.301 150.997C89.3844 150.994 87.4678 150.997 85.5513 150.999C82.3325 151.001 79.1137 150.998 75.8949 150.993C72.1714 150.986 68.448 150.988 64.7245 150.995C61.5299 151 58.3353 151.001 55.1408 150.998C53.2317 150.996 51.3228 150.996 49.4138 151C47.6192 151.003 45.8247 151.001 44.0301 150.994C43.3708 150.992 42.7114 150.993 42.052 150.995C41.1533 150.999 40.2551 150.995 39.3564 150.989C38.963 150.993 38.9631 150.993 38.5617 150.997C37.3572 150.981 36.7125 150.917 35.7457 150.265C35.176 149.585 35.0337 149.271 35.0486 148.439C35.0451 148.241 35.0415 148.043 35.0379 147.839C35.2203 147.24 35.2203 147.24 36.5936 146.041C46.1109 146.041 63.6944 146.041 73.5001 146.041C73.5001 128.632 73.5001 111.224 73.5001 93.2872C59.5663 93.3465 51.5001 93.3466 37.5664 93.4222C34.8717 93.429 34.8717 93.429 33.6103 93.4303C32.729 93.4325 31.8481 93.4373 30.9668 93.4454C29.6322 93.4577 28.2978 93.4579 26.9632 93.4574C26.3742 93.4654 26.3742 93.4654 25.7733 93.4737C23.1258 93.4585 23.1258 93.4585 21.814 92.6127C21.5927 92.3407 21.3715 92.0686 21.1435 91.7885C20.8565 91.4545 20.8565 91.4545 20.5637 91.1137C20.3927 90.8854 20.2217 90.6572 20.0455 90.422C19.8485 90.161 19.6515 89.9 19.4485 89.631C19.1384 89.2142 19.1384 89.2142 18.8219 88.7888C18.605 88.5004 18.3881 88.2119 18.1645 87.9147C17.4747 86.9965 16.7877 86.0768 16.1007 85.1569C15.6349 84.5359 15.1688 83.9149 14.7026 83.2941C13.6786 81.93 12.6564 80.5649 11.6358 79.1989C11.2601 78.698 10.8805 78.1992 10.5001 77.701C10.1201 75.3927 11.1491 74.1214 12.6178 72.2578C12.8347 71.9734 13.0516 71.6891 13.2751 71.3961C13.968 70.4906 14.6694 69.5905 15.3712 68.6902C15.8369 68.0839 16.302 67.4772 16.7666 66.8702C17.9873 65.2794 19.2138 63.6924 20.4568 62.1148C20.7059 61.7969 20.7059 61.7969 20.96 61.4725C22.0914 60.0525 22.0914 60.0525 22.8602 59.7169C23.4257 59.6891 23.9926 59.6804 24.559 59.6809C24.9182 59.6805 25.2773 59.6801 25.6474 59.6796C26.2408 59.6813 26.2408 59.6813 26.8463 59.6829C27.2616 59.6829 27.677 59.6828 28.1049 59.6828C29.2455 59.6829 30.3861 59.6844 31.5267 59.6865C32.7181 59.6884 33.9094 59.6886 35.1008 59.6889C37.3576 59.6899 39.6144 59.6923 41.8712 59.6953C44.4402 59.6987 47.0092 59.7003 49.5781 59.7018C54.8634 59.705 68.2148 59.6915 73.5001 59.6979C73.5001 56.5327 73.5001 53.4145 73.5001 50.1534C72.0756 50.1628 64.0094 50.1348 62.5561 50.1444C59.4207 50.1643 56.2852 50.1775 53.1498 50.1875C51.2484 50.1938 49.3472 50.2023 47.4459 50.2159C45.6116 50.2289 43.7773 50.2361 41.9429 50.2392C41.2426 50.2414 40.5422 50.2457 39.8419 50.2522C38.862 50.2609 37.8824 50.2621 36.9024 50.2615C36.612 50.2658 36.3216 50.2702 36.0224 50.2746C34.8142 50.2672 34.0471 50.2228 32.9804 49.7036C32.1863 48.486 32.2825 47.326 32.2959 45.9479C32.2935 45.6456 32.2911 45.3433 32.2886 45.0318C32.2826 44.032 32.2866 43.0324 32.2912 42.0326C32.2903 41.3383 32.2889 40.644 32.2872 39.9497C32.2852 38.4943 32.2881 37.039 32.2945 35.5836C32.3024 33.7168 32.2979 31.8503 32.2896 29.9835C32.2847 28.5498 32.2863 27.116 32.2898 25.6822C32.2907 24.9939 32.2896 24.3055 32.2864 23.6172C32.2829 22.6556 32.2882 21.6943 32.2959 20.7327C32.2931 20.4474 32.2903 20.1621 32.2875 19.8682C32.3042 18.7329 32.3304 17.9737 32.9804 16.9769C34.2797 16.3444 35.4376 16.3973 36.9024 16.419C37.2107 16.4188 37.519 16.4187 37.8366 16.4185C38.8548 16.4193 39.8726 16.4286 40.8907 16.438C41.5969 16.4403 42.3031 16.442 43.0094 16.4432C44.8676 16.4478 46.7256 16.4595 48.5837 16.4728C50.4801 16.4851 52.3764 16.4905 54.2728 16.4966C57.9932 16.5094 64.7003 16.4761 68.4207 16.5013C73.9958 16.5391 73.5002 16.5509 73.5002 15.4997C73.5002 14.0405 73.4337 12.9605 73.4207 11.5013C73.4137 10.8699 73.4325 9.63274 73.4207 9.0013C73.404 8.09356 73.4267 7.90913 73.4207 7.0013C73.4207 6.0013 73.428 5.29214 73.4207 5.0013C73.4199 3.06559 73.2631 2.9952 73.9958 2.00691C74.9683 1.49255 73.2347 2.40966 73.9958 2.00691ZM37.967 21.3509C37.967 29.2639 37.967 37.1769 37.967 45.3297C49.2487 45.4024 60.53 45.4632 71.8119 45.498C73.1442 45.5022 74.4764 45.5064 75.8086 45.5108C76.0738 45.5116 76.339 45.5125 76.6123 45.5134C80.9055 45.5277 85.1985 45.5537 89.4916 45.584C93.8974 45.6149 98.3032 45.6332 102.709 45.6399C105.428 45.6444 108.145 45.6587 110.864 45.6855C112.949 45.705 115.033 45.707 117.119 45.7026C117.974 45.7035 118.828 45.7101 119.683 45.7227C124.103 46.013 124.103 46.013 127.99 44.6089C128.704 43.7672 129.178 42.9955 129.638 42.0326C129.921 41.661 130.214 41.2952 130.522 40.9392C131.187 40.0979 131.848 39.2548 132.504 38.4085C132.786 38.0476 133.069 37.6878 133.354 37.3293C133.773 36.8025 134.185 36.2721 134.596 35.7405C134.839 35.4303 135.083 35.1201 135.333 34.8005C135.873 33.994 135.873 33.9939 135.837 33.2339C135.287 32.0312 134.483 31.0119 133.651 29.9448C133.378 29.5898 133.378 29.5898 133.1 29.2276C132.521 28.4739 131.938 27.7224 131.354 26.9709C130.962 26.4606 130.569 25.9501 130.177 25.4394C129.461 24.5092 128.744 23.5793 128.024 22.6514C127.88 22.4649 127.735 22.2784 127.586 22.0862C127.26 21.6557 127.434 21.6276 127.066 21.3228C126.59 21.2939 125.46 21.314 125.46 21.314C125.15 21.3134 124.519 21.3122 124.519 21.3122C124.174 21.3131 123.829 21.3139 123.474 21.3148C123.11 21.3146 122.747 21.3143 122.373 21.3141C121.145 21.3136 119.917 21.3152 118.689 21.3168C117.813 21.3169 116.937 21.3169 116.061 21.3167C114.169 21.3166 112.278 21.3175 110.386 21.3192C107.652 21.3216 104.917 21.3224 102.182 21.3228C97.7457 21.3234 93.3092 21.3254 88.8727 21.3283C84.562 21.331 80.2513 21.3331 75.9406 21.3344C75.5423 21.3345 75.5423 21.3345 75.136 21.3347C73.804 21.335 72.472 21.3354 71.14 21.3358C60.0823 21.3389 49.0246 21.3444 37.967 21.3509ZM24.1025 66.1163C23.589 66.9747 23.589 66.9747 23.2035 67.8098C22.9206 68.1814 22.6271 68.5471 22.3189 68.9032C21.6543 69.7444 20.9932 70.5875 20.337 71.4338C20.0558 71.7948 19.7724 72.1545 19.4871 72.513C19.0682 73.0398 18.6561 73.5702 18.2453 74.1019C17.8804 74.5672 17.8804 74.5672 17.5082 75.0419C16.9682 75.8484 16.9682 75.8484 17.0048 76.6085C17.5539 77.8111 18.3582 78.8305 19.1908 79.8975C19.3724 80.1342 19.554 80.3709 19.7411 80.6147C20.3204 81.3685 20.9036 82.1199 21.4868 82.8714C21.8796 83.3818 22.2721 83.8923 22.6644 84.4029C23.3805 85.3331 24.097 86.263 24.8169 87.1909C24.9615 87.3775 25.1061 87.564 25.2551 87.7561C25.5815 88.1867 25.5815 88.1866 25.9502 88.4915C26.4263 88.5204 26.904 88.5285 27.3812 88.5283C27.6917 88.5289 28.0021 88.5295 28.3219 88.5302C28.6669 88.5293 29.0119 88.5284 29.3674 88.5275C29.9125 88.5279 29.9125 88.5279 30.4687 88.5283C31.6965 88.5288 32.9243 88.5271 34.1521 88.5255C35.0283 88.5254 35.9044 88.5254 36.7806 88.5256C38.672 88.5257 40.5634 88.5248 42.4549 88.5232C45.1896 88.5207 47.9244 88.5199 50.6591 88.5196C55.0956 88.5189 59.5321 88.5169 63.9686 88.5141C68.2793 88.5113 72.59 88.5092 76.9007 88.5079C77.299 88.5078 77.299 88.5078 77.7053 88.5077C79.0373 88.5073 80.3693 88.5069 81.7014 88.5065C92.759 88.5034 103.817 88.4979 114.874 88.4915C114.874 80.5785 114.874 72.6655 114.874 64.5127C103.593 64.44 92.3113 64.3791 81.0294 64.3443C79.6972 64.3402 78.3649 64.3359 77.0327 64.3316C76.7675 64.3307 76.5023 64.3298 76.229 64.329C71.9358 64.3146 67.6428 64.2886 63.3497 64.2583C58.9439 64.2275 54.5381 64.2092 50.1322 64.2025C47.4138 64.1979 44.6959 64.1837 41.9777 64.1569C39.8925 64.1374 37.8078 64.1353 35.7225 64.1398C34.8677 64.1388 34.0129 64.1323 33.1582 64.1197C28.044 63.8116 28.044 63.8116 24.1025 66.1163Z" fill="#7692C9" fill-opacity="0.5"/>
<path d="M45.9093 39.046L43.7833 39.0486L43.7954 37.6882L45.9077 37.6857C46.5229 37.6849 47.0377 37.5499 47.4521 37.2805C47.871 37.0111 48.185 36.6256 48.3941 36.1241C48.6076 35.6225 48.714 35.0254 48.7132 34.3327L48.7125 33.7926C48.7119 33.2549 48.6498 32.7787 48.5262 32.3642C48.4072 31.9496 48.2291 31.6012 47.9917 31.3189C47.759 31.0366 47.4716 30.8228 47.1296 30.6774C46.7922 30.5319 46.4025 30.4595 45.9604 30.46L43.7319 30.4627L43.7303 29.0955L45.9588 29.0928C46.6196 29.092 47.2236 29.203 47.7707 29.4256C48.3178 29.6437 48.7899 29.9599 49.1869 30.3741C49.5884 30.7883 49.8967 31.2847 50.1115 31.8632C50.3264 32.4417 50.4343 33.0887 50.4352 33.8042L50.4358 34.3306C50.4367 35.0461 50.3304 35.6933 50.1169 36.2724C49.9034 36.8514 49.5964 37.3485 49.1958 37.7637C48.7953 38.1744 48.3172 38.4917 47.7615 38.7157C47.2103 38.9351 46.5929 39.0452 45.9093 39.046ZM44.7215 29.0943L44.7335 39.0475L43.0177 39.0495L43.0056 29.0964L44.7215 29.0943ZM53.7548 31.64L53.7638 39.0365L52.1095 39.0385L52.1005 31.642L53.7548 31.64ZM51.9888 29.7008C51.9885 29.4501 52.0703 29.2427 52.2341 29.0784C52.4026 28.9096 52.6349 28.825 52.9311 28.8246C53.2228 28.8243 53.453 28.9083 53.6218 29.0767C53.7907 29.2406 53.8752 29.4478 53.8755 29.6985C53.8758 29.9446 53.7918 30.1498 53.6233 30.314C53.4549 30.4783 53.2249 30.5606 52.9332 30.561C52.637 30.5613 52.4045 30.4796 52.2356 30.3157C52.0714 30.1518 51.9891 29.9469 51.9888 29.7008ZM59.7155 37.0264C59.7153 36.8623 59.6741 36.7142 59.5919 36.5822C59.5097 36.4456 59.3523 36.3227 59.1198 36.2136C58.8918 36.1045 58.5544 36.0047 58.1077 35.9141C57.7156 35.8279 57.3555 35.7258 57.0272 35.6078C56.7035 35.4851 56.4253 35.3373 56.1927 35.1644C55.9601 34.9915 55.7798 34.7867 55.6519 34.5498C55.524 34.313 55.4599 34.0397 55.4595 33.7298C55.4592 33.429 55.5249 33.1441 55.6567 32.875C55.7886 32.606 55.9774 32.3688 56.2232 32.1634C56.4691 31.958 56.7674 31.7959 57.1182 31.677C57.4735 31.5581 57.8699 31.4983 58.3074 31.4978C58.9272 31.497 59.4582 31.6012 59.9006 31.8103C60.3474 32.0149 60.6896 32.2947 60.927 32.6499C61.1644 33.0005 61.2833 33.3969 61.2839 33.8389L59.6364 33.8409C59.6362 33.645 59.5858 33.4627 59.4854 33.2942C59.3894 33.1212 59.2434 32.9823 59.0474 32.8778C58.8513 32.7686 58.6051 32.7142 58.3089 32.7146C58.0263 32.7149 57.7917 32.7608 57.6049 32.8522C57.4228 32.939 57.2862 33.0531 57.1952 33.1945C57.1088 33.3358 57.0657 33.4908 57.0659 33.6595C57.066 33.7825 57.0889 33.8941 57.1346 33.9943C57.1849 34.09 57.267 34.1788 57.3811 34.2606C57.4951 34.338 57.6501 34.4107 57.8462 34.4788C58.0468 34.5469 58.2975 34.6127 58.5984 34.6762C59.1636 34.794 59.6491 34.946 60.055 35.1324C60.4653 35.3142 60.7801 35.5508 60.9992 35.8422C61.2183 36.129 61.3281 36.4935 61.3286 36.9355C61.329 37.2637 61.2588 37.5645 61.1178 37.8381C60.9814 38.1072 60.7812 38.3421 60.5171 38.543C60.253 38.7393 59.9365 38.8923 59.5675 39.0021C59.203 39.112 58.7929 39.1671 58.3372 39.1677C57.6673 39.1685 57.0998 39.0507 56.6346 38.8143C56.1695 38.5733 55.8159 38.2661 55.5739 37.8927C55.3365 37.5148 55.2175 37.123 55.217 36.7174L56.8098 36.7154C56.8284 37.0208 56.913 37.2645 57.0636 37.4466C57.2188 37.6241 57.4104 37.7538 57.6383 37.8355C57.8708 37.9127 58.1101 37.9512 58.3562 37.9509C58.6525 37.9505 58.9008 37.9115 59.1012 37.8338C59.3016 37.7515 59.4542 37.6419 59.5588 37.5051C59.6635 37.3637 59.7157 37.2041 59.7155 37.0264ZM65.7936 37.8462C66.0625 37.8458 66.304 37.7931 66.518 37.688C66.7367 37.5784 66.9119 37.4278 67.0439 37.2362C67.1803 37.0447 67.2553 36.8235 67.2686 36.5729L68.8204 36.571C68.8119 37.0495 68.6711 37.4849 68.3981 37.8772C68.1252 38.2694 67.7633 38.582 67.3124 38.815C66.8615 39.0434 66.3626 39.158 65.8157 39.1586C65.2506 39.1593 64.7583 39.0642 64.3388 38.8733C63.9193 38.6779 63.5703 38.4094 63.2919 38.0679C63.0135 37.7265 62.8034 37.3325 62.6616 36.8861C62.5243 36.4396 62.4554 35.9612 62.4548 35.4508L62.4545 35.2115C62.4539 34.7011 62.5216 34.2225 62.6578 33.7757C62.7985 33.3244 63.0077 32.9276 63.2853 32.5855C63.5629 32.2434 63.9112 31.9764 64.3302 31.7844C64.7492 31.588 65.239 31.4894 65.7996 31.4887C66.392 31.488 66.9117 31.6059 67.3586 31.8423C67.8055 32.0742 68.1568 32.3996 68.4125 32.8186C68.6728 33.233 68.8078 33.7159 68.8176 34.2673L67.2658 34.2692C67.2518 33.9957 67.1832 33.7497 67.0599 33.5311C66.9411 33.308 66.7723 33.1304 66.5534 32.9985C66.339 32.8666 66.0814 32.8009 65.7807 32.8012C65.448 32.8016 65.1723 32.8703 64.9538 33.0073C64.7352 33.1397 64.5645 33.3222 64.4417 33.5548C64.319 33.7828 64.2304 34.0404 64.1761 34.3276C64.1263 34.6102 64.1016 34.9042 64.1019 35.2095L64.1022 35.4488C64.1026 35.7541 64.128 36.0503 64.1785 36.3374C64.229 36.6244 64.3159 36.8818 64.4392 37.1095C64.5671 37.3327 64.7405 37.5125 64.9594 37.6489C65.1783 37.7808 65.4564 37.8466 65.7936 37.8462ZM74.8163 31.6145L76.3134 31.6127L76.3221 38.8041C76.3229 39.4695 76.1823 40.0347 75.9004 40.4999C75.6184 40.9651 75.2246 41.3188 74.719 41.5609C74.2135 41.8076 73.628 41.9314 72.9626 41.9322C72.6801 41.9325 72.3656 41.8919 72.0191 41.8103C71.6772 41.7287 71.3444 41.5969 71.0206 41.415C70.7014 41.2377 70.4345 41.0033 70.2199 40.7119L70.9912 39.7402C71.2559 40.0544 71.5479 40.2842 71.8671 40.4296C72.1863 40.5751 72.5213 40.6476 72.8722 40.6471C73.2505 40.6467 73.5717 40.5757 73.8358 40.4341C74.1045 40.297 74.3116 40.094 74.4572 39.8249C74.6027 39.5558 74.6752 39.2276 74.6747 38.8403L74.668 33.2895L74.8163 31.6145ZM69.7965 35.4009L69.7963 35.2573C69.7957 34.6968 69.8634 34.1863 69.9996 33.7258C70.1357 33.2608 70.3312 32.8618 70.586 32.5288C70.8408 32.1913 71.1504 31.9334 71.5148 31.7552C71.8791 31.5725 72.2914 31.4808 72.7517 31.4803C73.2302 31.4797 73.6382 31.5658 73.9757 31.7386C74.3177 31.9113 74.6028 32.1594 74.8311 32.4827C75.0593 32.8014 75.2375 33.184 75.3657 33.6304C75.4984 34.0723 75.5969 34.5644 75.6614 35.1066L75.662 35.5647C75.6033 36.0934 75.5037 36.5766 75.3629 37.0142C75.2222 37.4519 75.0358 37.8304 74.8038 38.1497C74.5717 38.469 74.2849 38.7154 73.9433 38.889C73.6063 39.0626 73.2076 39.1497 72.7473 39.1502C72.2962 39.1508 71.8882 39.0578 71.5234 38.8714C71.1631 38.685 70.8529 38.4234 70.5927 38.0864C70.3371 37.7495 70.1407 37.3532 70.0034 36.8977C69.8661 36.4376 69.7972 35.9386 69.7965 35.4009ZM71.4438 35.2553L71.444 35.3989C71.4444 35.7361 71.4767 36.0505 71.5408 36.3421C71.6095 36.6337 71.7124 36.8911 71.8494 37.1142C71.9909 37.3328 72.1689 37.5057 72.3832 37.6331C72.6021 37.7559 72.8597 37.8171 73.1559 37.8167C73.5433 37.8162 73.8599 37.7338 74.1058 37.5695C74.3562 37.4051 74.5474 37.1838 74.6792 36.9057C74.8156 36.623 74.9109 36.3084 74.9652 35.962L74.9637 34.7247C74.936 34.4558 74.8787 34.2053 74.7919 33.9729C74.7095 33.7406 74.5976 33.5379 74.4562 33.3649C74.3147 33.1874 74.1368 33.0509 73.9225 32.9554C73.7081 32.8554 73.4552 32.8056 73.1635 32.806C72.8673 32.8063 72.6099 32.8704 72.3913 32.9983C72.1727 33.1262 71.9929 33.3018 71.8519 33.5253C71.7154 33.7488 71.6132 34.0087 71.5452 34.305C71.4772 34.6013 71.4434 34.9181 71.4438 35.2553ZM77.7125 35.3913L77.7123 35.234C77.7117 34.7008 77.7886 34.2063 77.943 33.7504C78.0973 33.2899 78.3202 32.8909 78.6114 32.5533C78.9072 32.2111 79.2669 31.9463 79.6905 31.759C80.1187 31.5671 80.6017 31.4708 81.1394 31.4701C81.6817 31.4695 82.1649 31.5646 82.589 31.7555C83.0176 31.9418 83.3802 32.2057 83.6769 32.5471C83.9735 32.884 84.1996 33.2825 84.3551 33.7426C84.5106 34.1981 84.5886 34.6925 84.5893 35.2257L84.5895 35.3829C84.5901 35.9161 84.5132 36.4107 84.3588 36.8666C84.2045 37.3225 83.9794 37.7216 83.6835 38.0637C83.3877 38.4013 83.028 38.6661 82.6044 38.858C82.1808 39.0454 81.7001 39.1394 81.1624 39.14C80.6201 39.1407 80.1346 39.0478 79.706 38.8615C79.2819 38.6706 78.9216 38.4067 78.625 38.0699C78.3283 37.7284 78.1022 37.3299 77.9467 36.8744C77.7912 36.4188 77.7132 35.9245 77.7125 35.3913ZM79.3598 35.232L79.36 35.3893C79.3604 35.722 79.3949 36.0364 79.4637 36.3325C79.5324 36.6286 79.6398 36.8883 79.7859 37.1114C79.932 37.3345 80.1191 37.5098 80.3471 37.6371C80.5751 37.7644 80.8463 37.8279 81.1608 37.8275C81.4661 37.8271 81.7304 37.763 81.9535 37.6352C82.1812 37.5073 82.3679 37.3316 82.5134 37.1081C82.659 36.8846 82.7658 36.6247 82.8338 36.3284C82.9063 36.0321 82.9424 35.7176 82.942 35.3849L82.9418 35.2277C82.9414 34.8996 82.9046 34.5897 82.8313 34.2981C82.7626 34.002 82.6529 33.7401 82.5022 33.5124C82.3561 33.2847 82.1691 33.1072 81.941 32.9799C81.7176 32.848 81.4509 32.7822 81.141 32.7826C80.8311 32.783 80.5623 32.8494 80.3346 32.9818C80.1115 33.1097 79.9271 33.2877 79.7815 33.5157C79.636 33.7438 79.5292 34.0059 79.4612 34.3022C79.3932 34.594 79.3594 34.9039 79.3598 35.232ZM87.7257 28.4953L87.7384 38.9953L86.0841 38.9973L86.0714 28.4973L87.7257 28.4953ZM91.7716 38.9904L90.1241 38.9924L90.1143 30.885C90.1136 30.3336 90.2156 29.8709 90.4202 29.497C90.6294 29.1184 90.9276 28.8332 91.3147 28.6414C91.7018 28.4449 92.1597 28.3464 92.6884 28.3458C92.8524 28.3456 93.0142 28.3568 93.1738 28.3794C93.3333 28.3974 93.4883 28.4268 93.6387 28.4677L93.5992 29.7392C93.5081 29.7165 93.4078 29.7007 93.2984 29.6917C93.1936 29.6827 93.0796 29.6783 92.9566 29.6784C92.7059 29.6788 92.4895 29.7269 92.3073 29.8228C92.1297 29.9141 91.9932 30.0488 91.8977 30.2266C91.8067 30.4045 91.7614 30.6233 91.7618 30.883L91.7716 38.9904ZM93.287 31.5921L93.2885 32.7952L88.9819 32.8005L88.9804 31.5973L93.287 31.5921ZM104.018 35.7354L105.727 35.7333C105.673 36.385 105.491 36.9663 105.182 37.4771C104.873 37.9833 104.438 38.3826 103.878 38.675C103.317 38.9673 102.636 39.114 101.834 39.115C101.219 39.1157 100.665 39.007 100.173 38.7888C99.6803 38.5661 99.2583 38.2522 98.9069 37.847C98.5555 37.4373 98.286 36.9431 98.0985 36.3646C97.9155 35.786 97.8236 35.139 97.8227 34.4235L97.8217 33.5964C97.8208 32.8809 97.9135 32.2336 98.0996 31.6546C98.2903 31.0756 98.5632 30.5808 98.9181 30.1702C99.2731 29.7551 99.6988 29.4379 100.195 29.2185C100.696 28.9991 101.259 28.8891 101.883 28.8883C102.676 28.8874 103.346 29.0324 103.894 29.3234C104.441 29.6144 104.865 30.0172 105.167 30.5318C105.473 31.0464 105.66 31.6364 105.729 32.3016L104.02 32.3037C103.974 31.8754 103.874 31.5086 103.718 31.2035C103.567 30.8983 103.344 30.6662 103.047 30.507C102.751 30.3433 102.364 30.2618 101.885 30.2623C101.493 30.2628 101.151 30.3362 100.86 30.4823C100.568 30.6285 100.325 30.843 100.129 31.1258C99.9336 31.4086 99.7859 31.7574 99.6862 32.1722C99.591 32.5825 99.5437 33.052 99.5443 33.5806L99.5453 34.4214C99.546 34.9227 99.5898 35.3784 99.6769 35.7885C99.7685 36.194 99.9057 36.5424 100.088 36.8339C100.276 37.1253 100.513 37.3506 100.8 37.5098C101.087 37.6689 101.432 37.7483 101.833 37.7478C102.32 37.7472 102.714 37.6692 103.015 37.5139C103.32 37.3586 103.55 37.1327 103.705 36.8363C103.864 36.5353 103.968 36.1684 104.018 35.7354ZM108.876 28.4697L108.889 38.9697L107.234 38.9717L107.222 28.4717L108.876 28.4697ZM115.142 37.2189L115.135 31.5656L116.789 31.5636L116.798 38.9601L115.239 38.962L115.142 37.2189ZM115.372 35.6806L115.926 35.6662C115.926 36.163 115.872 36.621 115.763 37.0405C115.655 37.4553 115.486 37.8178 115.259 38.128C115.031 38.4336 114.74 38.6732 114.385 38.8468C114.029 39.0159 113.603 39.1007 113.107 39.1013C112.747 39.1017 112.416 39.0497 112.115 38.9453C111.814 38.8408 111.554 38.6793 111.335 38.4609C111.121 38.2424 110.954 37.9577 110.835 37.607C110.716 37.2562 110.657 36.837 110.656 36.3494L110.65 31.5711L112.298 31.5691L112.304 36.3611C112.304 36.6299 112.336 36.8555 112.4 37.0377C112.464 37.2153 112.551 37.3588 112.66 37.468C112.77 37.5773 112.898 37.6546 113.043 37.7C113.189 37.7454 113.344 37.768 113.508 37.7678C113.978 37.7672 114.347 37.6756 114.615 37.493C114.889 37.3058 115.082 37.0549 115.196 36.7404C115.314 36.4258 115.373 36.0725 115.372 35.6806ZM118.481 28.458L120.128 28.4561L120.139 37.3769L119.983 38.9562L118.493 38.958L118.481 28.458ZM124.962 35.1836L124.962 35.3271C124.963 35.874 124.902 36.3777 124.78 36.8381C124.662 37.294 124.48 37.6907 124.234 38.0282C123.993 38.3658 123.693 38.6282 123.333 38.8155C122.978 38.9982 122.565 39.0898 122.096 39.0904C121.636 39.0909 121.235 39.0048 120.893 38.8321C120.551 38.6593 120.263 38.4136 120.03 38.0948C119.802 37.7761 119.617 37.3958 119.475 36.9539C119.333 36.512 119.233 36.0245 119.173 35.4914L119.172 35.0334C119.231 34.4956 119.33 34.0078 119.471 33.5701C119.612 33.1279 119.796 32.7471 120.023 32.4279C120.255 32.104 120.54 31.8553 120.877 31.6817C121.219 31.5081 121.617 31.421 122.073 31.4205C122.547 31.4199 122.964 31.5106 123.324 31.6924C123.689 31.8743 123.992 32.1337 124.234 32.4706C124.476 32.803 124.657 33.1993 124.776 33.6594C124.899 34.1195 124.962 34.6276 124.962 35.1836ZM123.315 35.3291L123.315 35.1856C123.314 34.8529 123.287 34.5408 123.232 34.2492C123.177 33.953 123.085 33.6934 122.957 33.4702C122.834 33.247 122.665 33.0718 122.451 32.9444C122.241 32.8125 121.979 32.7468 121.664 32.7472C121.373 32.7475 121.122 32.7979 120.913 32.8985C120.703 32.999 120.528 33.1359 120.387 33.3093C120.246 33.4826 120.134 33.6833 120.053 33.9112C119.975 34.1392 119.923 34.3853 119.896 34.6497L119.898 35.887C119.939 36.2287 120.026 36.5431 120.159 36.83C120.296 37.1124 120.487 37.3401 120.734 37.5129C120.98 37.6813 121.297 37.7652 121.684 37.7647C121.99 37.7643 122.247 37.7025 122.456 37.5792C122.666 37.4559 122.832 37.2848 122.955 37.0659C123.082 36.8424 123.173 36.5826 123.227 36.2863C123.286 35.99 123.315 35.6709 123.315 35.3291Z" fill="#7692C9" fill-opacity="0.5"/>
<path d="M29.9033 82H27.7773L27.791 80.6396H29.9033C30.5186 80.6396 31.0335 80.5052 31.4482 80.2363C31.8675 79.9674 32.182 79.5824 32.3916 79.0811C32.6058 78.5798 32.7129 77.9827 32.7129 77.29V76.75C32.7129 76.2122 32.6514 75.736 32.5283 75.3213C32.4098 74.9066 32.2321 74.5579 31.9951 74.2754C31.7627 73.9928 31.4756 73.7786 31.1338 73.6328C30.7965 73.487 30.4069 73.4141 29.9648 73.4141H27.7363V72.0469H29.9648C30.6257 72.0469 31.2295 72.1585 31.7764 72.3818C32.3232 72.6006 32.7949 72.9173 33.1914 73.332C33.5924 73.7467 33.9001 74.2435 34.1143 74.8223C34.3285 75.401 34.4355 76.0482 34.4355 76.7637V77.29C34.4355 78.0055 34.3285 78.6527 34.1143 79.2314C33.9001 79.8102 33.5924 80.307 33.1914 80.7217C32.7904 81.1318 32.3118 81.4486 31.7559 81.6719C31.2044 81.8906 30.5869 82 29.9033 82ZM28.7275 72.0469V82H27.0117V72.0469H28.7275ZM37.7578 74.6035V82H36.1035V74.6035H37.7578ZM35.9941 72.6621C35.9941 72.4115 36.0762 72.2041 36.2402 72.04C36.4089 71.8714 36.6413 71.7871 36.9375 71.7871C37.2292 71.7871 37.4593 71.8714 37.6279 72.04C37.7965 72.2041 37.8809 72.4115 37.8809 72.6621C37.8809 72.9082 37.7965 73.1133 37.6279 73.2773C37.4593 73.4414 37.2292 73.5234 36.9375 73.5234C36.6413 73.5234 36.4089 73.4414 36.2402 73.2773C36.0762 73.1133 35.9941 72.9082 35.9941 72.6621ZM43.7119 79.9971C43.7119 79.833 43.6709 79.6849 43.5889 79.5527C43.5068 79.416 43.3496 79.293 43.1172 79.1836C42.8893 79.0742 42.5521 78.974 42.1055 78.8828C41.7135 78.7962 41.3535 78.6937 41.0254 78.5752C40.7018 78.4521 40.4238 78.304 40.1914 78.1309C39.959 77.9577 39.779 77.7526 39.6514 77.5156C39.5238 77.2786 39.46 77.0052 39.46 76.6953C39.46 76.3945 39.526 76.1097 39.6582 75.8408C39.7904 75.5719 39.9795 75.335 40.2256 75.1299C40.4717 74.9248 40.7702 74.763 41.1211 74.6445C41.4766 74.526 41.873 74.4668 42.3105 74.4668C42.9303 74.4668 43.4613 74.5716 43.9033 74.7812C44.3499 74.9863 44.6917 75.2666 44.9287 75.6221C45.1657 75.973 45.2842 76.3695 45.2842 76.8115H43.6367C43.6367 76.6156 43.5866 76.4333 43.4863 76.2646C43.3906 76.0915 43.2448 75.9525 43.0488 75.8477C42.8529 75.7383 42.6068 75.6836 42.3105 75.6836C42.028 75.6836 41.7933 75.7292 41.6064 75.8203C41.4242 75.9069 41.2874 76.0208 41.1963 76.1621C41.1097 76.3034 41.0664 76.4583 41.0664 76.627C41.0664 76.75 41.0892 76.8617 41.1348 76.9619C41.1849 77.0576 41.2669 77.1465 41.3809 77.2285C41.4948 77.306 41.6497 77.3789 41.8457 77.4473C42.0462 77.5156 42.2969 77.5817 42.5977 77.6455C43.1628 77.764 43.6481 77.9167 44.0537 78.1035C44.4639 78.2858 44.7783 78.5228 44.9971 78.8145C45.2158 79.1016 45.3252 79.4661 45.3252 79.9082C45.3252 80.2363 45.2546 80.5371 45.1133 80.8105C44.9766 81.0794 44.776 81.3141 44.5117 81.5146C44.2474 81.7106 43.9307 81.8633 43.5615 81.9727C43.1969 82.082 42.7868 82.1367 42.3311 82.1367C41.6611 82.1367 41.0938 82.0182 40.6289 81.7812C40.1641 81.5397 39.8109 81.2321 39.5693 80.8584C39.3324 80.4801 39.2139 80.0882 39.2139 79.6826H40.8066C40.8249 79.988 40.9092 80.2318 41.0596 80.4141C41.2145 80.5918 41.4059 80.7217 41.6338 80.8037C41.8662 80.8812 42.1055 80.9199 42.3516 80.9199C42.6478 80.9199 42.8962 80.8812 43.0967 80.8037C43.2972 80.7217 43.4499 80.6123 43.5547 80.4756C43.6595 80.3343 43.7119 80.1748 43.7119 79.9971ZM49.7891 80.8242C50.0579 80.8242 50.2995 80.7718 50.5137 80.667C50.7324 80.5576 50.9079 80.4072 51.04 80.2158C51.1768 80.0244 51.252 79.8034 51.2656 79.5527H52.8174C52.8083 80.0312 52.667 80.4665 52.3936 80.8584C52.1201 81.2503 51.7578 81.5625 51.3066 81.7949C50.8555 82.0228 50.3564 82.1367 49.8096 82.1367C49.2445 82.1367 48.7523 82.041 48.333 81.8496C47.9137 81.6536 47.5651 81.3848 47.2871 81.043C47.0091 80.7012 46.7995 80.307 46.6582 79.8604C46.5215 79.4137 46.4531 78.9352 46.4531 78.4248V78.1855C46.4531 77.6751 46.5215 77.1966 46.6582 76.75C46.7995 76.2988 47.0091 75.9023 47.2871 75.5605C47.5651 75.2188 47.9137 74.9521 48.333 74.7607C48.7523 74.5648 49.2422 74.4668 49.8027 74.4668C50.3952 74.4668 50.9147 74.5853 51.3613 74.8223C51.8079 75.0547 52.1589 75.3805 52.4141 75.7998C52.6738 76.2145 52.8083 76.6976 52.8174 77.249H51.2656C51.252 76.9756 51.1836 76.7295 51.0605 76.5107C50.9421 76.2874 50.7734 76.1097 50.5547 75.9775C50.3405 75.8454 50.083 75.7793 49.7822 75.7793C49.4495 75.7793 49.1738 75.8477 48.9551 75.9844C48.7363 76.1165 48.5654 76.2988 48.4424 76.5312C48.3193 76.7591 48.2305 77.0166 48.1758 77.3037C48.1257 77.5863 48.1006 77.8802 48.1006 78.1855V78.4248C48.1006 78.7301 48.1257 79.0264 48.1758 79.3135C48.2259 79.6006 48.3125 79.8581 48.4355 80.0859C48.5632 80.3092 48.7363 80.4893 48.9551 80.626C49.1738 80.7581 49.4518 80.8242 49.7891 80.8242ZM58.8193 74.6035H60.3164V81.7949C60.3164 82.4603 60.1751 83.0254 59.8926 83.4902C59.61 83.9551 59.2158 84.3083 58.71 84.5498C58.2041 84.7959 57.6185 84.9189 56.9531 84.9189C56.6706 84.9189 56.3561 84.8779 56.0098 84.7959C55.668 84.7139 55.3353 84.5817 55.0117 84.3994C54.6927 84.2217 54.4261 83.987 54.2119 83.6953L54.9844 82.7246C55.2487 83.0391 55.5404 83.2692 55.8594 83.415C56.1784 83.5609 56.5133 83.6338 56.8643 83.6338C57.2425 83.6338 57.5638 83.5632 57.8281 83.4219C58.097 83.2852 58.3044 83.0824 58.4502 82.8135C58.596 82.5446 58.6689 82.2165 58.6689 81.8291V76.2783L58.8193 74.6035ZM53.7949 78.3838V78.2402C53.7949 77.6797 53.8633 77.1693 54 76.709C54.1367 76.2441 54.3327 75.8454 54.5879 75.5127C54.8431 75.1755 55.153 74.918 55.5176 74.7402C55.8822 74.5579 56.2946 74.4668 56.7549 74.4668C57.2334 74.4668 57.6413 74.5534 57.9785 74.7266C58.3203 74.8997 58.6051 75.1481 58.833 75.4717C59.0609 75.7907 59.2386 76.1735 59.3662 76.6201C59.4984 77.0622 59.5964 77.5544 59.6602 78.0967V78.5547C59.6009 79.0833 59.5007 79.5664 59.3594 80.0039C59.2181 80.4414 59.0312 80.8197 58.7988 81.1387C58.5664 81.4577 58.2793 81.7038 57.9375 81.877C57.6003 82.0501 57.2015 82.1367 56.7412 82.1367C56.29 82.1367 55.8822 82.0433 55.5176 81.8564C55.1576 81.6696 54.8477 81.4076 54.5879 81.0703C54.3327 80.7331 54.1367 80.3366 54 79.8809C53.8633 79.4206 53.7949 78.9215 53.7949 78.3838ZM55.4424 78.2402V78.3838C55.4424 78.721 55.4743 79.0355 55.5381 79.3271C55.6064 79.6188 55.709 79.8763 55.8457 80.0996C55.987 80.3184 56.1647 80.4915 56.3789 80.6191C56.5977 80.7422 56.8551 80.8037 57.1514 80.8037C57.5387 80.8037 57.8555 80.7217 58.1016 80.5576C58.3522 80.3936 58.5436 80.1725 58.6758 79.8945C58.8125 79.612 58.9082 79.2975 58.9629 78.9512V77.7139C58.9355 77.445 58.8786 77.1943 58.792 76.9619C58.71 76.7295 58.5983 76.5267 58.457 76.3535C58.3158 76.1758 58.138 76.0391 57.9238 75.9434C57.7096 75.8431 57.4567 75.793 57.165 75.793C56.8688 75.793 56.6113 75.8568 56.3926 75.9844C56.1738 76.112 55.9938 76.2874 55.8525 76.5107C55.7158 76.734 55.6133 76.9938 55.5449 77.29C55.4766 77.5863 55.4424 77.903 55.4424 78.2402ZM61.7109 78.3838V78.2266C61.7109 77.6934 61.7884 77.1989 61.9434 76.7432C62.0983 76.2829 62.3216 75.8841 62.6133 75.5469C62.9095 75.2051 63.2695 74.9408 63.6934 74.7539C64.1217 74.5625 64.6048 74.4668 65.1426 74.4668C65.6849 74.4668 66.168 74.5625 66.5918 74.7539C67.0202 74.9408 67.3825 75.2051 67.6787 75.5469C67.9749 75.8841 68.2005 76.2829 68.3555 76.7432C68.5104 77.1989 68.5879 77.6934 68.5879 78.2266V78.3838C68.5879 78.917 68.5104 79.4115 68.3555 79.8672C68.2005 80.3229 67.9749 80.7217 67.6787 81.0635C67.3825 81.4007 67.0225 81.665 66.5986 81.8564C66.1748 82.0433 65.694 82.1367 65.1562 82.1367C64.6139 82.1367 64.1286 82.0433 63.7002 81.8564C63.2764 81.665 62.9163 81.4007 62.6201 81.0635C62.3239 80.7217 62.0983 80.3229 61.9434 79.8672C61.7884 79.4115 61.7109 78.917 61.7109 78.3838ZM63.3584 78.2266V78.3838C63.3584 78.7165 63.3926 79.0309 63.4609 79.3271C63.5293 79.6234 63.6364 79.8831 63.7822 80.1064C63.9281 80.3298 64.1149 80.5052 64.3428 80.6328C64.5706 80.7604 64.8418 80.8242 65.1562 80.8242C65.4616 80.8242 65.7259 80.7604 65.9492 80.6328C66.1771 80.5052 66.3639 80.3298 66.5098 80.1064C66.6556 79.8831 66.7627 79.6234 66.8311 79.3271C66.904 79.0309 66.9404 78.7165 66.9404 78.3838V78.2266C66.9404 77.8984 66.904 77.5885 66.8311 77.2969C66.7627 77.0007 66.6533 76.7386 66.5029 76.5107C66.3571 76.2829 66.1702 76.1051 65.9424 75.9775C65.7191 75.8454 65.4525 75.7793 65.1426 75.7793C64.8327 75.7793 64.5638 75.8454 64.3359 75.9775C64.1126 76.1051 63.9281 76.2829 63.7822 76.5107C63.6364 76.7386 63.5293 77.0007 63.4609 77.2969C63.3926 77.5885 63.3584 77.8984 63.3584 78.2266ZM71.7324 71.5V82H70.0781V71.5H71.7324ZM75.7656 82H74.1182V73.8926C74.1182 73.3411 74.2207 72.8786 74.4258 72.5049C74.6354 72.1266 74.9339 71.8418 75.3213 71.6504C75.7087 71.4544 76.1667 71.3564 76.6953 71.3564C76.8594 71.3564 77.0212 71.3678 77.1807 71.3906C77.3402 71.4089 77.4951 71.4385 77.6455 71.4795L77.6045 72.751C77.5133 72.7282 77.4131 72.7122 77.3037 72.7031C77.1989 72.694 77.085 72.6895 76.9619 72.6895C76.7113 72.6895 76.4948 72.7373 76.3125 72.833C76.1348 72.9242 75.998 73.0586 75.9023 73.2363C75.8112 73.4141 75.7656 73.6328 75.7656 73.8926V82ZM77.29 74.6035V75.8066H72.9834V74.6035H77.29ZM84.9941 80.8242C85.263 80.8242 85.5046 80.7718 85.7188 80.667C85.9375 80.5576 86.113 80.4072 86.2451 80.2158C86.3818 80.0244 86.457 79.8034 86.4707 79.5527H88.0225C88.0133 80.0312 87.8721 80.4665 87.5986 80.8584C87.3252 81.2503 86.9629 81.5625 86.5117 81.7949C86.0605 82.0228 85.5615 82.1367 85.0146 82.1367C84.4495 82.1367 83.9574 82.041 83.5381 81.8496C83.1188 81.6536 82.7702 81.3848 82.4922 81.043C82.2142 80.7012 82.0046 80.307 81.8633 79.8604C81.7266 79.4137 81.6582 78.9352 81.6582 78.4248V78.1855C81.6582 77.6751 81.7266 77.1966 81.8633 76.75C82.0046 76.2988 82.2142 75.9023 82.4922 75.5605C82.7702 75.2188 83.1188 74.9521 83.5381 74.7607C83.9574 74.5648 84.4473 74.4668 85.0078 74.4668C85.6003 74.4668 86.1198 74.5853 86.5664 74.8223C87.013 75.0547 87.3639 75.3805 87.6191 75.7998C87.8789 76.2145 88.0133 76.6976 88.0225 77.249H86.4707C86.457 76.9756 86.3887 76.7295 86.2656 76.5107C86.1471 76.2874 85.9785 76.1097 85.7598 75.9775C85.5456 75.8454 85.2881 75.7793 84.9873 75.7793C84.6546 75.7793 84.3789 75.8477 84.1602 75.9844C83.9414 76.1165 83.7705 76.2988 83.6475 76.5312C83.5244 76.7591 83.4355 77.0166 83.3809 77.3037C83.3307 77.5863 83.3057 77.8802 83.3057 78.1855V78.4248C83.3057 78.7301 83.3307 79.0264 83.3809 79.3135C83.431 79.6006 83.5176 79.8581 83.6406 80.0859C83.7682 80.3092 83.9414 80.4893 84.1602 80.626C84.3789 80.7581 84.6569 80.8242 84.9941 80.8242ZM91.0508 71.5V82H89.3965V71.5H91.0508ZM97.3057 80.2568V74.6035H98.96V82H97.4014L97.3057 80.2568ZM97.5381 78.7188L98.0918 78.7051C98.0918 79.2018 98.0371 79.6598 97.9277 80.0791C97.8184 80.4938 97.6497 80.8561 97.4219 81.166C97.194 81.4714 96.9023 81.7106 96.5469 81.8838C96.1914 82.0524 95.7653 82.1367 95.2686 82.1367C94.9085 82.1367 94.5781 82.0843 94.2773 81.9795C93.9766 81.8747 93.7168 81.7129 93.498 81.4941C93.2839 81.2754 93.1175 80.9906 92.999 80.6396C92.8805 80.2887 92.8213 79.8695 92.8213 79.3818V74.6035H94.4688V79.3955C94.4688 79.6644 94.5007 79.89 94.5645 80.0723C94.6283 80.25 94.7148 80.3936 94.8242 80.5029C94.9336 80.6123 95.0612 80.6898 95.207 80.7354C95.3529 80.7809 95.5078 80.8037 95.6719 80.8037C96.1413 80.8037 96.5104 80.7126 96.7793 80.5303C97.0527 80.3434 97.2464 80.0928 97.3604 79.7783C97.4788 79.4639 97.5381 79.1107 97.5381 78.7188ZM100.655 71.5H102.303V80.4209L102.146 82H100.655V71.5ZM107.129 78.2334V78.377C107.129 78.9238 107.067 79.4274 106.944 79.8877C106.826 80.3434 106.644 80.7399 106.397 81.0771C106.156 81.4144 105.855 81.6764 105.495 81.8633C105.14 82.0456 104.727 82.1367 104.258 82.1367C103.798 82.1367 103.396 82.0501 103.055 81.877C102.713 81.7038 102.426 81.4577 102.193 81.1387C101.965 80.8197 101.781 80.4391 101.64 79.9971C101.498 79.555 101.398 79.0674 101.339 78.5342V78.0762C101.398 77.5384 101.498 77.0508 101.64 76.6133C101.781 76.1712 101.965 75.7907 102.193 75.4717C102.426 75.1481 102.711 74.8997 103.048 74.7266C103.39 74.5534 103.788 74.4668 104.244 74.4668C104.718 74.4668 105.135 74.5579 105.495 74.7402C105.86 74.9225 106.163 75.1823 106.404 75.5195C106.646 75.8522 106.826 76.2487 106.944 76.709C107.067 77.1693 107.129 77.6774 107.129 78.2334ZM105.481 78.377V78.2334C105.481 77.9007 105.454 77.5885 105.399 77.2969C105.345 77.0007 105.254 76.7409 105.126 76.5176C105.003 76.2943 104.834 76.1188 104.62 75.9912C104.41 75.859 104.148 75.793 103.834 75.793C103.542 75.793 103.292 75.8431 103.082 75.9434C102.872 76.0436 102.697 76.1803 102.556 76.3535C102.414 76.5267 102.303 76.7272 102.221 76.9551C102.143 77.1829 102.091 77.429 102.063 77.6934V78.9307C102.104 79.2725 102.191 79.5869 102.323 79.874C102.46 80.1566 102.651 80.3844 102.897 80.5576C103.144 80.7262 103.46 80.8105 103.848 80.8105C104.153 80.8105 104.41 80.749 104.62 80.626C104.83 80.5029 104.996 80.332 105.119 80.1133C105.247 79.89 105.338 79.6302 105.393 79.334C105.452 79.0378 105.481 78.7188 105.481 78.377Z" fill="#7692C9" fill-opacity="0.5"/>
</g>
</g>
<defs>
<clipPath id="clip0_2882_3777">
<rect width="151" height="151" fill="white"/>
</clipPath>
</defs>
</svg>
