<svg width="253" height="228" viewBox="0 0 253 228" fill="none" xmlns="http://www.w3.org/2000/svg">
<g clip-path="url(#clip0_129_4713)">
<path d="M109.343 65.0462C113.608 61.3735 127.857 56.7342 133.77 56.6376C147.438 56.251 158.489 66.9792 158.489 80.6071C158.489 104.673 133.092 128.353 126.597 151.549L122.72 152.999" fill="#1B1B1B"/>
<path d="M122.719 152.999C113.704 128.933 98.001 111.052 98.001 86.1162C98.001 72.4884 109.052 61.1802 122.719 60.7936C136.387 60.407 147.438 71.1352 147.438 84.7631C147.438 108.829 129.311 129.899 122.719 152.999Z" fill="white"/>
<path d="M122.72 152.999C122.817 152.999 123.108 152.419 123.495 151.162C123.689 150.486 123.98 149.713 124.368 148.843C124.755 147.973 125.143 146.91 125.628 145.75C127.567 141.014 130.668 134.442 134.934 126.226C136.969 122.167 139.296 117.624 141.525 112.599C143.658 107.573 145.79 102.064 147.147 95.9745C147.341 95.2013 147.535 94.4281 147.632 93.6549C147.729 92.8817 147.826 92.1085 147.923 91.2386C148.02 90.4654 148.214 89.6922 148.214 88.8224C148.214 88.0492 148.311 87.1793 148.311 86.4061C148.504 83.1199 148.117 79.6405 146.857 76.2577C145.693 72.9716 143.755 69.8787 141.137 67.2692C138.617 64.6596 135.321 62.6299 131.832 61.3734C128.924 60.4069 125.919 59.827 123.011 59.9237C120.006 60.0203 117.098 60.6002 114.19 61.6634C107.113 64.3696 101.588 69.9754 99.0677 76.5477C97.8075 79.8338 97.129 83.2166 97.2259 86.5994C97.3229 88.2424 97.3229 89.8855 97.5167 91.4319C97.7106 92.9784 97.8075 94.6214 98.0983 96.1678C99.1646 102.354 101.006 107.959 103.139 112.985C105.272 118.011 107.501 122.554 109.634 126.71C113.899 134.828 117.291 141.401 119.424 146.04C120.006 147.2 120.393 148.166 120.878 149.133C121.266 150.003 121.557 150.776 121.847 151.356C122.332 152.419 122.72 152.999 122.72 152.999C122.817 152.999 122.623 152.322 122.138 151.066C121.944 150.389 121.654 149.616 121.266 148.746C120.878 147.876 120.49 146.813 120.006 145.653C118.067 140.917 114.771 134.248 110.7 126.033C108.664 121.877 106.435 117.431 104.399 112.405C102.363 107.379 100.619 101.87 99.6493 95.8779C99.3585 94.4281 99.2616 92.8817 99.0677 91.3353C98.9708 89.7889 98.9708 88.2424 98.8738 86.5994C98.8738 83.4099 99.4554 80.2204 100.619 77.2242C103.042 71.1352 108.18 65.916 114.771 63.4031C117.388 62.4366 120.199 61.8567 122.914 61.8567C125.725 61.76 128.439 62.2433 131.153 63.2098C134.449 64.3696 137.454 66.206 139.78 68.6223C142.204 71.0386 143.949 73.9381 145.112 76.9343C146.275 80.0271 146.663 83.2166 146.469 86.4061C146.469 87.1793 146.372 87.9525 146.372 88.8224C146.372 89.5956 146.178 90.3688 146.081 91.142C145.984 91.9152 145.887 92.6884 145.79 93.4616C145.693 94.2348 145.499 95.008 145.306 95.6846C144.045 101.677 142.107 107.089 139.974 112.115C137.842 117.141 135.612 121.587 133.577 125.743C129.505 133.958 126.5 140.724 124.755 145.557C124.368 146.716 123.98 147.876 123.689 148.746C123.398 149.713 123.204 150.486 123.011 151.162C122.817 152.322 122.72 152.999 122.72 152.999Z" fill="#1B1B1B"/>
<path d="M114.965 80.607C112.929 82.9267 111.669 85.9228 111.669 89.0157C111.669 95.1047 116.613 99.9373 122.816 99.7439C128.923 99.5506 133.964 94.5248 133.964 88.3391C133.964 82.2501 129.02 76.5477 122.816 76.741C121.362 76.741 119.908 77.1276 118.648 77.8041" fill="white"/>
<path d="M118.552 77.9008C118.649 78.0941 119.424 77.7075 120.878 77.5142C122.332 77.3209 124.465 77.2243 126.791 78.3841C129.118 79.4472 131.444 81.8635 132.413 85.1497C132.995 86.7927 133.092 88.6291 132.704 90.4655C132.317 92.3018 131.444 94.0416 130.087 95.4913C129.602 96.0712 128.924 96.5545 128.342 97.0377C127.664 97.4244 126.985 97.9076 126.21 98.1976C124.368 98.9708 122.429 99.0674 120.587 98.7775C118.746 98.3909 117.098 97.6177 115.838 96.5545C114.577 95.4913 113.608 94.1382 113.026 92.6884C112.445 91.3353 112.251 89.8856 112.251 88.6291C112.251 86.0195 113.123 83.9898 113.802 82.7334C114.481 81.4769 114.965 80.8004 114.868 80.6071C114.771 80.5104 114.093 80.9937 113.123 82.2501C112.251 83.5066 111.088 85.6329 110.894 88.5324C110.797 89.9822 110.991 91.6253 111.572 93.2684C112.154 94.9114 113.22 96.5545 114.674 97.811C116.128 99.1641 118.067 100.131 120.2 100.517C122.332 100.904 124.659 100.71 126.888 99.8406C127.761 99.5507 128.536 99.0674 129.312 98.4875C130.087 97.9076 130.766 97.3277 131.444 96.6511C132.995 94.9114 134.061 92.7851 134.449 90.6588C134.837 88.5325 134.643 86.4061 133.964 84.5698C132.704 80.8004 129.99 78.1908 127.276 77.1276C124.562 75.9678 122.041 76.2578 120.587 76.741C119.23 77.2243 118.552 77.7075 118.552 77.9008Z" fill="#1B1B1B"/>
<path d="M126.759 99.1461C132.248 97.1702 135.15 91.2948 133.241 86.0229C131.332 80.751 125.335 78.0791 119.846 80.055C114.358 82.0309 111.456 87.9064 113.365 93.1782C115.274 98.4501 121.271 101.122 126.759 99.1461Z" fill="#D3D3D3"/>
<path d="M126.791 85.053C125.725 84.3764 124.077 86.2128 122.138 88.6291L121.847 89.0157L121.556 89.4023C119.715 91.8186 118.261 93.7516 119.133 94.7181C119.908 95.588 122.235 94.3315 124.464 91.7219L124.755 91.3353L125.046 90.8521C126.985 88.1458 127.76 85.5362 126.791 85.053Z" fill="#1B1B1B"/>
<path d="M127.469 93.5583C128.245 92.5918 126.694 90.6588 124.271 88.6291C124.174 88.5325 123.98 88.4358 123.883 88.3392C123.786 88.2425 123.689 88.1459 123.495 88.0492C120.975 86.1162 118.745 85.053 117.97 86.0196C117.194 86.8894 118.745 88.9191 121.169 90.9488C121.266 91.0454 121.459 91.1421 121.556 91.2387C121.653 91.3354 121.75 91.432 121.944 91.5287C124.464 93.365 126.791 94.4282 127.469 93.5583Z" fill="#1B1B1B"/>
<path d="M213.886 117.86C214.176 118.054 214.467 118.054 214.855 117.957C215.243 117.86 215.727 117.764 216.212 117.86C216.6 117.957 216.891 118.15 216.987 118.44C216.987 118.537 216.987 118.634 216.987 118.924C216.891 119.214 216.794 119.6 216.6 119.987C216.503 120.18 216.406 120.277 216.309 120.47C216.212 120.663 216.115 120.76 216.018 120.953L215.921 121.147L215.824 121.243L215.727 121.147C215.63 120.953 215.436 120.857 215.34 120.663C215.146 120.373 214.952 120.18 214.855 119.987C214.564 119.6 214.467 119.214 214.467 118.827C214.176 118.44 214.079 118.054 213.886 117.86C213.692 117.667 213.304 117.667 212.819 118.054C212.335 118.44 211.85 119.407 212.044 120.47C212.044 121.05 212.238 121.63 212.528 122.21C212.722 122.5 212.819 122.693 212.916 122.983L213.013 123.176L213.207 123.466C213.304 123.659 213.498 123.853 213.692 124.046C214.37 124.819 215.34 125.303 216.406 125.109C216.891 125.013 217.375 124.819 217.86 124.433C218.054 124.239 218.345 124.046 218.538 123.853L218.829 123.563L219.023 123.37C219.217 123.176 219.411 122.886 219.605 122.596C219.799 122.306 219.895 122.016 220.089 121.726C220.477 120.953 220.671 120.18 220.768 119.31C220.865 118.44 220.574 117.377 220.089 116.604C219.023 115.058 217.084 114.768 216.018 115.154C214.855 115.541 214.37 116.217 214.079 116.701C213.595 117.28 213.595 117.667 213.886 117.86Z" fill="#1B1B1B"/>
<path d="M40.8855 63.8604C41.1763 64.0537 41.4671 64.0537 41.8549 63.957C42.2426 63.8604 42.7273 63.7637 43.212 63.8604C43.5997 63.957 43.8905 64.1503 43.9874 64.4403C43.9874 64.537 43.9874 64.6336 43.9874 64.9236C43.8905 65.2135 43.7936 65.6001 43.5997 65.9867C43.5028 66.18 43.4058 66.2767 43.3089 66.47C43.212 66.6633 43.115 66.7599 43.0181 66.9532L42.9212 67.1465L42.8242 67.2432L42.7273 67.1465C42.6304 66.9532 42.4365 66.8566 42.3396 66.6633C42.1457 66.3733 41.9518 66.18 41.8549 65.9867C41.5641 65.6001 41.4671 65.2135 41.4671 64.8269C41.1763 64.4403 41.1763 64.0537 40.8855 63.8604C40.6917 63.6671 40.3039 63.6671 39.8193 64.0537C39.3346 64.4403 38.8499 65.4068 39.0438 66.47C39.0438 67.0499 39.2376 67.6298 39.5284 68.2097C39.7223 68.4997 39.8193 68.693 39.9162 68.9829L40.0131 69.1762L40.207 69.4662C40.3039 69.6595 40.4978 69.8528 40.6917 70.0461C41.3702 70.8193 42.3396 71.3025 43.4058 71.1092C43.8905 71.0126 44.3752 70.8193 44.8599 70.4327C45.0537 70.2394 45.3445 70.0461 45.5384 69.8528L45.8292 69.5628L46.0231 69.3695C46.2169 69.1762 46.4108 68.8863 46.6047 68.5963C46.7986 68.3064 46.8955 68.0164 47.0894 67.7264C47.4771 66.9532 47.671 66.18 47.7679 65.3102C47.8648 64.4403 47.574 63.3771 47.0894 62.6039C46.0231 61.0575 44.0844 60.7676 43.0181 61.1542C41.8549 61.5408 41.3702 62.2173 41.0794 62.7006C40.5947 63.2805 40.6917 63.6671 40.8855 63.8604Z" fill="#A8A8A8"/>
<path d="M196.003 88.1459C196.294 88.3392 196.584 88.3392 196.972 88.2426C197.36 88.1459 197.844 88.0493 198.329 88.1459C198.717 88.2426 199.008 88.4359 199.105 88.7258C199.105 88.8225 199.105 88.9191 199.105 89.2091C199.008 89.499 198.911 89.8856 198.717 90.2722C198.62 90.4656 198.523 90.5622 198.426 90.7555C198.329 90.9488 198.232 91.0455 198.135 91.2388L198.038 91.4321L197.941 91.5287L197.844 91.4321C197.748 91.2388 197.554 91.1421 197.457 90.9488C197.263 90.6589 197.069 90.4656 196.972 90.2722C196.681 89.8856 196.584 89.499 196.584 89.1124C196.294 88.7258 196.294 88.3392 196.003 88.1459C195.809 87.9526 195.421 87.9526 194.936 88.3392C194.452 88.7258 193.967 89.6923 194.161 90.7555C194.161 91.3354 194.355 91.9153 194.646 92.4952C194.84 92.7852 194.936 92.9785 195.033 93.2684L195.13 93.4617L195.324 93.7517C195.421 93.945 195.615 94.1383 195.809 94.3316C196.487 95.1048 197.457 95.5881 198.523 95.3948C199.008 95.2981 199.492 95.1048 199.977 94.7182C200.171 94.5249 200.462 94.3316 200.656 94.1383L200.946 93.8483L201.14 93.655C201.334 93.4617 201.528 93.1718 201.722 92.8818C201.916 92.5919 202.013 92.3019 202.207 92.012C202.594 91.2388 202.788 90.4655 202.885 89.5957C202.982 88.7258 202.691 87.6627 202.207 86.8895C201.14 85.343 199.202 85.0531 198.135 85.4397C196.972 85.8263 196.487 86.5029 196.197 86.9861C195.712 87.566 195.809 87.9526 196.003 88.1459Z" fill="#A8A8A8"/>
<path d="M236.909 65.6262C236.036 64.7563 234.098 65.9161 231.965 67.9458C231.868 68.0425 231.771 68.1391 231.674 68.2358C231.577 68.3324 231.48 68.4291 231.383 68.5257C229.445 70.6521 228.185 72.4884 229.057 73.4549C229.833 74.2281 231.868 73.165 234.001 71.1353C234.098 71.0387 234.195 70.942 234.292 70.8454C234.388 70.7487 234.485 70.652 234.582 70.5554C236.618 68.4291 237.781 66.3994 236.909 65.6262Z" fill="#A8A8A8"/>
<path d="M121.653 115.015C120.49 114.532 119.811 114.822 119.327 115.595V115.692C119.327 115.692 119.327 115.788 119.23 115.788C118.939 116.561 119.23 117.335 120.393 117.818C121.459 118.301 122.235 117.914 122.72 117.238V117.141C122.72 117.141 122.72 117.045 122.816 117.045C123.01 116.271 122.72 115.498 121.653 115.015Z" fill="#A8A8A8"/>
<path d="M58.936 105.64C58.0636 106.51 58.0636 107.283 58.5482 107.863L58.6452 107.959L58.7421 108.056C59.3237 108.539 60.0992 108.539 60.9716 107.669C61.7471 106.896 61.844 106.026 61.3593 105.446L61.2624 105.35L61.1655 105.253C60.5839 104.77 59.8084 104.77 58.936 105.64Z" fill="#A8A8A8"/>
<path d="M70.1813 10.5351C69.5997 10.5351 69.115 11.0183 68.9212 11.7916C68.7273 12.5648 68.8242 13.6279 69.212 14.7877L69.3089 15.0777L69.4058 15.3676C69.8905 16.4308 70.666 17.3007 71.3445 17.7839C72.0231 18.2672 72.6047 18.2672 73.0894 17.8806C73.9618 17.1074 73.4771 15.6576 72.7985 13.9179L72.7016 13.6279V13.5313C71.9261 11.8882 71.3445 10.4384 70.1813 10.5351Z" fill="#A8A8A8"/>
<path d="M136.873 28.1256C136 27.2557 134.837 27.6423 133.868 28.5122C133.771 28.5122 133.771 28.6088 133.771 28.7055C133.674 28.7055 133.674 28.8021 133.577 28.8021C132.704 29.7686 132.317 30.9285 133.189 31.7983C133.965 32.5715 135.128 32.2816 136.194 31.4117C136.194 31.4117 136.291 31.3151 136.291 31.2184C136.388 31.2184 136.388 31.1218 136.485 31.1218C137.357 30.0586 137.745 28.8988 136.873 28.1256Z" fill="#A8A8A8"/>
<path d="M252.515 110.956C251.643 110.086 250.577 110.376 249.704 111.149L249.607 111.245L249.51 111.342C248.735 112.212 248.444 113.275 249.316 114.145C250.092 114.918 251.255 114.725 252.127 113.952L252.224 113.855L252.321 113.758C253.097 112.792 253.291 111.729 252.515 110.956Z" fill="#A8A8A8"/>
<path d="M175.549 27.6422C174.677 26.7724 174.192 26.4824 173.998 26.4824C173.901 26.6757 174.192 27.0623 175.161 28.0288C175.937 28.802 176.518 29.1887 176.712 29.1887C176.712 28.9954 176.421 28.5121 175.549 27.6422Z" fill="#A8A8A8"/>
<path d="M191.543 0.386662C190.671 -0.483198 188.926 0.483313 187.181 2.12638C187.084 2.22303 186.987 2.31968 186.89 2.41634C186.793 2.51299 186.697 2.60964 186.6 2.70629C184.952 4.44601 183.982 6.08908 184.855 7.05559C185.63 7.8288 187.375 6.95894 189.217 5.31587C189.314 5.21922 189.411 5.12257 189.508 5.02592C189.605 4.92927 189.702 4.83261 189.798 4.73596C191.446 2.89959 192.319 1.15987 191.543 0.386662Z" fill="#A8A8A8"/>
<path d="M107.113 133.089C107.113 132.895 105.465 133.185 102.46 133.765C100.909 134.055 99.0674 134.442 96.8379 134.925C94.7054 135.408 92.1851 135.891 89.3739 136.471C86.272 135.505 82.8793 134.442 79.0019 133.282C74.9306 132.025 70.3747 130.672 65.528 129.223C57.3854 137.245 47.7889 146.813 36.9322 157.445C25.7847 168.463 13.377 180.738 0 194.075C11.1475 199.875 22.7797 205.867 34.8966 212.149C52.5387 208.283 71.2471 204.224 90.731 199.971C94.0268 201.904 97.5165 203.934 101.006 205.964C106.919 209.346 112.638 212.729 118.454 216.015L126.403 220.655L138.229 215.919C148.601 211.763 158.682 207.703 168.57 203.837C187.084 210.409 204.726 216.692 221.399 222.588C216.068 192.046 211.415 164.79 207.441 141.98C195.227 138.308 184.37 135.118 174.967 132.315C168.473 133.862 162.657 135.215 157.616 136.375C155.193 136.955 152.866 137.535 150.831 138.018C148.795 138.501 147.05 138.984 145.402 139.371C143.948 138.888 142.591 138.501 141.428 138.211C140.265 137.921 139.198 137.631 138.423 137.341C136.775 136.955 136 136.761 135.903 136.858C135.903 136.955 136.678 137.341 138.229 137.921C139.005 138.211 139.974 138.598 141.137 139.081C142.3 139.564 143.754 140.047 145.305 140.627C148.698 139.951 152.963 139.081 158.004 138.114C162.851 137.148 168.57 135.891 174.87 134.635C183.595 137.341 193.579 140.531 204.92 144.107C208.313 164.887 212.384 189.629 216.94 217.368C201.625 211.859 185.339 206.06 168.376 199.971C158.101 204.031 147.535 208.283 136.678 212.536L126.597 216.595L120.199 212.922C114.383 209.54 108.664 206.253 102.751 202.774C98.8736 200.551 94.9962 198.231 91.2157 196.105C71.7318 200.454 52.9264 204.61 35.2843 208.476C24.9123 203.161 14.928 198.038 5.42835 193.206C17.5452 180.931 28.7897 169.623 38.7739 159.378C49.049 148.843 58.2579 139.564 66.0126 131.639C75.2215 134.152 82.9762 136.278 89.1801 138.018C92.0881 137.245 94.7054 136.568 96.9349 135.988C99.0674 135.408 101.006 134.925 102.46 134.442C105.562 133.668 107.113 133.185 107.113 133.089Z" fill="#1B1B1B"/>
<path d="M35.1877 210.313C36.254 211.086 47.4985 196.685 61.651 177.741C62.3295 176.775 63.105 175.808 63.7835 174.939C64.4621 173.972 65.1406 173.102 65.9161 172.136C79.9717 152.999 90.4406 138.114 89.3743 137.341C88.405 136.665 77.0636 150.969 62.9111 169.913C62.2326 170.879 61.4571 171.846 60.7786 172.716C60.1 173.682 59.4215 174.552 58.646 175.518C44.5904 194.655 34.2184 209.636 35.1877 210.313Z" fill="#1B1B1B"/>
<path d="M91.0221 198.038C92.1853 198.521 97.0321 187.407 102.751 172.812C103.042 172.039 103.333 171.362 103.624 170.589C103.914 169.913 104.205 169.14 104.496 168.366C110.118 153.675 113.996 142.27 112.736 141.884C111.669 141.497 106.726 152.516 101.006 167.11C100.716 167.883 100.425 168.56 100.134 169.333C99.8432 170.009 99.5524 170.783 99.2616 171.556C93.7363 186.247 89.9558 197.652 91.0221 198.038Z" fill="#1B1B1B"/>
<path d="M126.5 218.721C127.761 219.011 132.026 203.354 136.969 182.961C137.26 181.897 137.454 180.931 137.745 179.868C138.036 178.901 138.23 177.838 138.52 176.775C143.367 156.285 146.663 140.434 145.403 140.144C144.24 139.854 139.878 155.512 134.934 175.905C134.643 176.968 134.449 177.935 134.158 178.998C133.868 179.964 133.674 181.028 133.383 182.091C128.633 202.484 125.434 218.432 126.5 218.721Z" fill="#1B1B1B"/>
<path d="M17.4485 201.228L13.3772 205.867C8.23968 211.763 12.214 221.041 20.0657 221.331L211.706 228C220.818 228.29 224.986 216.692 217.716 211.279L219.17 220.075L168.473 202.001L126.5 218.721L91.0221 198.135L35.1876 210.409L17.4485 201.228Z" fill="#1B1B1B"/>
<path d="M7.3666 191.659C6.59112 190.693 5.81564 190.596 5.33096 190.983L5.23403 191.079L5.13709 191.176C4.65242 191.659 4.65242 192.432 5.52483 193.302C6.30031 194.172 7.07579 194.269 7.56047 193.979L7.6574 193.882L7.75433 193.786C8.14207 193.302 8.14207 192.529 7.3666 191.659Z" fill="#1B1B1B"/>
<path d="M15.5087 186.15C14.9271 184.99 13.7639 185.087 12.6007 185.763L12.4068 185.86L12.2129 185.957C11.1466 186.73 10.565 187.696 11.2436 188.663C11.9221 189.63 13.0853 189.63 14.1516 189.05L14.3455 188.953L14.5394 188.856C15.5087 188.18 16.0903 187.213 15.5087 186.15Z" fill="#1B1B1B"/>
<path d="M24.4276 182.187C24.0398 181.028 22.8766 180.931 21.6164 181.318L21.4226 181.414L21.2287 181.511C20.0655 182.091 19.29 182.961 19.8716 184.12C20.3563 185.184 21.5195 185.377 22.6827 184.99L22.8766 184.894L23.0705 184.797C24.1367 184.217 24.8153 183.251 24.4276 182.187Z" fill="#1B1B1B"/>
<path d="M33.8296 179.288C33.5388 178.031 32.4725 177.838 31.1155 178.128L30.9216 178.225H30.7277C29.4676 178.611 28.6921 179.385 29.0798 180.641C29.4676 181.704 30.5338 182.091 31.794 181.801L31.9879 181.704H32.1817C33.345 181.318 34.1204 180.448 33.8296 179.288Z" fill="#1B1B1B"/>
<path d="M43.4264 177.355C43.2326 176.098 42.1663 175.808 40.9061 175.905H40.7123H40.5184C39.2582 176.195 38.3858 176.872 38.5797 178.128C38.7736 179.288 39.8399 179.674 41.1 179.578H41.2939H41.4878C42.7479 179.288 43.6203 178.515 43.4264 177.355Z" fill="#1B1B1B"/>
<path d="M53.2172 176.195C53.1203 174.939 52.054 174.552 50.7938 174.552H50.6H50.4061C49.1459 174.745 48.1766 175.325 48.3705 176.582C48.4674 177.741 49.5337 178.225 50.7938 178.225H50.9877H51.1816C52.3448 178.031 53.3141 177.355 53.2172 176.195Z" fill="#1B1B1B"/>
<path d="M63.0072 175.808C63.0072 174.552 62.0378 174.069 60.6807 173.972H60.4868H60.293C59.0328 174.069 58.0635 174.649 58.0635 175.905C58.1604 177.065 59.1298 177.645 60.3899 177.741H60.5838H60.7777C62.0378 177.548 63.0072 176.968 63.0072 175.808Z" fill="#1B1B1B"/>
<path d="M72.7979 176.098C72.8949 174.842 71.9255 174.262 70.6654 174.165H70.4715H70.2776C69.0175 174.165 67.9512 174.649 67.9512 175.905C67.9512 177.065 68.8236 177.741 70.0837 177.838H70.2776H70.4715C71.7316 177.741 72.701 177.258 72.7979 176.098Z" fill="#1B1B1B"/>
<path d="M82.5885 177.162C82.7823 175.905 81.9099 175.229 80.6498 175.035H80.4559H80.262C79.0019 174.939 77.9356 175.325 77.7417 176.582C77.6448 177.741 78.5172 178.418 79.7774 178.708H79.9712H80.1651C81.3283 178.708 82.3946 178.321 82.5885 177.162Z" fill="#1B1B1B"/>
<path d="M92.1849 178.998C92.3788 177.741 91.6033 177.065 90.3432 176.775H90.1493H89.9554C88.6953 176.582 87.629 176.968 87.3382 178.128C87.1443 179.288 87.9198 180.061 89.1799 180.351H89.3738H89.5677C90.9248 180.544 91.9911 180.158 92.1849 178.998Z" fill="#1B1B1B"/>
<path d="M101.878 180.351C101.975 179.095 101.006 178.515 99.8427 178.225H99.6488H99.455C98.1948 178.128 97.2255 178.611 97.0316 179.868C96.8377 181.028 97.8071 181.704 99.0672 181.994H99.2611H99.455C100.812 181.994 101.781 181.511 101.878 180.351Z" fill="#1B1B1B"/>
<path d="M111.668 179.771C111.377 178.515 110.311 178.321 109.148 178.321H108.954H108.76C107.597 178.515 106.725 179.095 106.725 180.351C106.822 181.511 107.791 182.091 109.245 181.994H109.439H109.633C111.087 181.704 111.959 180.834 111.668 179.771Z" fill="#1B1B1B"/>
<path d="M120.489 175.615C119.714 174.649 118.744 174.745 117.678 175.228L117.484 175.325L117.29 175.422C116.321 176.098 115.642 176.872 116.224 178.031C116.709 179.094 117.872 179.191 119.132 178.611L119.326 178.515L119.52 178.418C120.683 177.741 121.168 176.582 120.489 175.615Z" fill="#1B1B1B"/>
<path d="M126.596 168.076C125.433 167.69 124.658 168.27 123.979 169.139L123.882 169.333L123.785 169.429C123.301 170.396 123.107 171.459 124.076 172.232C124.948 173.005 126.112 172.522 126.984 171.362L127.081 171.169L127.178 170.976C127.856 169.719 127.663 168.463 126.596 168.076Z" fill="#1B1B1B"/>
<path d="M126.112 158.701C125.627 159.088 125.433 159.571 125.336 159.958C125.239 160.344 125.239 160.827 125.336 161.214V161.311V161.407C125.627 162.374 126.112 163.147 127.372 163.244C128.535 163.244 129.214 162.181 128.923 160.538V160.441L128.826 160.248C128.535 159.474 128.051 158.894 127.566 158.605C127.081 158.315 126.597 158.315 126.112 158.701Z" fill="#1B1B1B"/>
<path d="M118.066 160.344C119.229 160.924 120.005 160.537 120.683 159.958L120.78 159.861L120.877 159.764C121.168 159.474 121.459 159.088 121.652 158.701C121.846 158.315 121.846 157.831 121.652 157.251C121.459 156.671 121.071 156.381 120.489 156.285C119.908 156.188 119.132 156.381 118.454 156.961C118.357 157.058 118.357 157.058 118.26 157.155L118.066 157.348C117.097 158.411 117.097 159.861 118.066 160.344Z" fill="#1B1B1B"/>
<path d="M120.005 169.236C120.877 168.366 120.586 167.4 120.102 166.433L120.005 166.337L119.908 166.24C119.326 165.467 118.648 164.79 117.387 165.08C116.806 165.273 116.515 165.563 116.321 166.143C116.224 166.723 116.321 167.4 116.709 168.076L116.806 168.27L116.903 168.463C117.969 169.719 119.229 170.009 120.005 169.236Z" fill="#1B1B1B"/>
<path d="M128.341 174.262C128.826 173.102 128.148 172.232 127.081 171.652L126.887 171.556L126.694 171.459C125.627 170.976 124.561 170.976 123.882 172.136C123.301 173.102 123.882 174.165 125.046 174.842C125.143 174.842 125.143 174.939 125.24 174.939L125.433 175.035C126.791 175.422 127.954 175.325 128.341 174.262Z" fill="#1B1B1B"/>
<path d="M137.938 175.905C137.841 174.649 136.872 174.262 135.806 174.069H135.612H135.418C134.255 174.069 133.285 174.359 132.995 175.615C132.801 176.775 133.673 177.548 135.127 177.741H135.321H135.515C136.969 177.741 138.035 177.065 137.938 175.905Z" fill="#1B1B1B"/>
<path d="M146.565 171.749C145.692 170.783 144.626 171.169 143.753 171.749L143.657 171.846L143.56 171.942C142.784 172.716 142.203 173.489 142.784 174.649C143.075 175.132 143.463 175.422 144.044 175.519C144.626 175.615 145.207 175.325 145.886 174.939L146.08 174.842L146.274 174.745C147.049 173.682 147.34 172.522 146.565 171.749Z" fill="#1B1B1B"/>
<path d="M154.708 166.53C154.514 165.273 153.254 164.984 151.8 165.467L151.606 165.563L151.412 165.66C150.734 166.047 150.249 166.53 150.055 167.013C149.861 167.496 149.861 167.98 150.249 168.56C150.637 169.043 151.024 169.236 151.509 169.333C151.994 169.429 152.478 169.236 152.963 169.14L153.06 169.043L153.254 168.946C154.126 168.366 154.902 167.69 154.708 166.53Z" fill="#1B1B1B"/>
<path d="M164.304 167.98C164.788 166.82 164.013 165.95 162.753 165.467L162.559 165.37L162.365 165.273C161.008 164.983 159.845 165.273 159.651 166.53C159.457 167.69 160.232 168.366 161.299 168.849H161.493L161.687 168.946C162.753 169.236 163.819 169.043 164.304 167.98Z" fill="#1B1B1B"/>
<path d="M172.834 172.812C173.513 171.749 172.931 170.783 171.962 170.009L171.768 169.913L171.574 169.816C170.411 169.236 169.247 169.139 168.666 170.203C168.084 171.169 168.569 172.232 169.635 172.909L169.829 173.005L170.023 173.102C170.992 173.779 172.155 173.779 172.834 172.812Z" fill="#1B1B1B"/>
<path d="M181.559 177.162C181.947 175.905 181.268 175.228 180.202 174.649L180.008 174.552L179.814 174.455C178.651 174.069 177.585 174.069 177.003 175.132C176.421 176.195 177.1 177.162 178.263 177.838L178.457 177.935L178.651 178.031C180.008 178.515 181.171 178.321 181.559 177.162Z" fill="#1B1B1B"/>
<path d="M191.155 176.968C190.477 175.905 189.604 175.808 188.635 175.905H188.441H188.247C187.181 176.195 186.309 176.678 186.309 177.935C186.309 179.094 187.375 179.771 188.926 179.578H189.12H189.314C190.089 179.384 190.671 178.998 190.961 178.515C191.349 178.031 191.349 177.451 191.155 176.968Z" fill="#1B1B1B"/>
<path d="M196.002 168.85C194.742 168.656 194.064 169.429 193.676 170.493V170.686L193.579 170.879C193.288 171.942 193.385 172.909 194.451 173.489C195.421 174.069 196.584 173.295 197.069 171.942L197.165 171.749L197.262 171.556C197.553 170.203 197.069 169.043 196.002 168.85Z" fill="#1B1B1B"/>
<path d="M196.971 159.088C195.711 158.991 195.129 159.958 194.936 161.214C194.936 161.311 194.936 161.311 194.936 161.407C194.936 161.504 194.936 161.504 194.936 161.601C194.936 162.857 195.323 163.92 196.583 164.017C197.747 164.114 198.425 163.147 198.619 161.891C198.619 161.794 198.619 161.794 198.619 161.697C198.619 161.601 198.619 161.601 198.619 161.504C198.716 160.248 198.134 159.184 196.971 159.088Z" fill="#1B1B1B"/>
<path d="M199.104 149.616C198.038 149.036 196.972 149.809 196.487 151.162L196.39 151.356L196.293 151.549C196.002 152.902 196.293 154.062 197.553 154.255C198.716 154.449 199.492 153.675 199.88 152.612V152.419L199.977 152.226C200.267 151.162 200.17 150.196 199.104 149.616Z" fill="#1B1B1B"/>
<path d="M204.823 145.46C204.629 144.204 203.951 143.817 203.175 143.914H203.078H202.981C202.206 144.203 201.915 144.977 202.497 146.137C203.078 147.2 203.66 147.49 204.144 147.49H204.241H204.338C204.629 147.296 204.92 146.62 204.823 145.46Z" fill="#1B1B1B"/>
</g>
<defs>
<clipPath id="clip0_129_4713">
<rect width="253" height="228" fill="white"/>
</clipPath>
</defs>
</svg>
