<svg width="229" height="190" viewBox="0 0 229 190" fill="none" xmlns="http://www.w3.org/2000/svg">
<path fill-rule="evenodd" clip-rule="evenodd" d="M21.4554 55.5708C26.3547 45.7346 33.9571 37.4956 43.2489 31.7788C46.7122 29.677 50.3444 28.0797 54.1456 26.9027C67.492 22.6992 82.2743 23.5399 94.9449 29.1726C100.604 31.5266 105.842 35.0576 110.319 39.177C116.063 44.4735 120.793 51.1992 122.989 58.7655C123.749 61.1195 122.651 61.0355 121.046 59.5222C120.202 58.7655 119.272 57.5886 118.428 56.2434C117.33 54.8983 116.316 53.3009 115.218 51.5354C111.332 45.3142 105.926 40.0178 99.6753 36.0664C93.34 32.1151 86.16 29.593 78.6421 28.416C77.544 28.1638 76.3614 28.1638 75.2633 28.0797C74.0807 27.9956 72.9825 27.8275 71.8 27.9116C69.5192 27.9956 67.1541 27.9956 64.8734 28.416C60.2275 28.9204 55.7505 30.4337 51.3581 32.031C48.9929 33.0399 46.7122 34.1328 44.6004 35.4779C43.5023 36.1505 42.4886 36.9071 41.475 37.6638L39.7856 38.6726L38.3496 39.9337C34.4639 43.2965 31.0006 47.1638 28.2131 51.4514C26.4392 54.0576 25.0032 56.916 23.7361 59.7744C22.5536 62.7169 21.5399 65.7434 20.7797 68.77C18.5834 78.1018 18.9213 88.1062 21.9623 97.1859C24.4119 104.248 28.2976 110.553 33.3658 115.681C33.8726 116.27 34.4639 116.774 35.0552 117.363C35.6465 117.867 36.2378 118.456 36.8291 118.96C41.3905 122.827 42.9955 123.92 43.5023 125.518C43.5868 125.854 43.8402 126.274 43.8402 126.611C43.9246 127.115 43.3333 127.115 42.1508 126.779C41.5595 126.611 40.8837 126.274 40.1235 125.854C39.3632 125.434 38.434 124.845 37.5049 124.173C31.8453 120.221 26.7771 114.841 23.0604 108.535C21.202 105.425 19.6816 102.062 18.4145 98.531C17.2319 95 16.3872 91.385 15.9648 87.6859C15.2891 82.2213 15.3735 76.6726 16.3027 71.208C17.2319 65.7434 18.9213 60.447 21.371 55.4868L21.4554 55.5708Z" fill="#1B1B1B"/>
<path fill-rule="evenodd" clip-rule="evenodd" d="M71.2928 137.624C68.5053 140.903 65.1264 143.341 61.5787 145.358C60.3116 146.031 59.0445 146.872 57.693 147.376C56.6794 147.881 55.5812 148.217 54.4831 148.637L52.8782 149.226L52.0335 149.478L51.0198 149.814C49.3304 150.319 47.641 150.823 46.0361 151.075C44.6 151.327 42.4883 152 42.4883 151.411C43.164 150.403 43.9243 149.226 44.5156 148.301L45.3603 146.872L45.8671 145.611C46.036 145.19 46.205 144.77 46.2895 144.434L46.4584 143.677C46.7118 142.668 46.8808 141.659 46.8808 140.566C47.1342 137.876 46.7963 135.186 46.8808 132.411C46.8808 131.571 47.8944 131.487 48.9081 132.159C49.9217 132.832 51.0198 134.177 51.1043 135.942C51.1888 138.296 51.0198 140.65 50.5975 143.004C50.4285 143.593 50.3441 144.181 50.1751 144.77L49.9217 145.527C49.9217 145.527 49.9217 145.527 49.8372 145.527C49.7528 145.611 49.6683 145.695 49.4993 145.863L49.3304 146.115C49.3304 146.199 49.3304 146.199 49.3304 146.199C49.4149 146.283 49.4149 146.283 49.5838 146.283C49.7528 146.283 50.0062 146.283 50.2596 146.199L50.513 146.115L50.8509 146.031C51.0198 145.947 51.2732 145.863 51.4422 145.779L52.6248 145.358C54.2297 144.686 55.8346 144.013 57.3551 143.257C60.7339 141.575 63.9438 139.557 66.6469 136.951C67.0692 136.615 67.4071 136.111 67.8295 135.69C68.1674 135.27 68.5897 134.85 68.9276 134.429L70.1947 132.58L70.5325 131.991L70.617 131.907H70.786H71.1238L72.3909 131.991L73.9958 132.075C74.4182 132.075 74.925 132.159 75.3474 132.159C76.2765 132.159 77.1213 132.159 78.0504 132.159C79.8243 132.075 81.5982 131.991 83.3721 131.655C86.0751 131.234 88.6937 130.394 91.2279 129.469C91.8192 129.217 92.326 129.049 92.9173 128.796C95.029 128.04 95.7048 127.956 96.5495 128.712C96.7185 128.881 96.9719 129.049 97.1408 129.217C97.6476 129.805 97.0563 130.814 95.5359 131.655C90.9744 134.093 85.4839 135.438 79.9933 135.858C77.966 136.027 75.8542 136.027 73.8269 135.942H73.1511H72.9822C72.8977 135.942 72.7288 135.942 72.7288 135.942L72.6443 136.027L72.3909 136.363C72.053 136.867 71.7151 137.288 71.2928 137.624Z" fill="#1B1B1B"/>
<path fill-rule="evenodd" clip-rule="evenodd" d="M129.071 67.593C125.692 69.0222 122.482 70.9558 119.526 73.0576C116.569 75.3275 113.866 77.7655 111.501 80.6239C109.22 83.4823 107.109 86.5089 105.504 89.8717C103.983 93.1505 102.716 96.6815 101.956 100.297C100.858 105.593 100.773 111.058 101.449 116.354C102.801 125.686 107.193 134.766 114.12 141.407C120.877 148.217 130.085 152.504 139.63 153.681C143.853 154.186 148.246 154.102 152.469 153.513C153.568 153.345 154.581 153.177 155.679 152.925C156.693 152.673 157.791 152.504 158.805 152.168L160.325 151.748L161.508 151.412L162.099 151.243L162.437 151.159C162.521 151.159 162.606 151.243 162.69 151.327L164.38 152.757C164.718 153.093 165.224 153.345 165.647 153.597C168.688 155.531 172.32 156.288 176.037 156.624C177.895 156.708 179.753 156.708 181.612 156.54L182.456 156.456L183.048 156.372L183.639 156.288L183.892 156.204C183.977 156.204 183.977 156.204 184.061 156.204L183.977 156.12C183.724 155.867 183.555 155.615 183.301 155.363L182.963 154.943L182.625 154.438C182.456 154.27 182.372 154.018 182.203 153.85C181.189 152.252 180.429 150.487 179.922 148.637C179.5 147.04 179.669 146.199 179.922 146.031C180.26 145.863 180.683 146.367 181.358 147.292C182.034 148.217 182.879 149.478 184.061 150.907C184.315 151.243 184.653 151.664 184.991 152C185.16 152.168 185.329 152.336 185.497 152.589L185.751 152.841C185.835 153.009 186.089 153.261 186.258 153.429C187.609 155.027 189.805 156.96 191.748 158.978C191.326 159.146 190.735 159.23 190.143 159.398C189.552 159.566 188.961 159.65 188.369 159.819C187.778 159.987 187.102 160.071 186.427 160.239C185.751 160.323 184.991 160.491 184.315 160.575L183.301 160.743L182.288 160.827C181.95 160.827 181.527 160.912 181.189 160.912C180.429 160.912 179.669 160.996 178.909 160.996C177.388 160.996 175.868 160.912 174.263 160.743C171.222 160.407 168.096 159.65 165.14 158.137C164.38 157.801 163.704 157.297 163.028 156.876C162.69 156.624 162.352 156.456 162.015 156.204L161.508 155.783C161.508 155.783 161.508 155.783 161.423 155.699L159.396 156.288C157.96 156.624 156.44 156.96 155.004 157.212C153.483 157.381 152.047 157.633 150.527 157.801C144.529 158.305 138.363 157.885 132.534 156.288C126.706 154.69 121.131 152 116.4 148.301C113.528 146.115 110.91 143.593 108.545 140.819C106.179 138.044 104.152 134.934 102.463 131.655C98.9995 125.097 97.3101 117.699 97.2256 110.385C97.2256 106.35 97.7324 102.314 98.5771 98.4469C99.5063 94.5797 100.858 90.7124 102.716 87.1815C103.561 85.3319 104.743 83.7346 105.757 81.9691C106.94 80.3717 108.122 78.6903 109.474 77.2611C112.092 74.2346 115.133 71.6284 118.428 69.2744C126.452 63.6416 136.167 60.2788 146.05 59.8584C147.908 59.6903 149.766 59.8584 151.625 59.9425C152.554 59.9425 153.483 60.1107 154.412 60.2788C155.341 60.4469 156.271 60.4469 157.2 60.6991C158.974 61.1195 160.832 61.4558 162.606 62.1284C163.451 62.4646 164.38 62.7169 165.224 63.0531L167.759 64.1461L169.026 64.7346L170.208 65.4071L172.658 66.7523L174.939 68.2655C175.699 68.7699 176.459 69.2744 177.219 69.8629L179.416 71.6284C180.091 72.2168 180.767 72.8894 181.443 73.562C182.794 74.823 183.977 76.2523 185.16 77.5974C188.792 82.0531 191.579 87.0974 193.438 92.4779C195.296 97.8584 196.056 103.575 195.718 109.292C195.549 111.814 195.296 114.252 194.705 116.774C193.607 121.398 192.255 124.257 191.157 126.106C190.059 127.956 189.13 128.881 188.201 129.469C187.778 129.721 187.271 130.142 186.933 130.226C186.342 130.394 186.427 129.553 187.018 128.04C187.609 126.527 188.538 124.173 189.637 121.146C191.157 116.69 192.002 111.898 192.002 107.106C191.917 102.314 191.157 97.5222 189.552 92.8983C187.947 88.3584 185.582 83.9868 182.456 80.1195C179.416 76.2523 175.614 72.9735 171.475 70.3673C168.35 68.4337 165.056 66.7522 161.508 65.7434C159.818 65.0708 157.96 64.8186 156.186 64.3983C155.257 64.2301 154.328 64.1461 153.483 64.062L152.132 63.8938C151.709 63.8938 151.202 63.8938 150.78 63.8098C143.431 63.2213 135.913 64.7346 129.071 67.593Z" fill="#1B1B1B"/>
<path fill-rule="evenodd" clip-rule="evenodd" d="M78.8107 73.4779C80.4156 71.5443 81.2603 68.5177 81.0069 65.6593C80.9224 64.6504 80.5846 63.6416 80.1622 62.7168C78.8952 59.4381 74.7561 57.6726 70.8704 58.4292C69.181 58.7655 67.4916 59.6062 66.1401 60.6991C64.3662 62.1283 63.1836 64.0619 62.3389 66.1637C62.0855 66.8363 61.5787 66.6681 61.2408 65.9115C60.9029 65.1549 60.734 63.6416 61.4942 62.2965C64.1128 57.2522 70.2791 54.3938 76.0231 55.9071C77.7126 56.3274 79.3175 57.0841 80.7535 58.2611C82.1895 59.4381 83.2032 61.0354 83.7944 62.6327C85.146 66.2478 84.977 70.115 83.541 73.646C82.6119 75.8319 81.0069 77.5973 79.3175 79.0266C76.7834 81.2124 73.9959 82.7257 71.8841 84.7434C71.0394 85.5 70.2791 86.4248 69.7723 87.2655C69.2655 88.1903 68.9276 89.1151 68.5897 90.208C68.4208 90.7124 68.3363 91.2168 68.0829 91.7212C67.3227 93.6549 66.6469 94.0752 65.4643 93.9912C65.2109 93.9912 64.873 93.9911 64.6196 93.9071C63.7749 93.6549 63.5215 92.646 63.7749 91.3009C64.0283 90.292 64.1973 89.2832 64.5351 88.1903C64.873 87.0973 65.4643 85.7522 66.2246 84.5752C67.8295 82.3053 69.7723 80.792 71.6307 79.3628C74.4182 77.3451 77.0368 75.5797 78.5573 73.4779H78.8107Z" fill="#1B1B1B"/>
<path fill-rule="evenodd" clip-rule="evenodd" d="M65.2117 102.566C65.2117 102.65 65.2117 102.735 65.2117 102.819C65.0427 104.584 63.6912 105.173 62.0862 105.004C59.89 104.752 59.0453 102.314 60.2279 100.633C61.9173 98.1947 65.2117 99.9602 65.2117 102.566Z" fill="#1B1B1B"/>
<path fill-rule="evenodd" clip-rule="evenodd" d="M130 154.858C134.562 156.456 139.377 157.381 144.276 157.465C146.05 157.465 147.824 157.465 149.598 157.212L151.963 156.96C152.723 156.876 153.483 156.708 154.243 156.54L156.524 156.119C157.284 155.951 158.045 155.699 158.805 155.531L161.423 154.774C161.761 154.522 161.93 154.942 162.268 155.111L162.859 155.615L163.704 156.372C164.295 156.792 164.971 157.212 165.647 157.633C166.323 157.969 167.083 158.305 167.759 158.642C170.293 159.65 173.08 160.071 175.868 160.155C179.416 160.239 182.964 159.735 186.427 159.062C187.525 158.81 187.525 159.398 186.68 160.071C185.836 160.743 184.146 161.668 182.034 161.92C178.233 162.341 174.347 162.341 170.546 161.5C168.603 161.08 166.83 160.407 165.056 159.482C164.211 158.978 163.366 158.473 162.522 157.885L161.423 156.96C161.255 156.876 161.339 156.876 161.339 156.876L161.255 156.792C161.255 156.792 161.17 156.792 161.086 156.792C156.862 158.053 152.132 159.062 147.57 159.314C142.502 159.566 137.349 158.978 132.45 157.633C131.69 157.381 130.93 157.212 130.169 156.96L127.973 156.119C126.453 155.615 125.101 154.858 123.665 154.186C119.442 152 115.64 149.226 112.262 145.947C109.727 143.341 107.278 140.65 105.419 137.624C104.997 136.951 104.575 136.279 104.152 135.606C102.716 133 102.463 132.075 102.716 131.319C102.801 131.15 102.801 130.898 102.885 130.814C103.139 130.394 103.983 131.319 104.997 133.168C108.122 138.549 112.177 143.761 117.33 147.796C121.046 150.823 125.354 153.261 130 154.858Z" fill="#1B1B1B"/>
<path fill-rule="evenodd" clip-rule="evenodd" d="M74.165 137.035L73.2358 136.951H73.1514L72.0533 138.465C71.1241 139.473 70.1104 140.566 69.0123 141.491C68.2521 142.164 67.4074 142.836 66.6471 143.425C63.6907 145.527 60.4808 147.04 57.1864 148.385C55.7504 148.973 54.2299 149.562 52.7939 150.15C50.9356 150.823 49.0772 151.58 47.0499 151.832C45.7829 152 46.9655 149.814 48.9928 149.226C52.7939 148.049 56.5107 146.704 60.1429 145.106C62.3391 144.097 64.4509 142.752 66.3093 141.239C66.8161 140.819 67.3229 140.398 67.8297 139.978C68.3366 139.558 68.8434 139.137 69.2657 138.633C69.6881 138.128 70.1949 137.708 70.6173 137.204L71.9688 135.354L72.1377 135.186H72.3911H72.898H73.6582L74.9253 135.27C75.77 135.27 76.6147 135.354 77.4594 135.354C79.9935 135.354 82.5276 135.27 84.9773 134.85C86.9201 134.513 88.694 133.841 90.3834 133.084L91.4815 132.496C92.833 131.823 93.3399 131.655 93.9312 131.907C94.0156 131.991 94.1846 131.991 94.269 132.075C94.6069 132.327 94.1846 133 93.1709 133.589C90.13 135.522 86.3288 136.699 82.5276 137.035C79.7401 137.204 76.9526 137.204 74.165 137.035Z" fill="#1B1B1B"/>
<path d="M136.251 44.0531C136.251 43.3805 136.758 42.8761 137.349 42.8761C140.475 42.7079 136.335 47.3318 136.251 44.0531Z" stroke="#1B1B1B" stroke-width="0.6"/>
<path d="M86.9199 154.186C86.9199 153.513 87.4267 153.009 88.018 153.009C91.1435 152.925 87.0044 157.465 86.9199 154.186Z" stroke="#1B1B1B" stroke-width="0.6"/>
<path fill-rule="evenodd" clip-rule="evenodd" d="M166.069 34.7212C166.576 34.8893 166.914 35.3938 166.745 35.8982C166.154 38.5044 163.366 34.0486 166.069 34.7212Z" fill="#1B1B1B"/>
<path d="M152.673 131.144C163.543 129.728 171.241 120.108 169.866 109.658C168.492 99.2076 158.566 91.8842 147.696 93.3005C136.826 94.7167 129.128 104.336 130.503 114.787C131.877 125.237 141.803 132.56 152.673 131.144Z" fill="#E2E2E2"/>
<path d="M156.102 88.9469C156.187 88.6947 154.751 87.854 151.794 87.4337C150.358 87.2655 148.5 87.1814 146.388 87.6018C144.277 88.0222 141.911 88.7788 139.546 90.208C137.265 91.6372 134.985 93.739 133.126 96.3452C131.268 98.9514 129.832 102.23 129.072 105.761C128.312 109.376 128.396 113.327 129.663 117.279C130.339 119.212 131.184 121.146 132.366 122.912C133.549 124.677 134.985 126.358 136.674 127.704C138.026 128.881 139.546 129.721 141.067 130.562C142.672 131.319 144.277 131.907 145.966 132.327C150.274 133.336 154.666 132.916 158.468 131.571C162.269 130.142 165.648 127.872 168.013 125.013C169.28 123.668 170.125 122.071 170.969 120.558C171.307 119.801 171.645 118.96 171.983 118.204C172.236 117.363 172.574 116.606 172.659 115.85C173.419 112.655 173.334 109.628 172.828 106.938C172.321 104.248 171.392 101.978 170.378 100.128C169.364 98.2788 168.182 96.8496 167.168 95.7567C165.141 93.6549 163.705 92.8983 163.536 93.0664C163.367 93.3186 164.465 94.3275 166.154 96.5974C167.759 98.8673 169.871 102.398 170.547 107.274C170.885 109.712 170.8 112.403 170.04 115.177C169.871 115.85 169.618 116.522 169.364 117.279C169.111 117.951 168.773 118.624 168.435 119.296C167.675 120.642 166.83 121.987 165.732 123.164C163.62 125.602 160.748 127.535 157.454 128.712C154.16 129.805 150.358 130.142 146.726 129.217C145.206 128.881 143.854 128.376 142.503 127.704C141.236 127.031 139.884 126.274 138.786 125.266C137.35 124.089 136.083 122.659 135.069 121.23C134.056 119.717 133.295 118.12 132.704 116.438C131.606 113.075 131.437 109.628 132.028 106.434C132.62 103.239 133.802 100.381 135.407 97.9425C137.012 95.5045 138.955 93.6549 140.898 92.2257C142.925 90.7965 144.952 90.0399 146.811 89.5354C148.669 89.031 150.358 88.8629 151.71 88.8629C154.498 88.8629 156.018 89.2832 156.102 88.9469Z" fill="#1B1B1B"/>
<path d="M158.383 105.341C158.299 105.088 157.961 104.92 157.285 105.004C156.609 105.088 155.68 105.425 154.667 106.181C153.737 106.938 152.808 107.947 151.963 109.124C151.119 110.301 150.274 111.646 149.429 112.991C149.26 113.243 149.091 113.58 148.923 113.832C148.754 114.084 148.585 114.42 148.416 114.673C147.74 115.765 147.993 115.429 147.909 115.513C147.909 115.513 147.909 115.513 147.824 115.513L147.655 115.429C147.064 115.093 146.557 114.841 146.051 114.588C145.037 114.084 144.108 113.748 143.263 113.496C141.658 112.991 140.644 113.075 140.475 113.496C140.307 113.916 141.067 114.504 142.418 115.429C143.094 115.85 143.854 116.438 144.783 117.027C145.206 117.363 145.713 117.615 146.135 117.951C146.557 118.204 146.98 118.54 147.402 118.876C147.909 119.212 148.416 119.633 149.007 119.969C149.767 118.792 150.527 117.615 151.288 116.354C151.457 116.102 151.626 115.765 151.795 115.513C151.963 115.261 152.132 114.925 152.301 114.673C153.146 113.243 153.906 111.898 154.582 110.721C155.258 109.544 155.849 108.619 156.44 107.863C157.37 106.434 158.468 105.929 158.383 105.341Z" fill="#1B1B1B"/>
<path d="M15.2043 42.9602C15.4577 43.1283 15.7956 43.0442 16.2179 42.8761C16.6403 42.7079 17.3161 42.5398 17.9074 42.5398C18.4987 42.5398 19.0055 42.8761 19.3434 43.3805C19.4278 43.6327 19.5123 43.8849 19.4278 44.3053C19.3434 44.7256 19.1744 45.2301 18.921 45.7345C18.8365 45.9026 18.6676 46.1549 18.5831 46.323C18.4142 46.4911 18.3297 46.6593 18.1608 46.9115C17.9074 47.1637 17.7384 47.4159 17.5695 47.5841L17.485 47.6681C17.485 47.6681 17.485 47.6681 17.4005 47.6681C17.3161 47.6681 17.4005 47.7522 17.2316 47.5C17.0627 47.3318 16.8937 47.1637 16.7248 46.9115C16.5558 46.7433 16.3869 46.4911 16.2179 46.323C15.9645 45.9867 15.7956 45.6504 15.6267 45.3141C15.3732 44.7256 15.2888 44.2212 15.2888 43.7168C15.4577 43.4646 15.4577 43.1283 15.2043 42.9602C15.0354 42.792 14.613 42.8761 14.1906 43.2964C13.6838 43.7168 13.2615 44.7256 13.4304 45.9867C13.5149 46.5752 13.6838 47.2478 13.9372 47.8363C14.1062 48.1726 14.1906 48.4248 14.3596 48.677C14.5285 48.9292 14.6975 49.2655 14.9509 49.6018C15.1198 49.854 15.7111 50.4425 16.2179 50.6947C16.8092 51.031 17.4005 51.115 18.0763 50.9469C18.4142 50.8628 18.6676 50.7787 19.0055 50.5265C19.1744 50.4425 19.2589 50.3584 19.4278 50.1902L19.5968 50.0221L19.7657 49.938C20.1036 49.6018 20.357 49.2655 20.6104 49.0133C20.7794 48.761 21.0328 48.4248 21.2017 48.1725C21.3707 47.8363 21.5396 47.5841 21.7085 47.2478C22.1309 46.4071 22.3843 45.5664 22.4688 44.6416C22.5532 43.7168 22.2998 42.6239 21.7085 41.7832C21.1172 40.9425 20.357 40.5221 19.5968 40.2699C18.7521 40.0177 17.9918 40.1018 17.4005 40.2699C16.2179 40.6062 15.5422 41.3628 15.2043 41.8672C14.9509 42.3717 15.0354 42.792 15.2043 42.9602Z" fill="#1B1B1B"/>
<path d="M176.459 181.929C176.713 182.097 177.05 182.013 177.473 181.845C177.895 181.677 178.571 181.509 179.162 181.509C179.754 181.509 180.26 181.845 180.598 182.35C180.683 182.602 180.767 182.854 180.683 183.274C180.598 183.695 180.429 184.199 180.176 184.703C180.091 184.872 179.922 185.124 179.838 185.292C179.669 185.46 179.585 185.628 179.416 185.88C179.162 186.133 178.993 186.385 178.824 186.553L178.74 186.637C178.74 186.637 178.74 186.637 178.655 186.637C178.571 186.637 178.655 186.721 178.486 186.469C178.318 186.301 178.149 186.133 177.98 185.88C177.811 185.712 177.642 185.46 177.473 185.292C177.219 184.956 177.05 184.619 176.882 184.283C176.628 183.695 176.544 183.19 176.544 182.686C176.628 182.518 176.628 182.097 176.459 181.929C176.29 181.761 175.868 181.845 175.446 182.265C174.939 182.686 174.516 183.695 174.685 184.956C174.77 185.544 174.939 186.217 175.192 186.805C175.361 187.142 175.446 187.394 175.614 187.646C175.783 187.898 175.952 188.234 176.206 188.571C176.375 188.823 176.966 189.411 177.473 189.664C178.064 190 178.655 190.084 179.331 189.916C179.669 189.832 179.922 189.748 180.26 189.496C180.429 189.411 180.514 189.327 180.683 189.159L180.852 188.991L181.021 188.907C181.358 188.571 181.612 188.234 181.865 187.982C182.034 187.73 182.288 187.394 182.457 187.142C182.626 186.805 182.794 186.553 182.963 186.217C183.386 185.376 183.639 184.535 183.724 183.611C183.808 182.686 183.555 181.593 182.963 180.752C182.372 179.911 181.612 179.491 180.852 179.239C180.007 178.987 179.247 179.071 178.655 179.239C177.473 179.575 176.797 180.332 176.459 180.836C176.206 181.425 176.206 181.845 176.459 181.929Z" fill="#A8A8A8"/>
<path d="M221.567 116.438C221.82 116.606 222.158 116.522 222.58 116.354C223.003 116.186 223.678 116.018 224.27 116.018C224.861 116.018 225.368 116.354 225.706 116.858C225.79 117.111 225.875 117.363 225.79 117.783C225.706 118.204 225.537 118.708 225.283 119.212C225.199 119.381 225.03 119.633 224.945 119.801C224.776 119.969 224.692 120.137 224.523 120.389C224.27 120.642 224.101 120.894 223.932 121.062L223.847 121.146C223.847 121.146 223.847 121.146 223.763 121.146C223.678 121.146 223.763 121.23 223.594 120.978C223.425 120.81 223.256 120.642 223.087 120.389C222.918 120.221 222.749 119.969 222.58 119.801C222.327 119.465 222.158 119.128 221.989 118.792C221.736 118.204 221.651 117.699 221.651 117.195C221.82 116.942 221.82 116.606 221.567 116.438C221.398 116.27 220.975 116.354 220.553 116.774C220.046 117.195 219.624 118.204 219.793 119.465C219.877 120.053 220.046 120.726 220.3 121.314C220.468 121.65 220.553 121.903 220.722 122.155C220.891 122.407 221.06 122.743 221.313 123.08C221.482 123.332 222.073 123.92 222.58 124.173C223.172 124.509 223.763 124.593 224.439 124.425C224.776 124.341 225.03 124.257 225.368 124.004C225.537 123.92 225.621 123.836 225.79 123.668L225.959 123.5L226.128 123.416C226.466 123.08 226.719 122.743 226.973 122.491C227.142 122.239 227.395 121.903 227.564 121.65C227.733 121.314 227.902 121.062 228.071 120.726C228.493 119.885 228.747 119.044 228.831 118.119C228.916 117.195 228.662 116.102 228.071 115.261C227.48 114.42 226.719 114 225.959 113.748C225.114 113.496 224.354 113.58 223.763 113.748C222.58 114.084 221.904 114.841 221.567 115.345C221.398 115.934 221.398 116.27 221.567 116.438Z" fill="#1B1B1B"/>
<path d="M115.218 174.363C114.204 173.942 113.528 174.447 113.021 175.288C113.021 175.372 113.021 175.372 112.937 175.456C112.937 175.54 112.937 175.54 112.852 175.624C112.515 176.549 112.684 177.389 113.697 177.81C114.626 178.23 115.387 177.726 115.893 176.885C115.893 176.801 115.893 176.801 115.978 176.717C115.978 176.633 116.062 176.633 116.062 176.549C116.316 175.624 116.147 174.699 115.218 174.363Z" fill="#A8A8A8"/>
<path d="M32.6055 143.761C31.8452 144.518 32.0142 145.358 32.6055 146.031L32.6899 146.115L32.7744 146.199C33.4502 146.788 34.2104 146.956 35.0551 146.199C35.7309 145.527 35.6464 144.602 35.0551 143.929L34.9706 143.845L34.8862 143.761C34.2104 143.173 33.3657 143.004 32.6055 143.761Z" fill="#A8A8A8"/>
<path d="M73.4055 0C72.8986 0 72.4763 0.588496 72.3918 1.4292C72.3073 2.26991 72.3918 3.53097 72.8986 4.87611C72.9831 5.04425 72.9831 5.12832 73.0676 5.29646C73.1521 5.38053 73.1521 5.54867 73.2365 5.71681C73.8278 6.97788 74.5881 7.98673 75.2638 8.49115C75.9396 9.07965 76.6154 9.16372 77.0377 8.82743C77.7979 8.15487 77.0377 6.47345 76.193 4.45575L76.0241 4.0354L75.9396 3.69912C75.0104 1.68142 74.4191 0 73.4055 0Z" fill="#A8A8A8"/>
<path d="M126.452 31.8628C125.692 31.1062 124.509 31.6106 123.327 32.7036C123.242 32.7876 123.242 32.7876 123.158 32.8717C123.073 32.9558 123.073 32.9558 122.989 33.0398C121.891 34.2168 121.384 35.3938 122.144 36.1505C122.82 36.823 124.087 36.4027 125.27 35.3097C125.354 35.2257 125.354 35.2257 125.439 35.1416C125.523 35.0575 125.523 35.0575 125.608 34.9735C126.706 33.7965 127.212 32.5354 126.452 31.8628Z" fill="#A8A8A8"/>
<path d="M197.492 45.3982C196.732 44.6416 196.309 44.3894 196.141 44.4735C196.056 44.6416 196.309 45.062 197.07 45.8186C197.745 46.4912 198.252 46.8274 198.421 46.7434C198.506 46.5752 198.252 46.0708 197.492 45.3982Z" fill="#A8A8A8"/>
<path d="M177.22 18.2434C176.966 18.2434 176.713 19.3363 176.291 21.27C176.122 22.1947 175.868 23.3717 175.53 24.7169C175.193 26.062 174.77 27.5753 174.01 29.0045C173.672 29.7611 173.165 30.4337 172.574 31.0222C171.983 31.6107 171.307 32.1151 170.547 32.5354C169.026 33.2921 166.914 33.5443 164.887 32.9558C162.86 32.4514 160.917 31.1903 159.65 29.3408C159.059 28.416 158.636 27.4071 158.636 26.3983C158.552 25.3894 158.805 24.2124 159.396 23.3717C159.819 22.6992 160.41 22.1107 161.17 21.7744C161.508 21.6062 161.846 21.6062 162.1 21.6062C162.353 21.6062 162.522 21.6903 162.86 21.8585C163.198 22.1107 163.536 22.531 163.873 22.9514C164.127 23.3717 164.38 23.8762 164.549 24.3806C164.887 25.3894 164.887 26.5664 164.718 27.6593C164.465 28.7523 164.127 29.677 163.451 30.5177C162.86 31.3585 162.015 32.1151 161.17 32.7877C159.396 34.0487 157.369 34.9735 155.426 35.7301C153.484 36.4868 151.71 37.0753 150.02 37.5797C146.641 38.5045 143.854 38.9248 141.911 39.2611C139.968 39.5974 138.87 39.7655 138.87 40.0177C138.87 40.27 139.968 40.5222 141.996 40.6062C144.023 40.6903 146.979 40.6062 150.612 39.8496C152.385 39.5133 154.413 39.0089 156.44 38.2523C158.467 37.4956 160.748 36.739 162.944 35.2257C164.042 34.4691 165.141 33.5443 165.985 32.3673C166.408 31.7788 166.83 31.1062 167.168 30.4337C167.506 29.7611 167.675 29.0045 167.844 28.2478C168.181 26.7346 168.181 25.1372 167.675 23.5399C167.421 22.7832 167.083 21.9425 166.661 21.27C166.154 20.5974 165.647 19.8408 164.803 19.2523C164.127 18.7478 163.198 18.4115 162.353 18.4115C161.508 18.4115 160.664 18.5797 159.988 18.8319C158.636 19.4204 157.454 20.4292 156.693 21.6903C155.764 23.2036 155.426 24.9691 155.511 26.6505C155.595 28.3319 156.271 29.9292 157.116 31.1903C158.89 33.7965 161.593 35.2257 164.211 35.8983C165.563 36.2346 166.914 36.2346 168.181 36.0664C169.449 35.8983 170.716 35.562 171.814 34.8894C172.912 34.2169 173.841 33.4602 174.517 32.6195C175.193 31.6947 175.784 30.854 176.122 29.9292C176.882 28.1638 177.22 26.4823 177.389 24.9691C177.558 23.5399 177.642 22.2788 177.558 21.27C177.642 19.3363 177.473 18.2434 177.22 18.2434Z" fill="#1B1B1B"/>
</svg>
