<svg width="230" height="186" viewBox="0 0 230 186" fill="none" xmlns="http://www.w3.org/2000/svg">
<g clip-path="url(#clip0_129_5778)">
<path d="M223.934 136.716C224.198 136.891 224.461 136.891 224.813 136.803C225.165 136.716 225.604 136.628 226.044 136.716C226.396 136.803 226.659 136.979 226.747 137.242C226.747 137.33 226.747 137.417 226.747 137.68C226.659 137.943 226.571 138.294 226.396 138.645C226.308 138.82 226.22 138.908 226.132 139.083C226.044 139.259 225.956 139.347 225.868 139.522L225.78 139.697L225.692 139.785L225.604 139.697C225.516 139.522 225.341 139.434 225.253 139.259C225.077 138.996 224.901 138.82 224.813 138.645C224.549 138.294 224.461 137.943 224.461 137.593C224.198 137.154 224.11 136.891 223.934 136.716C223.758 136.54 223.406 136.54 222.967 136.891C222.527 137.242 222.087 138.119 222.263 139.083C222.263 139.61 222.439 140.136 222.703 140.662C222.879 140.925 222.967 141.1 223.055 141.363L223.143 141.539L223.318 141.802C223.406 141.977 223.582 142.153 223.758 142.328C224.373 143.03 225.253 143.468 226.22 143.293C226.659 143.205 227.099 143.03 227.539 142.679C227.714 142.504 227.978 142.328 228.154 142.153L228.418 141.89L228.594 141.714C228.769 141.539 228.945 141.276 229.121 141.013C229.297 140.75 229.385 140.487 229.561 140.223C229.912 139.522 230.088 138.82 230.176 138.031C230.264 137.242 230 136.277 229.561 135.576C228.594 134.173 226.835 133.909 225.868 134.26C224.813 134.611 224.373 135.225 224.11 135.663C223.67 136.19 223.67 136.54 223.934 136.716Z" fill="#1B1B1B"/>
<path d="M79.3918 31.7454C79.6556 31.9207 79.9194 31.9207 80.271 31.833C80.6227 31.7454 81.0623 31.6577 81.5019 31.7454C81.8536 31.833 82.1174 32.0084 82.2053 32.2715C82.2053 32.3592 82.2053 32.4469 82.2053 32.71C82.1174 32.9731 82.0294 33.3239 81.8536 33.6746C81.7657 33.85 81.6778 33.9377 81.5898 34.1131C81.5019 34.2885 81.414 34.3762 81.3261 34.5516L81.2382 34.727L81.1502 34.8147L80.8865 34.727C80.7986 34.5516 80.6227 34.4639 80.5348 34.2885C80.359 34.0254 80.1831 33.85 80.0952 33.6746C79.8314 33.3239 79.7435 32.9731 79.7435 32.6223C79.6556 32.2715 79.6556 31.9207 79.3918 31.7454C79.216 31.57 78.8643 31.57 78.4247 31.9207C77.9851 32.2715 77.5455 33.1485 77.7213 34.1131C77.7213 34.6393 77.8972 35.1654 78.1609 35.6916C78.3368 35.9547 78.4247 36.1301 78.5126 36.3932L78.6005 36.5685L78.7764 36.8316C78.8643 37.007 79.0401 37.1824 79.216 37.3578C79.8314 38.0594 80.7106 38.4978 81.6778 38.3224C82.1174 38.2347 82.557 38.0594 82.9966 37.7086C83.1724 37.5332 83.4362 37.3578 83.612 37.1824L83.8758 36.9193L84.0516 36.7439C84.2275 36.5685 84.4033 36.3055 84.5791 36.0424C84.755 35.7793 84.8429 35.5162 85.0187 35.2531C85.3704 34.5516 85.5463 33.85 85.6342 33.0608C85.7221 32.2715 85.4583 31.3069 85.0187 30.6053C84.0516 29.2022 82.2932 28.9391 81.3261 29.2899C80.271 29.6407 79.8314 30.2545 79.5677 30.693C79.1281 31.3069 79.216 31.6577 79.3918 31.7454Z" fill="#1B1B1B"/>
<path d="M200.723 163.901C200.987 164.076 201.25 164.076 201.602 163.989C201.954 163.901 202.393 163.813 202.833 163.901C203.185 163.989 203.448 164.164 203.536 164.427C203.536 164.515 203.536 164.603 203.536 164.866C203.448 165.129 203.361 165.479 203.185 165.83C203.097 166.006 203.009 166.093 202.921 166.269C202.833 166.444 202.745 166.532 202.657 166.707L202.569 166.883L202.481 166.97L202.393 166.883C202.305 166.707 202.13 166.62 202.042 166.444C201.866 166.181 201.69 166.006 201.602 165.83C201.338 165.479 201.25 165.129 201.25 164.778C200.987 164.339 200.987 164.076 200.723 163.901C200.547 163.726 200.195 163.726 199.756 164.076C199.316 164.427 198.877 165.304 199.052 166.269C199.052 166.795 199.228 167.321 199.492 167.847C199.668 168.11 199.756 168.286 199.844 168.549L199.932 168.724L200.107 168.987C200.195 169.163 200.371 169.338 200.547 169.513C201.162 170.215 202.042 170.653 203.009 170.478C203.448 170.39 203.888 170.215 204.328 169.864C204.503 169.689 204.767 169.513 204.943 169.338L205.207 169.075L205.383 168.9C205.559 168.724 205.734 168.461 205.91 168.198C206.086 167.935 206.174 167.672 206.35 167.409C206.701 166.707 206.877 166.006 206.965 165.216C207.053 164.427 206.789 163.463 206.35 162.761C205.383 161.358 203.624 161.095 202.657 161.446C201.602 161.796 201.162 162.41 200.899 162.849C200.459 163.375 200.547 163.726 200.723 163.901Z" fill="#A8A8A8"/>
<path d="M68.1379 171.267C68.4017 171.443 68.6654 171.443 69.0171 171.355C69.3688 171.267 69.8084 171.18 70.248 171.267C70.5997 171.355 70.8635 171.53 70.9514 171.793C70.9514 171.881 70.9514 171.969 70.9514 172.232C70.8635 172.495 70.7755 172.846 70.5997 173.197C70.5118 173.372 70.4239 173.46 70.3359 173.635C70.248 173.81 70.1601 173.898 70.0722 174.074L69.9843 174.249L69.8963 174.337L69.8084 174.249C69.7205 174.074 69.5447 173.986 69.4567 173.81C69.2809 173.547 69.1051 173.372 69.0171 173.197C68.7534 172.846 68.6654 172.495 68.6654 172.144C68.4017 171.793 68.4017 171.443 68.1379 171.267C67.9621 171.092 67.6104 171.092 67.1708 171.443C66.7312 171.793 66.2916 172.67 66.4674 173.635C66.4674 174.161 66.6433 174.687 66.907 175.214C67.0829 175.477 67.1708 175.652 67.2587 175.915L67.3466 176.091L67.5225 176.354C67.6104 176.529 67.7862 176.704 67.9621 176.88C68.5775 177.581 69.4567 178.02 70.4239 177.844C70.8635 177.757 71.3031 177.581 71.7427 177.231C71.9185 177.055 72.1823 176.88 72.3581 176.704L72.6219 176.441L72.7977 176.266C72.9736 176.091 73.1494 175.827 73.3252 175.564C73.5011 175.301 73.589 175.038 73.7648 174.775C74.1165 174.074 74.2924 173.372 74.3803 172.583C74.4682 171.793 74.2044 170.829 73.7648 170.127C72.7977 168.724 71.0393 168.461 70.0722 168.812C69.0171 169.163 68.5775 169.777 68.3138 170.215C67.8742 170.829 67.9621 171.18 68.1379 171.267Z" fill="#A8A8A8"/>
<path d="M207.844 59.5445C207.053 58.7553 205.294 59.8076 203.36 61.6492C203.272 61.7369 203.184 61.8246 203.096 61.9123C203.008 62 202.92 62.0877 202.832 62.1754C201.074 64.1047 199.931 65.7709 200.722 66.6478C201.426 67.3494 203.272 66.3847 205.206 64.5431C205.294 64.4554 205.382 64.3677 205.47 64.2801C205.558 64.1924 205.646 64.1047 205.734 64.017C207.58 62.0877 208.547 60.2461 207.844 59.5445Z" fill="#A8A8A8"/>
<path d="M15.0344 140.399C13.9793 139.96 13.3639 140.224 12.9243 140.925V141.013C12.9243 141.013 12.9243 141.1 12.8363 141.1C12.5726 141.802 12.8363 142.504 13.8914 142.942C14.8585 143.381 15.5619 143.03 16.0015 142.416V142.328C16.0015 142.328 16.0015 142.241 16.0894 142.241C16.2652 141.627 16.0015 140.837 15.0344 140.399Z" fill="#A8A8A8"/>
<path d="M46.4224 95.85C45.6311 96.6393 45.6311 97.3408 46.0707 97.867L46.1586 97.9547L46.2465 98.0424C46.774 98.4809 47.4774 98.4809 48.2687 97.6916C48.9721 96.9901 49.06 96.2008 48.6204 95.6746L48.5325 95.5869L48.4445 95.4992C47.917 95.0608 47.1257 95.0608 46.4224 95.85Z" fill="#A8A8A8"/>
<path d="M56.5326 9.55871C56.0051 9.55871 55.5655 9.99719 55.3897 10.6987C55.2138 11.4003 55.3018 12.3649 55.6534 13.4173L55.7414 13.6804L55.8293 13.9434C56.2689 14.9081 56.9722 15.6973 57.5877 16.1358C58.2031 16.5743 58.7307 16.5743 59.1703 16.2235C59.9615 15.5219 59.5219 14.2065 58.9065 12.628L58.8186 12.3649L58.9065 12.2772C58.2031 10.7864 57.5877 9.47102 56.5326 9.55871Z" fill="#A8A8A8"/>
<path d="M117.11 25.5191C116.319 24.7299 115.264 25.0806 114.385 25.8699C114.385 25.8699 114.297 25.9576 114.297 26.0453C114.209 26.0453 114.209 26.133 114.121 26.133C113.33 27.0099 112.978 28.0622 113.769 28.8515C114.473 29.553 115.528 29.29 116.495 28.5007C116.495 28.5007 116.583 28.413 116.583 28.3253C116.671 28.3253 116.671 28.2376 116.759 28.2376C117.55 27.273 117.814 26.2207 117.11 25.5191Z" fill="#A8A8A8"/>
<path d="M78.337 74.1019C77.5457 73.3126 76.5786 73.5757 75.7873 74.2773L75.6994 74.365L75.6115 74.4526C74.9081 75.2419 74.6443 76.2065 75.4356 76.9958C76.139 77.6973 77.194 77.522 77.9853 76.8204L78.0732 76.7327L78.1612 76.645C78.9525 75.7681 79.1283 74.8034 78.337 74.1019Z" fill="#A8A8A8"/>
<path d="M152.19 25.0807C151.399 24.2914 150.959 24.0283 150.784 24.0283C150.696 24.2037 150.959 24.5545 151.839 25.4314C152.542 26.133 153.07 26.4838 153.245 26.4838C153.245 26.3084 152.894 25.8699 152.19 25.0807Z" fill="#A8A8A8"/>
<path d="M166.61 0.350792C165.818 -0.438459 164.236 0.438486 162.653 1.92929C162.565 2.01699 162.477 2.10468 162.389 2.19238C162.301 2.28007 162.214 2.36776 162.126 2.45546C160.631 4.03396 159.752 5.52477 160.543 6.40171C161.246 7.10327 162.829 6.31402 164.5 4.82321C164.587 4.73552 164.675 4.64782 164.763 4.56013C164.851 4.47243 164.939 4.38474 165.027 4.29704C166.61 2.63085 167.401 1.05235 166.61 0.350792Z" fill="#A8A8A8"/>
<path d="M210.833 109.969C210.042 109.18 208.459 110.057 206.877 111.547C206.789 111.635 206.701 111.723 206.613 111.81C206.525 111.898 206.437 111.986 206.349 112.074C204.855 113.652 203.975 115.143 204.767 116.02C205.47 116.721 207.053 115.932 208.723 114.441C208.811 114.354 208.899 114.266 208.987 114.178C209.075 114.09 209.163 114.003 209.251 113.915C210.745 112.249 211.537 110.758 210.833 109.969Z" fill="#A8A8A8"/>
<path d="M204.943 83.0466C214.169 83.0466 221.648 75.8616 221.648 66.9985C221.648 58.1354 214.169 50.9504 204.943 50.9504C195.717 50.9504 188.238 58.1354 188.238 66.9985C188.238 75.8616 195.717 83.0466 204.943 83.0466Z" fill="#E2E2E2"/>
<path d="M212.328 48.2319C212.416 47.9688 211.361 47.0919 208.987 46.3903C207.756 46.0396 206.262 45.7765 204.415 45.8642C202.569 45.9519 200.459 46.3026 198.349 47.2673C194.129 49.1089 189.82 53.3182 187.71 59.2814C186.655 62.263 186.304 65.5954 186.919 69.1032C187.271 70.7694 187.71 72.5233 188.59 74.1895C189.381 75.8557 190.436 77.3465 191.667 78.7496C192.634 79.8896 193.865 80.7666 195.096 81.6435C196.327 82.4328 197.645 83.1343 199.052 83.6605C202.569 84.9759 206.349 85.1513 209.778 84.4497C213.207 83.6605 216.284 82.082 218.57 79.8896C220.944 77.785 222.527 75.1541 223.494 72.611C224.461 69.9801 224.725 67.437 224.637 65.0693C224.373 60.4214 222.439 57.0891 221.032 55.0721C219.538 53.0551 218.307 52.3536 218.131 52.5289C217.955 52.7043 218.746 53.7567 219.801 55.8613C220.856 57.8783 222.175 61.123 222.175 65.157C222.175 67.1739 221.823 69.3663 220.856 71.5586C219.977 73.751 218.482 75.8557 216.46 77.6096C214.526 79.3635 211.888 80.6789 209.075 81.2927C206.262 81.8189 203.096 81.7312 200.283 80.5912C199.14 80.1527 197.997 79.5388 197.03 78.925C196.063 78.2234 195.096 77.4342 194.216 76.5572C193.161 75.4172 192.282 74.1895 191.579 72.8741C190.875 71.5586 190.436 70.1555 190.172 68.7524C189.645 65.9462 189.908 63.0523 190.7 60.5091C191.491 57.966 192.81 55.6859 194.392 53.9321C195.975 52.0905 197.733 50.7751 199.492 49.8104C203.096 47.9688 206.525 47.8811 208.811 48.1442C211.009 48.0565 212.24 48.5827 212.328 48.2319Z" fill="#1B1B1B"/>
<path d="M207.932 59.6322C208.02 59.3692 207.756 58.9307 206.965 58.5799C206.173 58.2291 204.679 57.966 203.096 58.5799C201.514 59.1938 199.843 60.6846 199.052 62.8769C198.612 63.9293 198.524 65.2447 198.7 66.5601C198.876 67.8755 199.491 69.1909 200.459 70.2433C200.81 70.6817 201.25 71.0325 201.777 71.3833C202.217 71.6464 202.744 71.9972 203.272 72.1725C204.591 72.6987 206.085 72.6987 207.316 72.4356C208.635 72.1725 209.778 71.471 210.569 70.6817C212.328 69.0155 212.855 66.7355 212.679 65.0693C212.504 63.4031 211.712 62.2631 211.097 61.6492C210.481 61.0354 209.954 60.86 209.778 61.123C209.602 61.2984 209.69 61.7369 209.954 62.4385C210.13 63.14 210.394 64.1047 210.306 65.2447C210.218 66.297 209.69 67.6124 208.635 68.4017C208.108 68.8402 207.404 69.1032 206.701 69.2786C205.998 69.3663 205.206 69.3663 204.503 69.0155C204.239 68.9278 203.975 68.7525 203.712 68.5771C203.448 68.4017 203.184 68.2263 203.008 67.9632C201.953 66.8232 201.689 65.2447 202.041 63.8416C202.393 62.4385 203.272 61.3861 204.239 60.7723C205.998 59.5445 207.668 60.0707 207.932 59.6322Z" fill="#1B1B1B"/>
<path d="M179.358 182.405C179.446 182.492 179.71 182.229 180.15 181.703C180.325 181.44 180.589 181.089 180.853 180.738C181.117 180.3 181.293 179.861 181.556 179.335C182.611 177.143 183.578 173.635 183.754 169.25C183.842 164.866 183.051 159.429 180.589 153.992C180.413 153.641 180.237 153.29 180.15 152.939C180.062 152.676 179.886 152.325 179.71 152.062C179.446 151.448 179.27 150.835 179.007 150.133C178.655 148.818 178.391 147.414 178.303 145.924C178.127 143.03 178.391 139.873 179.182 136.716C179.358 136.102 179.446 135.488 179.71 134.962C179.974 134.348 180.15 133.734 180.413 133.12C180.853 131.893 181.293 130.665 181.82 129.349C191.052 104.093 197.734 84.6252 196.591 84.1867C195.624 83.836 187.974 103.041 178.567 128.209C178.127 129.525 177.688 130.753 177.16 131.98C176.896 132.594 176.721 133.208 176.457 133.822C176.193 134.523 176.017 135.225 175.841 135.926C175.05 139.347 174.786 142.767 174.962 146.099C175.05 147.765 175.402 149.344 175.841 150.922C176.017 151.273 176.105 151.711 176.281 152.062C176.369 152.413 176.545 152.852 176.721 153.202C176.896 153.553 177.072 153.904 177.248 154.255C177.424 154.605 177.6 154.868 177.688 155.219C180.15 160.13 181.117 165.041 181.205 169.163C181.38 173.284 180.765 176.529 180.15 178.809C179.974 179.335 179.886 179.861 179.71 180.3C179.622 180.738 179.446 181.089 179.358 181.352C179.27 181.966 179.182 182.317 179.358 182.405Z" fill="#1B1B1B"/>
<path d="M176.544 185.298C176.544 185.298 96.6247 111.284 49.9389 110.758C49.2356 110.758 48.796 111.635 49.2356 112.161C66.5559 135.05 140.497 185.562 176.544 185.298Z" fill="#1B1B1B"/>
<path d="M176.544 185.298C176.544 184.685 172.764 184.421 166.258 182.755C163.005 181.878 159.048 180.738 154.476 178.984C149.905 177.318 144.805 175.126 139.266 172.495C128.188 167.233 115.264 160.042 101.46 150.922C94.5146 146.362 87.3931 141.451 80.1836 135.926C72.9741 130.402 65.6767 124.526 58.9069 117.774C58.2035 117.072 57.588 116.458 56.8847 115.757L55.9176 114.704C55.7417 114.441 55.8296 114.617 55.7417 114.529L56.8847 114.704L58.2914 114.88C58.731 114.967 59.1706 115.055 59.6981 115.143C60.8411 115.406 61.9841 115.669 63.127 115.844C64.27 116.195 65.413 116.458 66.468 116.809C67.611 117.072 68.666 117.511 69.809 117.861C70.864 118.212 72.007 118.563 73.062 119.001C75.1721 119.878 77.3702 120.58 79.4802 121.545C80.5353 121.983 81.5903 122.421 82.6454 122.86C83.7004 123.386 84.6676 123.825 85.7226 124.263C93.8113 128.122 101.372 132.419 108.406 136.716C122.473 145.397 134.518 153.992 144.453 161.358C164.324 176.441 175.753 186.175 176.544 185.298C176.896 184.948 174.434 181.966 169.511 177.231C164.587 172.407 157.114 165.655 147.443 157.762C137.772 149.87 125.902 140.75 111.659 131.717C104.538 127.157 96.8885 122.685 88.5361 118.563C80.1836 114.529 71.1278 110.758 61.0169 108.653C60.4894 108.566 60.0498 108.39 59.5223 108.303L57.9397 108.04L56.1813 107.777L54.7746 107.601C54.335 107.601 53.8075 107.513 53.3679 107.513H53.0162L52.7524 107.601L52.2249 107.689L51.1698 107.864L49.1477 108.215L47.1255 108.566L46.8617 108.653C46.7738 108.653 46.6859 108.653 46.6859 108.741C46.598 108.829 46.5101 108.917 46.4221 109.092C46.2463 109.355 46.0705 109.618 45.8946 109.969C45.7188 110.32 45.6309 110.583 45.6309 110.846C45.6309 111.109 45.7188 111.372 45.8067 111.635L46.1584 113.301L46.3342 114.178C46.598 114.529 46.9497 114.88 47.2134 115.231L49.0598 117.423L49.939 118.475C50.2027 118.826 50.6423 119.264 50.7302 119.44L51.7853 120.492C52.4887 121.194 53.192 121.983 53.8954 122.685C61.1049 129.7 68.5781 135.663 76.0513 141.276C83.4367 146.801 90.822 151.711 97.9436 156.272C112.187 165.216 125.551 172.232 137.156 177.055C142.959 179.511 148.322 181.44 153.07 182.843C157.817 184.334 162.038 185.123 165.554 185.649C172.676 186.438 176.632 185.737 176.544 185.298Z" fill="#1B1B1B"/>
<path d="M170.566 146.538C170.917 146.099 165.642 141.1 156.322 133.646C151.663 129.876 145.948 125.579 139.442 120.843C132.936 116.195 125.55 111.197 117.462 106.373C115.791 105.409 114.208 104.444 112.538 103.567C110.868 102.69 109.285 101.726 107.614 100.849C105.504 99.7964 103.394 98.744 101.284 97.6917C100.229 97.1655 99.1741 96.727 98.119 96.2886C97.064 95.8501 96.0089 95.4116 95.0418 94.9732C94.5143 94.7978 93.9868 94.5347 93.5472 94.3593C93.0196 94.1839 92.4921 94.0085 91.9646 93.8331C90.9096 93.4823 89.8545 93.1316 88.8874 92.7808C87.8323 92.43 86.8652 92.0792 85.8102 91.9039C84.7551 91.6408 83.788 91.3777 82.8209 91.2023C78.7765 90.3253 74.908 89.9746 71.2154 90.0623C67.5227 90.15 64.1817 90.8515 61.1924 91.9039C59.6978 92.43 58.379 93.1316 57.1481 93.8331C55.9172 94.5347 54.8622 95.3239 53.9829 96.2009C52.1366 97.7794 50.8178 99.5333 49.9386 100.936C48.1802 103.83 47.9164 105.76 48.1802 105.847C48.444 105.935 49.1473 104.269 51.0816 101.726C52.0487 100.498 53.3675 99.0071 55.2138 97.6917C56.093 96.9901 57.1481 96.3763 58.2911 95.7624C59.434 95.1485 60.6649 94.6224 61.9837 94.1839C64.7092 93.307 67.7865 92.8685 71.2154 92.8685C74.6443 92.8685 78.249 93.3947 82.1175 94.2716C83.0846 94.447 84.0518 94.7101 85.0189 94.9732C85.986 95.2362 86.9531 95.587 87.9203 95.9378C88.8874 96.2886 89.8545 96.6393 90.9096 96.9901C91.4371 97.1655 91.8767 97.3409 92.4042 97.5163C92.9317 97.6917 93.3713 97.9548 93.8989 98.1302C94.866 98.5686 95.921 99.0071 96.8881 99.4456C97.9432 99.884 98.9103 100.323 99.9654 100.849C101.988 101.901 104.01 102.866 106.12 103.918C107.79 104.795 109.373 105.672 111.043 106.637C112.714 107.513 114.208 108.478 115.879 109.443C123.88 114.178 131.265 119.001 137.859 123.562C144.453 128.122 150.168 132.243 155.004 135.751C164.411 142.591 170.214 146.976 170.566 146.538Z" fill="#1B1B1B"/>
<path d="M188.414 51.4767C188.765 51.0382 183.754 46.3904 174.17 40.6903C171.797 39.2872 169.071 37.7963 166.082 36.3055C164.587 35.604 163.005 34.8147 161.422 34.1132C160.631 33.7624 159.664 33.4116 158.784 33.1485C157.817 32.8855 156.938 32.6224 155.971 32.447C154.037 32.0962 152.014 32.0085 149.904 32.0962C147.882 32.1839 145.772 32.6224 143.75 33.1485C141.64 33.6747 139.618 34.464 137.683 35.3409C135.661 36.2178 133.727 37.2702 131.793 38.4979C130.298 39.4625 128.803 40.5149 127.397 41.6549C125.99 42.7949 124.671 43.935 123.44 45.2504C120.275 48.4074 117.55 51.6521 114.824 54.7214C112.186 57.7907 109.549 60.5969 107.087 63.4031C102.164 68.8402 97.7675 73.9265 94.0749 77.8727C90.3822 81.9067 87.1292 84.8883 84.8432 86.8176C82.5573 88.7468 81.2385 89.7992 81.3264 90.0623C81.4143 90.2376 83.0848 89.6238 85.6345 87.9576C88.2721 86.2914 91.7889 83.4852 95.7454 79.5389C99.7018 75.6804 104.186 70.7695 109.285 65.4201C111.835 62.7016 114.472 59.8954 117.198 56.8261C119.923 53.7567 122.649 50.5997 125.726 47.6181C126.957 46.3904 128.188 45.3381 129.507 44.198C130.826 43.1457 132.144 42.1811 133.551 41.2164C140.585 36.6563 148.586 34.2886 155.443 35.4286C156.323 35.5163 157.114 35.7794 157.905 35.9548C158.345 36.0425 158.696 36.2178 159.048 36.3055C159.4 36.4809 159.839 36.5686 160.191 36.744C161.774 37.4456 163.356 38.0594 164.763 38.761C167.664 40.0764 170.39 41.3918 172.852 42.7072C182.699 47.9689 188.062 51.9152 188.414 51.4767Z" fill="#1B1B1B"/>
<path d="M119.484 144.257C119.484 144.257 105.065 157.061 110.78 169.075C116.495 181.177 127.045 182.58 134.782 179.598C142.607 176.617 146.388 166.356 145.069 160.919C143.662 155.482 119.484 144.257 119.484 144.257Z" fill="white"/>
<path d="M119.484 144.257C119.221 144.784 124.144 147.414 131.969 152.062C133.903 153.202 136.013 154.605 138.211 156.096C139.266 156.885 140.409 157.675 141.377 158.552C141.904 158.99 142.344 159.516 142.783 159.955C143.223 160.481 143.487 160.919 143.575 161.27C143.838 162.498 143.838 163.901 143.575 165.392C143.311 166.795 142.871 168.286 142.256 169.689C141.025 172.495 139.003 175.214 136.277 176.88L135.486 177.406L134.607 177.757C134.343 177.932 133.991 178.02 133.727 178.108C133.376 178.195 133.112 178.371 132.76 178.458C131.529 178.809 130.211 179.072 128.892 179.16C127.221 179.248 125.639 179.16 124.056 178.809C122.474 178.458 121.067 177.844 119.748 177.055C117.11 175.477 115.088 173.197 113.506 170.741C112.802 169.513 112.011 168.198 111.659 167.058C111.22 165.83 110.956 164.603 110.956 163.375C110.868 160.919 111.396 158.552 112.187 156.535C113.769 152.413 115.968 149.519 117.374 147.502C118.781 145.573 119.66 144.521 119.484 144.257C119.308 144.082 118.078 144.784 116.231 146.625C115.352 147.502 114.209 148.73 113.154 150.221C112.011 151.711 110.868 153.553 109.901 155.745C108.934 157.938 108.143 160.569 108.143 163.55C108.143 165.041 108.406 166.62 108.846 168.11C109.373 169.689 110.077 171.004 110.868 172.495C112.539 175.301 114.912 178.02 117.99 180.037C119.572 181.001 121.331 181.703 123.177 182.229C125.023 182.668 127.045 182.843 128.98 182.755C130.562 182.668 132.145 182.317 133.64 181.966C133.991 181.878 134.343 181.703 134.782 181.615C135.134 181.528 135.486 181.352 135.925 181.177L137.068 180.651C137.42 180.475 137.772 180.212 138.123 180.037C141.552 177.844 143.838 174.6 145.333 171.267C146.74 167.935 147.531 164.427 146.74 160.832C146.476 159.692 145.773 158.902 145.245 158.289C144.717 157.675 144.102 157.149 143.487 156.622C142.344 155.658 141.113 154.781 139.97 154.079C137.596 152.588 135.398 151.273 133.376 150.221C124.935 145.661 119.66 143.819 119.484 144.257Z" fill="#1B1B1B"/>
<path d="M165.114 37.4455C165.993 37.0947 166.873 36.7439 167.752 36.4809C167.928 36.3932 168.016 36.3932 168.104 36.2178C168.191 36.1301 168.191 35.9547 168.191 35.867C168.279 31.7454 168.543 27.6237 171.181 24.2913C174.786 19.7312 182.259 19.4681 187.182 21.8359C195.007 25.6067 194.743 35.9547 189.38 41.7425C188.501 42.7072 187.446 43.5841 186.831 44.7241C185.776 46.3903 186.215 48.2319 186.479 50.0735" fill="#1B1B1B"/>
<path d="M158.432 42.5318C158.52 42.2687 157.553 41.6548 155.883 40.9533C155.004 40.6025 153.949 40.164 152.718 39.9009C151.487 39.6379 149.992 39.5502 148.497 39.6379C148.146 39.6379 147.882 39.7256 147.618 39.7256C147.354 39.7256 147.003 39.8133 146.739 39.9009C143.75 40.5148 141.376 41.9179 139.969 43.1456C138.474 44.3734 137.859 45.338 138.123 45.6011C138.299 45.7765 139.178 45.0749 140.673 44.198C142.167 43.321 144.365 42.181 147.091 41.5671C147.354 41.4795 147.618 41.4795 147.882 41.3918C148.146 41.3918 148.41 41.3041 148.673 41.3041C150.08 41.1287 151.311 41.2164 152.454 41.3918C153.597 41.5671 154.652 41.8302 155.531 42.0056C157.289 42.5318 158.345 42.7072 158.432 42.5318Z" fill="#1B1B1B"/>
<path d="M172.148 143.731C172.412 143.556 172.148 142.767 172.148 141.451C172.148 140.136 172.5 138.294 173.115 136.189C173.203 135.926 173.203 135.751 173.291 135.576C173.379 135.4 173.379 135.137 173.467 134.962C173.994 132.769 174.434 130.928 174.786 129.525C175.137 128.209 175.313 127.332 175.049 127.245C174.786 127.157 174.258 127.859 173.643 129.174C173.027 130.489 172.412 132.419 171.884 134.611C171.796 134.786 171.796 135.049 171.708 135.225C171.62 135.4 171.62 135.663 171.533 135.839C171.269 136.891 171.005 138.031 170.917 138.996C170.829 139.96 170.829 140.925 171.005 141.714C171.181 143.117 171.884 143.819 172.148 143.731Z" fill="#1B1B1B"/>
<path d="M110.956 177.932C111.747 177.055 110.252 175.389 108.846 173.197L108.67 172.846L108.494 172.495C107.175 170.303 106.736 168.373 105.505 168.373C104.977 168.373 104.538 168.987 104.538 170.127C104.45 171.18 104.801 172.67 105.593 174.161C105.681 174.337 105.768 174.424 105.856 174.6C105.944 174.775 106.032 174.863 106.12 175.038C107.087 176.354 108.142 177.318 109.109 177.844C109.901 178.283 110.604 178.371 110.956 177.932Z" fill="#1B1B1B"/>
</g>
<defs>
<clipPath id="clip0_129_5778">
<rect width="230" height="186" fill="white"/>
</clipPath>
</defs>
</svg>
