<svg width="239" height="227" viewBox="0 0 239 227" fill="none" xmlns="http://www.w3.org/2000/svg">
<g clip-path="url(#clip0_129_3368)">
<path d="M132.312 78.6464C132.598 78.6464 132.884 78.3611 133.075 77.9807C133.265 77.6954 133.551 77.22 133.932 76.9347C134.313 76.6494 134.599 76.7445 134.884 76.8396C134.98 76.9347 135.075 77.0298 135.265 77.22C135.456 77.4101 135.646 77.7905 135.742 78.266C135.837 78.4562 135.837 78.6464 135.837 78.7415C135.837 78.9317 135.932 79.0268 135.932 79.3121V79.5023V79.5974H135.742C135.551 79.5974 135.361 79.5974 135.17 79.5023C134.884 79.5023 134.599 79.4072 134.313 79.3121C133.837 79.217 133.551 79.0268 133.17 78.8366C132.884 78.8366 132.598 78.5513 132.312 78.6464C132.027 78.6464 131.836 78.9317 131.741 79.5023C131.646 80.0729 132.027 81.0239 132.884 81.7847C133.265 82.1651 133.837 82.4504 134.408 82.6406C134.694 82.7357 134.884 82.8308 135.17 82.9259L135.361 83.021L135.742 83.1161C135.932 83.1161 136.218 83.2112 136.504 83.2112C137.456 83.3063 138.504 82.9259 139.171 82.07C139.457 81.6896 139.647 81.119 139.743 80.5484C139.743 80.2631 139.743 79.9778 139.743 79.6925V79.3121V79.0268C139.743 78.7415 139.647 78.3611 139.552 78.0758C139.457 77.7905 139.362 77.5052 139.266 77.1249C138.98 76.3641 138.599 75.6033 138.028 75.0327C137.456 74.367 136.599 73.7964 135.646 73.7013C133.837 73.416 132.312 74.5572 131.836 75.6033C131.36 76.6494 131.455 77.5052 131.55 78.0758C131.741 78.4562 132.027 78.6464 132.312 78.6464Z" fill="#1B1B1B"/>
<path d="M135.36 31.7629C135.646 31.7629 135.932 31.4776 136.122 31.0972C136.313 30.8119 136.599 30.3364 136.98 30.0511C137.361 29.7658 137.647 29.8609 137.932 29.956C138.028 30.0511 138.123 30.1462 138.313 30.3364C138.504 30.5266 138.694 30.907 138.79 31.3825C138.885 31.5727 138.885 31.7629 138.885 31.858C138.885 32.0482 138.98 32.1433 138.98 32.4286V32.6188V32.7139H138.79C138.599 32.7139 138.409 32.7139 138.218 32.6188C137.932 32.6188 137.647 32.5237 137.361 32.4286C136.884 32.3335 136.599 32.1433 136.218 31.9531C135.932 31.9531 135.646 31.6678 135.36 31.7629C135.075 31.7629 134.884 32.0482 134.789 32.6188C134.694 33.1894 135.075 34.1403 135.932 34.9011C136.313 35.2815 136.884 35.5668 137.456 35.757C137.742 35.8521 137.932 35.9472 138.218 36.0423L138.409 36.1374L138.79 36.2325C138.98 36.2325 139.266 36.3276 139.552 36.3276C140.504 36.4227 141.552 36.0423 142.219 35.1864C142.505 34.806 142.695 34.2354 142.79 33.6649C142.79 33.3796 142.79 33.0943 142.79 32.809V32.4286V32.1433C142.79 31.858 142.695 31.4776 142.6 31.1923C142.505 30.907 142.409 30.6217 142.314 30.2413C142.028 29.4805 141.647 28.7197 141.076 28.1491C140.504 27.4835 139.647 26.9129 138.694 26.8178C136.884 26.5325 135.36 27.6737 134.884 28.7197C134.408 29.7658 134.503 30.6217 134.598 31.1923C134.789 31.5727 135.075 31.7629 135.36 31.7629Z" fill="#A8A8A8"/>
<path d="M93.8274 84.1621C93.9227 84.3523 94.0179 84.5424 94.2085 84.6375C94.6847 85.113 95.2563 85.3983 95.8278 85.4934C96.2089 85.5885 96.9709 85.7787 97.0662 85.3983C97.1614 85.113 96.8757 84.6375 96.6851 84.3522C96.2089 83.4964 95.2563 82.3552 94.2085 82.4503C93.4464 82.5454 93.4464 83.4013 93.8274 84.1621Z" fill="white"/>
<path d="M93.8275 84.1621C93.8275 84.1621 93.8275 84.067 93.7322 83.7817C93.7322 83.6866 93.7322 83.4964 93.7322 83.4013C93.7322 83.2111 93.8275 83.116 94.018 83.0209C94.1133 82.9258 94.2085 83.0209 94.3038 83.116C94.399 83.2111 94.4943 83.3062 94.5895 83.4013C94.7801 83.5915 95.2563 83.8768 95.6374 84.2572C95.7326 84.3523 95.8279 84.4474 95.8279 84.5425C95.9231 84.6376 95.9231 84.7327 96.0184 84.8278L96.1137 85.018C96.1137 85.018 96.2089 85.2082 96.2089 85.1131C96.2089 85.1131 96.0184 85.1131 95.9231 85.1131C95.8279 85.1131 95.7326 85.1131 95.5421 85.1131C95.1611 85.1131 94.6848 85.018 94.399 84.9229C94.1133 84.7327 93.9227 84.5425 93.8275 84.4474C93.9227 84.2572 93.8275 84.1621 93.8275 84.1621C93.8275 84.1621 93.8275 84.2572 93.9227 84.4474C94.018 84.6376 94.1133 84.8278 94.399 85.1131C94.6848 85.3984 94.9706 85.6837 95.4469 85.8739C95.5421 85.9689 95.6374 85.9689 95.8279 85.9689C96.0184 85.9689 96.0184 86.064 96.3042 86.064C96.7805 86.1591 97.352 85.9689 97.4473 85.4935C97.4473 85.3984 97.4473 85.2082 97.4473 85.1131C97.4473 85.018 97.4473 84.8278 97.352 84.7327C97.352 84.5425 97.2567 84.5425 97.2567 84.4474L97.1615 84.1621C97.0662 84.067 97.0662 83.8768 96.971 83.7817C96.8757 83.6866 96.8757 83.4964 96.7805 83.4013C96.3994 82.7356 95.9231 82.0699 95.0658 81.7846C94.6848 81.6895 94.2085 81.5944 93.8275 81.7846C93.4465 81.8797 93.0654 82.3552 93.0654 82.7356C93.0654 83.0209 93.0654 83.3062 93.1607 83.4964C93.2559 83.6866 93.2559 83.7817 93.3512 83.8768C93.7322 84.067 93.8275 84.1621 93.8275 84.1621Z" fill="#1B1B1B"/>
<path d="M86.9697 68.566C86.5887 66.2836 88.3986 64.667 90.8752 64.9523C93.3519 65.3326 96.1144 67.615 96.9717 69.9925C97.829 72.3699 96.4954 74.4621 94.2092 74.4621C93.6377 74.4621 93.0661 74.367 92.5899 74.5572C91.542 74.8425 91.3515 76.1739 91.8278 77.4102C92.3041 78.6464 93.2567 79.7876 94.2092 80.9288" fill="white"/>
<path d="M94.2088 81.0239C94.2088 81.0239 94.1136 80.9288 94.0183 80.8337C93.923 80.6435 93.7325 80.4533 93.542 80.168C93.3515 79.8827 93.161 79.5023 92.8752 79.1219C92.6847 78.6464 92.3989 78.1709 92.2084 77.6954C92.0179 77.1248 91.9226 76.5542 92.1132 76.0787C92.2084 75.7934 92.3037 75.6983 92.4942 75.6032C92.5894 75.5082 92.78 75.5082 93.161 75.5082C93.542 75.5082 94.0183 75.6032 94.5899 75.5082C95.1614 75.4131 95.7329 75.2229 96.2092 74.9376C97.257 74.2719 97.9239 73.0356 97.9239 71.8944C97.9239 71.4189 97.9238 70.9434 97.7333 70.4679C97.6381 69.9924 97.4476 69.612 97.257 69.2317C96.7808 68.2807 96.0187 67.5199 95.3519 66.8542C94.5898 66.1885 93.8278 65.713 92.9705 65.3326C92.2084 64.9522 91.3511 64.762 90.5891 64.762C89.827 64.762 89.0649 64.8571 88.4934 65.2375C87.9219 65.5228 87.4456 65.9983 87.2551 66.4738C86.9693 66.9493 86.874 67.3297 86.874 67.7101C86.874 68.0905 86.874 68.3758 86.874 68.4709C86.874 68.6611 86.874 68.7562 86.9693 68.7562C86.9693 68.7562 86.9693 68.6611 86.9693 68.4709C86.9693 68.2807 86.9693 67.9954 87.0645 67.7101C87.1598 67.4248 87.2551 66.9493 87.5408 66.5689C87.8266 66.1885 88.2076 65.8081 88.7792 65.6179C89.3507 65.4277 90.0175 65.3326 90.6843 65.4277C91.3511 65.5228 92.1132 65.8081 92.78 66.1885C94.1136 66.9493 95.4472 68.2807 96.2092 69.8973C96.3997 70.1826 96.495 70.563 96.495 70.8483C96.5903 71.1336 96.5903 71.514 96.495 71.7993C96.3997 72.5601 95.9234 73.1307 95.4472 73.5111C95.1614 73.7013 94.8756 73.7964 94.4946 73.7964C94.2088 73.8915 93.8278 73.7964 93.3515 73.8915C92.8752 73.8915 92.3037 73.9866 91.7321 74.367C91.2559 74.7474 90.9701 75.318 90.9701 75.7934C90.8748 76.7444 91.1606 77.5052 91.5416 78.0758C92.2084 79.217 92.9705 79.8827 93.542 80.3582C93.923 80.7386 94.2088 81.0239 94.2088 81.0239Z" fill="#1B1B1B"/>
<path d="M134.122 224.242C172.129 224.242 202.992 214.352 202.992 203.035C202.992 191.718 172.224 182.589 134.217 182.494C96.2092 182.494 65.3459 191.528 65.3459 202.845C65.2507 214.162 96.0187 224.147 134.122 224.242Z" fill="#1B1B1B"/>
<path d="M62.3932 211.974C62.4885 211.784 61.7264 211.214 60.4881 209.977C59.8213 209.312 59.0592 208.551 58.3924 207.505C57.7256 206.459 57.1541 205.127 57.2493 203.606C57.3446 202.084 58.2019 200.563 59.6308 199.231C61.0596 197.805 62.8695 196.568 64.9652 195.522C69.1565 193.335 74.4909 191.433 80.3968 189.912C92.3039 186.868 107.164 184.776 123.739 184.301C132.026 184.015 140.79 184.206 149.839 184.966C158.889 185.727 168.319 187.059 177.654 189.436C181.465 190.387 185.084 191.528 188.609 193.05C192.038 194.476 195.467 196.283 198.135 198.661C198.611 199.041 198.897 199.421 199.278 199.802C199.468 199.992 199.563 200.182 199.754 200.372C199.944 200.563 200.04 200.753 200.135 201.038C200.707 201.894 200.992 202.75 201.088 203.606C201.278 205.318 200.325 207.124 198.897 208.646C197.468 210.168 195.658 211.499 193.657 212.545C191.752 213.686 189.657 214.542 187.561 215.398C183.37 217.015 179.178 218.251 174.892 219.297C170.701 220.343 166.509 221.104 162.413 221.674C146.029 224.052 131.074 224.242 118.69 223.672C106.307 223.101 96.4 221.77 89.6367 220.628C82.8735 219.487 79.1585 218.631 79.0632 218.917C78.968 219.202 82.5877 220.533 89.2557 222.15C96.019 223.767 105.926 225.478 118.5 226.334C130.978 227.19 146.124 227.285 162.889 225.003C167.081 224.432 171.367 223.672 175.654 222.625C180.036 221.579 184.418 220.438 188.799 218.631C190.99 217.775 193.181 216.824 195.277 215.588C197.372 214.352 199.468 212.925 201.373 211.023C202.326 210.072 203.088 208.931 203.755 207.6C204.422 206.269 204.707 204.747 204.517 203.225C204.422 201.704 203.85 200.182 203.088 199.041C202.897 198.756 202.707 198.47 202.516 198.185C202.326 197.9 202.135 197.615 201.85 197.329C201.373 196.854 200.897 196.283 200.421 195.903C197.182 192.955 193.467 191.148 189.847 189.626C186.132 188.105 182.322 186.868 178.416 185.822C168.7 183.35 159.174 182.018 149.934 181.353C140.695 180.687 131.836 180.592 123.358 180.877C106.497 181.543 91.5419 183.92 79.4442 187.344C73.3478 189.056 68.0134 191.148 63.6316 193.62C61.4407 194.857 59.5355 196.283 58.0114 197.995C56.4873 199.612 55.4395 201.704 55.4395 203.606C55.4395 205.603 56.2968 207.124 57.1541 208.266C58.0114 209.407 58.964 210.072 59.6308 210.643C61.3454 211.784 62.298 212.165 62.3932 211.974Z" fill="#1B1B1B"/>
<path d="M74.3003 67.8052C74.0145 67.8052 73.443 70.4679 73.6335 75.4131C73.824 77.8856 74.2051 80.9288 75.1576 84.3523C76.1102 87.7759 77.4438 91.6749 79.73 95.5739C80.7778 97.571 82.2066 99.473 83.826 101.47C85.4454 103.372 87.4458 105.179 89.732 106.7C92.0181 108.222 94.8758 109.458 98.0193 109.553C101.163 109.744 104.497 108.793 107.164 106.7C109.831 104.703 111.736 101.85 113.07 98.8073C114.404 95.7641 115.166 92.4357 115.547 89.1072C115.928 85.7788 115.832 82.2601 115.451 78.8366C114.975 75.4131 114.213 71.8944 113.07 68.4709C112.117 65.713 110.879 63.1454 109.545 60.6728C108.117 58.2002 106.497 55.8228 104.592 53.5404C102.211 50.7826 99.3529 48.4051 96.0189 46.7884C92.6849 45.1717 88.9699 44.6012 85.3501 45.0767C81.7304 45.6472 78.5869 47.1688 75.9197 49.261C73.3477 51.3531 71.1568 53.9208 69.728 56.7738C68.2039 59.5316 67.3465 62.5748 66.8703 65.4277C66.394 68.2807 66.394 71.1336 66.4892 73.7964C66.6797 76.4591 67.0608 79.0268 67.5371 81.4994C67.8228 82.7356 68.1086 83.8768 68.3944 85.018C68.7754 86.1592 69.0612 87.3004 69.4422 88.3464C70.9663 92.6259 73.2525 96.1445 75.4434 98.9024C77.7296 101.66 80.111 103.657 82.2066 105.084C86.398 107.842 89.2557 108.317 89.2557 108.032C89.3509 107.747 86.8742 106.796 83.1592 103.847C81.3493 102.326 79.2537 100.329 77.2533 97.571C75.2529 94.8131 73.3477 91.4847 72.0141 87.3955C71.6331 86.4445 71.4426 85.3033 71.0616 84.2572C70.7758 83.116 70.5853 82.0699 70.3948 80.8337C70.0137 78.5513 69.6327 76.0787 69.5375 73.6062C69.3469 68.566 70.0137 63.1454 72.6809 58.2953C74.0145 55.9179 75.8244 53.7306 78.1106 51.9237C80.3015 50.212 83.064 48.8806 85.9217 48.5002C88.7794 48.1198 91.8276 48.5953 94.4948 49.9267C97.2573 51.258 99.734 53.2551 101.925 55.8228C103.639 57.8198 105.164 60.0071 106.402 62.2895C107.736 64.5718 108.783 67.0444 109.736 69.5169C110.784 72.6552 111.641 75.8885 112.022 79.1219C112.403 82.3552 112.498 85.4935 112.213 88.6317C111.927 91.6749 111.26 94.6229 110.117 97.2857C108.974 99.9485 107.355 102.326 105.354 103.847C103.354 105.464 100.877 106.225 98.4004 106.13C95.9237 106.035 93.6375 105.084 91.5418 103.847C89.4462 102.611 87.7316 100.995 86.1122 99.2828C84.5881 97.571 83.2545 95.7641 82.1114 93.9573C79.8252 90.3435 78.3964 86.7298 77.3485 83.4964C76.3007 80.2631 75.7292 77.4101 75.3481 75.0327C74.4908 70.4679 74.5861 67.8052 74.3003 67.8052Z" fill="#1B1B1B"/>
<path d="M156.984 221.104C158.317 220.628 156.793 219.677 156.603 218.631C152.792 201.133 139.456 185.062 136.122 167.468C136.122 167.468 132.026 172.318 125.739 174.601C119.357 176.883 112.213 173.84 112.213 173.84C112.499 182.684 118.024 190.482 121.548 198.566C124.12 204.462 126.216 214.923 126.787 221.389C126.692 221.389 140.504 227.19 156.984 221.104Z" fill="white"/>
<path d="M157.365 221.77C158.794 221.104 158.032 219.963 157.46 218.917C157.079 218.156 156.984 217.11 156.698 216.254C156.412 215.303 156.222 214.352 155.936 213.496C154.793 209.787 153.269 206.078 151.554 202.56C148.125 195.142 144.029 187.915 140.885 180.307C139.171 176.122 137.647 171.843 136.789 167.373C136.694 166.898 135.932 166.708 135.551 167.088C132.979 170.131 129.359 172.604 125.644 173.935C121.453 175.457 116.404 174.981 112.308 173.269C111.927 173.079 111.356 173.555 111.451 173.935C111.737 180.972 115.071 187.249 118.119 193.335C119.643 196.283 121.072 199.231 122.12 202.274C123.072 205.222 123.834 208.266 124.406 211.309C125.073 214.637 125.644 218.061 125.93 221.484C125.93 221.865 126.121 222.055 126.502 222.15C129.359 223.386 132.598 223.957 135.646 224.337C142.886 225.193 150.316 224.337 157.174 221.865C158.032 221.579 157.651 220.153 156.793 220.533C150.03 223.006 142.791 223.862 135.646 222.911C132.693 222.53 129.645 221.96 126.883 220.819C127.073 221.009 127.264 221.294 127.454 221.484C126.883 215.493 125.835 209.502 124.12 203.701C122.215 197.329 118.786 191.814 116.119 185.822C114.404 182.018 113.07 178.119 112.975 173.935C112.689 174.125 112.404 174.411 112.118 174.601C116.404 176.313 121.834 176.883 126.216 175.266C130.121 173.84 134.027 171.272 136.789 168.039C136.408 167.944 136.027 167.849 135.551 167.754C138.504 182.779 147.744 195.522 153.174 209.692C153.936 211.689 154.602 213.686 155.174 215.778C155.46 216.729 155.65 217.775 155.936 218.726C156.031 219.107 156.127 219.392 156.317 219.677C156.412 219.868 156.984 220.438 156.698 220.533C155.746 220.914 156.508 222.15 157.365 221.77Z" fill="#1B1B1B"/>
<path d="M112.593 174.315C112.308 174.22 112.117 173.935 112.212 173.745C112.593 172.699 114.308 169.941 121.643 167.944C130.883 165.376 135.074 165.566 136.503 167.088C137.836 168.514 126.215 178.595 112.593 174.315Z" fill="#1B1B1B"/>
<path d="M119.262 173.269C119.262 173.269 121.167 174.601 124.882 173.079C128.502 171.558 129.74 169.18 129.74 169.18L124.977 163.569L118.5 165.852L118.023 167.088L119.262 173.269Z" fill="white"/>
<path d="M114.689 138.463C114.975 138.083 113.546 136.656 110.879 134.279C109.545 133.233 108.021 131.806 106.497 130.095C105.735 129.239 105.068 128.288 104.497 127.242C104.402 126.956 104.211 126.671 104.116 126.481C104.116 126.386 104.116 126.386 104.116 126.291C104.116 126.196 104.116 126.101 104.211 126.101C104.306 126.101 104.306 126.101 104.402 126.196L104.592 126.291L104.878 126.481C105.068 126.576 105.354 126.766 105.545 126.861C106.497 127.432 107.545 128.098 108.593 128.858C110.689 130.285 113.07 131.616 115.451 132.948C115.832 133.138 116.213 133.423 116.594 133.613L117.642 134.374C117.928 134.659 118.214 134.945 118.5 135.23C118.785 135.515 119.071 135.896 119.262 136.181C119.833 137.037 120.31 137.988 120.595 138.939C120.881 139.985 121.072 141.031 121.262 142.077C121.548 144.264 121.548 146.452 121.548 148.544C121.548 149.59 121.548 150.636 121.548 151.587C121.548 152.062 121.548 152.633 121.643 153.109C121.643 153.584 121.738 154.155 121.834 154.63C122.119 156.627 122.596 158.339 123.167 159.956C124.31 163.094 125.644 165.281 126.787 166.708C127.835 168.134 128.692 168.705 128.978 168.514C129.168 168.324 128.787 167.468 128.121 165.852C127.454 164.235 126.501 162.048 125.739 159.1C125.358 157.673 125.072 156.057 124.977 154.25C124.977 153.774 124.882 153.394 124.882 152.918C124.882 152.443 124.882 152.062 124.882 151.492C124.882 150.541 124.977 149.495 124.977 148.449C125.072 146.357 125.072 144.074 124.882 141.602C124.787 140.365 124.501 139.129 124.215 137.798C123.834 136.466 123.262 135.23 122.405 133.994C122.119 133.518 121.643 133.043 121.357 132.662C120.976 132.282 120.5 131.902 120.119 131.426C119.643 131.046 119.262 130.76 118.785 130.38C118.309 130.095 117.833 129.809 117.357 129.524C114.88 128.193 112.689 126.956 110.593 125.625C109.545 124.959 108.498 124.294 107.355 123.723C107.069 123.533 106.783 123.438 106.497 123.248L106.021 123.057L105.354 122.772C105.068 122.677 104.783 122.677 104.592 122.582L104.211 122.487C104.116 122.487 103.925 122.487 103.83 122.487C103.354 122.487 102.877 122.582 102.401 122.677C101.83 122.867 101.353 123.343 101.068 123.913C100.782 124.484 100.687 125.054 100.782 125.625C100.877 126.196 101.068 126.861 101.353 127.432C101.544 127.907 101.734 128.193 101.925 128.478C102.782 129.809 103.64 130.855 104.592 131.711C106.402 133.518 108.212 134.85 109.831 135.705C112.689 137.798 114.404 138.749 114.689 138.463Z" fill="#1B1B1B"/>
<path d="M109.069 155.201C108.021 155.961 110.308 159.765 113.642 164.425C113.832 164.615 114.023 164.901 114.118 165.091C114.308 165.281 114.499 165.566 114.594 165.757C115.07 166.327 115.451 166.898 115.832 167.373C116.023 167.659 116.213 167.849 116.499 168.134C116.499 168.134 116.594 168.134 116.594 168.419C116.785 168.8 116.88 169.275 117.071 169.751C117.166 170.226 117.357 170.702 117.452 171.082C117.928 172.794 118.309 173.84 118.976 173.84C119.547 173.84 120.024 172.699 120.119 170.797C120.119 170.321 120.214 169.846 120.119 169.18C120.119 168.61 120.024 167.944 119.833 167.183C119.738 166.803 119.547 166.327 119.166 165.757C118.976 165.471 118.785 165.186 118.595 164.996C118.214 164.425 117.833 163.855 117.452 163.284C117.261 163.094 117.071 162.809 116.976 162.618C116.785 162.428 116.69 162.143 116.499 161.953C113.07 157.578 110.022 154.535 109.069 155.201Z" fill="#1B1B1B"/>
<path d="M100.21 145.12C99.9245 144.93 99.6387 145.025 99.1624 145.501C98.7814 145.881 98.4004 146.737 98.4004 147.878C98.4004 149.019 98.8767 150.256 99.6387 151.207C100.401 152.253 101.449 153.204 102.401 153.964C102.687 154.155 102.973 154.345 103.259 154.535L103.544 154.63L103.925 154.725C104.116 154.82 104.402 154.915 104.592 155.01C105.164 155.201 105.735 155.201 106.307 155.201C106.878 155.106 107.355 155.01 107.736 154.725C108.593 154.25 109.069 153.299 109.069 152.443C109.069 152.062 108.879 151.587 108.783 151.111C108.593 150.636 108.402 150.256 108.212 149.875C108.021 149.495 107.831 149.305 107.64 149.114C107.45 148.924 107.355 148.734 107.164 148.544C105.83 147.212 104.592 147.022 104.306 147.498C104.021 147.973 104.497 148.829 105.068 150.065C105.164 150.256 105.164 150.351 105.259 150.541C105.354 150.731 105.449 150.921 105.354 151.016C105.354 151.207 105.354 151.207 105.259 151.207C105.164 151.302 104.973 151.207 105.068 151.111H104.973C104.878 151.016 104.783 151.016 104.592 150.826C103.64 150.16 102.782 149.495 102.211 148.829C101.544 148.258 101.258 147.688 100.972 147.212C100.782 146.737 100.687 146.261 100.591 145.786C100.591 145.596 100.496 145.215 100.21 145.12Z" fill="#1B1B1B"/>
<path d="M106.783 142.458C107.259 142.077 106.497 140.46 104.687 137.988C104.211 137.417 103.735 136.752 103.068 136.086C102.782 135.706 102.401 135.42 102.02 135.04C101.83 134.85 101.639 134.659 101.353 134.469C101.068 134.184 100.591 134.089 100.21 133.804C99.3529 133.518 98.3051 133.518 97.543 134.089C97.162 134.374 96.781 134.659 96.4952 135.135C96.3999 135.325 96.2094 135.515 96.1142 135.801C96.0189 136.086 95.9236 136.181 95.9236 136.371C95.7331 137.037 95.5426 137.607 95.4473 138.273C95.4473 138.558 95.3521 138.844 95.3521 139.224C95.3521 139.509 95.2568 139.89 95.2568 140.175C95.2568 140.556 95.2568 140.936 95.3521 141.316C95.4473 141.507 95.4474 141.697 95.5426 141.887L95.7331 142.362C96.1141 143.028 96.4952 143.504 96.8762 143.884C97.2572 144.264 97.6383 144.645 98.0193 145.025C98.8766 145.786 99.7339 146.452 100.496 147.117C100.686 147.308 100.877 147.403 101.068 147.593L101.353 147.878C101.449 147.973 101.639 148.068 101.734 148.163C102.211 148.544 102.687 148.829 103.258 149.019C104.211 149.495 105.259 149.875 106.402 149.97C106.688 149.97 106.973 150.065 107.259 149.97C107.545 149.97 107.831 149.875 108.212 149.875C108.879 149.685 109.545 149.305 110.022 148.829C110.212 148.449 110.498 148.163 110.593 147.783C110.688 147.593 110.688 147.403 110.688 147.212C110.688 147.022 110.688 146.832 110.688 146.642C110.688 146.261 110.593 145.881 110.403 145.596C110.307 145.31 110.212 145.12 110.022 144.93C109.545 144.169 109.069 143.599 108.593 143.218C107.736 142.458 107.069 142.172 106.783 142.458C106.592 142.648 106.783 143.313 107.164 144.264C107.354 144.74 107.64 145.31 107.831 145.881C107.831 146.071 107.926 146.166 107.926 146.357C107.926 146.452 107.926 146.547 107.926 146.547C107.926 146.642 107.831 146.832 107.736 146.832C107.64 146.832 107.545 146.927 107.45 146.832C107.45 146.832 107.354 146.832 107.164 146.832C107.069 146.832 106.878 146.832 106.783 146.737C106.211 146.547 105.449 146.261 104.783 145.881C104.402 145.691 104.116 145.406 103.83 145.215C103.735 145.12 103.639 145.12 103.639 145.025L103.354 144.835C103.163 144.645 102.973 144.455 102.782 144.264C102.02 143.599 101.163 142.933 100.496 142.267C100.115 141.982 99.8292 141.602 99.5434 141.316C99.2576 141.031 99.0671 140.746 98.8766 140.46C98.9719 139.414 99.0671 138.273 99.3529 137.512C99.3529 137.417 99.4481 137.322 99.4481 137.322C99.4481 137.322 99.4481 137.322 99.4481 137.227C99.4481 137.132 99.5434 137.132 99.5434 137.132C99.5434 137.132 99.5434 137.132 99.6387 137.132C99.8292 137.227 99.9244 137.322 100.115 137.417C100.401 137.607 100.782 137.893 101.068 138.178C101.734 138.654 102.306 139.224 102.877 139.7C104.973 141.697 106.402 142.743 106.783 142.458Z" fill="#1B1B1B"/>
<path d="M109.546 136.181C110.022 135.801 109.26 134.184 107.45 131.711C106.974 131.141 106.497 130.475 105.831 129.809C105.545 129.429 105.164 129.144 104.783 128.763C104.592 128.573 104.402 128.383 104.116 128.193C103.83 127.907 103.354 127.812 102.973 127.527C102.116 127.242 101.068 127.242 100.306 127.812C99.9247 128.098 99.5436 128.383 99.2579 128.858C99.1626 129.049 98.9721 129.239 98.8768 129.524C98.7816 129.809 98.6863 129.904 98.6863 130.095C98.4958 130.76 98.3053 131.331 98.21 131.997C98.21 132.282 98.1148 132.567 98.1148 132.948C98.1148 133.233 98.0195 133.613 98.0195 133.899C98.0195 134.279 98.0195 134.659 98.1148 135.04C98.21 135.23 98.21 135.42 98.3053 135.61L98.4958 136.086C98.8768 136.752 99.2579 137.227 99.6389 137.607C100.02 137.988 100.401 138.368 100.782 138.749C101.735 139.604 102.782 140.365 103.64 141.126C103.925 141.316 104.116 141.506 104.306 141.697C104.592 141.887 104.878 142.077 105.164 142.267C105.735 142.648 106.307 142.838 106.878 143.123C108.022 143.599 109.26 143.884 110.593 143.694C112.308 143.504 113.546 142.077 113.451 140.746C113.451 140.46 113.356 140.08 113.261 139.795C113.165 139.509 113.07 139.224 112.975 139.034C112.784 138.654 112.594 138.273 112.308 138.083C111.832 137.512 111.451 137.132 111.07 136.847C110.308 136.086 109.736 135.896 109.546 136.181C109.355 136.371 109.45 136.847 109.831 137.703C110.022 138.083 110.212 138.558 110.403 139.034C110.593 139.509 110.784 140.175 110.689 140.27C110.593 140.46 110.308 140.555 110.212 140.555C109.736 140.555 108.974 140.365 108.117 139.89C107.736 139.7 107.355 139.414 106.974 139.224C106.783 139.129 106.593 138.939 106.402 138.844C106.212 138.654 106.021 138.463 105.831 138.273C104.973 137.512 104.021 136.752 103.163 135.991C102.782 135.705 102.497 135.325 102.211 135.04C101.925 134.754 101.735 134.469 101.544 134.184C101.639 133.138 101.735 131.997 102.02 131.236C102.02 131.141 102.116 131.046 102.116 131.046C102.116 131.046 102.116 131.046 102.116 130.951C102.116 130.855 102.211 130.855 102.211 130.855C102.211 130.855 102.211 130.855 102.306 130.855C102.497 130.951 102.592 131.046 102.782 131.141C103.068 131.331 103.449 131.616 103.735 131.902C104.402 132.377 104.973 132.948 105.545 133.423C107.736 135.325 109.165 136.466 109.546 136.181Z" fill="#1B1B1B"/>
<path d="M97.543 106.891L104.687 125.054L110.879 128.003L105.64 104.608C105.64 104.608 103.354 107.081 97.543 106.891Z" fill="#1B1B1B"/>
<path d="M108.021 133.423L116.118 154.44L116.976 154.82L113.832 137.798L108.021 133.423Z" fill="#1B1B1B"/>
<path d="M213.852 140.936L235.857 137.988C235.857 137.988 239.286 158.624 237.667 165.757C223.283 168.419 212.328 169.846 212.328 169.846C212.328 169.846 219.091 161.667 214.9 144.169" fill="#E2E2E2"/>
<path d="M214.996 144.169C214.9 144.169 214.9 144.835 215.091 146.071C215.186 146.642 215.281 147.403 215.377 148.354C215.472 149.209 215.662 150.256 215.662 151.397C215.853 153.679 215.853 156.437 215.377 159.575C215.091 161.097 214.805 162.809 214.234 164.425C213.948 165.281 213.662 166.042 213.281 166.898C213.186 167.088 213.091 167.278 212.995 167.468L212.805 167.754V167.849C212.805 167.944 212.709 167.944 212.709 168.039L212.424 168.324L212.043 168.895C211.947 169.085 211.757 169.275 211.566 169.561C211.185 170.036 210.9 170.416 210.519 170.892C211.09 170.797 211.947 170.702 212.614 170.607C213.281 170.512 213.948 170.416 214.71 170.321C215.472 170.226 216.329 170.131 217.091 169.941C218.711 169.656 220.425 169.465 222.14 169.18C225.569 168.61 229.189 168.039 232.904 167.373C234.238 167.088 235.571 166.898 236.81 166.708C237 166.708 237.857 166.517 238.429 166.422L238.715 164.806C238.81 164.14 238.81 163.474 238.905 162.713C239.096 159.29 238.81 156.057 238.619 152.918C238.334 149.78 237.953 146.832 237.572 143.979C237.381 142.553 237.191 141.221 237 139.89C236.905 139.034 236.714 138.178 236.619 137.322V137.132V137.037C236.619 137.037 236.619 136.942 236.524 136.942L236.047 137.037L235.19 137.132C234.809 137.227 234.428 137.227 234.142 137.322C231.666 137.703 229.379 137.988 227.284 138.368C218.901 139.605 213.853 140.556 213.853 140.841C213.853 141.126 218.996 140.651 227.379 139.7C229.475 139.414 231.761 139.129 234.238 138.844C234.523 138.844 234.809 138.749 235.095 138.749H235.19V138.844V139.129C235.19 139.414 235.285 139.795 235.285 140.08C235.476 141.411 235.666 142.743 235.857 144.169C236.238 146.927 236.524 149.97 236.81 153.013C237 156.057 237.286 159.29 237.095 162.523C237 163.189 237 163.855 236.905 164.425C236.81 164.901 236.905 164.711 236.81 164.711C236.81 164.711 236.905 164.711 236.524 164.806C235.19 164.996 233.952 165.281 232.618 165.471C228.903 166.137 225.283 166.708 221.854 167.278C219.092 167.754 216.424 168.134 213.948 168.514C213.948 168.514 214.043 168.419 214.043 168.324L214.234 167.849C214.329 167.659 214.424 167.373 214.519 167.183C214.9 166.327 215.281 165.376 215.567 164.52C216.139 162.713 216.424 161.002 216.615 159.385C216.996 156.152 216.901 153.299 216.52 150.921C216.424 149.78 216.139 148.734 216.043 147.878C215.853 147.022 215.662 146.261 215.472 145.691C215.281 144.74 215.091 144.169 214.996 144.169Z" fill="#1B1B1B"/>
<path d="M144.791 134.374C144.791 134.374 150.887 119.444 173.082 117.542C188.323 134.85 188.323 134.85 188.323 134.85C188.323 134.85 161.08 144.074 163.842 153.964C144.981 143.123 144.695 137.703 144.695 137.703" fill="#E2E2E2"/>
<path d="M144.79 137.607C144.695 137.607 144.695 138.368 145.267 139.414C145.838 140.556 146.886 141.982 148.505 143.599C150.125 145.215 152.22 147.022 154.792 148.829C156.126 149.78 157.46 150.731 158.984 151.682C159.746 152.158 160.508 152.633 161.27 153.109C161.746 153.394 163.747 154.63 165.175 155.391C165.08 154.915 164.985 154.345 164.89 153.869C164.794 153.394 164.794 152.918 164.699 152.443V152.062C164.699 151.967 164.699 151.967 164.699 151.872L164.794 151.587C164.794 151.397 164.89 151.111 164.985 150.921C165.271 150.065 165.747 149.209 166.414 148.354C167.652 146.737 169.367 145.31 171.272 144.074C175.082 141.506 179.464 139.319 184.227 137.417C184.894 137.132 185.656 136.847 186.322 136.561L187.37 136.181L189.18 135.515L190.133 135.135L186.608 131.141C184.132 128.288 181.655 125.53 179.273 122.867C178.13 121.536 176.987 120.3 175.844 118.968C175.273 118.302 174.701 117.637 174.13 117.066L173.749 116.591L173.653 116.496H173.558H173.272L172.415 116.591C172.034 116.686 171.558 116.686 171.177 116.781C167.938 117.161 164.89 118.017 162.127 118.873C161.46 119.158 160.794 119.444 160.127 119.729C159.841 119.824 159.46 120.014 159.174 120.109C158.888 120.3 158.603 120.395 158.222 120.585C157.65 120.87 157.079 121.155 156.507 121.536C155.935 121.916 155.459 122.202 154.888 122.582C154.602 122.772 154.411 122.867 154.126 123.057C153.84 123.248 153.649 123.438 153.459 123.628C152.983 124.008 152.506 124.294 152.125 124.674C151.363 125.435 150.506 126.101 149.839 126.766C148.505 128.098 147.458 129.524 146.696 130.57C145.267 132.853 144.79 134.279 144.886 134.374C144.981 134.469 145.648 133.138 147.267 131.046C148.124 130 149.077 128.763 150.506 127.527C151.173 126.861 151.935 126.291 152.792 125.625C153.268 125.34 153.649 124.959 154.126 124.674C154.316 124.484 154.602 124.389 154.792 124.199C155.078 124.008 155.269 123.913 155.554 123.723C156.031 123.438 156.602 123.153 157.079 122.772C157.65 122.487 158.222 122.202 158.793 121.916C159.079 121.821 159.365 121.631 159.65 121.536C159.936 121.441 160.222 121.251 160.603 121.155C161.27 120.87 161.841 120.68 162.508 120.395C165.175 119.539 168.033 118.778 171.272 118.493C171.653 118.493 172.034 118.398 172.415 118.302H172.796C173.368 118.873 173.844 119.539 174.415 120.109C175.558 121.346 176.702 122.677 177.845 124.008C180.131 126.671 182.607 129.429 185.084 132.282L186.418 133.804L186.799 134.279L186.513 134.374L185.465 134.755C184.798 135.04 184.036 135.325 183.37 135.61C178.511 137.607 174.034 139.795 170.129 142.553C168.224 143.979 166.318 145.406 164.985 147.307C164.318 148.258 163.651 149.209 163.366 150.351C163.27 150.636 163.175 150.921 163.175 151.207L163.08 151.682C163.08 151.777 163.08 151.872 163.08 151.872V151.967V152.158V152.253C163.461 152.538 161.079 151.111 159.746 150.256C158.222 149.4 156.888 148.449 155.554 147.593C152.983 145.881 150.887 144.169 149.267 142.743C147.648 141.221 146.505 139.985 145.838 139.034C145.076 138.178 144.886 137.607 144.79 137.607Z" fill="#1B1B1B"/>
<path d="M184.228 71.9895C184.228 71.9895 202.041 79.7876 213.852 66.4738C217.377 76.4592 226.522 79.0268 231.761 80.0729C214.329 94.623 206.994 100.234 206.994 100.234C206.994 100.234 194.896 94.4328 186.228 77.1248" fill="#E2E2E2"/>
<path d="M186.133 77.1248C186.038 77.2199 186.514 78.5513 187.848 81.0239C189.086 83.4013 191.182 86.8249 194.42 90.6288C196.04 92.5308 197.945 94.5278 200.231 96.4298C201.374 97.3808 202.612 98.3318 203.851 99.2828C204.518 99.7583 205.184 100.139 205.946 100.614L206.899 101.09C207.089 101.28 207.185 100.995 207.375 100.899L207.852 100.519C208.233 100.234 208.518 99.9484 208.899 99.6632C214.043 95.4788 219.759 90.9141 225.76 86.0641C226.998 85.1131 228.141 84.067 229.38 83.116C230.046 82.5454 230.713 81.9748 231.475 81.4042C232.047 80.9288 232.714 80.4533 233.285 79.9778L233.761 79.5974L233.857 79.5023C233.857 79.5023 233.857 79.5023 233.952 79.5023H233.857L233.571 79.4072L232.428 79.1219L230.999 78.8366L229.951 78.5513C229.475 78.4562 228.999 78.3611 228.618 78.1709C227.76 77.8856 226.808 77.6003 226.046 77.315C224.331 76.6493 222.807 75.7934 221.378 74.7474C219.949 73.7964 218.711 72.5601 217.758 71.2287C217.187 70.563 216.806 69.8973 216.329 69.2317C216.139 68.8513 215.948 68.4709 215.758 68.1856C215.663 67.9954 215.567 67.8052 215.472 67.615L215.186 66.8542L214.71 65.8081L214.52 65.2375L214.424 64.9522L214.329 64.8571C214.329 64.8571 214.234 64.8571 214.234 64.9522C213.662 65.5228 213.091 66.0934 212.614 66.5689C212.329 66.8542 212.043 67.1395 211.757 67.4248C211.471 67.7101 211.186 67.9954 210.9 68.1856C210.328 68.6611 209.757 69.1365 209.185 69.5169C208.614 69.8973 207.947 70.2777 207.375 70.6581C204.899 71.9895 202.327 72.8454 199.945 73.1307C197.564 73.5111 195.373 73.5111 193.468 73.416C192.515 73.416 191.658 73.2258 190.801 73.1307C190.038 72.9405 189.276 72.8454 188.61 72.7503C185.942 72.1797 184.514 71.7042 184.514 71.8944C184.418 71.9895 185.752 72.7503 188.419 73.5111C189.086 73.7013 189.848 73.8915 190.61 74.0817C191.467 74.1768 192.325 74.4621 193.372 74.4621C195.373 74.7474 197.659 74.7474 200.136 74.4621C202.612 74.1768 205.375 73.416 208.042 71.9895C208.709 71.6091 209.376 71.2287 210.042 70.8483C210.709 70.3728 211.281 69.8973 211.948 69.4218C212.329 69.2316 212.614 68.9464 212.9 68.6611C213.186 68.3758 213.472 68.0905 213.757 67.9003L213.853 67.8052C213.853 67.8052 213.853 67.9003 213.948 67.9003L214.139 68.2807C214.234 68.4709 214.329 68.6611 214.424 68.8513C214.615 69.2316 214.805 69.612 214.996 69.9924C215.472 70.7532 215.948 71.514 216.52 72.1797C217.663 73.6062 218.997 74.9376 220.521 76.0787C222.045 77.2199 223.759 78.0758 225.569 78.8366C226.427 79.217 227.379 79.5023 228.332 79.7876C228.808 79.9778 229.284 80.0729 229.761 80.168L230.142 80.2631L228.618 81.4993C227.379 82.4503 226.236 83.4013 224.998 84.4474C218.997 89.3925 213.376 93.9572 208.233 98.1416C207.947 98.4269 207.661 98.6171 207.375 98.9024C207.28 98.9975 207.375 98.9975 207.185 98.9024C206.518 98.522 205.851 98.1416 205.184 97.6661C203.946 96.8102 202.708 95.9543 201.66 95.0033C199.469 93.1965 197.564 91.2945 195.849 89.4876C192.61 85.8739 190.419 82.6405 188.895 80.3582C186.99 78.3611 186.228 77.0297 186.133 77.1248Z" fill="#1B1B1B"/>
<path d="M35.2457 139.985L52.4872 135.705C52.4872 135.705 39.056 161.192 35.2457 149.78C31.4354 138.368 31.6259 134.089 31.6259 134.089L0.953125 134.85C0.953125 134.85 1.81044 158.054 17.2421 156.532C32.6737 155.01 35.3409 153.394 35.3409 153.394" fill="#E2E2E2"/>
<path d="M35.2455 153.394C35.1502 153.299 33.5308 153.869 30.3874 154.345C27.2439 154.82 22.5763 155.391 16.8608 155.866C14.0984 156.057 10.9549 155.296 8.57348 153.109C6.19205 150.921 4.47743 147.593 3.4296 143.979C2.85806 142.172 2.47703 140.27 2.19126 138.273C2.096 137.798 2.096 137.227 2.00074 136.752C1.90549 136.276 1.90549 135.515 1.90549 135.705H2.096C2.66754 135.705 3.14383 135.705 3.71537 135.705C8.00194 135.61 12.479 135.515 17.0514 135.325C18.8612 135.23 20.7664 135.23 22.5763 135.135C24.3862 135.04 26.196 135.04 28.1012 134.945C28.768 134.945 29.3395 134.945 30.0063 134.85C30.2921 134.85 30.5779 134.85 30.9589 134.85L31.0541 135.705C31.1494 136.276 31.2447 136.847 31.2447 137.322C31.4352 138.368 31.6257 139.509 31.9115 140.46C32.3877 142.553 32.9593 144.55 33.5308 146.547C33.8166 147.498 34.1024 148.449 34.4834 149.4C34.7692 150.351 35.1502 151.397 36.0075 152.348C36.3885 152.823 36.9601 153.204 37.6269 153.394C37.9127 153.489 38.2937 153.489 38.5795 153.489C38.8652 153.394 39.151 153.394 39.4368 153.299C40.5799 152.918 41.4372 152.348 42.104 151.777C43.6281 150.541 44.7712 149.114 45.9143 147.688C46.9621 146.261 48.0099 144.93 48.8672 143.504C49.7245 142.172 50.5819 140.746 51.3439 139.509C51.7249 138.749 52.106 138.083 52.487 137.417C52.7728 136.847 53.0585 136.371 53.3443 135.801L53.7253 135.04L53.9158 134.659C53.8206 134.659 53.6301 134.755 53.5348 134.755C52.9633 134.85 52.3917 135.04 51.9155 135.135C51.4392 135.23 50.8676 135.42 50.3913 135.515C49.7245 135.705 49.153 135.801 48.5815 135.991C47.4384 136.276 46.2953 136.656 45.2475 136.847C43.1518 137.417 41.4372 137.893 39.9131 138.368C37.0553 139.224 35.436 139.7 35.5312 139.89C35.5312 139.985 37.1506 139.7 40.1036 139.129C41.6277 138.844 43.3423 138.368 45.5332 137.893C46.5811 137.607 47.7241 137.417 48.8672 137.132C49.4388 137.037 50.1056 136.847 50.6771 136.656C50.8676 136.656 51.1534 136.561 51.3439 136.466H51.4392V136.561L51.3439 136.752L51.1534 137.037C50.8676 137.607 50.4866 138.178 50.1056 138.749C49.3435 139.985 48.4862 141.316 47.6289 142.648C46.7716 143.979 45.7237 145.31 44.6759 146.642C43.6281 147.973 42.485 149.305 41.0561 150.351C40.3893 150.921 39.6273 151.397 38.9605 151.587C38.1984 151.777 37.7221 151.682 37.1506 151.111C36.8648 150.826 36.6743 150.446 36.4838 150.065C36.2933 149.685 36.198 149.305 36.0075 148.734C35.7217 147.783 35.436 146.832 35.1502 145.881C34.5787 143.979 34.0071 141.982 33.5308 139.985C33.3403 138.939 33.0545 137.988 32.9593 136.942C32.864 136.466 32.7688 135.896 32.7688 135.42C32.7688 135.135 32.6735 134.945 32.6735 134.564C32.6735 133.994 32.6735 133.423 32.6735 132.853C31.1494 132.853 29.6253 132.948 28.0059 132.948C26.196 133.043 24.2909 133.043 22.481 133.138C20.6711 133.233 18.8612 133.233 16.9561 133.328C12.3838 133.423 7.90668 133.613 3.62011 133.708C3.04857 133.708 2.57229 133.708 2.00074 133.804H1.33394H0.571887H0.190858H0.000344291C-0.0949128 133.804 0.000344291 133.899 0.000344291 133.994V134.755C0.0956014 135.991 0.0956014 136.181 0.190858 136.752C0.286116 137.322 0.286116 137.798 0.381373 138.273C0.667144 140.365 1.14343 142.362 1.71497 144.264C2.85806 148.068 4.66794 151.587 7.4304 154.059C8.764 155.296 10.3834 156.152 12.0027 156.627C13.6221 157.103 15.2415 157.198 16.7656 157.008C22.5763 156.437 27.2439 155.676 30.3874 154.915C33.7213 154.44 35.3407 153.584 35.2455 153.394Z" fill="#1B1B1B"/>
<path d="M226.902 145.406C226.902 145.025 225.188 144.835 222.997 144.835C222.901 144.835 222.806 144.835 222.711 144.835C222.616 144.835 222.52 144.835 222.425 144.835C220.234 144.835 218.52 145.025 218.52 145.406C218.52 145.786 220.234 145.881 222.425 145.976C222.52 145.976 222.616 145.976 222.711 145.976C222.806 145.976 222.901 145.976 222.997 145.976C225.188 145.881 226.902 145.691 226.902 145.406Z" fill="#1B1B1B"/>
<path d="M232.142 149.019C232.047 148.639 229.761 149.019 226.712 149.209C226.522 149.209 226.427 149.209 226.236 149.209C226.045 149.209 225.95 149.209 225.76 149.209C222.712 149.4 220.425 149.305 220.33 149.685C220.33 149.97 222.712 150.446 225.76 150.351C225.95 150.351 226.045 150.351 226.236 150.351C226.427 150.351 226.522 150.351 226.712 150.351C229.951 150.065 232.237 149.305 232.142 149.019Z" fill="#1B1B1B"/>
<path d="M175.463 126.005C175.749 125.72 175.082 124.864 174.13 123.913C174.035 123.913 174.035 123.818 173.939 123.818L173.844 123.723C172.891 122.772 172.034 122.201 171.748 122.487C171.463 122.772 172.129 123.533 173.082 124.579C173.177 124.579 173.177 124.674 173.272 124.674L173.368 124.769C174.32 125.625 175.273 126.291 175.463 126.005Z" fill="#1B1B1B"/>
<path d="M176.321 132.472C176.606 132.187 175.178 130.38 173.177 128.003C173.082 127.907 172.987 127.812 172.891 127.622C172.796 127.527 172.701 127.432 172.606 127.242C170.605 124.959 168.891 123.248 168.605 123.533C168.319 123.723 169.748 125.625 171.748 128.003C171.844 128.098 171.939 128.193 172.034 128.383C172.129 128.478 172.225 128.573 172.32 128.763C174.32 131.046 176.035 132.662 176.321 132.472Z" fill="#1B1B1B"/>
<path d="M152.412 137.322C153.364 136.561 153.269 135.61 152.698 134.755L152.602 134.659L152.507 134.564C151.84 133.804 150.888 133.423 149.935 134.184C149.078 134.85 149.078 135.896 149.649 136.752L149.745 136.847L149.84 136.942C150.602 137.703 151.554 137.988 152.412 137.322Z" fill="#1B1B1B"/>
<path d="M17.051 140.46C16.9557 140.08 14.7648 140.27 11.8118 140.365C11.6213 140.365 11.5261 140.365 11.3355 140.365C11.145 140.365 11.0498 140.365 10.8593 140.365C7.90629 140.556 5.62012 140.556 5.62012 140.936C5.62012 141.316 7.90629 141.506 10.8593 141.411C11.0498 141.411 11.145 141.411 11.3355 141.411C11.5261 141.411 11.6213 141.411 11.8118 141.411C14.8601 141.221 17.051 140.746 17.051 140.46Z" fill="#1B1B1B"/>
<path d="M23.9095 144.074C23.8143 143.694 20.6708 144.264 16.4795 144.55C16.289 144.55 16.0984 144.55 15.8127 144.55C15.6222 144.55 15.4316 144.55 15.1459 144.55C10.9546 144.835 7.71582 144.645 7.71582 145.025C7.71582 145.31 10.9546 145.881 15.2411 145.691C15.4316 145.691 15.6222 145.691 15.9079 145.691C16.0984 145.691 16.289 145.691 16.5747 145.691C20.766 145.31 24.0048 144.359 23.9095 144.074Z" fill="#1B1B1B"/>
<path d="M40.0078 141.982C40.0078 143.218 40.3888 143.694 40.9604 143.789H41.0556H41.1509C41.7224 143.694 42.1035 143.218 42.1035 141.982C42.1035 140.841 41.7224 140.27 41.1509 140.175H41.0556H40.9604C40.4841 140.27 40.0078 140.841 40.0078 141.982Z" fill="#1B1B1B"/>
<path d="M222.235 79.3121C222.235 78.9317 219.853 78.7415 217.091 77.315C216.996 77.2199 216.805 77.2199 216.71 77.1248L216.329 76.9346C213.662 75.5082 212.042 73.6062 211.757 73.8915C211.471 74.0817 212.9 76.269 215.757 77.8856C215.948 77.9807 216.043 78.0758 216.234 78.0758C216.424 78.1709 216.519 78.266 216.71 78.266C219.663 79.6925 222.33 79.5974 222.235 79.3121Z" fill="#1B1B1B"/>
<path d="M215.948 81.9749C216.044 81.5945 214.138 80.9288 212.233 79.3121L211.947 79.0268L211.662 78.7415C209.757 77.0297 208.709 75.318 208.423 75.5082C208.137 75.6033 208.899 77.6954 210.995 79.5974L211.281 79.8827L211.566 80.168C213.757 81.8798 215.948 82.3552 215.948 81.9749Z" fill="#1B1B1B"/>
<path d="M169.081 44.0306C169.367 44.0306 169.653 43.7453 169.843 43.3649C170.034 43.0796 170.319 42.6041 170.7 42.3188C171.081 42.0335 171.367 42.1286 171.653 42.2237C171.748 42.3188 171.844 42.4139 172.034 42.6041C172.225 42.7943 172.415 43.1747 172.51 43.6502C172.606 43.8404 172.606 44.0306 172.606 44.1257C172.606 44.3159 172.701 44.411 172.701 44.6963V44.8865V44.9816H172.51C172.32 44.9816 172.129 44.9816 171.939 44.8865C171.653 44.8865 171.367 44.7914 171.081 44.6963C170.605 44.6012 170.319 44.411 169.938 44.2208C169.748 44.2208 169.462 44.0306 169.081 44.0306C168.795 44.0306 168.605 44.3159 168.509 44.8865C168.414 45.4571 168.795 46.408 169.653 47.1688C170.034 47.5492 170.605 47.8345 171.177 48.0247C171.462 48.1198 171.653 48.2149 171.939 48.31L172.129 48.4051L172.51 48.5002C172.701 48.5002 172.987 48.5953 173.272 48.5953C174.225 48.6904 175.273 48.31 175.94 47.4541C176.225 47.0737 176.416 46.5031 176.511 45.9326C176.511 45.6473 176.511 45.362 176.511 45.0767V44.6963V44.411C176.511 44.1257 176.416 43.7453 176.321 43.46C176.225 43.1747 176.13 42.8894 176.035 42.509C175.749 41.7482 175.368 40.9874 174.796 40.4168C174.225 39.7512 173.368 39.1806 172.415 39.0855C170.605 38.8002 169.081 39.9414 168.605 40.9874C168.128 42.0335 168.224 42.8894 168.319 43.46C168.51 43.9355 168.891 44.1257 169.081 44.0306Z" fill="#A8A8A8"/>
<path d="M181.846 0C180.608 0 180.131 2.18726 180.036 5.04022C180.036 5.13532 180.036 5.32551 180.036 5.42061C180.036 5.51571 180.036 5.70591 180.036 5.80101C180.131 8.65396 180.608 10.8412 181.846 10.8412C182.989 10.8412 183.561 8.65396 183.656 5.80101C183.656 5.70591 183.656 5.51571 183.656 5.42061C183.656 5.32551 183.656 5.13532 183.656 5.04022C183.561 2.18726 182.989 0 181.846 0Z" fill="#A8A8A8"/>
<path d="M136.218 114.403C135.074 114.879 134.789 115.64 134.979 116.401V116.496V116.591C135.36 117.351 136.027 117.732 137.17 117.256C138.218 116.876 138.599 116.02 138.408 115.259C138.408 115.259 138.408 115.164 138.313 115.164V115.069C138.027 114.308 137.265 113.928 136.218 114.403Z" fill="#A8A8A8"/>
<path d="M86.0176 151.302C86.0176 152.538 86.5891 153.013 87.3512 153.108H87.4464H87.5417C88.3037 153.013 88.8753 152.538 88.8753 151.302C88.8753 150.16 88.3037 149.59 87.5417 149.495H87.4464H87.3512C86.5891 149.59 86.0176 150.16 86.0176 151.302Z" fill="#A8A8A8"/>
<path d="M27.5289 77.4101C27.1479 77.8856 27.1479 78.4562 27.5289 79.1219C27.91 79.7876 28.7673 80.4533 29.8151 81.0239L30.1009 81.119L30.3866 81.2141C31.5297 81.5945 32.5776 81.6896 33.3396 81.5945C34.1017 81.4043 34.578 81.0239 34.6732 80.3582C34.7685 79.217 33.3396 78.5513 31.7202 77.7905L31.4345 77.6954C29.7198 77.1248 28.291 76.5543 27.5289 77.4101Z" fill="#A8A8A8"/>
<path d="M42.2943 29.8609C41.0559 29.8609 40.5796 30.907 40.4844 32.2384C40.4844 32.3335 40.4844 32.3335 40.4844 32.4286C40.4844 32.5237 40.4844 32.5237 40.4844 32.6188C40.5796 33.9501 41.0559 34.9962 42.2943 34.9962C43.4373 34.9962 44.0089 33.9501 44.1041 32.6188C44.1041 32.5237 44.1041 32.5237 44.1041 32.4286C44.1041 32.3335 44.1041 32.3335 44.1041 32.2384C44.0089 30.8119 43.4373 29.8609 42.2943 29.8609Z" fill="#A8A8A8"/>
<path d="M224.235 20.7314C222.996 20.7314 222.52 21.6824 222.425 22.8236C222.425 22.9187 222.425 22.9187 222.425 23.0138C222.425 23.1089 222.425 23.1089 222.425 23.204C222.52 24.3452 222.996 25.2962 224.235 25.2962C225.378 25.2962 225.949 24.3452 226.045 23.204C226.045 23.1089 226.045 23.1089 226.045 23.0138C226.045 22.9187 226.045 22.9187 226.045 22.8236C225.949 21.6824 225.378 20.7314 224.235 20.7314Z" fill="#A8A8A8"/>
<path d="M112.784 16.1667C111.546 16.1667 111.07 16.2618 110.975 16.452C111.07 16.6422 111.546 16.7373 112.784 16.7373C113.928 16.7373 114.499 16.6422 114.594 16.452C114.499 16.2618 113.928 16.1667 112.784 16.1667Z" fill="#A8A8A8"/>
<path d="M221.949 117.256C222.426 118.398 223.188 118.683 223.95 118.398C223.95 118.398 224.045 118.398 224.045 118.302H224.14C224.807 117.922 225.188 117.256 224.807 116.115C224.426 115.069 223.569 114.784 222.807 114.974C222.807 114.974 222.711 114.974 222.711 115.069H222.616C221.854 115.45 221.568 116.21 221.949 117.256Z" fill="#A8A8A8"/>
<path d="M186.132 166.612C186.513 167.754 187.942 167.849 189.657 167.278C189.752 167.278 189.847 167.183 189.942 167.183C190.038 167.183 190.133 167.088 190.228 167.088C191.848 166.422 192.895 165.471 192.514 164.33C192.133 163.284 190.704 163.189 188.99 163.664C188.895 163.664 188.799 163.76 188.704 163.76C188.609 163.76 188.514 163.855 188.418 163.855C186.799 164.52 185.751 165.471 186.132 166.612Z" fill="#A8A8A8"/>
<path d="M105.926 23.5844C105.926 24.8207 106.878 25.2962 108.021 25.3913C108.117 25.3913 108.117 25.3913 108.212 25.3913C108.307 25.3913 108.307 25.3913 108.402 25.3913C109.546 25.2962 110.498 24.8207 110.498 23.5844C110.498 22.4432 109.546 21.8726 108.402 21.7775C108.307 21.7775 108.307 21.7775 108.212 21.7775C108.117 21.7775 108.117 21.7775 108.021 21.7775C106.878 21.8726 105.926 22.4432 105.926 23.5844Z" fill="#1B1B1B"/>
<path d="M67.8226 138.844C69.0609 138.844 69.5372 137.893 69.6325 136.752C69.6325 136.656 69.6325 136.656 69.6325 136.561C69.6325 136.466 69.6325 136.466 69.6325 136.371C69.5372 135.23 69.0609 134.279 67.8226 134.279C66.6795 134.279 66.108 135.23 66.0127 136.371C66.0127 136.466 66.0127 136.466 66.0127 136.561C66.0127 136.656 66.0127 136.656 66.0127 136.752C66.108 137.893 66.6795 138.844 67.8226 138.844Z" fill="#1B1B1B"/>
<path d="M35.4355 182.494C35.4355 183.73 37.6265 184.206 40.3889 184.301C40.4842 184.301 40.6747 184.301 40.7699 184.301C40.8652 184.301 41.0557 184.301 41.151 184.301C44.0087 184.206 46.1043 183.73 46.1043 182.494C46.1043 181.353 43.9134 180.782 41.151 180.687C41.0557 180.687 40.8652 180.687 40.7699 180.687C40.6747 180.687 40.4842 180.687 40.3889 180.687C37.6265 180.782 35.4355 181.353 35.4355 182.494Z" fill="#1B1B1B"/>
</g>
<defs>
<clipPath id="clip0_129_3368">
<rect width="239" height="227" fill="white"/>
</clipPath>
</defs>
</svg>
