<svg width="108" height="98" viewBox="0 0 108 98" fill="none" xmlns="http://www.w3.org/2000/svg">
<g clip-path="url(#clip0_2309_2291)">
<path d="M99.6155 88.7283C99.499 88.4634 99.3478 88.2321 99.2969 87.981C99.1935 87.4771 98.8927 87.0764 98.6721 86.6321C98.3644 86.0107 98.1461 85.3367 97.7758 84.7565C96.5224 82.7916 95.1788 80.8817 93.9516 78.9016C93.4132 78.0329 93.0676 77.0474 92.645 76.1107C92.1228 74.9527 91.66 73.7649 91.0753 72.639C90.7575 72.0275 90.1906 71.5481 89.8211 70.9573C89.0868 69.7825 88.4412 68.5527 87.7054 67.3787C85.7462 64.2497 84.3177 60.8573 82.6555 57.5802C82.1448 56.5733 81.5062 55.6298 80.9207 54.6603C80.859 54.5581 80.7588 54.4771 80.6253 54.3306C80.4927 54.6611 80.3746 54.9222 80.2821 55.1924C79.5856 57.2229 78.8405 59.2382 78.2203 61.2909C77.7575 62.8206 77.4081 64.3886 77.1004 65.9573C76.7972 67.5016 76.589 69.0657 76.3776 70.626C76.191 72.0046 76.3645 73.381 76.6653 74.7184C77.348 77.7519 77.3194 80.7672 76.6838 83.7985C76.4887 84.7298 76.3344 85.6764 76.2642 86.6237C76.147 88.2054 76.1123 89.7939 76.0413 91.4168C76.0259 91.4062 76.0529 91.4374 76.0861 91.4474C76.8474 91.6756 77.1883 92.1634 77.0309 92.9596C76.7903 94.1817 76.9299 95.3596 77.3125 96.5275C77.4397 96.9153 77.378 97.0764 76.9114 97.1703C76.1215 97.3298 75.3201 97.4756 74.5172 97.5184C73.7389 97.5603 72.9514 97.4199 72.17 97.4413C71.0439 97.4718 69.9193 97.5664 68.7955 97.6519C67.4009 97.758 66.0079 97.8825 64.6141 97.997C64.5254 98.0046 64.4328 97.9993 64.3449 97.9855C64.0078 97.9321 63.6229 97.9458 63.5049 97.5184C63.3931 97.1138 63.6275 96.5939 64.0356 96.3878C64.2955 96.2565 64.5755 96.1329 64.8609 96.0855C65.913 95.9122 66.7669 95.4222 67.5413 94.6993C68.2293 94.0565 69.0315 93.5374 69.5745 92.7405C69.6925 92.5672 69.9278 92.4382 70.136 92.3657C70.4168 92.268 70.5055 92.1016 70.443 91.8451C70.362 91.5123 70.2633 91.1832 70.1623 90.8558C70.0589 90.5199 70.0219 90.2306 70.4793 90.126C70.6837 90.0794 70.777 89.9436 70.6659 89.7222C70.622 89.6351 70.5888 89.5229 70.6042 89.4306C70.7994 88.2397 70.5032 87.0748 70.3906 85.9046C70.1221 83.1206 69.7511 80.3466 69.4974 77.5619C69.3524 75.968 69.3709 74.3596 69.286 72.7596C69.2498 72.0756 69.1017 71.3978 69.0693 70.7145C69.0137 69.5481 68.9142 68.371 69.0053 67.2122C69.1395 65.497 68.9366 63.813 68.7831 62.1184C68.581 59.881 68.6358 57.6481 68.888 55.4153C69.2135 52.5367 69.8892 49.739 70.7909 46.9909C70.9012 46.6535 70.8935 46.3497 70.733 46.0352C70.3867 45.3573 70.2502 44.6611 70.4623 43.8985C70.5124 43.7168 70.3597 43.4329 70.2224 43.2542C69.2035 41.9313 68.1483 40.6352 67.1363 39.3069C66.166 38.0329 65.2072 36.7489 64.2932 35.4359C63.2319 33.9107 62.2284 32.3458 61.194 30.8031C60.2437 29.3855 59.285 27.9741 58.327 26.5611C58.2653 26.4695 58.1835 26.3916 58.0632 26.2504C57.8387 26.597 57.6158 26.8871 57.4515 27.2062C57.1723 27.7481 56.7735 27.7871 56.1456 27.481C55.9868 27.4039 55.8263 27.297 55.716 27.1634C55.4329 26.8191 55.1499 26.81 54.7526 27C52.6916 27.9886 50.5165 28.6779 48.3429 29.3733C47.8469 29.5321 47.3926 29.813 46.9082 30.0138C44.9837 30.813 43.0014 31.4 40.9219 31.6603C38.8455 31.9207 36.7699 32.1955 34.7019 32.513C34.0502 32.613 33.4339 32.9573 32.7821 33.0374C31.639 33.1787 30.5861 33.4481 29.6945 34.2229C29.4461 34.439 29.072 34.5138 28.7534 34.6489C28.1047 34.9237 27.618 35.3474 27.2925 35.9886C27.1151 36.3374 26.8282 36.655 26.522 36.9039C26.3862 37.0145 26.0245 37 25.8702 36.8932C25.753 36.8123 25.7291 36.4718 25.7908 36.2894C25.9049 35.9542 26.1139 35.6504 26.2829 35.3336C26.2551 35.3123 26.2266 35.2909 26.1988 35.2695C26.1255 35.3245 26.0438 35.371 25.9797 35.4352C25.4768 35.942 24.9647 36.4405 24.4818 36.9657C24.2265 37.2436 23.928 37.4672 23.5878 37.2871C23.4012 37.1878 23.3441 36.8489 23.2261 36.6145C22.933 36.8665 22.5936 37.1894 22.2187 37.4657C22.0791 37.5687 21.813 37.6489 21.6857 37.584C21.5577 37.5184 21.4497 37.2458 21.4775 37.0886C21.5207 36.8405 21.6425 36.5787 21.8053 36.3825C22.2372 35.8634 22.6962 35.3649 23.1682 34.881C23.4336 34.6084 23.7637 34.3978 24.0283 34.1245C24.1278 34.0222 24.1255 33.8229 24.1694 33.6672C24.0121 33.642 23.83 33.5542 23.7005 33.6031C22.8751 33.9123 22.0614 34.2519 21.2438 34.5817C20.9892 34.6848 20.6938 34.8153 20.5095 34.5359C20.3251 34.2573 20.4393 33.9306 20.6992 33.7573C21.206 33.4199 21.7367 33.11 22.2843 32.842C22.6368 32.6695 23.0448 32.6123 23.4112 32.4626C23.7143 32.339 24.0044 32.1726 24.279 31.9939C24.6384 31.7603 25.0109 31.5298 25.3141 31.2344C25.5486 31.0062 25.7483 30.6978 25.8378 30.3886C25.8779 30.2504 25.6457 29.9771 25.4737 29.8481C25.1205 29.5825 24.7371 29.3481 24.3422 29.1474C23.9396 28.9428 23.5747 28.7115 23.4482 28.2619C23.4012 28.0947 23.4019 27.8352 23.5015 27.7313C23.5894 27.6397 23.8485 27.6848 24.0267 27.7084C24.1486 27.7245 24.2589 27.813 24.3777 27.8611C25.4197 28.2802 26.4664 28.6894 27.5047 29.1191C27.8232 29.2512 28.1364 29.4107 28.4218 29.6016C28.9347 29.9458 29.4839 30.0268 30.0755 29.91C31.9383 29.5405 33.7972 29.1573 35.5658 28.4428C36.837 27.9298 38.0958 27.384 39.3785 26.9031C40.8193 26.3634 42.2887 25.9214 43.8329 25.7474C45.5692 25.552 47.1404 24.8535 48.6892 24.1031C49.1952 23.8581 49.732 23.6558 50.1956 23.3466C50.6584 23.0382 51.0464 22.6207 51.4691 22.2527C51.5802 22.1558 51.6935 22 51.8162 21.9886C52.1679 21.9558 52.3754 21.7436 52.6245 21.5344C53.3974 20.8871 54.1834 20.2497 55.0033 19.6626C55.6335 19.2115 56.3308 18.8527 56.9849 18.4321C57.4021 18.1642 57.7948 17.8588 58.1989 17.5718C58.3123 17.4909 58.4365 17.3382 58.5429 17.3489C59.0366 17.3978 59.3968 17.0703 59.8272 16.9542C60.1026 16.8802 60.118 16.7672 59.9545 16.5535C59.1014 15.4428 58.1511 14.4718 56.6925 14.1695C56.431 14.1153 56.1804 14.0062 55.9297 13.9084C55.4684 13.7291 55.2841 13.3733 55.2478 12.8978C55.2208 12.5458 55.1691 12.1886 55.0673 11.852C54.9925 11.6046 54.792 11.397 54.6956 11.1527C54.63 10.9863 54.6176 10.7855 54.6346 10.6046C54.6493 10.4458 54.7588 10.2978 54.7881 10.1382C54.8745 9.66417 54.7688 9.52676 54.2883 9.44432C53.8749 9.37333 53.7322 9.16035 53.871 8.76646C53.9281 8.60386 54.0338 8.4489 54.1479 8.3176C54.2806 8.16493 54.4348 8.02066 54.6038 7.90921C55.382 7.3947 55.669 6.64661 55.6921 5.75882C55.7099 5.07715 55.8194 4.41608 56.2575 3.85195C55.787 3.62905 55.3566 3.37028 54.8907 3.21531C54.0368 2.93058 53.6635 2.26493 53.375 1.51073C53.3118 1.34509 53.264 1.17104 53.2354 0.99623C53.1745 0.622948 53.2755 0.529818 53.655 0.60997C54.8845 0.869512 56.1171 1.11913 57.3397 1.40997C57.6675 1.48783 57.8873 1.40844 58.1503 1.24356C59.4037 0.461116 60.769 0.00768045 62.2554 4.68611e-05C63.3082 -0.00529665 64.2485 0.447375 65.1987 0.829818C65.5782 0.98249 65.9477 1.16035 66.3226 1.32524C67.2135 1.71684 67.9169 2.31073 68.2871 3.21837C68.7561 4.36951 69.2876 5.50768 69.6169 6.69852C70.0635 8.31226 69.2837 9.89241 67.8475 10.6229C67.6901 10.7031 67.5181 10.7634 67.3461 10.8069C66.7784 10.952 66.4907 11.368 66.2909 11.8634C66.2038 12.0794 66.3365 12.1657 66.5301 12.2527C67.2975 12.5978 68.092 12.8115 68.9374 12.8336C69.0377 12.8359 69.1541 12.8558 69.2336 12.91C69.8661 13.3466 70.6058 13.3573 71.3277 13.4527C72.4292 13.597 73.3455 14.1657 74.258 14.7413C74.6576 14.9932 75.0895 15.1947 75.4875 15.4489C75.7714 15.6306 76.0105 15.881 76.2928 16.0657C76.5789 16.2527 76.889 16.4062 77.196 16.5596C79.0055 17.4634 80.8081 18.3802 82.6292 19.2596C84.7072 20.2634 86.5723 21.5451 88.3201 23.0535C90.2608 24.7283 92.0719 26.5191 93.8575 28.3466C94.6504 29.1581 95.5104 29.9077 96.3558 30.668C96.5193 30.8145 96.7469 30.9191 96.9629 30.9764C97.6409 31.1573 98.2726 31.4008 98.8002 31.8886C98.9745 32.0497 99.2445 32.1405 99.4866 32.1932C100.092 32.3252 100.641 32.5581 101.07 33.0031C101.174 33.1107 101.166 33.3252 101.209 33.4901C101.038 33.5161 100.856 33.5916 100.698 33.5573C100.389 33.4909 100.098 33.3497 99.7913 33.2672C99.6718 33.2352 99.5314 33.2771 99.4003 33.2848C99.3864 33.3191 99.3733 33.3535 99.3594 33.3871C99.4882 33.4932 99.6155 33.6016 99.7466 33.7054C100.295 34.1382 100.847 34.5657 101.394 35.0016C101.642 35.1993 101.72 35.4733 101.492 35.697C101.278 35.9077 101.005 35.8313 100.762 35.6497C100.364 35.3527 99.9556 35.0695 99.543 34.7947C99.4535 34.7352 99.3247 34.7329 99.2136 34.7046C99.1951 34.7436 99.1758 34.7832 99.1573 34.8222C99.374 34.9626 99.5815 35.1214 99.8098 35.239C100.349 35.5161 100.792 35.897 101.088 36.4176C101.186 36.5894 101.222 36.8306 101.197 37.029C101.154 37.3642 100.769 37.4306 100.433 37.1817C99.8893 36.7802 99.3501 36.3718 98.8002 35.9794C98.693 35.9031 98.5441 35.8848 98.4145 35.8397C98.3944 35.8733 98.3744 35.9062 98.3543 35.9397C98.6559 36.3252 98.9961 36.6878 99.2483 37.1031C99.536 37.5771 99.7628 38.0901 99.9734 38.6039C100.023 38.7268 99.9533 39 99.853 39.0565C99.7219 39.1306 99.4489 39.126 99.3386 39.0352C99.0886 38.8298 98.8742 38.5672 98.6914 38.2978C97.9972 37.2749 97.195 36.3649 96.1067 35.7344C96.0087 35.6779 95.8753 35.5901 95.7935 35.6184C95.6817 35.6565 95.5081 35.8458 95.5259 35.8771C95.6647 36.1184 95.8375 36.3405 96.011 36.5603C96.0951 36.6665 96.2702 36.7428 96.2879 36.8512C96.3273 37.0871 96.2918 37.3352 96.2872 37.5787C96.0859 37.5382 95.8745 37.5245 95.6848 37.4527C95.2443 37.2855 94.9443 36.9642 94.7553 36.5367C94.709 36.4329 94.6558 36.3229 94.5771 36.2436C94.001 35.6642 93.9092 34.9291 93.9786 34.1871C94.0603 33.3222 93.6539 32.7626 93.0399 32.2222C90.722 30.1817 88.0926 28.5474 85.6721 26.6436C85.0003 26.1153 84.374 25.5283 83.7492 24.9451C83.3551 24.5771 82.9131 24.3588 82.3917 24.2031C81.3866 23.9039 80.4063 23.5237 79.4182 23.1695C78.7703 22.9374 78.127 22.6939 77.3834 22.4191C77.4613 22.6291 77.493 22.7573 77.5531 22.8718C78.562 24.7817 79.2817 26.8031 79.9319 28.8535C80.0769 29.3115 80.2543 29.768 80.4873 30.1871C80.5922 30.3764 80.8575 30.5642 81.0719 30.5932C81.9975 30.7161 82.4526 31.2939 82.6979 32.1069C82.7858 32.3985 82.8313 32.7046 82.9378 32.9886C82.9771 33.0939 83.1607 33.2451 83.2347 33.2245C83.8749 33.0405 84.8646 33.7932 84.9602 34.442C85.0103 34.781 85.0103 35.1306 85.0913 35.4611C85.1476 35.6916 85.2572 35.9451 85.423 36.1077C86.192 36.8603 86.9618 37.6069 87.4609 38.5756C87.5364 38.7222 87.6105 38.8703 87.6683 39.0245C88.4451 41.0955 89.1076 43.2016 89.6013 45.3573C89.9592 46.9168 90.3657 48.4672 90.675 50.0359C91.2635 53.0145 91.7749 56.0077 92.3619 58.9863C93.0692 62.5756 94.3974 65.9084 96.7461 68.7787C97.9355 70.2321 98.7493 71.8687 99.3717 73.6207C99.6479 74.397 100.091 75.1176 100.34 75.9008C100.8 77.3512 101.172 78.8298 101.582 80.2962C102.038 81.9229 102.547 83.5382 102.926 85.1825C103.066 85.7916 103.467 86.281 103.549 86.8771C103.626 87.4397 103.764 87.8283 104.445 87.855C104.61 87.8619 104.888 88.1886 104.896 88.3771C104.923 89.0802 105.229 89.6832 105.63 90.1886C106.103 90.784 106.274 91.4764 106.541 92.1413C106.702 92.542 106.815 92.9603 106.959 93.368C107.153 93.9145 107.335 94.4443 107.706 94.9336C108.336 95.7642 107.9 97.081 106.871 97.529C105.33 98.2 103.84 98.0466 102.47 97.0542C101.889 96.6321 101.661 96.0161 101.51 95.3313C101.3 94.3794 101.048 93.4306 100.725 92.5107C100.552 92.0176 100.209 91.5787 99.9163 91.1321C99.5198 90.5283 99.3864 89.8695 99.4527 89.1672C99.4674 89.013 99.5615 88.8664 99.6139 88.7306L99.6155 88.7283Z" fill="#3F3F3F"/>
<path d="M9.85172 28.6208C12.3215 28.6781 14.8129 28.743 17.2681 29.2239C17.8419 29.3361 18.3965 29.5483 18.9573 29.7247C19.4332 29.8743 19.5967 30.3018 19.727 30.7033C19.7641 30.817 19.5512 31.1025 19.3923 31.1697C18.8053 31.4178 18.2075 31.6697 17.5889 31.8094C15.224 32.3407 12.8129 32.4697 10.3963 32.5338C7.98973 32.5979 5.59475 32.4514 3.21443 32.1109C2.40531 31.9949 1.60698 31.7857 0.815596 31.575C0.479296 31.4857 0.0103281 31.4384 0.000300844 30.9582C-0.00972644 30.4453 0.230928 29.9758 0.71918 29.7903C1.43266 29.5193 2.17391 29.2903 2.92441 29.1521C5.20446 28.7338 7.51768 28.6743 9.85095 28.6201L9.85172 28.6208Z" fill="#3F3F3F"/>
</g>
<defs>
<clipPath id="clip0_2309_2291">
<rect width="108" height="98" fill="white"/>
</clipPath>
</defs>
</svg>
