<svg width="311" height="244" viewBox="0 0 311 244" fill="none" xmlns="http://www.w3.org/2000/svg">
<g clip-path="url(#clip0_2309_2294)">
<path d="M24.1406 220.914C24.476 220.255 24.9113 219.679 25.0579 219.054C25.3556 217.799 26.2218 216.801 26.8571 215.695C27.7433 214.148 28.3719 212.47 29.4381 211.025C33.0475 206.133 36.9168 201.378 40.4507 196.448C42.001 194.285 42.9961 191.831 44.2133 189.499C45.7171 186.616 47.0498 183.659 48.7334 180.855C49.6485 179.333 51.2811 178.139 52.345 176.668C54.4596 173.743 56.3187 170.681 58.4377 167.758C64.0795 159.968 68.1931 151.521 72.9798 143.362C74.4502 140.855 76.2893 138.506 77.9752 136.092C78.1529 135.838 78.4416 135.636 78.8259 135.271C79.2079 136.094 79.5478 136.744 79.8143 137.417C81.82 142.473 83.9657 147.49 85.7515 152.601C87.0842 156.41 88.0904 160.314 88.9766 164.219C89.8496 168.064 90.4493 171.959 91.0579 175.843C91.5954 179.276 91.0956 182.703 90.2294 186.033C88.2637 193.586 88.3458 201.093 90.1761 208.64C90.738 210.959 91.1823 213.316 91.3844 215.674C91.722 219.612 91.822 223.567 92.0263 227.608C92.0707 227.582 91.993 227.659 91.8975 227.684C89.7052 228.252 88.7234 229.467 89.1766 231.449C89.8696 234.492 89.4675 237.425 88.3658 240.333C87.9993 241.298 88.177 241.699 89.5208 241.933C91.7953 242.33 94.1031 242.693 96.4154 242.8C98.6565 242.904 100.924 242.554 103.174 242.608C106.417 242.684 109.656 242.919 112.892 243.132C116.908 243.396 120.919 243.706 124.933 243.991C125.188 244.01 125.455 243.997 125.708 243.963C126.679 243.83 127.787 243.864 128.127 242.8C128.449 241.792 127.774 240.498 126.599 239.985C125.85 239.658 125.044 239.35 124.222 239.232C121.192 238.801 118.734 237.581 116.503 235.781C114.522 234.18 112.212 232.888 110.648 230.904C110.309 230.472 109.631 230.151 109.031 229.971C108.223 229.727 107.967 229.313 108.147 228.674C108.381 227.846 108.665 227.027 108.956 226.211C109.254 225.375 109.36 224.655 108.043 224.394C107.454 224.278 107.186 223.94 107.505 223.389C107.632 223.172 107.728 222.893 107.683 222.663C107.121 219.698 107.974 216.798 108.298 213.884C109.071 206.952 110.14 200.046 110.871 193.112C111.288 189.144 111.235 185.139 111.479 181.156C111.584 179.453 112.01 177.765 112.103 176.064C112.263 173.16 112.55 170.229 112.288 167.344C111.901 163.073 112.485 158.881 112.927 154.661C113.509 149.091 113.352 143.531 112.625 137.972C111.688 130.805 109.742 123.839 107.146 116.997C106.828 116.157 106.85 115.401 107.312 114.618C108.31 112.93 108.703 111.197 108.092 109.298C107.947 108.845 108.387 108.138 108.783 107.694C111.717 104.4 114.755 101.173 117.67 97.8657C120.464 94.6936 123.225 91.4968 125.857 88.2278C128.913 84.4304 131.803 80.5342 134.781 76.693C137.518 73.1636 140.279 69.6494 143.038 66.1314C143.215 65.9034 143.451 65.7095 143.797 65.3579C144.444 66.2208 145.086 66.943 145.559 67.7374C146.363 69.0869 147.511 69.1838 149.319 68.4216C149.777 68.2297 150.239 67.9636 150.556 67.631C151.371 66.7738 152.187 66.751 153.331 67.2243C159.265 69.6855 165.529 71.4018 171.788 73.1332C173.217 73.5286 174.525 74.228 175.92 74.7278C181.462 76.7178 187.17 78.1793 193.158 78.8274C199.138 79.4755 205.115 80.1597 211.07 80.9504C212.947 81.1994 214.722 82.0565 216.598 82.2561C219.89 82.6077 222.922 83.2786 225.49 85.2077C226.205 85.7456 227.282 85.9319 228.2 86.2683C230.068 86.9525 231.469 88.0073 232.407 89.6038C232.917 90.4724 233.744 91.263 234.625 91.8826C235.016 92.1582 236.058 92.1221 236.502 91.856C236.84 91.6546 236.909 90.8069 236.731 90.3527C236.402 89.5183 235.8 88.7618 235.314 87.9731C235.394 87.9199 235.476 87.8667 235.556 87.8135C235.767 87.9503 236.003 88.0662 236.187 88.2259C237.635 89.4879 239.11 90.729 240.5 92.0366C241.236 92.7284 242.095 93.2853 243.075 92.8367C243.612 92.5897 243.777 91.7458 244.117 91.1623C244.961 91.7895 245.938 92.5935 247.017 93.2815C247.419 93.538 248.186 93.7376 248.552 93.5761C248.921 93.4126 249.232 92.7341 249.152 92.3426C249.028 91.7249 248.677 91.073 248.208 90.5845C246.964 89.2921 245.643 88.051 244.283 86.846C243.519 86.1675 242.568 85.643 241.807 84.9626C241.52 84.7079 241.527 84.2118 241.4 83.8241C241.853 83.7614 242.377 83.5428 242.751 83.6644C245.127 84.4342 247.471 85.28 249.825 86.101C250.558 86.3576 251.409 86.6826 251.94 85.987C252.47 85.2933 252.142 84.4798 251.393 84.0484C249.934 83.2083 248.406 82.4367 246.829 81.7696C245.814 81.34 244.639 81.1975 243.583 80.825C242.711 80.5171 241.875 80.1027 241.085 79.658C240.05 79.0764 238.977 78.5024 238.104 77.7669C237.429 77.1986 236.853 76.4308 236.596 75.661C236.48 75.317 237.149 74.6366 237.644 74.3154C238.661 73.654 239.765 73.0705 240.903 72.5706C242.062 72.0613 243.113 71.4854 243.477 70.366C243.612 69.9497 243.61 69.3035 243.324 69.045C243.07 68.817 242.324 68.9291 241.811 68.988C241.46 69.0279 241.142 69.2484 240.8 69.3681C237.8 70.4116 234.785 71.4303 231.796 72.5003C230.878 72.8291 229.977 73.2264 229.155 73.7015C227.678 74.5587 226.096 74.7601 224.393 74.4694C219.028 73.5495 213.675 72.5954 208.582 70.8164C204.922 69.5392 201.297 68.1803 197.603 66.9829C193.454 65.6392 189.222 64.5387 184.776 64.1054C179.776 63.6188 175.251 61.8798 170.791 60.0115C169.334 59.4014 167.788 58.8978 166.453 58.128C165.121 57.3602 164.003 56.3205 162.786 55.4045C162.466 55.1631 162.14 54.7754 161.787 54.7468C160.774 54.6651 160.176 54.1368 159.459 53.616C157.233 52.0043 154.97 50.4173 152.609 48.9557C150.794 47.8325 148.786 46.9392 146.902 45.892C145.701 45.2248 144.57 44.4646 143.406 43.75C143.08 43.5485 142.722 43.1684 142.416 43.195C140.994 43.3166 139.957 42.5013 138.717 42.2124C137.924 42.028 137.88 41.7468 138.351 41.2146C140.808 38.4492 143.544 36.0317 147.744 35.279C148.497 35.1441 149.219 34.8723 149.941 34.629C151.269 34.1824 151.8 33.2967 151.905 32.1126C151.982 31.2364 152.131 30.347 152.424 29.5088C152.64 28.893 153.217 28.376 153.495 27.7679C153.684 27.3535 153.719 26.8537 153.67 26.4032C153.628 26.0079 153.313 25.6392 153.228 25.242C152.98 24.0617 153.284 23.7196 154.668 23.5143C155.858 23.3376 156.269 22.8073 155.869 21.8266C155.705 21.4218 155.401 21.0359 155.072 20.709C154.69 20.3289 154.246 19.9697 153.759 19.6922C151.518 18.4112 150.692 16.5486 150.625 14.3382C150.574 12.641 150.259 10.9951 148.997 9.59053C150.352 9.03556 151.591 8.39126 152.933 8.00544C155.392 7.29651 156.467 5.63919 157.298 3.7614C157.48 3.34897 157.617 2.91563 157.7 2.4804C157.875 1.551 157.584 1.31913 156.491 1.51869C152.951 2.1649 149.401 2.78639 145.881 3.51052C144.937 3.70438 144.304 3.50672 143.546 3.09619C139.937 1.14808 136.005 0.0191227 131.725 0.000116674C128.693 -0.0131875 125.986 1.11387 123.249 2.06607C122.156 2.44619 121.092 2.88903 120.013 3.29956C117.447 4.27456 115.422 5.75323 114.356 8.01304C113.005 10.8791 111.475 13.7129 110.526 16.6779C109.24 20.6957 111.486 24.63 115.622 26.4488C116.075 26.6484 116.57 26.7986 117.065 26.9069C118.7 27.268 119.529 28.3038 120.104 29.5373C120.355 30.0752 119.973 30.2899 119.415 30.5066C117.205 31.3657 114.918 31.8979 112.483 31.953C112.194 31.9587 111.859 32.0081 111.63 32.143C109.809 33.2302 107.679 33.2568 105.6 33.4944C102.428 33.8536 99.7893 35.2695 97.1617 36.7026C96.0111 37.3298 94.7673 37.8315 93.6211 38.4644C92.8037 38.9168 92.1152 39.5402 91.3022 40.0001C90.4782 40.4658 89.5853 40.8478 88.7012 41.2298C83.4903 43.4801 78.2995 45.7627 73.0553 47.9522C67.0714 50.4515 61.7006 53.6426 56.6675 57.3982C51.079 61.5681 45.8637 66.0269 40.7217 70.5769C38.4383 72.5973 35.9617 74.4636 33.5273 76.3566C33.0564 76.7216 32.4011 76.9819 31.7792 77.1245C29.8268 77.5749 28.0076 78.1812 26.4884 79.3957C25.9864 79.7967 25.209 80.0229 24.5115 80.154C22.7679 80.4828 21.1864 81.0625 19.9515 82.1706C19.6516 82.4386 19.676 82.9726 19.5516 83.3832C20.0447 83.4478 20.5689 83.6359 21.0243 83.5504C21.9128 83.3851 22.7524 83.0334 23.6342 82.8282C23.9784 82.7484 24.3827 82.8529 24.7603 82.8719C24.8003 82.9574 24.838 83.0429 24.878 83.1266C24.5071 83.3908 24.1406 83.6606 23.763 83.9191C22.1837 84.9968 20.5934 86.0611 19.0186 87.1463C18.3056 87.6386 18.0812 88.3209 18.7365 88.8778C19.3539 89.4024 20.138 89.2123 20.8399 88.7599C21.9838 88.0206 23.161 87.3155 24.3494 86.6313C24.607 86.483 24.978 86.4773 25.2978 86.407C25.3511 86.5039 25.4066 86.6028 25.4599 86.6997C24.8358 87.0494 24.2383 87.4447 23.5808 87.7374C22.0282 88.4273 20.7533 89.3757 19.9004 90.672C19.6183 91.0996 19.5139 91.7002 19.585 92.1943C19.7094 93.0287 20.8177 93.194 21.7861 92.5744C23.3521 91.5747 24.9047 90.5579 26.4884 89.581C26.7971 89.3909 27.2258 89.3453 27.5989 89.2332C27.6567 89.3168 27.7144 89.3986 27.7722 89.4822C26.9037 90.442 25.9242 91.3448 25.1979 92.3787C24.3694 93.559 23.7163 94.8362 23.11 96.1153C22.9656 96.4213 23.1677 97.1017 23.4565 97.2423C23.834 97.4267 24.6204 97.4153 24.938 97.1891C25.6576 96.6778 26.2751 96.024 26.8015 95.3531C28.8006 92.8063 31.1106 90.5408 34.2447 88.9709C34.5268 88.8303 34.911 88.6117 35.1465 88.682C35.4686 88.7771 35.9683 89.2484 35.9173 89.3263C35.5174 89.9269 35.0199 90.48 34.5201 91.0274C34.278 91.2915 33.7738 91.4816 33.7227 91.7515C33.6095 92.3388 33.7116 92.9565 33.725 93.5628C34.3047 93.462 34.9133 93.4278 35.4597 93.2492C36.728 92.8329 37.592 92.0328 38.1362 90.9684C38.2695 90.71 38.4227 90.4363 38.6493 90.2386C40.3085 88.7961 40.5728 86.9658 40.3729 85.1184C40.1375 82.965 41.308 81.5719 43.0761 80.2263C49.7507 75.146 57.3227 71.0768 64.2928 66.3367C66.2274 65.0215 68.031 63.5599 69.8301 62.1079C70.9652 61.1918 72.2379 60.6482 73.7394 60.2605C76.6336 59.5154 79.4567 58.5689 82.302 57.6871C84.1678 57.1093 86.0203 56.503 88.1615 55.8188C87.9371 56.3414 87.8461 56.6607 87.6728 56.9458C84.7675 61.7011 82.6952 66.7339 80.8227 71.8389C80.4051 72.9793 79.8943 74.1158 79.2235 75.1593C78.9214 75.6306 78.1573 76.0982 77.5398 76.1704C74.8744 76.4764 73.5639 77.9151 72.8576 79.9393C72.6044 80.6653 72.4733 81.4274 72.1668 82.1345C72.0535 82.3967 71.5249 82.7731 71.3117 82.7217C69.4681 82.2637 66.6183 84.1377 66.3429 85.7532C66.1985 86.5971 66.1985 87.4675 65.9653 88.2905C65.8031 88.8645 65.4877 89.4955 65.0102 89.9003C62.7957 91.7743 60.5789 93.6331 59.1418 96.0449C58.9242 96.4099 58.7109 96.7786 58.5444 97.1625C56.3076 102.319 54.3996 107.563 52.9781 112.93C51.9475 116.813 50.7769 120.673 49.8862 124.579C48.1915 131.995 46.7188 139.447 45.0285 146.863C42.9917 155.8 39.1668 164.098 32.4034 171.244C28.9783 174.863 26.635 178.938 24.8425 183.299C24.0473 185.232 22.7701 187.027 22.0549 188.977C20.7289 192.588 19.6583 196.269 18.4766 199.92C17.1639 203.97 15.7001 207.992 14.6073 212.086C14.2031 213.603 13.0481 214.821 12.8126 216.305C12.5905 217.706 12.1951 218.673 10.2338 218.74C9.7585 218.757 8.95666 219.571 8.93446 220.04C8.85672 221.79 7.9749 223.292 6.8199 224.55C5.45831 226.033 4.96519 227.756 4.19667 229.412C3.73466 230.41 3.40817 231.451 2.99281 232.466C2.4353 233.827 1.91108 235.146 0.842713 236.364C-0.971984 238.432 0.282959 241.711 3.24823 242.826C7.68391 244.497 11.9752 244.115 15.92 241.644C17.5948 240.593 18.25 239.059 18.6854 237.354C19.2895 234.984 20.0159 232.622 20.9465 230.332C21.4441 229.104 22.4303 228.011 23.2743 226.899C24.416 225.396 24.8003 223.756 24.6093 222.007C24.567 221.623 24.2961 221.258 24.145 220.92L24.1406 220.914Z" fill="#3F3F3F"/>
<path d="M282.631 71.2587C275.519 71.4012 268.345 71.5628 261.275 72.7601C259.622 73.0395 258.025 73.5679 256.41 74.0069C255.04 74.3794 254.569 75.4438 254.194 76.4435C254.087 76.7267 254.7 77.4375 255.158 77.6048C256.848 78.2225 258.569 78.8497 260.351 79.1975C267.161 80.5203 274.104 80.8415 281.063 81.0011C287.993 81.1608 294.89 80.7959 301.744 79.9482C304.074 79.6593 306.373 79.1385 308.652 78.614C309.621 78.3916 310.971 78.2738 311 77.0783C311.029 75.8011 310.336 74.6322 308.93 74.1704C306.875 73.4957 304.741 72.9255 302.58 72.5815C296.014 71.54 289.353 71.3917 282.634 71.2568L282.631 71.2587Z" fill="#3F3F3F"/>
</g>
<defs>
<clipPath id="clip0_2309_2294">
<rect width="311" height="244" fill="white"/>
</clipPath>
</defs>
</svg>
