<svg width="138" height="138" viewBox="0 0 138 138" fill="none" xmlns="http://www.w3.org/2000/svg">
<path d="M83.375 91.1777C83.375 80.385 92.5175 71.875 103.5 71.875C114.482 71.875 123.625 80.385 123.625 91.1777C123.625 100.366 118.829 108.393 114.362 113.93C111.869 116.995 109.095 119.819 106.076 122.366L105.478 122.849L105.311 122.981L105.265 123.021L105.248 123.033L103.5 120.75L101.901 123.142L101.896 123.136L101.878 123.125L101.821 123.09L101.648 122.975L101.045 122.532C97.9671 120.208 95.159 117.546 92.6727 114.598C88.1302 109.181 83.375 101.154 83.375 91.1777ZM103.5 120.75L101.901 123.142L103.609 124.281L105.242 123.033L103.5 120.75ZM103.402 117.087L104.247 116.322C105.788 114.908 107.841 112.855 109.882 110.32C114.04 105.173 117.875 98.417 117.875 91.1777C117.875 83.8235 111.573 77.625 103.5 77.625C95.427 77.625 89.125 83.8235 89.125 91.1777C89.125 99.2795 92.9947 106.036 97.0772 110.894C98.9816 113.157 101.1 115.231 103.402 117.087ZM97.75 92C97.75 90.475 98.3558 89.0125 99.4341 87.9341C100.512 86.8558 101.975 86.25 103.5 86.25C105.025 86.25 106.488 86.8558 107.566 87.9341C108.644 89.0125 109.25 90.475 109.25 92C109.25 93.525 108.644 94.9875 107.566 96.0659C106.488 97.1442 105.025 97.75 103.5 97.75C101.975 97.75 100.512 97.1442 99.4341 96.0659C98.3558 94.9875 97.75 93.525 97.75 92ZM57.5 20.125C49.2372 20.125 42.665 26.6283 42.665 34.5C42.665 42.3717 49.243 48.875 57.5 48.875C65.757 48.875 72.3292 42.3717 72.3292 34.5C72.3292 26.6283 65.757 20.125 57.4942 20.125M36.915 34.5C36.915 23.3162 46.2012 14.375 57.5 14.375C68.793 14.375 78.0792 23.3162 78.0792 34.5C78.0792 45.6838 68.793 54.625 57.4942 54.625C46.207 54.625 36.9265 45.6838 36.9265 34.5M43.746 67.597C42.4925 66.792 41.2735 66.562 40.3822 66.8035C39.5389 67.0335 38.6975 67.2827 37.858 67.551L32.2 69.368C30.177 69.9971 28.3159 71.0604 26.7467 72.4836C25.1775 73.9069 23.938 75.6557 23.115 77.6077L22.954 78.131L22.9482 78.154L22.931 78.2115L22.8792 78.3955L22.6377 79.396L22.5917 79.58L22.5802 79.6375V79.6605C22.4916 80.0954 22.4283 80.535 22.3905 80.9772L20.2227 101.465L20.217 101.516C19.6995 105.173 21.666 108.272 24.955 109.037C31.2627 110.498 41.8025 112.125 57.5115 112.125C58.274 112.125 59.0053 112.428 59.5444 112.967C60.0836 113.506 60.3865 114.238 60.3865 115C60.3865 115.762 60.0836 116.494 59.5444 117.033C59.0053 117.572 58.274 117.875 57.5115 117.875C41.4115 117.875 30.429 116.208 23.6555 114.638C17.0602 113.108 13.6677 106.904 14.513 100.757L16.6692 80.385C16.7325 79.7755 16.7727 79.396 16.928 78.591C17.1449 77.5948 17.4058 76.6086 17.71 75.6355V75.6183L17.7157 75.6068C18.8438 72.8372 20.57 70.3511 22.7707 68.3263C24.9715 66.3014 27.5925 64.7879 30.4462 63.894L36.1042 62.077C37.0166 61.7857 37.9327 61.5135 38.8527 61.2605C41.8427 60.4383 44.7637 61.41 46.8682 62.7728C49.1337 64.2332 52.877 66.0445 57.5057 66.0445C62.1345 66.0445 65.8835 64.2333 68.149 62.767C70.2592 61.41 73.1745 60.4383 76.1645 61.2605C77.0845 61.5173 78.0007 61.7895 78.913 62.077L84.5767 63.894C84.9452 64.0016 85.2883 64.1819 85.586 64.4242C85.8836 64.6665 86.1297 64.966 86.3098 65.305C86.4898 65.6439 86.6002 66.0155 86.6344 66.3978C86.6685 66.7801 86.6258 67.1654 86.5087 67.5309C86.3916 67.8964 86.2025 68.2348 85.9525 68.526C85.7026 68.8173 85.3968 69.0556 85.0533 69.2268C84.7098 69.398 84.3355 69.4987 83.9524 69.523C83.5694 69.5472 83.1853 69.4945 82.823 69.368L77.1592 67.5567C76.3274 67.2884 75.4879 67.0393 74.6407 66.8093C73.7437 66.562 72.5305 66.7862 71.2712 67.597C68.4595 69.4197 63.6295 71.7945 57.5115 71.7945C51.3877 71.7945 46.5577 69.4197 43.746 67.597Z" fill="#7692C9"/>
</svg>
