<svg width="289" height="189" viewBox="0 0 289 189" fill="none" xmlns="http://www.w3.org/2000/svg">
<g clip-path="url(#clip0_2309_2320)">
<path d="M278.204 161.299C280.746 162.309 282.393 164.236 283.839 166.45C285.065 168.324 286.538 170.036 287.848 171.858C288.294 172.478 288.66 173.184 288.92 173.901C289.168 174.588 288.824 175.084 288.098 175.323C286.923 175.712 285.801 175.439 284.868 174.804C283.407 173.807 282.055 172.648 280.681 171.526C279.77 170.783 278.932 169.951 278.009 169.226C277.151 168.552 276.249 167.925 275.312 167.363C275.004 167.178 274.532 167.258 274.135 167.217C274.271 167.559 274.31 168.003 274.557 168.224C275.766 169.305 277.042 170.307 278.266 171.371C279.206 172.187 279.739 173.221 280.122 174.427C280.904 176.875 281.882 179.262 282.779 181.674C282.975 182.199 283.147 182.731 283.352 183.252C283.623 183.935 283.606 184.637 282.939 184.979C282.414 185.248 281.651 185.436 281.128 185.261C279.411 184.682 278.372 183.312 277.505 181.788C276.309 179.684 275.233 177.483 273.795 175.555C272.718 174.112 271.149 173.025 269.783 171.801C269.664 171.694 269.406 171.741 269.213 171.717C269.218 171.916 269.158 172.152 269.245 172.31C269.39 172.579 269.63 172.796 269.826 173.038C270.621 174.037 271.452 175.012 272.201 176.042C272.964 177.093 273.364 178.258 273.417 179.6C273.457 180.635 273.827 181.658 274.066 182.683C274.227 183.377 274.506 184.055 274.575 184.757C274.724 186.25 273.598 186.982 272.231 186.295C270.661 185.507 269.735 184.152 269.17 182.552C268.818 181.557 268.528 180.536 268.286 179.509C267.769 177.319 265.977 176.391 264.226 175.437C264.129 175.383 263.589 175.786 263.561 176.014C263.491 176.589 263.519 177.201 263.643 177.771C264.168 180.16 264.751 182.539 265.296 184.925C265.433 185.529 265.574 186.146 265.595 186.76C265.635 187.882 264.894 188.431 263.815 188.111C262.517 187.727 261.663 186.791 261.188 185.608C260.167 183.075 259.274 180.489 258.275 177.944C258.089 177.468 257.736 176.961 257.316 176.686C254.674 174.961 251.98 173.316 249.325 171.61C247.133 170.201 245.427 168.328 244.068 166.11C243.662 165.448 243.077 164.82 242.432 164.391C238.967 162.08 235.11 160.581 231.13 159.457C225.534 157.876 219.852 156.591 214.271 154.961C208.361 153.235 202.525 151.256 196.66 149.38C195.801 149.105 194.953 148.788 193.987 148.452C193.797 149.701 193.545 150.834 194.289 151.984C195.045 153.152 194.812 153.746 193.552 154.372C192.49 154.9 192.3 155.697 193.026 156.632C194.391 158.387 194.269 160.329 193.304 162.087C191.557 165.274 191.465 168.668 191.467 172.142C191.467 177.737 191.36 183.33 191.296 189H111.507C111.441 188.673 111.328 188.373 111.33 188.072C111.36 184.568 111.956 181.225 114.021 178.256C114.318 177.829 114.449 177.17 114.397 176.643C114.212 174.789 113.932 172.943 113.643 171.102C113.59 170.772 113.376 170.408 113.127 170.175C110.157 167.387 110.132 167.132 112.076 163.624C112.345 163.14 112.381 162.42 112.272 161.858C111.627 158.565 110.954 155.277 110.194 152.008C109.801 150.319 109.504 148.646 109.888 146.938C110.386 144.727 109.903 142.541 109.839 140.342C109.735 136.705 109.544 133.067 109.592 129.43C109.623 127.141 109.957 124.849 110.279 122.575C110.484 121.128 110.371 119.941 108.972 119.116C107.848 118.453 107.315 117.339 107.426 116.11C107.592 114.266 107.878 112.419 108.291 110.614C108.713 108.77 108.901 106.974 108.605 105.079C108.286 103.025 108.248 100.929 108.024 98.8585C107.975 98.4104 107.757 97.9026 107.453 97.5741C105.823 95.8136 103.907 94.3817 101.673 93.5024C96.8574 91.6057 93.4033 88.2995 90.801 83.9086C88.6256 80.2402 86.1981 76.7193 83.923 73.1088C83.5244 72.4759 83.1822 72.4386 82.5015 72.6514C80.5949 73.2488 78.6413 73.7006 76.7272 74.2756C76.3041 74.4025 75.8284 74.7199 75.6103 75.0858C73.9331 77.8992 72.2973 80.7517 69.8924 83.0256C69.0143 83.8545 67.873 84.4257 66.7993 85.0231C66.4985 85.1911 65.9927 85.1109 65.6166 85.0119C64.6126 84.7506 64.355 84.0449 64.8984 83.1656C65.0281 82.9546 65.218 82.7792 65.3478 82.5682C66.2917 81.0336 67.3108 79.5364 68.1475 77.944C69.2907 75.7691 70.3267 73.5363 71.3402 71.2979C71.6956 70.512 71.8516 69.6364 72.0979 68.8001C71.9889 68.7329 71.8817 68.6657 71.7727 68.5985C71.4361 68.7795 71.0807 68.9345 70.7648 69.1473C67.5007 71.3372 64.2685 73.5755 60.9724 75.7149C59.6167 76.5942 58.1557 77.3653 56.4522 77.3671C55.9896 77.3671 55.497 77.3522 55.0683 77.2028C54.147 76.8817 53.9157 75.8419 54.6283 75.1773C55.2168 74.6284 55.8787 74.1449 56.5575 73.7062C58.9717 72.1418 61.1002 70.2656 63.161 68.2587C64.5223 66.9332 66.3123 66.0465 67.8899 64.9357C68.4953 64.5082 69.1045 64.0564 69.5972 63.5131C69.8134 63.2742 69.7438 62.7776 69.804 62.3986C69.458 62.3706 69.0914 62.2511 68.7699 62.3277C65.9513 62.9885 63.5446 64.5138 61.1077 65.9755C58.6709 67.4373 56.2773 68.9793 53.2839 69.0932C52.3475 69.1286 51.5522 68.9308 51.1686 68.0627C50.77 67.161 51.1122 66.3115 51.838 65.7141C53.4287 64.4055 55.0476 63.1267 56.7004 61.8983C57.9282 60.9854 59.2124 60.1472 60.4985 59.3183C62.108 58.2803 63.8097 57.457 65.7106 57.0332C66.5812 56.8391 67.4217 56.447 68.2302 56.0531C68.6006 55.8739 68.9616 55.5229 69.144 55.1589C69.3189 54.8135 69.4016 54.2777 69.2474 53.9604C69.1327 53.7252 68.5499 53.5609 68.2133 53.6113C65.2443 54.0537 62.2848 54.5652 59.3196 55.0264C57.8718 55.2522 56.4202 55.5192 54.963 55.5864C53.4381 55.6574 52.5675 55.0506 52.2723 54.0257C51.9358 52.8515 52.4321 51.8396 53.7991 51.0425C56.5838 49.4164 59.6186 48.4307 62.7643 47.8203C66.5699 47.081 70.4132 46.534 74.2151 45.7742C76.7573 45.2664 79.2599 44.5514 81.7701 43.8924C83.7312 43.3771 84.5773 42.3373 84.1749 39.9234C83.7274 37.237 83.8346 34.5954 84.1749 31.9445C84.2784 31.1342 84.5773 30.3035 84.9797 29.5903C85.5701 28.5412 86.5817 28.0296 87.8095 28.1062C89.1125 28.1865 89.906 29.0153 90.1824 30.1709C90.5923 31.8884 90.8405 33.647 91.1056 35.3944C91.2448 36.3148 91.1997 37.265 91.3745 38.176C91.5757 39.2271 91.7186 40.3752 92.2545 41.2638C94.5465 45.061 94.6688 49.0897 93.8565 53.2678C93.8264 53.4209 93.8189 53.5833 93.7587 53.7233C93.0386 55.3829 93.8678 56.5292 94.9865 57.6456C97.2071 59.8634 99.8997 61.3737 102.645 62.8149C104.881 63.9892 107.344 64.889 108.88 67.0172C110.313 69.0017 111.595 71.0982 112.857 73.1984C113.248 73.8481 113.52 74.2588 114.4 74.1636C116.296 73.9582 118.212 73.9433 120.109 73.7398C120.759 73.6707 121.384 73.2955 122 73.0155C122.653 72.7205 123.283 72.377 123.918 72.0447C124.857 71.5556 125.784 71.0459 126.731 70.5755C127.258 70.3141 127.797 70.0285 128.365 69.9053C129.757 69.6047 130.817 68.8766 131.656 67.7565C132.677 66.3956 133.916 65.7272 135.73 66.2126C136.187 66.334 137.024 65.7926 137.402 65.3277C138.496 63.9761 138.581 62.2866 138.631 60.6325C138.682 58.9561 138.929 58.5865 140.61 58.0507C140.39 57.2591 140.186 56.4564 139.927 55.6704C139.876 55.5155 139.615 55.4184 139.438 55.3157C138.483 54.765 137.402 54.3562 136.589 53.643C135.044 52.2858 134.021 50.5496 133.417 48.5577C133.04 47.3162 132.532 46.1065 132.011 44.9154C131.103 42.8339 130.783 40.6832 131.11 38.443C131.372 36.6508 132.306 36.102 134.017 36.7068C134.218 36.7778 134.418 36.8562 134.747 36.9794C134.747 35.2208 134.762 33.5593 134.743 31.8978C134.689 27.0458 134.623 22.1957 134.559 17.3456C134.502 12.9678 136.121 9.45621 139.797 6.88553C143.823 4.07217 148.074 1.72739 152.839 0.441118C154.142 0.0901474 155.571 -0.0722698 156.913 0.0304078C161.031 0.347775 165.136 0.818224 169.242 1.26254C171.871 1.5463 173.7 3.08646 175.15 5.15308C177.882 9.0455 179.202 13.5185 180.385 18.0251C181.449 22.0818 182.355 26.1796 183.331 30.2587C183.403 30.5555 183.476 30.8505 183.572 31.2425C183.86 31.0652 184.083 30.9251 184.311 30.7889C185.67 29.9693 186.958 30.3333 187.494 31.825C187.793 32.6557 187.91 33.5817 187.944 34.4703C188.09 38.3385 187.868 42.1805 186.793 45.9291C186.419 47.2341 185.875 48.4867 184.619 49.1905C183.957 49.562 183.185 49.7357 182.37 50.0325C182.167 51.5839 181.979 53.2771 181.718 54.9592C181.428 56.8167 180.669 58.4577 179.294 59.8018C179.059 60.0314 178.92 60.4421 178.89 60.7819C178.597 64.1572 178.318 67.5343 178.091 70.9134C178.068 71.2419 178.332 71.7721 178.61 71.9084C184.988 74.9943 188.818 80.2346 191.307 86.6156C192.441 89.5204 192.951 92.5149 192.763 95.6531C192.582 98.6382 192.768 101.575 193.865 104.459C194.32 105.656 194.056 107.144 194.006 108.495C193.985 109.033 194 109.397 194.44 109.781C195.529 110.73 196.031 111.99 195.707 113.386C195.277 115.246 195.404 116.846 196.542 118.524C197.307 119.653 197.443 121.199 197.886 122.551C197.969 122.805 198.135 123.146 198.347 123.229C204.845 125.747 210.657 129.492 216.409 133.306C221.591 136.743 227.104 139.537 232.764 142.054C240.36 145.433 247.998 148.726 255.68 151.907C258.117 152.917 260.71 153.707 263.309 154.134C265.544 154.502 267.652 155.006 269.583 156.145C270.384 156.617 271.121 157.211 271.843 157.803C273.432 159.104 275.089 159.588 277.025 158.516C277.46 158.275 278.063 158.339 278.59 158.26C278.652 158.824 278.795 159.395 278.75 159.95C278.716 160.359 278.437 160.749 278.206 161.294L278.204 161.299Z" fill="#3F3F3F"/>
<path d="M25.3948 40C18.7225 39.9505 13.8451 39.65 9.09493 38.3214C6.77975 37.6727 4.54504 36.8261 2.65284 35.3015C-0.12463 33.0622 -0.759106 30.0569 0.929088 26.9472C2.69776 23.6927 5.52764 21.4406 8.57462 19.4376C14.6087 15.4721 21.266 12.8132 28.1723 10.7407C37.5416 7.92961 47.113 6.24006 56.9315 6.02199C62.2113 5.90471 67.448 6.23456 72.5781 7.54296C74.8185 8.1147 76.9689 8.93199 78.8574 10.2899C82.2506 12.7307 82.9244 16.0695 80.7402 19.6044C78.8499 22.661 76.0649 24.816 73.0835 26.7401C67.2571 30.4986 60.8618 33.0494 54.2401 35.0908C48.0151 37.0094 41.6666 38.4131 35.1852 39.1552C31.3503 39.5932 27.491 39.8241 25.3929 40H25.3948Z" fill="#3F3F3F"/>
</g>
<defs>
<clipPath id="clip0_2309_2320">
<rect width="289" height="189" fill="white"/>
</clipPath>
</defs>
</svg>
