<svg width="24" height="24" viewBox="0 0 24 24" fill="none" xmlns="http://www.w3.org/2000/svg">
<path d="M5.931 7.20237L7.206 11.2277M12.813 16.5415L17.064 17.7495M11.683 12.3002L17.442 6.84427M4 5.84195C4 6.02857 4.0388 6.21336 4.11419 6.38577C4.18956 6.55817 4.30005 6.71483 4.43933 6.84679C4.57863 6.97874 4.74399 7.08342 4.92597 7.15483C5.10796 7.22625 5.30301 7.263 5.5 7.263C5.69699 7.263 5.89204 7.22625 6.07403 7.15483C6.25601 7.08342 6.42137 6.97874 6.56067 6.84679C6.69995 6.71483 6.81044 6.55817 6.88581 6.38577C6.9612 6.21336 7 6.02857 7 5.84195C7 5.65533 6.9612 5.47054 6.88581 5.29814C6.81044 5.12573 6.69995 4.96907 6.56067 4.83711C6.42137 4.70516 6.25601 4.60048 6.07403 4.52908C5.89204 4.45766 5.69699 4.4209 5.5 4.4209C5.30301 4.4209 5.10796 4.45766 4.92597 4.52908C4.74399 4.60048 4.57863 4.70516 4.43933 4.83711C4.30005 4.96907 4.18956 5.12573 4.11419 5.29814C4.0388 5.47054 4 5.65533 4 5.84195ZM17 5.84195C17 6.21884 17.158 6.58029 17.4393 6.84679C17.7207 7.11328 18.1021 7.263 18.5 7.263C18.8979 7.263 19.2793 7.11328 19.5607 6.84679C19.842 6.58029 20 6.21884 20 5.84195C20 5.46506 19.842 5.10361 19.5607 4.83711C19.2793 4.57062 18.8979 4.4209 18.5 4.4209C18.1021 4.4209 17.7207 4.57062 17.4393 4.83711C17.158 5.10361 17 5.46506 17 5.84195ZM17 18.1577C17 18.5347 17.158 18.8961 17.4393 19.1626C17.7207 19.4291 18.1021 19.5788 18.5 19.5788C18.8979 19.5788 19.2793 19.4291 19.5607 19.1626C19.842 18.8961 20 18.5347 20 18.1577C20 17.7808 19.842 17.4194 19.5607 17.1529C19.2793 16.8864 18.8979 16.7367 18.5 16.7367C18.1021 16.7367 17.7207 16.8864 17.4393 17.1529C17.158 17.4194 17 17.7808 17 18.1577ZM4 15.3156C4 16.4463 4.47411 17.5306 5.31801 18.3302C6.16193 19.1296 7.30652 19.5788 8.5 19.5788C9.69348 19.5788 10.8381 19.1296 11.682 18.3302C12.5259 17.5306 13 16.4463 13 15.3156C13 14.185 12.5259 13.1007 11.682 12.3011C10.8381 11.5016 9.69348 11.0525 8.5 11.0525C7.30652 11.0525 6.16193 11.5016 5.31801 12.3011C4.47411 13.1007 4 14.185 4 15.3156Z" stroke="#3F3F3F" stroke-width="2" stroke-linecap="round" stroke-linejoin="round"/>
</svg>
