<svg width="24" height="24" viewBox="0 0 24 24" fill="none" xmlns="http://www.w3.org/2000/svg">
<g clip-path="url(#clip0_2291_2157)">
<path d="M23.0307 14.9374L12.9517 23.5765C12.7956 23.7107 12.6101 23.8173 12.406 23.8899C12.2018 23.9626 11.9829 24 11.7618 24C11.5407 24 11.3218 23.9626 11.1176 23.8899C10.9134 23.8173 10.7279 23.7107 10.5719 23.5765L0.492867 14.9374C0.177289 14.6669 -4.70247e-09 14.3 0 13.9175C4.70247e-09 13.5349 0.177289 13.168 0.492867 12.8976C0.808443 12.6271 1.23646 12.4751 1.68275 12.4751C2.12904 12.4751 2.55705 12.6271 2.87264 12.8976L10.0833 19.0782V1.43986C10.0833 1.05799 10.2603 0.691751 10.5753 0.421726C10.8904 0.151699 11.3177 0 11.7632 0C12.2087 0 12.636 0.151699 12.951 0.421726C13.266 0.691751 13.4431 1.05799 13.4431 1.43986V19.0782L20.6537 12.8963C20.9693 12.6258 21.3973 12.4739 21.8436 12.4739C22.2899 12.4739 22.7179 12.6258 23.0335 12.8963C23.3491 13.1669 23.5264 13.5337 23.5264 13.9162C23.5264 14.2987 23.3491 14.6656 23.0335 14.9361L23.0307 14.9374Z" fill="#3F3F3F"/>
</g>
<defs>
<clipPath id="clip0_2291_2157">
<rect width="24" height="24" fill="white"/>
</clipPath>
</defs>
</svg>
