<svg width="24" height="24" viewBox="0 0 24 24" fill="none" xmlns="http://www.w3.org/2000/svg">
<g clip-path="url(#clip0_2298_2424)">
<path d="M23.0307 9.06265L12.9517 0.423495C12.7956 0.289261 12.6101 0.182754 12.406 0.110083C12.2018 0.0374102 11.9829 0 11.7618 0C11.5407 0 11.3218 0.0374102 11.1176 0.110083C10.9134 0.182754 10.7279 0.289261 10.5719 0.423495L0.492867 9.06265C0.177289 9.33314 -4.70247e-09 9.70001 0 10.0825C4.70247e-09 10.4651 0.177289 10.832 0.492867 11.1025C0.808443 11.3729 1.23646 11.5249 1.68275 11.5249C2.12904 11.5249 2.55705 11.3729 2.87264 11.1025L10.0833 4.92186V22.5601C10.0833 22.9421 10.2603 23.3082 10.5753 23.5783C10.8904 23.8483 11.3177 24 11.7632 24C12.2087 24 12.636 23.8483 12.951 23.5783C13.266 23.3082 13.4431 22.9421 13.4431 22.5601V4.92186L20.6537 11.1037C20.9693 11.3741 21.3973 11.5261 21.8436 11.5261C22.2899 11.5261 22.7179 11.3741 23.0335 11.1037C23.3491 10.8332 23.5264 10.4663 23.5264 10.0838C23.5264 9.70122 23.3491 9.33434 23.0335 9.06385L23.0307 9.06265Z" fill="#3F3F3F"/>
</g>
<defs>
<clipPath id="clip0_2298_2424">
<rect width="24" height="24" fill="white"/>
</clipPath>
</defs>
</svg>
