<svg width="24" height="24" viewBox="0 0 24 24" fill="none" xmlns="http://www.w3.org/2000/svg">
<path d="M19.8103 9.19009C19.6949 8.92513 19.5287 8.68293 19.3203 8.47581L19.0703 8.19009C18.8622 7.98638 18.6959 7.74732 18.5803 7.48534C18.4629 7.21961 18.3985 6.93541 18.3903 6.64723V6.28534C18.3842 5.99691 18.3197 5.71233 18.2003 5.44723C18.0162 5.03315 17.7109 4.67827 17.3207 4.42497C16.9306 4.17166 16.4722 4.03061 16.0003 4.01866H15.6303C15.021 3.99626 14.4413 3.76256 14.0003 3.36152L13.7303 3.11391C13.2702 2.70138 12.6621 2.47168 12.0303 2.47168C11.3984 2.47168 10.7903 2.70138 10.3303 3.11391L10.0003 3.36152C9.5629 3.76072 8.98575 3.99144 8.38026 4.00914H8.00026C7.37528 4.03279 6.78276 4.28047 6.34141 4.70257C5.90005 5.12467 5.64248 5.69001 5.62026 6.28534V6.63771C5.59674 7.218 5.35134 7.77009 4.93026 8.19009L4.67026 8.44725C4.32988 8.78719 4.10268 9.21544 4.01726 9.67808C3.93185 10.1407 3.99205 10.6171 4.19026 11.0472C4.3057 11.3122 4.47186 11.5544 4.68026 11.7615L4.93026 12.0281C5.14077 12.2337 5.30721 12.4764 5.42026 12.7424C5.5387 13.0045 5.60321 13.2859 5.61026 13.571V13.9044C5.61629 14.1928 5.68081 14.4774 5.80026 14.7424C5.9864 15.1552 6.29222 15.5087 6.68189 15.7617C7.07154 16.0148 7.52889 16.1568 8.00026 16.171V21.0472C8.00026 21.1735 8.05294 21.2947 8.14671 21.3839C8.24047 21.4733 8.36766 21.5235 8.50026 21.5235H8.76026C8.91681 21.5226 9.07094 21.4867 9.21026 21.4187L11.7803 20.1996C11.8485 20.167 11.9239 20.15 12.0003 20.15C12.0767 20.15 12.152 20.167 12.2203 20.1996L14.7903 21.4187C14.9295 21.4867 15.0837 21.5226 15.2403 21.5235H15.5003C15.6329 21.5235 15.7601 21.4733 15.8538 21.3839C15.9475 21.2947 16.0003 21.1735 16.0003 21.0472V16.171C16.6235 16.1476 17.2147 15.9012 17.6558 15.4811C18.097 15.0611 18.3557 14.498 18.3803 13.9044V13.552C18.4038 12.9717 18.6491 12.4196 19.0703 11.9996L19.3303 11.7424C19.6607 11.4067 19.8819 10.987 19.9671 10.534C20.0523 10.081 19.9978 9.61421 19.8103 9.19009ZM17.8803 10.3996L17.6103 10.6663C16.8494 11.4439 16.4153 12.4608 16.3903 13.5235V13.8758C16.385 13.9953 16.3309 14.1083 16.2393 14.1902C16.1475 14.272 16.0259 14.3165 15.9003 14.3139H15.5603C14.4683 14.3344 13.4237 14.742 12.6303 15.4567L12.3403 15.7139C12.2438 15.7857 12.1222 15.8199 12.0003 15.8092C11.882 15.8126 11.767 15.7716 11.6803 15.6949L11.4003 15.4377C10.5837 14.7131 9.51605 14.2996 8.40026 14.2758H8.08026C7.98913 14.2757 7.90017 14.2492 7.82517 14.1999C7.75017 14.1505 7.69266 14.0807 7.66026 13.9996C7.6419 13.9373 7.6419 13.8715 7.66026 13.8092V13.4853C7.62834 12.9713 7.49607 12.4675 7.27026 11.9996C7.06758 11.5256 6.77237 11.0926 6.40026 10.7234L6.13026 10.4472C6.07508 10.3955 6.03093 10.334 6.00026 10.2663C5.96322 10.1882 5.95105 10.1014 5.96528 10.0168C5.97949 9.93213 6.01948 9.85331 6.08026 9.79009L6.35026 9.52343C7.11446 8.76366 7.56231 7.76504 7.61026 6.71391V6.36152C7.61547 6.24195 7.6697 6.12909 7.76133 6.04718C7.85294 5.96526 7.97464 5.92083 8.10026 5.92343H8.44026C9.53717 5.89459 10.5842 5.4808 11.3803 4.76152L11.6703 4.50438C11.7596 4.4245 11.8777 4.38021 12.0003 4.38057C12.1186 4.37711 12.2335 4.41817 12.3203 4.49486L12.6003 4.752C13.4167 5.47661 14.4845 5.89013 15.6003 5.91391H15.9703C16.0614 5.91402 16.1503 5.94049 16.2254 5.98981C16.3003 6.03912 16.3578 6.10897 16.3903 6.19009C16.4086 6.25239 16.4086 6.31829 16.3903 6.38057V6.70438C16.4063 7.21536 16.5217 7.71907 16.7303 8.19009C16.933 8.66405 17.2282 9.0971 17.6003 9.46629L17.8703 9.74248C17.9074 9.78566 17.9378 9.83378 17.9603 9.88534C18.0063 9.96795 18.0234 10.0625 18.009 10.155C17.9946 10.2475 17.9495 10.3333 17.8803 10.3996Z" fill="#3F3F3F"/>
</svg>
