<svg width="23" height="28" viewBox="0 0 23 28" fill="none" xmlns="http://www.w3.org/2000/svg">
<path d="M9.2 10.0025C7.98 10.0025 6.80998 10.4208 5.94731 11.1654C5.08464 11.9099 4.6 12.9198 4.6 13.9727C4.6 14.4992 4.84232 15.0041 5.27365 15.3764C5.70499 15.7487 6.29 15.9579 6.9 15.9579H16.1C16.71 15.9579 17.295 15.7487 17.7263 15.3764C18.1577 15.0041 18.4 14.4992 18.4 13.9727C18.4 12.9198 17.9154 11.9099 17.0527 11.1654C16.19 10.4208 15.02 10.0025 13.8 10.0025H9.2ZM6.9 13.9727C6.9 13.4463 7.14232 12.9413 7.57366 12.569C8.00499 12.1968 8.59 11.9876 9.2 11.9876H13.8C14.41 11.9876 14.995 12.1968 15.4263 12.569C15.8577 12.9413 16.1 13.4463 16.1 13.9727H6.9ZM11.5 0.0769043C10.28 0.0769043 9.10998 0.495196 8.24731 1.23976C7.38464 1.98432 6.9 2.99417 6.9 4.04714V4.87295C4.84866 5.64566 3.10316 6.91823 1.87751 8.53462C0.65187 10.151 -0.000637068 12.041 0 13.9727V22.9058C0 24.222 0.605802 25.4843 1.68414 26.415C2.76247 27.3457 4.22501 27.8686 5.75 27.8686H17.25C18.775 27.8686 20.2375 27.3457 21.3159 26.415C22.3942 25.4843 23 24.222 23 22.9058V13.9727C23 9.90324 20.1618 6.40447 16.1 4.87295V4.04714C16.1 2.99417 15.6154 1.98432 14.7527 1.23976C13.89 0.495196 12.72 0.0769043 11.5 0.0769043ZM20.7 17.943H2.3V13.9727C2.3 11.8668 3.26928 9.8471 4.99462 8.35797C6.71995 6.86884 9.06001 6.03226 11.5 6.03226C13.94 6.03226 16.28 6.86884 18.0054 8.35797C19.7307 9.8471 20.7 11.8668 20.7 13.9727V17.943ZM6.9 22.9058C6.9 23.169 7.02116 23.4215 7.23683 23.6076C7.45249 23.7938 7.745 23.8983 8.05 23.8983C8.355 23.8983 8.64751 23.7938 8.86317 23.6076C9.07884 23.4215 9.2 23.169 9.2 22.9058V19.9281H20.7V22.9058C20.7 23.6955 20.3365 24.4529 19.6895 25.0113C19.0425 25.5697 18.165 25.8835 17.25 25.8835H5.75C4.835 25.8835 3.95748 25.5697 3.31048 25.0113C2.66348 24.4529 2.3 23.6955 2.3 22.9058V19.9281H6.9V22.9058ZM11.5 4.04714C10.7103 4.04847 9.94367 4.11464 9.2 4.24565V4.04714C9.2 3.52066 9.44232 3.01573 9.87365 2.64345C10.305 2.27117 10.89 2.06202 11.5 2.06202C12.11 2.06202 12.695 2.27117 13.1263 2.64345C13.5577 3.01573 13.8 3.52066 13.8 4.04714V4.24565C13.0563 4.11464 12.2897 4.04847 11.5 4.04714Z" fill="#00246B"/>
<path d="M9.2 10.0025C7.98 10.0025 6.80998 10.4208 5.94731 11.1654C5.08464 11.9099 4.6 12.9198 4.6 13.9727C4.6 14.4992 4.84232 15.0041 5.27365 15.3764C5.70499 15.7487 6.29 15.9579 6.9 15.9579H16.1C16.71 15.9579 17.295 15.7487 17.7263 15.3764C18.1577 15.0041 18.4 14.4992 18.4 13.9727C18.4 12.9198 17.9154 11.9099 17.0527 11.1654C16.19 10.4208 15.02 10.0025 13.8 10.0025H9.2ZM6.9 13.9727C6.9 13.4463 7.14232 12.9413 7.57366 12.569C8.00499 12.1968 8.59 11.9876 9.2 11.9876H13.8C14.41 11.9876 14.995 12.1968 15.4263 12.569C15.8577 12.9413 16.1 13.4463 16.1 13.9727H6.9ZM11.5 0.0769043C10.28 0.0769043 9.10998 0.495196 8.24731 1.23976C7.38464 1.98432 6.9 2.99417 6.9 4.04714V4.87295C4.84866 5.64566 3.10316 6.91823 1.87751 8.53462C0.65187 10.151 -0.000637068 12.041 0 13.9727V22.9058C0 24.222 0.605802 25.4843 1.68414 26.415C2.76247 27.3457 4.22501 27.8686 5.75 27.8686H17.25C18.775 27.8686 20.2375 27.3457 21.3159 26.415C22.3942 25.4843 23 24.222 23 22.9058V13.9727C23 9.90324 20.1618 6.40447 16.1 4.87295V4.04714C16.1 2.99417 15.6154 1.98432 14.7527 1.23976C13.89 0.495196 12.72 0.0769043 11.5 0.0769043ZM20.7 17.943H2.3V13.9727C2.3 11.8668 3.26928 9.8471 4.99462 8.35797C6.71995 6.86884 9.06001 6.03226 11.5 6.03226C13.94 6.03226 16.28 6.86884 18.0054 8.35797C19.7307 9.8471 20.7 11.8668 20.7 13.9727V17.943ZM6.9 22.9058C6.9 23.169 7.02116 23.4215 7.23683 23.6076C7.45249 23.7938 7.745 23.8983 8.05 23.8983C8.355 23.8983 8.64751 23.7938 8.86317 23.6076C9.07884 23.4215 9.2 23.169 9.2 22.9058V19.9281H20.7V22.9058C20.7 23.6955 20.3365 24.4529 19.6895 25.0113C19.0425 25.5697 18.165 25.8835 17.25 25.8835H5.75C4.835 25.8835 3.95748 25.5697 3.31048 25.0113C2.66348 24.4529 2.3 23.6955 2.3 22.9058V19.9281H6.9V22.9058ZM11.5 4.04714C10.7103 4.04847 9.94367 4.11464 9.2 4.24565V4.04714C9.2 3.52066 9.44232 3.01573 9.87365 2.64345C10.305 2.27117 10.89 2.06202 11.5 2.06202C12.11 2.06202 12.695 2.27117 13.1263 2.64345C13.5577 3.01573 13.8 3.52066 13.8 4.04714V4.24565C13.0563 4.11464 12.2897 4.04847 11.5 4.04714Z" stroke="#00246B"/>
</svg>
