<svg width="24" height="24" viewBox="0 0 24 24" fill="none" xmlns="http://www.w3.org/2000/svg">
<path d="M21.534 16.6816C20.992 15.748 20.1864 13.1064 20.1864 9.65625C20.1864 7.58425 19.3633 5.59711 17.8981 4.13198C16.433 2.66685 14.4459 1.84375 12.3739 1.84375C10.3019 1.84375 8.31472 2.66685 6.8496 4.13198C5.38447 5.59711 4.56137 7.58425 4.56137 9.65625C4.56137 13.1074 3.75473 15.748 3.21274 16.6816C3.07433 16.919 3.00095 17.1886 3.00001 17.4634C2.99907 17.7381 3.07059 18.0083 3.20736 18.2466C3.34414 18.4849 3.54133 18.6829 3.77905 18.8206C4.01677 18.9584 4.28661 19.0311 4.56137 19.0312H8.54672C8.72697 19.9132 9.20631 20.7059 9.90369 21.2752C10.6011 21.8444 11.4736 22.1554 12.3739 22.1554C13.2741 22.1554 14.1467 21.8444 14.8441 21.2752C15.5414 20.7059 16.0208 19.9132 16.201 19.0312H20.1864C20.461 19.0309 20.7308 18.9581 20.9683 18.8203C21.2059 18.6824 21.403 18.4844 21.5396 18.2462C21.6763 18.0079 21.7477 17.7378 21.7468 17.4631C21.7458 17.1885 21.6724 16.9189 21.534 16.6816ZM12.3739 20.5938C11.8893 20.5936 11.4167 20.4433 11.0211 20.1635C10.6255 19.8836 10.3264 19.4881 10.1649 19.0312H14.5829C14.4213 19.4881 14.1222 19.8836 13.7266 20.1635C13.331 20.4433 12.8584 20.5936 12.3739 20.5938ZM4.56137 17.4688C5.31332 16.1758 6.12387 13.1797 6.12387 9.65625C6.12387 7.99865 6.78235 6.40894 7.95445 5.23683C9.12655 4.06473 10.7163 3.40625 12.3739 3.40625C14.0315 3.40625 15.6212 4.06473 16.7933 5.23683C17.9654 6.40894 18.6239 7.99865 18.6239 9.65625C18.6239 13.1768 19.4325 16.1729 20.1864 17.4688H4.56137Z" fill="#3F3F3F"/>
</svg>
