<svg width="24" height="24" viewBox="0 0 24 24" fill="none" xmlns="http://www.w3.org/2000/svg">
<g clip-path="url(#clip0_2309_2330)">
<mask id="mask0_2309_2330" style="mask-type:luminance" maskUnits="userSpaceOnUse" x="0" y="0" width="24" height="24">
<path d="M24 0.631836H0V23.3687H24V0.631836Z" fill="white"/>
</mask>
<g mask="url(#mask0_2309_2330)">
<path d="M12 0.631836C18.624 0.631836 24 5.72489 24 12.0003C24 18.2756 18.624 23.3687 12 23.3687C5.376 23.3687 0 18.2756 0 12.0003C0 5.72489 5.376 0.631836 12 0.631836ZM12 1.20026C5.7 1.20026 0.6 6.03184 0.6 12.0003C0.6 17.9687 5.7 22.8003 12 22.8003C18.3 22.8003 23.4 17.9687 23.4 12.0003C23.4 6.03184 18.3 1.20026 12 1.20026ZM12 2.3371C17.64 2.3371 22.2 6.6571 22.2 12.0003C22.2 17.3434 17.64 21.6634 12 21.6634C6.36 21.6634 1.8 17.3434 1.8 12.0003C1.8 6.6571 6.36 2.3371 12 2.3371ZM14.16 4.2811C13.476 4.2811 12.84 4.47436 12.3 4.79268C13.232 5.0023 14.0623 5.50337 14.6567 6.21501C15.2511 6.92664 15.5749 7.80729 15.576 8.71478C15.576 9.4992 15.324 10.2268 14.916 10.8407C15.6952 10.6782 16.3925 10.2684 16.8923 9.67914C17.392 9.08989 17.6643 8.35658 17.664 7.60068C17.664 5.77036 16.092 4.2811 14.16 4.2811ZM11.304 5.41794C10.8375 5.41064 10.3742 5.49148 9.94109 5.65574C9.50797 5.82 9.11376 6.06439 8.78147 6.37462C8.44917 6.68485 8.18547 7.0547 8.00576 7.46258C7.82607 7.87045 7.73396 8.30816 7.73484 8.75014C7.73571 9.19212 7.82955 9.6295 8.01088 10.0367C8.1922 10.444 8.45736 10.8129 8.79088 11.1219C9.1244 11.431 9.51959 11.6739 9.95336 11.8367C10.3871 11.9994 10.8508 12.0786 11.3172 12.0696C12.2371 12.0519 13.1128 11.6929 13.7561 11.0698C14.3995 10.4467 14.7589 9.60925 14.7572 8.73763C14.7555 7.86602 14.3927 7.02986 13.7469 6.40904C13.1011 5.78821 12.2239 5.43233 11.304 5.41794ZM16.404 11.1135L15.792 11.7843C18.6 12.5687 18.732 15.8883 18.732 15.8883H20.268C20.268 10.5337 16.404 11.1135 16.404 11.1135ZM13.884 12.023L11.34 14.399L8.796 12.023C3.744 12.2731 4.668 17.6845 4.668 17.6845H17.964C18.528 12.023 13.884 12.023 13.884 12.023Z" fill="#3F3F3F"/>
</g>
</g>
<defs>
<clipPath id="clip0_2309_2330">
<rect width="24" height="24" fill="white"/>
</clipPath>
</defs>
</svg>
