<svg width="25" height="25" viewBox="0 0 25 25" fill="none" xmlns="http://www.w3.org/2000/svg">
<path d="M19.9434 3.08301H17.6934V2.33301C17.6934 2.1341 17.6143 1.94333 17.4737 1.80268C17.333 1.66203 17.1423 1.58301 16.9434 1.58301C16.7444 1.58301 16.5537 1.66203 16.413 1.80268C16.2724 1.94333 16.1934 2.1341 16.1934 2.33301V3.08301H8.69336V2.33301C8.69336 2.1341 8.61434 1.94333 8.47369 1.80268C8.33304 1.66203 8.14227 1.58301 7.94336 1.58301C7.74445 1.58301 7.55368 1.66203 7.41303 1.80268C7.27238 1.94333 7.19336 2.1341 7.19336 2.33301V3.08301H4.94336C4.54553 3.08301 4.164 3.24104 3.8827 3.52235C3.60139 3.80365 3.44336 4.18518 3.44336 4.58301V19.583C3.44336 19.9808 3.60139 20.3624 3.8827 20.6437C4.164 20.925 4.54553 21.083 4.94336 21.083H19.9434C20.3412 21.083 20.7227 20.925 21.004 20.6437C21.2853 20.3624 21.4434 19.9808 21.4434 19.583V4.58301C21.4434 4.18518 21.2853 3.80365 21.004 3.52235C20.7227 3.24104 20.3412 3.08301 19.9434 3.08301ZM7.19336 4.58301V5.33301C7.19336 5.53192 7.27238 5.72269 7.41303 5.86334C7.55368 6.00399 7.74445 6.08301 7.94336 6.08301C8.14227 6.08301 8.33304 6.00399 8.47369 5.86334C8.61434 5.72269 8.69336 5.53192 8.69336 5.33301V4.58301H16.1934V5.33301C16.1934 5.53192 16.2724 5.72269 16.413 5.86334C16.5537 6.00399 16.7444 6.08301 16.9434 6.08301C17.1423 6.08301 17.333 6.00399 17.4737 5.86334C17.6143 5.72269 17.6934 5.53192 17.6934 5.33301V4.58301H19.9434V7.58301H4.94336V4.58301H7.19336ZM19.9434 19.583H4.94336V9.08301H19.9434V19.583Z" fill="#3F3F3F"/>
</svg>
