<svg width="24" height="24" viewBox="0 0 24 24" fill="none" xmlns="http://www.w3.org/2000/svg">
<mask id="mask0_2291_2233" style="mask-type:luminance" maskUnits="userSpaceOnUse" x="0" y="0" width="24" height="24">
<path d="M24 0.631836H0V23.3687H24V0.631836Z" fill="white"/>
</mask>
<g mask="url(#mask0_2291_2233)">
<path d="M13 4.89494V3.94757C12.9976 3.81627 13.0518 3.68971 13.15 3.59705C13.2597 3.50548 13.4044 3.46092 13.55 3.47389C17.5489 3.72649 20.7333 6.74337 21 10.5318C21.0081 10.6633 20.9615 10.7926 20.87 10.8918C20.7721 10.9848 20.6385 11.0361 20.5 11.0339H19.5C19.2388 11.0347 19.0209 10.8448 19 10.5981C18.7721 7.80422 16.4291 5.58447 13.48 5.36861C13.2117 5.35844 12.9998 5.14932 13 4.89494ZM13.17 7.39598C13.0608 7.48687 12.9987 7.61828 13 7.75598V8.70336C12.9959 8.92982 13.165 9.126 13.4 9.16757C14.204 9.30701 14.8376 9.89597 15 10.6549C15.0439 10.8776 15.2509 11.0377 15.49 11.0339H16.49C16.6353 11.0351 16.7741 10.9763 16.87 10.8728C16.9641 10.7679 17.0076 10.6305 16.99 10.4939C16.7288 8.82636 15.3493 7.51565 13.59 7.26335C13.4428 7.25175 13.2974 7.29997 13.19 7.39598H13.17ZM17.67 20.5265C18.2031 20.5269 18.7143 20.3257 19.09 19.9676L20.78 18.3665C20.9455 18.211 21.0251 17.9915 20.9957 17.7726C20.9664 17.5536 20.8312 17.3599 20.63 17.2486L16.77 15.117C16.3771 14.9014 15.8803 14.9637 15.56 15.2686L13.67 17.0592C13.5148 17.2078 13.275 17.2424 13.08 17.1444L12.42 16.8034C10.0893 15.6165 8.17704 13.8082 6.92 11.6023L6.57 10.977C6.46647 10.7923 6.50304 10.5652 6.66 10.4181L8.55 8.62756C8.87183 8.32417 8.93753 7.85346 8.71 7.48126L6.46 3.8244C6.34248 3.63379 6.13811 3.50576 5.90696 3.47792C5.6758 3.45008 5.44412 3.5256 5.28 3.68231L3.59 5.28335C3.21196 5.63937 2.99957 6.12363 3 6.62861V7.26335C3.00144 8.83006 3.41013 10.3723 4.19 11.7539L4.44 12.1802C6.11169 15.1258 8.66075 17.5407 11.77 19.1244L12.22 19.3613C13.6867 20.1193 15.3293 20.5197 17 20.5265H17.67Z" fill="#3F3F3F"/>
</g>
</svg>
