<svg width="24" height="24" viewBox="0 0 24 24" fill="none" xmlns="http://www.w3.org/2000/svg">
<path d="M14.2943 1.52681C14.8188 1.94396 15.2188 2.49772 15.4219 3.1407C15.4219 3.1871 15.4219 3.23351 15.4219 3.28132C15.4808 3.27745 15.5398 3.27359 15.6006 3.2696C16.6458 3.27256 17.738 3.72783 18.5156 4.40633C18.5588 4.44285 18.5588 4.44285 18.603 4.48011C19.9344 5.69529 20.2611 8.142 20.3531 9.82772C20.3714 10.2853 20.3804 10.7432 20.3874 11.201C20.3903 11.3724 20.3946 11.5437 20.399 11.715C20.3997 11.7922 20.3997 11.7922 20.4003 11.8711C20.4086 12.1584 20.4456 12.3405 20.6144 12.5748C20.8724 12.9407 20.893 13.4581 20.9151 13.8897C20.9184 13.9471 20.9219 14.0045 20.9254 14.0636C20.9355 14.2351 20.9444 14.4067 20.9531 14.5782C20.9583 14.6674 20.9637 14.7567 20.969 14.8459C21.041 16.1549 21.04 17.4888 20.9531 18.797C20.951 18.8318 20.9491 18.8666 20.9471 18.9024C20.9196 19.3287 20.8118 19.6457 20.6088 20.0146C20.5411 20.1381 20.4864 20.2588 20.4375 20.3907C20.4637 20.3832 20.4899 20.3756 20.517 20.3678C20.7172 20.3233 20.9216 20.3332 21.126 20.332C21.1933 20.3306 21.1933 20.3306 21.2618 20.3292C21.6907 20.3268 22.0379 20.415 22.375 20.6874C22.5045 20.8171 22.5468 20.915 22.5937 21.0938C22.5894 21.3486 22.5291 21.4709 22.3594 21.6563C21.9616 21.9241 21.4978 22.0335 21.0381 22.1427C20.9838 22.1559 20.9838 22.1559 20.9283 22.1692C17.0498 23.11 12.0545 24.0549 6.91095 22.4032C6.41353 22.0998 6.00251 21.7569 5.6695 21.2733C5.57593 21.1376 5.47627 21.0079 5.37596 20.8771C5.25023 20.7103 5.19136 20.5991 5.16211 20.3936C5.14053 20.2858 5.14053 20.2858 5.06249 20.2031C4.89425 20.1485 4.73235 20.1141 4.55861 20.0835C3.96669 19.9773 3.51205 19.6968 3.09374 19.2657C3.06456 19.2369 3.03538 19.2082 3.0053 19.1786C1.5679 17.6668 1.32554 14.7714 1.35937 12.797C1.47937 9.78268 2.67002 5.23507 4.73437 2.9532C4.76845 2.91362 4.80252 2.87405 4.83763 2.83326C5.34585 2.25161 5.98062 1.7183 6.7776 1.62676C6.90063 1.62029 7.02232 1.61874 7.1455 1.62018C7.18866 1.62061 7.23183 1.62104 7.2763 1.62147C7.84267 1.6359 8.24636 1.82766 8.67186 2.20319C8.77664 2.32213 8.86863 2.44416 8.95312 2.5782C8.97584 2.54587 8.99857 2.51354 9.02196 2.48024C9.61918 1.64299 10.351 1.00019 11.3906 0.796946C12.4546 0.622284 13.44 0.87498 14.2943 1.52681ZM9.92285 2.23835C9.66047 2.5158 9.37881 2.89643 9.32811 3.28132C9.41739 3.26112 9.41739 3.26112 9.50848 3.24048C9.75132 3.18659 9.99498 3.13789 10.2393 3.09089C10.2804 3.08277 10.3215 3.07463 10.3638 3.06627C11.5123 2.84537 12.6727 2.95409 13.8261 3.07399C13.8676 3.0783 13.9091 3.08259 13.9518 3.08704C14.0299 3.09523 14.1079 3.10357 14.1859 3.11211C14.3802 3.13283 14.5698 3.14507 14.7656 3.1407C14.5242 2.4616 13.9562 1.90225 13.3125 1.59381C12.0906 1.08148 10.8881 1.3466 9.92285 2.23835ZM5.34375 3.1407C4.80337 3.74743 4.42447 4.47394 4.07812 5.20319C4.0617 5.23729 4.04528 5.27138 4.02836 5.30649C3.06532 7.31696 2.27013 9.73034 2.01561 11.9532C2.01134 11.9886 2.00705 12.0241 2.00265 12.0606C1.77074 14.1327 2.05885 17.0453 3.3955 18.7471C3.80652 19.2255 4.29895 19.4984 4.92187 19.5938C4.89687 19.2075 4.87012 18.8215 4.8413 18.4356C4.76452 17.3998 4.70183 16.3668 4.6875 15.3282C4.68672 15.2771 4.68672 15.2771 4.68594 15.2249C4.56662 7.11257 4.56662 7.11257 6.95232 4.62751C7.44424 4.12915 7.94654 3.80312 8.62499 3.60945C8.57979 3.1051 8.47214 2.75408 8.08007 2.41999C7.11879 1.75449 6.02613 2.41461 5.34375 3.1407ZM9.65332 3.73543C9.61443 3.7473 9.57555 3.75919 9.5355 3.77143C8.94031 3.96149 8.40678 4.24539 7.92187 4.6407C7.88199 4.6729 7.8421 4.7051 7.80101 4.73829C6.40607 5.92572 6.1809 7.82312 5.9414 9.52742C5.93526 9.57103 5.92913 9.61466 5.92278 9.65959C5.78249 10.664 5.74539 11.6572 5.72643 12.6701C5.72161 12.9203 5.71398 13.1702 5.70427 13.4202C5.70124 13.5308 5.69823 13.6414 5.69531 13.752C5.69273 13.8006 5.69016 13.8491 5.68752 13.8992C5.6807 14.2818 5.81825 14.5126 6.04687 14.8126C6.08299 14.8603 6.11914 14.908 6.15636 14.9572C6.37745 15.2054 6.58499 15.3824 6.89062 15.5157C6.93703 15.536 6.98342 15.5563 7.03125 15.5772C7.41836 15.6659 7.75589 15.6018 8.10937 15.4219C8.14006 15.4066 8.17077 15.3913 8.2024 15.3755C8.36692 15.2764 8.46693 15.201 8.52154 15.0121C8.53843 14.8475 8.54361 14.686 8.54516 14.5205C8.54834 14.4258 8.55153 14.331 8.55474 14.2362C8.55784 14.1354 8.56005 14.0346 8.56202 13.9338C8.56617 13.724 8.57288 13.5143 8.58023 13.3046C8.58208 13.2521 8.58208 13.2521 8.58395 13.1985C8.58643 13.1275 8.58893 13.0566 8.59144 12.9857C8.59516 12.8787 8.59866 12.7717 8.6021 12.6647C8.62318 12.0248 8.66361 11.3872 8.71581 10.7491C8.7198 10.7001 8.72377 10.6512 8.72789 10.6008C9.09689 6.12975 9.09689 6.12975 10.7344 4.68757C11.0776 4.41002 11.4532 4.1994 11.8418 3.99324C11.882 3.97185 11.9223 3.95046 11.9637 3.92841C12.2492 3.78095 12.5396 3.66575 12.8437 3.56258C12.7239 3.44277 12.6445 3.45674 12.4811 3.45459C12.4256 3.45466 12.4256 3.45466 12.3689 3.45472C12.3111 3.45442 12.3111 3.45442 12.2521 3.45412C12.17 3.45385 12.0878 3.45381 12.0056 3.45402C11.8828 3.45416 11.76 3.45308 11.6372 3.45189C10.9547 3.44925 10.3077 3.53422 9.65332 3.73543ZM11.2428 5.04476C11.1767 5.09999 11.1767 5.09999 11.1094 5.15632C11.1964 5.59654 11.2841 6.03663 11.3729 6.4765C11.4061 6.64067 11.439 6.80483 11.4715 6.96913C11.6419 7.83065 11.8342 8.668 12.5156 9.28132C12.5466 9.31341 12.5466 9.31341 12.5782 9.34615C13.1544 9.90478 14.0611 10.0892 14.833 10.0811C14.8911 10.0808 14.8911 10.0808 14.9505 10.0805C15.0451 10.0799 15.1397 10.0791 15.2344 10.0782C15.239 10.046 15.2436 10.0138 15.2483 9.98061C15.2553 9.93836 15.2623 9.89613 15.2695 9.85261C15.276 9.81073 15.2826 9.76887 15.2893 9.72571C15.3373 9.58186 15.3837 9.5412 15.5156 9.46882C15.6599 9.43786 15.7928 9.44045 15.9376 9.46882C16.0666 9.57108 16.1455 9.65031 16.2187 9.79695C17.0675 9.63269 17.7346 9.18047 18.2481 8.47803C18.5941 7.93995 18.7847 7.37834 18.8907 6.75008C18.9074 6.67121 18.9074 6.67121 18.9244 6.59077C19.0042 6.07717 18.8017 5.70845 18.5156 5.29695C17.8706 4.43217 16.9155 4.01058 15.8701 3.85554C14.2781 3.63876 12.4954 3.99707 11.2428 5.04476ZM10.125 6.37508C9.46394 7.78802 9.36709 9.34391 9.24535 10.8783C9.23469 11.0116 9.22363 11.1449 9.21252 11.2782C8.9165 14.8984 9.08819 18.554 9.32811 22.1719C9.77462 22.3207 10.2937 22.277 10.7607 22.2775C10.7972 22.2775 10.8337 22.2775 10.8713 22.2776C12.0877 22.2765 13.2865 22.1448 14.4844 21.9375C14.4844 21.9221 14.4844 21.9067 14.4844 21.8908C14.4419 21.89 14.4419 21.89 14.3986 21.8893C13.5913 21.8736 12.9181 21.8235 12.3177 21.2242C11.935 20.7836 11.7682 20.2578 11.7532 19.6804C11.7516 19.624 11.75 19.5677 11.7484 19.5095C11.7469 19.4488 11.7454 19.3881 11.7438 19.3256C11.7421 19.2613 11.7403 19.1971 11.7385 19.1328C11.7347 18.9966 11.731 18.8606 11.7274 18.7244C11.7179 18.3709 11.7078 18.0176 11.6973 17.6641C11.6963 17.6293 11.6953 17.5946 11.6942 17.5589C11.6776 17.0042 11.6529 16.4504 11.6191 15.8965C11.5896 15.3995 11.5664 14.9033 11.5605 14.4053C11.5593 14.3532 11.5581 14.3011 11.5569 14.2474C11.5557 13.7382 11.7222 13.3412 12.0586 12.9581C12.4892 12.5764 12.9672 12.4641 13.5278 12.3981C13.6253 12.3859 13.7228 12.3735 13.8203 12.3612C13.8712 12.3549 13.9221 12.3486 13.9745 12.3421C15.0444 12.2087 16.1035 12.0368 17.163 11.8386C17.5411 11.768 17.9191 11.6984 18.2986 11.636C18.3334 11.6301 18.3682 11.6242 18.4042 11.618C18.7147 11.5684 19.0366 11.5429 19.3448 11.6192C19.3769 11.6268 19.4088 11.6344 19.4419 11.6423C19.5722 11.6791 19.6998 11.7226 19.8281 11.7657C19.7946 9.51957 19.7946 9.51957 19.4063 7.31257C19.3038 7.46631 19.2637 7.59893 19.21 7.77547C19.0323 8.32825 18.7608 8.79985 18.3749 9.23445C18.3477 9.26604 18.3206 9.29766 18.2926 9.33021C17.7407 9.92859 17.0117 10.2205 16.2656 10.5001C16.2615 10.5434 16.2615 10.5434 16.2574 10.5875C16.2535 10.6254 16.2497 10.6633 16.2459 10.7024C16.2421 10.74 16.2384 10.7775 16.2348 10.8162C16.2132 10.9587 16.1712 11.0465 16.0781 11.1563C15.9051 11.2651 15.7516 11.2605 15.5561 11.2281C15.4185 11.1889 15.3615 11.1331 15.2812 11.0157C15.2484 10.9068 15.217 10.7974 15.1875 10.6876C15.0974 10.6892 15.0974 10.6892 15.0055 10.6909C13.6111 10.7089 12.4724 10.3801 11.4521 9.40437C10.6509 8.57646 10.3196 7.49071 10.1719 6.37508C10.1564 6.37508 10.1409 6.37508 10.125 6.37508ZM18.2322 12.1643C18.1591 12.1797 18.086 12.1951 18.0129 12.2105C17.9746 12.2187 17.9364 12.2269 17.897 12.2353C17.1573 12.3929 16.4153 12.527 15.668 12.6417C15.6241 12.6484 15.5802 12.6552 15.535 12.6622C15.0672 12.7339 14.599 12.8014 14.1297 12.8629C14.0906 12.868 14.0516 12.8732 14.0113 12.8785C13.8287 12.9027 13.646 12.9262 13.4631 12.9482C12.9967 13.0069 12.6359 13.0967 12.3067 13.4515C11.9453 13.9283 12.0268 14.4877 12.0937 15.0469C14.7101 15.333 17.2754 14.6043 19.768 13.906C19.8321 13.8882 19.8321 13.8882 19.8973 13.87C19.9364 13.859 19.9753 13.848 20.0155 13.8366C20.0497 13.827 20.0838 13.8174 20.119 13.8076C20.2067 13.7827 20.2067 13.7827 20.2968 13.7344C20.2894 13.3366 20.2253 13.0429 20.0157 12.7032C19.9894 12.6607 19.9634 12.6181 19.9365 12.5743C19.5954 12.2425 19.1917 12.0847 18.7209 12.0885C18.5536 12.0965 18.3954 12.1279 18.2322 12.1643ZM20.1074 14.4414C20.0668 14.4526 20.0262 14.4637 19.9844 14.4752C19.9398 14.4875 19.8953 14.4998 19.8496 14.5125C19.7544 14.5386 19.6593 14.5647 19.5641 14.5907C19.514 14.6045 19.4638 14.6182 19.4122 14.6324C17.5263 15.1481 15.6466 15.6018 13.6875 15.7032C13.7026 15.7515 13.7177 15.7997 13.7333 15.8495C13.8089 16.1155 13.844 16.4253 13.7457 16.6893C13.659 16.8282 13.5654 16.929 13.4062 16.9689C13.2401 16.9681 13.0939 16.9604 12.9501 16.8721C12.8565 16.7292 12.8741 16.5799 12.8789 16.4151C12.8791 16.3824 12.8794 16.3495 12.8796 16.3158C12.8819 16.1638 12.8926 16.0195 12.9177 15.8696C12.9243 15.8302 12.9308 15.7907 12.9375 15.7501C12.883 15.6848 12.883 15.6848 12.7322 15.6986C12.6669 15.6989 12.6015 15.6995 12.5361 15.7003C12.5028 15.7005 12.4695 15.7007 12.4351 15.7009C12.3526 15.7015 12.27 15.7023 12.1875 15.7032C12.1824 16.2155 12.1884 16.725 12.2145 17.2368C12.2302 17.5665 12.2386 17.8961 12.2446 18.2262C12.2455 18.2715 12.2463 18.317 12.2472 18.3637C12.2507 18.5487 12.2542 18.7339 12.2568 18.9189C12.2498 20.0138 12.2498 20.0138 12.7646 20.9444C13.1907 21.3437 13.6892 21.3901 14.25 21.375C14.4791 21.3618 14.7072 21.3418 14.9355 21.3194C14.9668 21.3164 14.9981 21.3133 15.0303 21.3102C16.354 21.1784 17.6506 20.8756 18.9199 20.4814C18.9668 20.4673 19.0137 20.453 19.062 20.4384C19.5315 20.2874 19.958 20.0866 20.2031 19.6407C20.3553 19.3026 20.4203 18.996 20.4257 18.6271C20.4272 18.5785 20.4284 18.5298 20.4297 18.4798C20.4338 18.3043 20.4359 18.1288 20.4375 17.9532C20.4378 17.9174 20.4381 17.8815 20.4386 17.8446C20.4593 16.115 20.4593 16.115 20.3437 14.3907C20.2622 14.3907 20.1856 14.4198 20.1074 14.4414ZM5.71875 15.3282C5.68399 15.6125 5.66306 15.8923 5.65703 16.1786C5.65605 16.2191 5.65508 16.2597 5.65406 16.3013C5.65095 16.434 5.64818 16.5666 5.6455 16.6993C5.64456 16.7449 5.6436 16.7905 5.64263 16.8376C5.63572 17.1782 5.63 17.5188 5.62499 17.8594C5.62428 17.9087 5.62355 17.958 5.6228 18.0088C5.61873 18.2997 5.61576 18.5905 5.61415 18.8814C5.61358 18.9728 5.61275 19.0643 5.61169 19.1559C5.61029 19.284 5.60983 19.4121 5.60961 19.5404C5.60903 19.5776 5.60846 19.6149 5.60786 19.6534C5.60942 20.0498 5.71427 20.3862 5.99281 20.6731C6.30221 20.9568 6.71893 21.1325 7.08983 21.3224C7.45382 21.51 7.81223 21.7029 8.16375 21.913C8.36956 22.0235 8.53127 22.0782 8.76562 22.0782C8.74212 21.4542 8.71581 20.8303 8.68506 20.2065C8.61438 18.7681 8.55294 17.3309 8.53125 15.8907C8.47441 15.9152 8.47441 15.9152 8.41643 15.9404C8.36635 15.9617 8.31625 15.983 8.26464 16.0049C8.19042 16.0368 8.19042 16.0368 8.11468 16.0693C7.65552 16.2449 7.13257 16.2328 6.68079 16.0434C6.34827 15.8777 6.09198 15.6701 5.8374 15.4003C5.8137 15.3765 5.79002 15.3527 5.76562 15.3282C5.75016 15.3282 5.73468 15.3282 5.71875 15.3282Z" fill="#3F3F3F"/>
</svg>
