<svg width="24" height="24" viewBox="0 0 24 24" fill="none" xmlns="http://www.w3.org/2000/svg">
<path d="M15.0785 3.2395H8.91845C8.40042 3.21568 7.89338 3.38634 7.50734 3.71446C7.12131 4.04258 6.88742 4.50167 6.85645 4.99213V10.7493C6.8761 11.6962 7.16809 12.6201 7.70095 13.4214C8.23383 14.2226 8.98738 14.8711 9.88045 15.2967C10.5329 15.6242 11.26 15.7955 11.9984 15.7955C12.7368 15.7955 13.4641 15.6242 14.1165 15.2967C15.0095 14.8711 15.763 14.2226 16.2959 13.4214C16.8287 12.6201 17.1207 11.6962 17.1405 10.7493V4.99213C17.1094 4.50167 16.8755 4.04258 16.4895 3.71446C16.1035 3.38634 15.5965 3.21568 15.0785 3.2395Z" stroke="#3F3F3F" stroke-width="1.5" stroke-linecap="round"/>
<path d="M17.1411 4.99106H19.1949C19.7115 4.96955 20.2163 5.14125 20.6003 5.46913C20.9844 5.79701 21.2171 6.25479 21.248 6.74369C21.2448 7.84242 20.9453 8.92216 20.378 9.88043C19.784 10.8712 18.9543 11.7171 17.9549 12.3512L17.1411 12.8769L16.346 13.3327M6.857 4.99106H4.803C4.28649 4.96955 3.78176 5.14125 3.39769 5.46913C3.01361 5.79701 2.781 6.25479 2.75 6.74369C2.753 7.84264 3.052 8.92264 3.62 9.88043C4.21407 10.8712 5.04367 11.7171 6.043 12.3512L6.857 12.8769L7.652 13.3327M9.946 18.1339V15.3211M14.052 18.1339V15.3211M8.809 18.1339H15.1889C15.4453 18.1339 15.6992 18.1817 15.936 18.2747C16.1728 18.3676 16.388 18.5038 16.5693 18.6756C16.7505 18.8472 16.8943 19.0511 16.9924 19.2755C17.0905 19.4998 17.1411 19.7403 17.1411 19.9832V20.2986C17.1411 20.4218 17.0893 20.5399 16.9975 20.6269C16.9056 20.7139 16.7809 20.7628 16.6511 20.7628H7.347C7.21704 20.7628 7.09241 20.7139 7.00052 20.6269C6.90863 20.5399 6.857 20.4218 6.857 20.2986V19.9832C6.857 19.4928 7.06252 19.0227 7.42837 18.6758C7.79423 18.3291 8.29147 18.1342 8.809 18.1339Z" stroke="#3F3F3F" stroke-width="1.5" stroke-linecap="round"/>
<path d="M12.143 10.3971L13.323 10.9844C13.3729 11.009 13.429 11.0199 13.4851 11.0159C13.5411 11.0119 13.595 10.9931 13.6405 10.9617C13.6858 10.9303 13.7211 10.8875 13.7422 10.8381C13.7634 10.7887 13.7695 10.7347 13.7599 10.6822L13.5339 9.43832C13.5257 9.39248 13.5291 9.34541 13.5443 9.30117C13.5595 9.25693 13.5858 9.21685 13.621 9.18443L14.5759 8.30338C14.617 8.2665 14.6463 8.21939 14.6603 8.16746C14.6743 8.11553 14.6725 8.06091 14.6551 8.00991C14.6378 7.9589 14.6055 7.91358 14.5622 7.87917C14.5189 7.84477 14.4661 7.82269 14.4099 7.81548L13.091 7.63548C13.0429 7.62864 12.9973 7.61084 12.9581 7.5836C12.9189 7.55638 12.8873 7.52053 12.866 7.47917L12.263 6.33759C12.2381 6.28961 12.1995 6.24922 12.1516 6.22097C12.1037 6.19272 12.0484 6.17773 11.992 6.17773C11.9356 6.17773 11.8803 6.19272 11.8324 6.22097C11.7845 6.24922 11.7459 6.28961 11.721 6.33759L11.119 7.47917C11.0975 7.52061 11.0657 7.55648 11.0263 7.58372C10.987 7.61094 10.9412 7.6287 10.893 7.63548L9.59299 7.81548C9.53682 7.82244 9.48386 7.84428 9.44021 7.87849C9.39655 7.91269 9.36398 7.95788 9.34622 8.00883C9.32847 8.0598 9.32625 8.11447 9.33983 8.16658C9.35341 8.21868 9.38223 8.2661 9.42299 8.30338L10.378 9.18443C10.4134 9.21671 10.44 9.25674 10.4553 9.30101C10.4707 9.34527 10.4743 9.39241 10.466 9.43832L10.24 10.6822C10.2296 10.7348 10.2351 10.7892 10.2558 10.839C10.2766 10.8888 10.3118 10.932 10.3574 10.9637C10.4029 10.9954 10.457 11.0142 10.5134 11.0181C10.5697 11.0219 10.6261 11.0106 10.676 10.9854L11.856 10.398C11.9 10.3753 11.9494 10.3634 11.9995 10.3634C12.0496 10.3634 12.099 10.3743 12.143 10.3971Z" stroke="#3F3F3F" stroke-width="1.5" stroke-linecap="round" stroke-linejoin="round"/>
</svg>
