<svg width="24" height="25" viewBox="0 0 24 25" fill="none" xmlns="http://www.w3.org/2000/svg">
<path d="M12.0002 2.75C10.3169 2.74963 8.66213 3.18508 7.19704 4.01396C5.73194 4.84285 4.50641 6.03692 3.63971 7.47997C2.77302 8.92301 2.29469 10.5659 2.25129 12.2486C2.20789 13.9314 2.60089 15.5967 3.39205 17.0825L2.32799 20.2747C2.23985 20.539 2.22706 20.8226 2.29105 21.0938C2.35504 21.3649 2.49328 21.6129 2.69029 21.8099C2.88729 22.0069 3.13526 22.1451 3.40642 22.2091C3.67757 22.2731 3.96119 22.2603 4.22549 22.1722L7.41768 21.1081C8.72527 21.8036 10.1741 22.1921 11.6543 22.244C13.1344 22.2959 14.6069 22.01 15.9601 21.4079C17.3132 20.8057 18.5114 19.9033 19.4636 18.769C20.4159 17.6346 21.0972 16.2983 21.4559 14.8613C21.8146 13.4244 21.8412 11.9246 21.5337 10.4758C21.2263 9.027 20.5928 7.66731 19.6813 6.49992C18.7699 5.33253 17.6045 4.38811 16.2736 3.73836C14.9427 3.08861 13.4812 2.75061 12.0002 2.75ZM12.0002 20.75C10.5498 20.751 9.12495 20.3691 7.86955 19.6428C7.77763 19.5895 7.67544 19.5563 7.56974 19.5455C7.46404 19.5347 7.35724 19.5464 7.25643 19.58L3.75018 20.75L4.91924 17.2438C4.95294 17.143 4.96485 17.0362 4.95418 16.9305C4.94351 16.8248 4.91051 16.7226 4.85736 16.6306C3.94796 15.0584 3.58284 13.2299 3.81864 11.429C4.05444 9.62801 4.87798 7.9552 6.16151 6.67006C7.44503 5.38491 9.11679 4.55925 10.9175 4.32118C12.7181 4.0831 14.547 4.44591 16.1204 5.35333C17.6938 6.26074 18.9238 7.66204 19.6196 9.33983C20.3153 11.0176 20.4379 12.8781 19.9684 14.6327C19.4989 16.3873 18.4634 17.9379 17.0227 19.0439C15.582 20.15 13.8165 20.7497 12.0002 20.75Z" fill="#3F3F3F"/>
</svg>
