<svg width="24" height="24" viewBox="0 0 24 24" fill="none" xmlns="http://www.w3.org/2000/svg">
<path d="M3.89919 3.89919C4.20057 3.59819 4.6091 3.42912 5.03504 3.42912C5.46099 3.42912 5.86951 3.59819 6.17089 3.89919L12.0001 9.7263L17.8294 3.89919C17.9785 3.75003 18.1556 3.63171 18.3505 3.55099C18.5454 3.47025 18.7542 3.42871 18.9652 3.42871C19.1762 3.42871 19.385 3.47025 19.58 3.55099C19.7749 3.63171 19.9519 3.75003 20.1011 3.89919C20.2503 4.04835 20.3686 4.22543 20.4493 4.42032C20.53 4.61521 20.5716 4.82409 20.5716 5.03504C20.5716 5.24598 20.53 5.45486 20.4493 5.64975C20.3686 5.84464 20.2503 6.02172 20.1011 6.17088L14.274 12.0001L20.1011 17.8294C20.4023 18.1307 20.5716 18.5392 20.5716 18.9653C20.5716 19.3913 20.4023 19.7998 20.1011 20.1011C19.7998 20.4023 19.3913 20.5716 18.9652 20.5716C18.5392 20.5716 18.1307 20.4023 17.8294 20.1011L12.0001 14.274L6.17089 20.1011C5.86965 20.4023 5.46107 20.5716 5.03504 20.5716C4.60902 20.5716 4.20045 20.4023 3.89919 20.1011C3.59795 19.7998 3.42871 19.3913 3.42871 18.9653C3.42871 18.5392 3.59795 18.1307 3.89919 17.8294L9.7263 12.0001L3.89919 6.17088C3.59819 5.86951 3.42913 5.46098 3.42913 5.03504C3.42913 4.60909 3.59819 4.20056 3.89919 3.89919Z" fill="#3F3F3F" fill-opacity="0.952941"/>
</svg>
