<svg width="30" height="28" viewBox="0 0 30 28" fill="none" xmlns="http://www.w3.org/2000/svg">
<g clip-path="url(#clip0_4048_2516)">
<mask id="mask0_4048_2516" style="mask-type:luminance" maskUnits="userSpaceOnUse" x="0" y="4" width="24" height="24">
<path d="M24 4H0V28H24V4Z" fill="white"/>
</mask>
<g mask="url(#mask0_4048_2516)">
<mask id="mask1_4048_2516" style="mask-type:luminance" maskUnits="userSpaceOnUse" x="0" y="4" width="24" height="24">
<path d="M24 4H0V28H24V4Z" fill="white"/>
</mask>
<g mask="url(#mask1_4048_2516)">
<path d="M13.3214 4.16707C13.3954 4.18425 13.4694 4.20132 13.5434 4.21829C13.7283 4.26101 13.9128 4.30515 14.0973 4.3497C14.2324 4.38206 14.3677 4.41332 14.5031 4.44447C14.6552 4.4795 14.8071 4.51515 14.9591 4.55086C15.0398 4.56976 15.0398 4.56976 15.1221 4.58905C15.9315 4.78511 16.6211 5.09649 17.0773 5.8282C17.3284 6.27525 17.4706 6.76437 17.4376 7.28132C17.4222 7.31227 17.4066 7.3432 17.3907 7.37508C17.3894 7.459 17.3913 7.54299 17.3947 7.62684C17.3977 7.70554 17.3977 7.70554 17.4009 7.78583C17.4045 7.87109 17.4045 7.87109 17.4083 7.95808C17.4237 8.31981 17.4387 8.68091 17.4414 9.04299C17.4423 9.09943 17.4431 9.15587 17.4441 9.21402C17.4455 9.32158 17.446 9.42915 17.4454 9.53672C17.4516 9.84344 17.4932 10.022 17.7009 10.2526C17.8923 10.4759 17.8249 10.8408 17.8263 11.1197C17.827 11.1912 17.8279 11.2627 17.8294 11.3342C17.8381 11.7864 17.8391 12.1267 17.5412 12.4942C17.3061 12.6997 17.086 12.7939 16.7813 12.8594C16.7738 12.8953 16.7665 12.9311 16.7587 12.968C16.5052 14.1323 16.0456 15.1536 15.0938 15.9063C15.0655 15.9203 15.0373 15.9342 15.0081 15.9486C14.9051 16.0042 14.8397 16.0493 14.7657 16.1407C14.7195 16.3426 14.7263 16.5381 14.7335 16.7442C14.7334 16.7985 14.7333 16.8529 14.7332 16.9088C14.7359 17.2749 14.7359 17.2749 14.8705 17.6109C15.0711 17.7969 15.3776 17.8414 15.6366 17.9108C15.706 17.9304 15.7754 17.9502 15.8448 17.9701C15.9899 18.0117 16.1354 18.0529 16.2808 18.0937C16.5942 18.1824 16.905 18.2798 17.2157 18.3774C17.3169 18.4092 17.4183 18.4409 17.5196 18.4726C17.6548 18.5148 17.7899 18.5571 17.925 18.5994C18.0975 18.6533 18.2699 18.707 18.4424 18.7607C18.5786 18.8032 18.7148 18.8458 18.8512 18.8885C18.9148 18.9084 18.9783 18.9282 19.0419 18.9479C20.1626 19.2961 20.1626 19.2961 20.6046 19.5684C20.6337 19.5861 20.6628 19.6038 20.6927 19.6221C21.0013 19.8167 21.2571 20.0571 21.5157 20.3127C21.5492 20.3427 21.5827 20.3729 21.6174 20.4041C22.3628 21.0901 22.7834 22.1381 22.922 23.1252C22.9267 23.2547 22.9293 23.3831 22.9294 23.5126C22.9298 23.5505 22.9299 23.5883 22.9302 23.6272C22.9309 23.7517 22.9312 23.8763 22.9315 24.0008C22.9318 24.0877 22.932 24.1748 22.9323 24.2617C22.9328 24.4439 22.9331 24.6259 22.9333 24.808C22.9334 25.0409 22.9345 25.2736 22.936 25.5062C22.9368 25.6858 22.9371 25.8654 22.9371 26.045C22.9372 26.1309 22.9377 26.2165 22.9382 26.3024C22.9391 26.4227 22.939 26.5428 22.9387 26.6632C22.9391 26.6981 22.9395 26.7331 22.9399 26.7692C22.9369 27.1505 22.819 27.4469 22.547 27.7188C22.2635 27.9242 22.0559 28.0059 21.7018 28.0064C21.6678 28.0065 21.6339 28.0067 21.599 28.0068C21.4844 28.0072 21.3699 28.007 21.2553 28.007C21.1727 28.0072 21.09 28.0073 21.0075 28.0076C20.7798 28.0081 20.552 28.0083 20.3244 28.0083C20.079 28.0086 19.8338 28.0089 19.5884 28.0094C18.9957 28.0103 18.403 28.0108 17.8101 28.0111C17.5312 28.0115 17.2522 28.0116 16.9732 28.0119C16.0461 28.0127 15.1189 28.0134 14.1918 28.0137C13.9511 28.0138 13.7104 28.0138 13.4697 28.014C13.38 28.014 13.38 28.014 13.2884 28.014C12.319 28.0145 11.3496 28.0156 10.3802 28.0172C9.38543 28.0188 8.39066 28.0196 7.39588 28.0197C6.83716 28.0199 6.27842 28.0202 5.71969 28.0215C5.24392 28.0224 4.76815 28.0227 4.29239 28.0224C4.04958 28.0221 3.8068 28.0223 3.564 28.0231C3.34172 28.024 3.11948 28.0239 2.8972 28.0232C2.81679 28.0231 2.73638 28.0232 2.65597 28.0239C1.91523 28.0286 1.91523 28.0286 1.59386 27.8126C1.55228 27.7856 1.51071 27.7586 1.46787 27.7306C1.18994 27.4603 1.07549 27.1874 1.06811 26.8032C1.06776 26.77 1.06741 26.7366 1.06706 26.7023C1.06649 26.6503 1.06649 26.6503 1.06591 26.5972C1.06526 26.5241 1.06476 26.451 1.06439 26.3779C1.06385 26.3032 1.06289 26.2285 1.06151 26.1536C1.05951 26.0455 1.05875 25.9374 1.05827 25.8292C1.05745 25.796 1.05663 25.7626 1.05578 25.7283C1.05648 25.5695 0.982819 24.1103 1.07821 23.9809C1.2285 23.8747 1.56893 23.7627 1.74843 23.7883C1.8847 23.8922 1.77384 25.4463 1.82823 25.6096C1.83419 25.7075 1.83769 25.8057 1.83975 25.9037C1.84129 25.9618 1.84284 26.0196 1.84443 26.0792C1.84729 26.2014 1.84997 26.3237 1.85248 26.4459C1.85409 26.5039 1.85569 26.5618 1.85733 26.6215C1.85851 26.6746 1.85968 26.7277 1.86089 26.7825C1.87478 26.9189 1.89271 26.9968 1.96884 27.1095C2.11216 27.205 2.1442 27.2153 2.30616 27.2182C2.34556 27.2191 2.38497 27.2201 2.42557 27.221C2.46792 27.2215 2.51024 27.2222 2.55387 27.2226C2.59737 27.2236 2.64088 27.2245 2.68568 27.2255C2.82466 27.2282 2.96365 27.2304 3.10264 27.2327C3.19685 27.2344 3.29105 27.2361 3.38526 27.2381C3.61625 27.2425 3.84723 27.2465 4.07822 27.2501C4.07744 27.1847 4.07744 27.1847 4.07665 27.1179C4.0719 26.7069 4.06838 26.2959 4.06608 25.8847C4.06485 25.6734 4.0632 25.4621 4.06055 25.2507C4.05799 25.0467 4.05659 24.8428 4.05599 24.6389C4.05556 24.561 4.05471 24.4833 4.05344 24.4054C4.05174 24.2964 4.0515 24.1875 4.05161 24.0785C4.05077 24.0464 4.04993 24.0141 4.04906 23.9809C4.0509 23.8107 4.06832 23.745 4.18646 23.6191C4.31259 23.547 4.31259 23.547 4.48252 23.55C4.69429 23.6088 4.69429 23.6088 4.78134 23.7345C5.15196 24.8463 4.82823 26.0781 4.82823 27.2501C9.56166 27.2501 14.2951 27.2501 19.1719 27.2501C19.1719 26.1364 19.1719 25.0226 19.1719 23.8752C19.2657 23.6408 19.2657 23.6408 19.3449 23.5764C19.5032 23.5335 19.6228 23.5565 19.7813 23.5939C19.8608 23.6454 19.8608 23.6454 19.922 23.7345C19.9352 23.8514 19.9398 23.9564 19.9379 24.0732C19.9379 24.1076 19.938 24.1419 19.938 24.1772C19.9379 24.2905 19.9368 24.404 19.9356 24.5173C19.9355 24.596 19.9352 24.6745 19.9352 24.7532C19.9345 24.9601 19.9331 25.1669 19.9317 25.3738C19.9302 25.5851 19.9296 25.7961 19.9288 26.0074C19.9274 26.4216 19.925 26.8359 19.922 27.2501C20.199 27.2481 20.4759 27.2449 20.7528 27.2404C20.847 27.2392 20.9413 27.2381 21.0353 27.2374C21.1709 27.2365 21.3063 27.2342 21.4418 27.2319C21.5049 27.2317 21.5049 27.2317 21.5692 27.2317C21.8067 27.2279 21.8067 27.2279 22.0097 27.1136C22.1344 26.9356 22.1325 26.7954 22.1333 26.584C22.1336 26.5492 22.1339 26.5144 22.1343 26.4785C22.1352 26.3626 22.1359 26.2467 22.1363 26.1309C22.1365 26.091 22.1366 26.0512 22.1368 26.0102C22.1378 25.799 22.1386 25.5878 22.1389 25.3765C22.1395 25.1604 22.1411 24.9442 22.1428 24.7279C22.1441 24.5602 22.1446 24.3925 22.1448 24.2247C22.1449 24.1452 22.1454 24.0656 22.1463 23.9861C22.1584 22.8143 21.8281 21.8047 21.0125 20.9364C20.9775 20.9006 20.9424 20.865 20.9063 20.8283C20.8581 20.7792 20.8581 20.7792 20.8089 20.729C20.0963 20.0508 19.1066 19.7965 18.1908 19.5128C18.0568 19.4711 17.923 19.4288 17.7892 19.3863C17.7035 19.3596 17.6178 19.333 17.532 19.3064C17.4922 19.2937 17.4525 19.281 17.4117 19.268C17.3746 19.2567 17.3376 19.2454 17.2996 19.2337C17.2672 19.2236 17.2349 19.2136 17.2017 19.2032C17.0916 19.1845 17.0264 19.1951 16.922 19.2345C16.8272 19.324 16.7414 19.4126 16.6554 19.5098C16.6305 19.5374 16.6055 19.5649 16.5799 19.5932C16.3954 19.7989 16.2207 20.0117 16.0478 20.2272C15.8973 20.4079 15.7379 20.5796 15.5773 20.7512C15.4461 20.8916 15.318 21.0335 15.1935 21.1799C14.9238 21.4892 14.6023 21.7416 14.1767 21.7753C13.8843 21.7799 13.6455 21.7557 13.3714 21.6513C13.2651 21.6162 13.2651 21.6162 13.1562 21.6526C12.9792 21.6801 12.8517 21.613 12.6944 21.5402C12.665 21.5273 12.6355 21.5145 12.6052 21.5013C12.4776 21.4444 12.3808 21.3965 12.2813 21.297C12.0481 21.2401 11.8396 21.2241 11.6251 21.3439C11.5787 21.3749 11.5323 21.4057 11.4845 21.4377C11.236 21.5645 11.0025 21.6093 10.7271 21.6499C10.587 21.6699 10.587 21.6699 10.4298 21.7247C9.97342 21.8388 9.58951 21.7721 9.1876 21.5461C8.86791 21.2996 8.61856 21.0011 8.36693 20.6876C8.19208 20.4772 8.00508 20.2787 7.81852 20.0786C7.66142 19.9101 7.51 19.737 7.35947 19.5626C7.29799 19.4922 7.23646 19.4219 7.1749 19.3516C7.12705 19.2969 7.07919 19.2423 7.03135 19.1876C6.69951 19.2472 6.38103 19.3299 6.0596 19.4311C5.98975 19.453 5.98975 19.453 5.91848 19.4753C5.82048 19.5061 5.72251 19.5371 5.62458 19.5682C5.4771 19.6149 5.32934 19.6605 5.18152 19.7061C4.43959 19.939 3.7732 20.2057 3.1876 20.7345C3.15268 20.765 3.11774 20.7957 3.08176 20.8272C2.28191 21.5714 1.8954 22.5902 1.84873 23.6671C1.84781 23.7029 1.84687 23.7387 1.84594 23.7754C1.83985 23.9683 1.8247 24.1247 1.73447 24.297C1.6098 24.3986 1.54283 24.3906 1.37998 24.3821C1.21704 24.3434 1.17492 24.3317 1.07823 24.2032C1.05929 24.1017 1.05929 24.1017 1.0579 23.9834C1.0571 23.9176 1.0571 23.9176 1.05628 23.8504C1.05675 23.8035 1.05723 23.7565 1.05772 23.7081C1.05807 23.6598 1.05843 23.6115 1.05879 23.5616C1.08536 22.3066 1.61064 21.1969 2.48448 20.3127C2.51517 20.2785 2.54586 20.2445 2.57749 20.2094C2.84556 19.9184 3.17328 19.7096 3.51573 19.5157C3.55176 19.4949 3.58779 19.474 3.62491 19.4526C4.10411 19.1937 4.62391 19.0476 5.14171 18.8858C5.24464 18.8533 5.34757 18.8207 5.45048 18.7881C6.29452 18.5215 7.14078 18.2619 7.98801 18.0056C8.03437 17.9916 8.08072 17.9775 8.12848 17.963C8.2143 17.937 8.30014 17.9111 8.38603 17.8853C8.82927 17.7767 8.82927 17.7767 9.18467 17.5286C9.31195 17.0963 9.32937 16.5815 9.23447 16.1407C9.11576 15.9292 8.91344 15.8311 8.70566 15.7205C8.32017 15.4883 8.04541 15.0232 7.82823 14.6407C7.80369 14.598 7.77916 14.5553 7.75388 14.5113C7.47823 13.9984 7.33254 13.4279 7.21885 12.8594C7.17462 12.8499 7.17462 12.8499 7.1295 12.8402C6.73664 12.7414 6.50063 12.5741 6.27219 12.2404C6.13923 11.961 6.15969 11.6499 6.16315 11.3471C6.16416 11.2425 6.16315 11.138 6.16196 11.0333C6.16125 10.6805 6.16985 10.3943 6.3751 10.0938C6.40001 10.0734 6.4249 10.053 6.45055 10.0319C6.5475 9.91481 6.5338 9.8211 6.5345 9.67077C6.53512 9.61253 6.53576 9.5543 6.53639 9.4943C6.53641 9.43053 6.53641 9.36677 6.53641 9.303C6.53697 9.23728 6.53759 9.17157 6.53828 9.10586C6.53999 8.93246 6.54094 8.75906 6.54164 8.58565C6.5428 8.30964 6.54469 8.03364 6.54736 7.75764C6.54811 7.662 6.5483 7.56637 6.54844 7.47072C6.55505 6.64534 6.71584 5.99519 7.26572 5.35945C7.65889 4.97608 8.09689 4.78662 8.62034 4.64314C8.65667 4.63315 8.69301 4.62316 8.73044 4.61286C9.17067 4.49314 9.61307 4.38273 10.057 4.27772C10.1528 4.25483 10.2485 4.23142 10.344 4.2075C11.3619 3.95308 12.3009 3.91713 13.3214 4.16707ZM7.40635 10.2813C7.45192 10.5668 7.45192 10.5668 7.58213 10.8204C7.74541 10.9292 7.88562 10.9523 8.0805 10.9178C8.2159 10.8849 8.35014 10.8487 8.48448 10.8116C8.86347 10.7121 9.24145 10.621 9.62705 10.5509C9.66475 10.5438 9.70245 10.5368 9.74131 10.5295C10.4878 10.3976 11.2258 10.3574 11.9825 10.3604C12.0279 10.3605 12.0732 10.3606 12.12 10.3607C12.8077 10.3632 13.4791 10.3868 14.1563 10.5157C14.2122 10.5263 14.2681 10.5368 14.3257 10.5477C14.8633 10.6512 15.3996 10.7576 15.9254 10.9118C16.0724 10.9476 16.1713 10.9458 16.3126 10.8907C16.4547 10.7604 16.5092 10.6437 16.5521 10.4602C16.5658 10.4012 16.5796 10.3422 16.5938 10.2813C13.8807 9.29842 10.0795 8.94478 7.40635 10.2813ZM9.93759 11.2188C9.89805 11.2258 9.85849 11.2329 9.81773 11.2401C9.34352 11.3244 8.87752 11.4303 8.41548 11.5669C7.98059 11.69 7.61992 11.6709 7.21885 11.4532C7.09962 11.3659 6.99789 11.2745 6.89072 11.1719C6.87441 11.4722 6.87158 11.7079 7.03135 11.9688C7.23309 12.1165 7.4325 12.1296 7.67496 12.1419C7.78134 12.1563 7.78134 12.1563 7.92197 12.2501C7.94963 12.3645 7.94963 12.3645 7.96592 12.5108C8.12449 13.6627 8.52917 14.6496 9.46884 15.3907C10.4247 16.0661 11.4933 16.3499 12.6514 16.2128C13.6597 16.0169 14.6623 15.4729 15.2813 14.6407C15.6734 14.0438 15.9121 13.4077 16.0057 12.6985C16.0132 12.6433 16.0206 12.5882 16.0284 12.5313C16.0346 12.4801 16.0408 12.4288 16.0473 12.376C16.0782 12.2501 16.0782 12.2501 16.2188 12.1563C16.318 12.141 16.4178 12.1286 16.5176 12.1182C16.7009 12.0905 16.8198 12.0672 16.9835 11.9776C17.1114 11.7359 17.0803 11.4865 17.0626 11.2188C17.0293 11.2468 17.0293 11.2468 16.9954 11.2754C16.657 11.5465 16.331 11.6849 15.8907 11.6407C15.693 11.5984 15.4993 11.5433 15.3048 11.4884C14.4157 11.2473 13.5062 11.0737 12.5825 11.0687C12.5414 11.0683 12.5002 11.068 12.4578 11.0677C12.3257 11.0669 12.1937 11.0666 12.0616 11.0665C12.0165 11.0664 11.9714 11.0664 11.9249 11.0663C11.2523 11.0668 10.5999 11.0928 9.93759 11.2188ZM10.0313 16.5626C10.0301 16.6209 10.0289 16.6792 10.0277 16.7393C10.0141 17.1852 9.97879 17.556 9.79698 17.9688C9.77997 18.031 9.76387 18.0934 9.7501 18.1563C9.77849 18.1813 9.80689 18.2064 9.83615 18.2321C10.0918 18.4595 10.3364 18.6943 10.5768 18.9376C10.6725 19.0321 10.7699 19.1208 10.8722 19.2081C11.0293 19.3423 11.1754 19.4858 11.3204 19.6329C11.5236 19.8383 11.732 20.0331 11.9532 20.2189C12.0896 20.1568 12.1908 20.0883 12.2997 19.9856C12.3289 19.9583 12.3581 19.9308 12.3882 19.9026C12.4187 19.8735 12.4492 19.8444 12.4806 19.8145C12.512 19.7848 12.5435 19.7552 12.576 19.7246C12.7665 19.5444 12.9533 19.361 13.1372 19.174C13.2211 19.0916 13.3082 19.015 13.3976 18.9386C13.6088 18.7575 13.8018 18.5592 13.9961 18.3605C14.1095 18.2501 14.1095 18.2501 14.2501 18.1563C14.2279 18.0548 14.2013 17.9644 14.1593 17.869C13.9747 17.4463 13.9783 17.0164 13.9688 16.5626C13.9262 16.5779 13.8837 16.5931 13.8398 16.6089C12.5406 17.0657 11.3198 17.0375 10.0313 16.5626Z" fill="#3F3F3F"/>
</g>
</g>
</g>
<path d="M29.2637 9.87207V12.0781H20.4922V9.87207H29.2637ZM26.082 6.40039V15.7168H23.6826V6.40039H26.082Z" fill="#3F3F3F"/>
<defs>
<clipPath id="clip0_4048_2516">
<rect width="24" height="24" fill="white" transform="translate(0 4)"/>
</clipPath>
</defs>
</svg>
