<svg width="24" height="24" viewBox="0 0 24 24" fill="none" xmlns="http://www.w3.org/2000/svg">
<g clip-path="url(#clip0_2313_3068)">
<mask id="mask0_2313_3068" style="mask-type:luminance" maskUnits="userSpaceOnUse" x="0" y="0" width="24" height="24">
<path d="M24 0H0V24H24V0Z" fill="white"/>
</mask>
<g mask="url(#mask0_2313_3068)">
<mask id="mask1_2313_3068" style="mask-type:luminance" maskUnits="userSpaceOnUse" x="0" y="0" width="24" height="24">
<path d="M24 0H0V24H24V0Z" fill="white"/>
</mask>
<g mask="url(#mask1_2313_3068)">
<path d="M13.3214 0.16707C13.3954 0.184245 13.4694 0.201317 13.5434 0.218295C13.7283 0.261005 13.9128 0.305153 14.0973 0.349699C14.2324 0.382061 14.3677 0.413324 14.5031 0.444469C14.6552 0.479496 14.8071 0.515154 14.9591 0.55086C15.0398 0.569763 15.0398 0.569763 15.1221 0.589049C15.9315 0.785107 16.6211 1.09649 17.0773 1.8282C17.3284 2.27525 17.4706 2.76437 17.4376 3.28132C17.4222 3.31227 17.4066 3.3432 17.3907 3.37508C17.3894 3.459 17.3913 3.54299 17.3947 3.62684C17.3977 3.70554 17.3977 3.70554 17.4009 3.78583C17.4045 3.87109 17.4045 3.87109 17.4083 3.95808C17.4237 4.31981 17.4387 4.68091 17.4414 5.04299C17.4423 5.09943 17.4431 5.15587 17.4441 5.21402C17.4455 5.32158 17.446 5.42915 17.4454 5.53672C17.4516 5.84344 17.4932 6.02198 17.7009 6.25262C17.8923 6.47588 17.8249 6.84081 17.8263 7.11973C17.827 7.19124 17.8279 7.26275 17.8294 7.33424C17.8381 7.78639 17.8391 8.12672 17.5412 8.49416C17.3061 8.69974 17.086 8.79389 16.7813 8.85945C16.7738 8.89529 16.7665 8.93111 16.7587 8.96804C16.5052 10.1323 16.0456 11.1536 15.0938 11.9063C15.0655 11.9203 15.0373 11.9342 15.0081 11.9486C14.9051 12.0042 14.8397 12.0493 14.7657 12.1407C14.7195 12.3426 14.7263 12.5381 14.7335 12.7442C14.7334 12.7985 14.7333 12.8529 14.7332 12.9088C14.7359 13.2749 14.7359 13.2749 14.8705 13.6109C15.0711 13.7969 15.3776 13.8414 15.6366 13.9108C15.706 13.9304 15.7754 13.9502 15.8448 13.9701C15.9899 14.0117 16.1354 14.0529 16.2808 14.0937C16.5942 14.1824 16.905 14.2798 17.2157 14.3774C17.3169 14.4092 17.4183 14.4409 17.5196 14.4726C17.6548 14.5148 17.7899 14.5571 17.925 14.5994C18.0975 14.6533 18.2699 14.707 18.4424 14.7607C18.5786 14.8032 18.7148 14.8458 18.8512 14.8885C18.9148 14.9084 18.9783 14.9282 19.0419 14.9479C20.1626 15.2961 20.1626 15.2961 20.6046 15.5684C20.6337 15.5861 20.6628 15.6038 20.6927 15.6221C21.0013 15.8167 21.2571 16.0571 21.5157 16.3127C21.5492 16.3427 21.5827 16.3729 21.6174 16.4041C22.3628 17.0901 22.7834 18.1381 22.922 19.1252C22.9267 19.2547 22.9293 19.3831 22.9294 19.5127C22.9298 19.5505 22.9299 19.5883 22.9302 19.6272C22.9309 19.7517 22.9312 19.8763 22.9315 20.0008C22.9318 20.0877 22.932 20.1748 22.9323 20.2617C22.9328 20.4439 22.9331 20.6259 22.9333 20.808C22.9334 21.0409 22.9345 21.2736 22.936 21.5062C22.9368 21.6858 22.9371 21.8654 22.9371 22.045C22.9372 22.1309 22.9377 22.2165 22.9382 22.3024C22.9391 22.4227 22.939 22.5428 22.9387 22.6632C22.9391 22.6981 22.9395 22.7331 22.9399 22.7692C22.9369 23.1505 22.819 23.4469 22.547 23.7188C22.2635 23.9242 22.0559 24.0059 21.7018 24.0064C21.6678 24.0065 21.6339 24.0067 21.599 24.0069C21.4844 24.0072 21.3699 24.007 21.2553 24.007C21.1727 24.0072 21.09 24.0073 21.0075 24.0076C20.7798 24.0081 20.552 24.0083 20.3244 24.0083C20.079 24.0086 19.8338 24.0089 19.5884 24.0094C18.9957 24.0103 18.403 24.0108 17.8101 24.0111C17.5312 24.0115 17.2522 24.0116 16.9732 24.0119C16.0461 24.0127 15.1189 24.0134 14.1918 24.0137C13.9511 24.0138 13.7104 24.0138 13.4697 24.014C13.38 24.014 13.38 24.014 13.2884 24.014C12.319 24.0145 11.3496 24.0156 10.3802 24.0172C9.38543 24.0188 8.39066 24.0196 7.39588 24.0197C6.83716 24.0199 6.27842 24.0202 5.71969 24.0215C5.24392 24.0224 4.76815 24.0227 4.29239 24.0224C4.04958 24.0221 3.8068 24.0223 3.564 24.0231C3.34172 24.024 3.11948 24.0239 2.8972 24.0232C2.81679 24.0231 2.73638 24.0232 2.65597 24.0239C1.91523 24.0286 1.91523 24.0286 1.59386 23.8126C1.55228 23.7856 1.51071 23.7586 1.46787 23.7306C1.18994 23.4603 1.07549 23.1874 1.06811 22.8032C1.06776 22.77 1.06741 22.7366 1.06706 22.7023C1.06649 22.6503 1.06649 22.6503 1.06591 22.5972C1.06526 22.5241 1.06476 22.451 1.06439 22.3779C1.06385 22.3032 1.06289 22.2285 1.06151 22.1536C1.05951 22.0455 1.05875 21.9374 1.05827 21.8292C1.05745 21.796 1.05663 21.7626 1.05578 21.7283C1.05648 21.5695 0.982819 20.1103 1.07821 19.9809C1.2285 19.8747 1.56893 19.7627 1.74843 19.7883C1.8847 19.8922 1.77384 21.4463 1.82823 21.6096C1.83419 21.7075 1.83769 21.8057 1.83975 21.9037C1.84129 21.9618 1.84284 22.0196 1.84443 22.0792C1.84729 22.2014 1.84997 22.3237 1.85248 22.4459C1.85409 22.5039 1.85569 22.5618 1.85733 22.6215C1.85851 22.6746 1.85968 22.7277 1.86089 22.7825C1.87478 22.9189 1.89271 22.9968 1.96884 23.1095C2.11216 23.205 2.1442 23.2153 2.30616 23.2182C2.34556 23.2191 2.38497 23.2201 2.42557 23.221C2.46792 23.2215 2.51024 23.2222 2.55387 23.2226C2.59737 23.2236 2.64088 23.2245 2.68568 23.2255C2.82466 23.2282 2.96365 23.2304 3.10264 23.2327C3.19685 23.2344 3.29105 23.2361 3.38526 23.2381C3.61624 23.2425 3.84723 23.2465 4.07822 23.2501C4.07744 23.1847 4.07744 23.1847 4.07665 23.1179C4.0719 22.7069 4.06838 22.2959 4.06608 21.8847C4.06485 21.6734 4.0632 21.4621 4.06055 21.2507C4.05799 21.0467 4.05659 20.8428 4.05599 20.6389C4.05556 20.561 4.05471 20.4833 4.05344 20.4054C4.05174 20.2964 4.0515 20.1875 4.05161 20.0785C4.05077 20.0464 4.04993 20.0141 4.04906 19.9809C4.0509 19.8107 4.06832 19.745 4.18646 19.6191C4.31259 19.547 4.31259 19.547 4.48252 19.55C4.69429 19.6088 4.69429 19.6088 4.78134 19.7345C5.15196 20.8463 4.82823 22.0781 4.82823 23.2501C9.56166 23.2501 14.2951 23.2501 19.1719 23.2501C19.1719 22.1364 19.1719 21.0226 19.1719 19.8752C19.2657 19.6408 19.2657 19.6408 19.3449 19.5764C19.5032 19.5335 19.6228 19.5565 19.7813 19.5939C19.8608 19.6454 19.8608 19.6454 19.922 19.7345C19.9352 19.8514 19.9398 19.9564 19.9379 20.0732C19.9379 20.1076 19.938 20.1419 19.938 20.1772C19.9379 20.2905 19.9368 20.404 19.9356 20.5173C19.9355 20.596 19.9352 20.6745 19.9352 20.7532C19.9345 20.9601 19.9331 21.1669 19.9317 21.3738C19.9302 21.5851 19.9296 21.7961 19.9288 22.0074C19.9274 22.4216 19.925 22.8359 19.922 23.2501C20.199 23.2481 20.4759 23.2449 20.7528 23.2404C20.847 23.2392 20.9413 23.2381 21.0353 23.2374C21.1709 23.2365 21.3063 23.2342 21.4418 23.2319C21.5049 23.2317 21.5049 23.2317 21.5692 23.2317C21.8067 23.2279 21.8067 23.2279 22.0097 23.1136C22.1344 22.9356 22.1325 22.7954 22.1333 22.584C22.1336 22.5492 22.1339 22.5144 22.1343 22.4785C22.1352 22.3626 22.1359 22.2467 22.1363 22.1309C22.1365 22.091 22.1366 22.0512 22.1368 22.0102C22.1378 21.799 22.1386 21.5878 22.1389 21.3765C22.1395 21.1604 22.1411 20.9442 22.1428 20.7279C22.1441 20.5602 22.1446 20.3925 22.1448 20.2247C22.1449 20.1452 22.1454 20.0656 22.1463 19.9861C22.1584 18.8143 21.8281 17.8047 21.0125 16.9364C20.9775 16.9006 20.9424 16.865 20.9063 16.8283C20.8581 16.7792 20.8581 16.7792 20.8089 16.729C20.0963 16.0508 19.1066 15.7965 18.1908 15.5128C18.0568 15.4711 17.923 15.4288 17.7891 15.3863C17.7035 15.3596 17.6178 15.333 17.532 15.3064C17.4922 15.2937 17.4525 15.281 17.4117 15.268C17.3746 15.2567 17.3376 15.2454 17.2996 15.2337C17.2672 15.2236 17.2349 15.2136 17.2017 15.2032C17.0916 15.1845 17.0264 15.1951 16.922 15.2345C16.8272 15.324 16.7414 15.4126 16.6554 15.5098C16.6305 15.5374 16.6055 15.5649 16.5799 15.5932C16.3954 15.7989 16.2207 16.0117 16.0478 16.2272C15.8973 16.4079 15.7379 16.5796 15.5773 16.7512C15.4461 16.8916 15.318 17.0335 15.1935 17.1799C14.9238 17.4892 14.6023 17.7416 14.1767 17.7753C13.8843 17.7799 13.6455 17.7557 13.3714 17.6513C13.2651 17.6162 13.2651 17.6162 13.1562 17.6526C12.9792 17.6801 12.8517 17.613 12.6944 17.5402C12.665 17.5273 12.6355 17.5145 12.6052 17.5013C12.4776 17.4444 12.3808 17.3965 12.2813 17.297C12.0481 17.2401 11.8396 17.2241 11.6251 17.3439C11.5787 17.3749 11.5323 17.4057 11.4845 17.4377C11.236 17.5645 11.0025 17.6093 10.7271 17.6499C10.587 17.6699 10.587 17.6699 10.4298 17.7247C9.97342 17.8388 9.58951 17.7721 9.1876 17.5461C8.86791 17.2996 8.61856 17.0011 8.36693 16.6876C8.19208 16.4772 8.00508 16.2787 7.81852 16.0786C7.66142 15.9101 7.51 15.737 7.35947 15.5626C7.29799 15.4922 7.23646 15.4219 7.1749 15.3516C7.12705 15.2969 7.07919 15.2423 7.03135 15.1876C6.69951 15.2472 6.38103 15.3299 6.0596 15.4311C5.98975 15.453 5.98975 15.453 5.91848 15.4753C5.82048 15.5061 5.72251 15.5371 5.62458 15.5682C5.4771 15.6149 5.32934 15.6605 5.18152 15.7061C4.43959 15.939 3.7732 16.2057 3.1876 16.7345C3.15268 16.765 3.11774 16.7957 3.08176 16.8272C2.28191 17.5714 1.8954 18.5902 1.84873 19.6671C1.84781 19.7029 1.84687 19.7387 1.84594 19.7754C1.83985 19.9683 1.8247 20.1247 1.73447 20.297C1.6098 20.3986 1.54283 20.3906 1.37998 20.3821C1.21704 20.3434 1.17492 20.3317 1.07823 20.2032C1.05929 20.1017 1.05929 20.1017 1.0579 19.9834C1.0571 19.9176 1.0571 19.9176 1.05628 19.8504C1.05675 19.8035 1.05723 19.7565 1.05772 19.7081C1.05807 19.6598 1.05843 19.6115 1.05879 19.5616C1.08536 18.3066 1.61064 17.1969 2.48448 16.3127C2.51517 16.2785 2.54586 16.2445 2.57749 16.2094C2.84556 15.9184 3.17328 15.7096 3.51573 15.5157C3.55176 15.4949 3.58779 15.474 3.62491 15.4526C4.10411 15.1937 4.62391 15.0476 5.14171 14.8858C5.24464 14.8533 5.34757 14.8207 5.45048 14.7881C6.29452 14.5215 7.14078 14.2619 7.98801 14.0056C8.03437 13.9916 8.08072 13.9775 8.12848 13.963C8.2143 13.937 8.30014 13.9111 8.38603 13.8853C8.82927 13.7767 8.82927 13.7767 9.18467 13.5286C9.31195 13.0963 9.32937 12.5815 9.23447 12.1407C9.11576 11.9292 8.91344 11.8311 8.70566 11.7205C8.32017 11.4883 8.04541 11.0232 7.82823 10.6407C7.80369 10.598 7.77916 10.5553 7.75388 10.5113C7.47823 9.99842 7.33254 9.42795 7.21885 8.85945C7.17462 8.84993 7.17462 8.84993 7.1295 8.84022C6.73664 8.74142 6.50063 8.5741 6.27219 8.24038C6.13923 7.96099 6.15969 7.64986 6.16315 7.34711C6.16416 7.24247 6.16315 7.13798 6.16196 7.03333C6.16125 6.68046 6.16985 6.39427 6.3751 6.09382C6.40001 6.0734 6.4249 6.05297 6.45055 6.03191C6.5475 5.91481 6.5338 5.8211 6.5345 5.67077C6.53512 5.61253 6.53576 5.5543 6.53639 5.4943C6.53641 5.43053 6.53641 5.36677 6.53641 5.303C6.53697 5.23728 6.53759 5.17157 6.53828 5.10586C6.53999 4.93246 6.54094 4.75906 6.54164 4.58565C6.5428 4.30964 6.54469 4.03364 6.54736 3.75764C6.54811 3.662 6.5483 3.56637 6.54844 3.47072C6.55505 2.64534 6.71584 1.99519 7.26572 1.35945C7.65889 0.976084 8.09689 0.786624 8.62034 0.643144C8.65667 0.633152 8.69301 0.623157 8.73044 0.612861C9.17067 0.493143 9.61307 0.382735 10.057 0.277724C10.1528 0.254827 10.2485 0.231423 10.344 0.207503C11.3619 -0.0469189 12.3009 -0.082869 13.3214 0.16707ZM7.40635 6.28132C7.45192 6.5668 7.45192 6.5668 7.58213 6.82039C7.74541 6.92923 7.88562 6.95231 8.0805 6.91782C8.2159 6.88485 8.35014 6.84873 8.48448 6.8116C8.86347 6.71207 9.24145 6.62096 9.62705 6.55085C9.66475 6.54381 9.70245 6.53676 9.74132 6.52949C10.4878 6.39759 11.2258 6.35738 11.9825 6.36043C12.0279 6.36052 12.0732 6.36064 12.12 6.36073C12.8077 6.36319 13.4791 6.38683 14.1563 6.5157C14.2122 6.52627 14.2681 6.53682 14.3257 6.54769C14.8633 6.65123 15.3996 6.75764 15.9254 6.91176C16.0724 6.94757 16.1713 6.94581 16.3126 6.8907C16.4547 6.76037 16.5092 6.64371 16.5521 6.46023C16.5658 6.40118 16.5796 6.34215 16.5938 6.28132C13.8807 5.29842 10.0795 4.94478 7.40635 6.28132ZM9.93759 7.21883C9.89805 7.22584 9.85849 7.23287 9.81773 7.24012C9.34352 7.32442 8.87752 7.43029 8.41548 7.56688C7.98059 7.68997 7.61992 7.67089 7.21885 7.45321C7.09961 7.3659 6.99789 7.27446 6.89072 7.17195C6.87441 7.47225 6.87158 7.70788 7.03135 7.96883C7.23309 8.11645 7.4325 8.12956 7.67496 8.14186C7.78134 8.15633 7.78134 8.15633 7.92197 8.25007C7.94963 8.36452 7.94963 8.36452 7.96592 8.51081C8.12449 9.6627 8.52917 10.6496 9.46884 11.3907C10.4247 12.0661 11.4933 12.3499 12.6514 12.2128C13.6597 12.0169 14.6623 11.4729 15.2813 10.6407C15.6734 10.0438 15.9121 9.40773 16.0057 8.69851C16.0132 8.64334 16.0206 8.58817 16.0284 8.53133C16.0346 8.48009 16.0408 8.42885 16.0473 8.37605C16.0782 8.25007 16.0782 8.25007 16.2188 8.15633C16.318 8.14101 16.4178 8.12864 16.5176 8.11825C16.7009 8.09046 16.8198 8.06716 16.9835 7.97762C17.1114 7.73595 17.0803 7.48654 17.0626 7.21883C17.0293 7.24684 17.0293 7.24684 16.9954 7.2754C16.657 7.54654 16.331 7.68493 15.8907 7.64069C15.693 7.5984 15.4993 7.54326 15.3048 7.48837C14.4157 7.24735 13.5062 7.07366 12.5825 7.06868C12.5414 7.06835 12.5002 7.06803 12.4578 7.06768C12.3257 7.06689 12.1937 7.06658 12.0616 7.06649C12.0165 7.06644 11.9714 7.06639 11.9249 7.06635C11.2523 7.06682 10.5999 7.09284 9.93759 7.21883ZM10.0313 12.5626C10.0301 12.6209 10.0289 12.6792 10.0277 12.7393C10.0141 13.1852 9.97879 13.556 9.79698 13.9688C9.77997 14.031 9.76387 14.0934 9.7501 14.1563C9.77849 14.1813 9.80689 14.2064 9.83615 14.2321C10.0918 14.4595 10.3364 14.6943 10.5768 14.9376C10.6725 15.0321 10.7699 15.1208 10.8722 15.2081C11.0293 15.3423 11.1754 15.4858 11.3204 15.6329C11.5236 15.8383 11.732 16.0331 11.9532 16.2189C12.0896 16.1568 12.1908 16.0883 12.2997 15.9856C12.3289 15.9583 12.3581 15.9308 12.3882 15.9026C12.4187 15.8735 12.4492 15.8444 12.4806 15.8145C12.512 15.7848 12.5435 15.7552 12.576 15.7246C12.7665 15.5444 12.9533 15.361 13.1372 15.174C13.2211 15.0916 13.3082 15.015 13.3976 14.9386C13.6088 14.7575 13.8018 14.5592 13.9961 14.3605C14.1095 14.2501 14.1095 14.2501 14.2501 14.1563C14.2279 14.0548 14.2013 13.9644 14.1593 13.869C13.9747 13.4463 13.9783 13.0164 13.9688 12.5626C13.9262 12.5779 13.8837 12.5931 13.8398 12.6089C12.5406 13.0657 11.3198 13.0375 10.0313 12.5626Z" fill="#3F3F3F"/>
</g>
</g>
</g>
<defs>
<clipPath id="clip0_2313_3068">
<rect width="24" height="24" fill="white"/>
</clipPath>
</defs>
</svg>
