<svg width="24" height="24" viewBox="0 0 24 24" fill="none" xmlns="http://www.w3.org/2000/svg">
<g clip-path="url(#clip0_2293_2326)">
<mask id="mask0_2293_2326" style="mask-type:luminance" maskUnits="userSpaceOnUse" x="0" y="0" width="24" height="24">
<path d="M24 0H0V24H24V0Z" fill="white"/>
</mask>
<g mask="url(#mask0_2293_2326)">
<path d="M14.2753 1.70996L23.6783 11.214C23.8842 11.4231 23.9996 11.7048 23.9999 11.9983C24 12.2918 23.8849 12.5736 23.6794 12.783L14.2783 22.29L12.6544 20.6499C12.4445 20.4374 12.3268 20.1507 12.3268 19.8519C12.3268 19.5532 12.4445 19.2666 12.6544 19.0539L19.6313 12L12.7144 5.00996C12.4884 4.78076 12.3617 4.47183 12.3617 4.14997C12.3617 3.8281 12.4884 3.51918 12.7144 3.28997L14.2744 1.71097L14.2753 1.70996ZM11.2493 3.28196L9.6953 1.70996L0.340303 11.17C0.122213 11.3918 0 11.6904 0 12.0015C0 12.3126 0.122213 12.6111 0.340303 12.833L9.6963 22.29L11.2493 20.72C11.4775 20.4885 11.6055 20.1765 11.6055 19.8514C11.6055 19.5264 11.4775 19.2145 11.2493 18.983L4.3413 12L11.2503 5.01497C11.478 4.78376 11.6055 4.47224 11.6053 4.14776C11.6051 3.82328 11.4772 3.51291 11.2493 3.28196Z" fill="#3F3F3F"/>
</g>
</g>
<defs>
<clipPath id="clip0_2293_2326">
<rect width="24" height="24" fill="white"/>
</clipPath>
</defs>
</svg>
