<svg width="24" height="24" viewBox="0 0 24 24" fill="none" xmlns="http://www.w3.org/2000/svg">
<path d="M9.3 20C9.06131 20 8.83239 19.9157 8.6636 19.7657C8.49482 19.6157 8.4 19.4122 8.4 19.2V16.8H4.8C4.32261 16.8 3.86477 16.6314 3.52721 16.3314C3.18964 16.0313 3 15.6243 3 15.2V5.6C3 5.17565 3.18964 4.76869 3.52721 4.46863C3.86477 4.16857 4.32261 4 4.8 4H19.2C19.6774 4 20.1352 4.16857 20.4728 4.46863C20.8104 4.76869 21 5.17565 21 5.6V15.2C21 15.6243 20.8104 16.0313 20.4728 16.3314C20.1352 16.6314 19.6774 16.8 19.2 16.8H13.71L10.38 19.768C10.2 19.92 9.975 20 9.75 20H9.3ZM10.2 15.2V17.664L12.972 15.2H19.2V5.6H4.8V15.2H10.2Z" fill="#3F3F3F"/>
</svg>
