<svg width="24" height="24" viewBox="0 0 24 24" fill="none" xmlns="http://www.w3.org/2000/svg">
<path d="M9 12V6M12 9H6" stroke="#3F3F3F" stroke-width="2" stroke-linecap="round" stroke-linejoin="round"/>
<path d="M4 16H14C15.1046 16 16 15.1046 16 14V4C16 2.89543 15.1046 2 14 2H4C2.89543 2 2 2.89543 2 4V14C2 15.1046 2.89543 16 4 16Z" stroke="#3F3F3F" stroke-width="2" stroke-linecap="round" stroke-linejoin="round"/>
<path d="M20 8C21.1 8 22 8.9 22 10V20C22 21.1 21.1 22 20 22H10C8.9 22 8 21.1 8 20" stroke="#3F3F3F" stroke-width="2" stroke-linecap="round" stroke-linejoin="round"/>
</svg>
