<svg width="24" height="24" viewBox="0 0 24 24" fill="none" xmlns="http://www.w3.org/2000/svg">
<g clip-path="url(#clip0_2291_2241)">
<mask id="mask0_2291_2241" style="mask-type:luminance" maskUnits="userSpaceOnUse" x="0" y="0" width="24" height="24">
<path d="M24 0H0V24H24V0Z" fill="white"/>
</mask>
<g mask="url(#mask0_2291_2241)">
<path d="M11.7609 0.318592C11.6986 0.31921 11.8214 0.317991 11.7609 0.318592C11.8259 0.318976 12.2213 0.318326 11.7609 0.318592C11.8279 0.318409 11.7594 0.320154 11.8284 0.319967C11.9701 0.319836 11.7868 0.318525 11.9285 0.319321C12.1455 0.32034 12.3624 0.319331 12.5795 0.318112C12.717 0.318237 12.8546 0.318482 12.9922 0.318856C13.0572 0.318469 13.1251 0.31784 13.1921 0.317443C13.2828 0.318344 12.9294 0.315623 13.1126 0.317443C12.936 0.31569 12.9508 0.317705 13.1921 0.317443C13.3348 0.509907 13.3566 0.490476 13.351 0.71479C13.3507 0.761047 13.351 0.953201 13.351 1.03267C13.3498 1.18025 13.3538 1.36193 13.351 1.50949C13.3499 1.60961 13.3519 1.8862 13.351 1.98631C13.3486 2.2316 13.3555 2.37681 13.351 2.62207C13.3856 2.62187 13.9618 2.63045 13.9975 2.63021C14.84 2.62495 15.6826 2.62101 16.5252 2.61855C16.9327 2.61731 17.3402 2.61564 17.7476 2.61292C18.1028 2.61053 18.4579 2.60901 18.8131 2.60847C19.0011 2.60817 19.1892 2.60744 19.3772 2.6057C19.5872 2.60378 19.7971 2.60373 20.0071 2.60384C20.0694 2.60298 20.1317 2.60213 20.1959 2.60125C20.6169 2.60365 20.6169 2.60365 20.8255 2.7381C20.8782 2.80293 20.8782 2.80293 20.9321 2.86908C20.9625 2.90448 20.9928 2.93987 21.0243 2.97634C21.0515 3.01262 21.0787 3.04889 21.1066 3.08627C21.1379 3.12776 21.1693 3.16926 21.2015 3.212C21.2344 3.25617 21.2672 3.30034 21.301 3.34586C21.3355 3.39171 21.37 3.43755 21.4056 3.4848C21.5153 3.63073 21.6245 3.77692 21.7337 3.92311C21.8076 4.02183 21.8816 4.12052 21.9559 4.21919C22.1186 4.436 22.281 4.65297 22.4433 4.87008C22.5029 4.94971 22.5633 5.02897 22.6237 5.10816C22.6841 5.47505 22.5206 5.67711 22.2872 5.97332C22.2527 6.0185 22.2183 6.0637 22.1827 6.11027C22.0725 6.2542 21.9611 6.39726 21.8495 6.54034C21.7755 6.63672 21.7015 6.73315 21.6278 6.82962C21.4337 7.08247 21.2389 7.3347 21.0411 7.58543C21.0148 7.61913 20.9884 7.65281 20.9612 7.68752C20.7814 7.91323 20.7814 7.91323 20.6592 7.96656C20.5694 7.97099 20.4793 7.97237 20.3892 7.97229C20.3321 7.97236 20.2751 7.97242 20.2162 7.97248C20.1533 7.97231 20.0905 7.97215 20.0257 7.97196C19.9597 7.97198 19.8936 7.97198 19.8256 7.97199C19.6444 7.97196 19.463 7.97172 19.2818 7.97139C19.0924 7.97109 18.9031 7.97107 18.7136 7.97101C18.3551 7.97086 17.9963 7.97047 17.6376 7.96999C17.2293 7.96946 16.821 7.96919 16.4126 7.96896C15.5726 7.96846 14.1911 7.97204 13.351 7.97101C13.351 8.47408 13.351 8.96284 13.351 9.48116C13.5774 9.47967 14.119 9.48954 14.3499 9.48801C14.8483 9.48485 15.3466 9.48275 15.845 9.48116C16.1472 9.48018 16.4494 9.47883 16.7515 9.47666C17.0432 9.4746 17.3347 9.47345 17.6262 9.47296C17.7376 9.47261 17.8488 9.47191 17.9601 9.47089C18.1159 9.46951 18.2716 9.46932 18.4274 9.4694C18.4735 9.46872 18.5197 9.46803 18.5672 9.46733C18.7592 9.46851 18.8811 9.47555 19.0507 9.55807C19.1769 9.7516 19.1617 9.93597 19.1595 10.155C19.1601 10.2271 19.1601 10.2271 19.1607 10.3006C19.1617 10.4595 19.161 10.6184 19.1602 10.7773C19.1604 10.8877 19.1606 10.998 19.1609 11.1084C19.1612 11.3397 19.1607 11.571 19.1598 11.8023C19.1585 12.099 19.1591 12.3957 19.1606 12.6924C19.1614 12.9203 19.161 13.1482 19.1604 13.376C19.1604 13.4854 19.1606 13.5949 19.161 13.7043C19.1615 13.8571 19.1607 14.0099 19.1595 14.1627C19.1599 14.2081 19.1604 14.2534 19.1609 14.3001C19.1582 14.4806 19.154 14.6013 19.0507 14.7597C18.8443 14.8602 18.6602 14.8518 18.4274 14.8483C18.3776 14.8484 18.3277 14.8484 18.2765 14.8484C18.1154 14.8483 17.9545 14.8468 17.7935 14.8453C17.694 14.845 17.5945 14.8448 17.495 14.8447C17.1264 14.8437 16.7577 14.8411 16.3891 14.8386C15.5653 14.8347 14.1998 14.8308 13.351 14.8267C13.351 17.5936 13.351 20.3606 13.351 23.2114C14.2874 23.2114 17.2339 23.2049 18.1987 23.2049C18.2667 23.2049 18.3287 23.4275 18.3576 23.5228C18.3571 23.5542 18.3571 23.5708 18.3576 23.6022C18.3582 23.6337 18.357 23.7287 18.3576 23.7612C18.2781 23.9201 18.2781 23.9219 18.1987 23.9996C18.0397 23.9996 16.4446 23.9994 16.2911 23.9978C16.2241 23.9983 16.2241 23.9983 16.156 23.9986C16.0062 23.9994 15.8567 23.9988 15.707 23.9983C15.5998 23.9985 15.4926 23.9988 15.3854 23.9993C15.0941 24 14.8027 23.9997 14.5114 23.9991C14.2068 23.9986 13.9022 23.9991 13.5975 23.9994C13.0859 23.9997 12.5743 23.9993 12.0627 23.9985C11.4709 23.9973 10.8791 23.9977 10.2873 23.9988C9.77957 23.9996 9.27182 23.9997 8.76408 23.9993C8.46065 23.9989 8.15725 23.9989 7.85383 23.9996C7.5686 24 7.28338 23.9997 6.99815 23.9986C6.89336 23.9983 6.78855 23.9985 6.68374 23.9988C6.5409 23.9994 6.39814 23.9988 6.2553 23.9978C6.19278 23.9985 6.19279 23.9985 6.12899 23.9991C5.93755 23.9966 5.83508 23.9864 5.68142 23.8828C5.59087 23.7747 5.56825 23.7248 5.57062 23.5925C5.57007 23.5611 5.56949 23.5296 5.56892 23.4972C5.59791 23.402 5.59791 23.402 5.81618 23.2114C7.32887 23.2114 10.1236 23.2114 11.6821 23.2114C11.6821 20.4444 11.6821 17.6776 11.6821 14.8267C9.46747 14.8361 8.18543 14.8362 5.9708 14.8482C5.5425 14.8492 5.5425 14.8492 5.34202 14.8495C5.20194 14.8498 5.06193 14.8506 4.92186 14.8519C4.70974 14.8538 4.49765 14.8538 4.28552 14.8538C4.19191 14.855 4.19191 14.855 4.0964 14.8564C3.67561 14.8539 3.67561 14.8539 3.46711 14.7195C3.43194 14.6763 3.39678 14.633 3.36054 14.5885C3.31492 14.5354 3.31492 14.5354 3.26839 14.4813C3.24121 14.445 3.21403 14.4087 3.18602 14.3713C3.15471 14.3298 3.1234 14.2883 3.09114 14.2456C3.04185 14.1793 3.04185 14.1793 2.99154 14.1117C2.95707 14.0659 2.9226 14.02 2.88706 13.9728C2.77742 13.8269 2.66823 13.6807 2.55904 13.5345C2.485 13.4358 2.41092 13.3371 2.33682 13.2384C2.17407 13.0216 2.0116 12.8046 1.84938 12.5875C1.78967 12.5079 1.72933 12.4286 1.66887 12.3494C1.60848 11.9826 1.77203 11.7805 2.00546 11.4843C2.03994 11.4391 2.07441 11.3939 2.10993 11.3473C2.22006 11.2034 2.33154 11.0603 2.44309 10.9173C2.51711 10.8209 2.59103 10.7245 2.66487 10.628C2.85889 10.3751 3.05383 10.1229 3.2514 9.87216C3.29099 9.82163 3.29099 9.82163 3.33137 9.77007C3.5112 9.54437 3.5112 9.54437 3.63339 9.49103C3.72327 9.48661 3.81338 9.48523 3.9034 9.48531C3.96049 9.48525 4.01757 9.48518 4.07639 9.4851C4.17071 9.48537 4.17071 9.48537 4.26694 9.48563C4.33295 9.48563 4.39898 9.48561 4.46699 9.48561C4.64827 9.48563 4.82956 9.48587 5.01085 9.4862C5.20021 9.4865 5.38956 9.48653 5.57892 9.48658C5.93761 9.48674 6.29631 9.48712 6.65501 9.4876C7.06333 9.48814 7.47164 9.48839 7.87995 9.48863C8.71999 9.48914 10.8421 9.487 11.6821 9.48801C11.6821 8.98493 11.6821 8.48933 11.6821 7.97101C11.4557 7.9725 10.1737 7.96805 9.94267 7.96958C9.44433 7.97274 8.94597 7.97484 8.44763 7.97643C8.14542 7.97743 7.84325 7.97878 7.54105 7.98094C7.24951 7.98301 6.95796 7.98415 6.6664 7.98464C6.5551 7.98499 6.44378 7.98568 6.33247 7.98671C6.17672 7.98809 6.02103 7.98828 5.86527 7.98819C5.81911 7.98887 5.77295 7.98957 5.7254 7.99027C5.53337 7.98909 5.41144 7.98204 5.2419 7.89951C5.11569 7.70599 5.13098 7.52162 5.13311 7.30258C5.13272 7.25453 5.13234 7.20649 5.13195 7.15698C5.13099 6.99807 5.13163 6.83919 5.13236 6.68028C5.13222 6.56993 5.13199 6.45958 5.13172 6.34923C5.13141 6.1179 5.13187 5.8866 5.13288 5.65528C5.13414 5.35857 5.13342 5.0619 5.13211 4.76519C5.13133 4.53732 5.13158 4.30943 5.13214 4.08154C5.13228 3.97214 5.13211 3.86273 5.1316 3.75333C5.13104 3.60049 5.13188 3.44771 5.13311 3.29487C5.13266 3.24952 5.13222 3.20418 5.13177 3.15746C5.13443 2.97702 5.13859 2.85635 5.2419 2.69792C5.44841 2.59739 5.63245 2.6058 5.86527 2.60925C5.91427 2.60922 5.96327 2.6092 6.01375 2.60917C6.17558 2.60929 6.33735 2.61077 6.49917 2.61227C6.61141 2.61263 6.72365 2.6129 6.83591 2.61309C7.13126 2.61382 7.42657 2.61568 7.7219 2.6178C8.02331 2.61975 8.32471 2.62061 8.62612 2.62158C9.21745 2.62362 10.2835 2.61832 10.8748 2.62233C11.7609 2.62834 11.6821 2.63021 11.6821 2.46313C11.6821 2.23121 11.6716 2.05955 11.6695 1.82763C11.6684 1.72727 11.6714 1.53064 11.6695 1.43028C11.6668 1.28601 11.6705 1.25669 11.6695 1.1124C11.6695 0.953462 11.6707 0.840748 11.6695 0.794521C11.6694 0.486859 11.6444 0.475671 11.7609 0.318592C11.9155 0.236839 11.6399 0.382605 11.7609 0.318592ZM6.03447 3.39313C6.03447 4.65082 6.03447 5.90852 6.03447 7.20432C7.82759 7.21588 9.62064 7.22554 11.4138 7.23107C11.6256 7.23174 11.8373 7.23241 12.049 7.23311C12.0912 7.23324 12.1333 7.23338 12.1768 7.23352C12.8591 7.2358 13.5415 7.23993 14.2238 7.24474C14.9241 7.24966 15.6243 7.25256 16.3246 7.25363C16.7568 7.25434 17.1886 7.25662 17.6208 7.26088C17.9521 7.26398 18.2834 7.26429 18.6149 7.26359C18.7508 7.26374 18.8866 7.26479 19.0224 7.26679C19.725 7.31293 19.725 7.31293 20.3428 7.08976C20.4562 6.95598 20.5316 6.83333 20.6047 6.68028C20.6497 6.62122 20.6962 6.56308 20.7452 6.5065C20.8509 6.37278 20.956 6.23878 21.0602 6.10427C21.105 6.04691 21.15 5.98972 21.1953 5.93274C21.2619 5.84901 21.3274 5.76471 21.3927 5.68021C21.4313 5.63091 21.4701 5.58161 21.5099 5.53081C21.5957 5.40262 21.5957 5.40261 21.59 5.28181C21.5026 5.09066 21.3748 4.92865 21.2425 4.75904C21.1991 4.70262 21.1991 4.70262 21.155 4.64505C21.0629 4.52526 20.9703 4.40581 20.8774 4.28637C20.8151 4.20526 20.7527 4.12412 20.6904 4.04295C20.5766 3.89511 20.4626 3.74731 20.3482 3.59983C20.3253 3.57018 20.3022 3.54054 20.2786 3.50999C20.2267 3.44157 20.2544 3.4371 20.1959 3.38866C20.1202 3.38407 19.9406 3.38726 19.9406 3.38726C19.8914 3.38716 19.7911 3.38697 19.7911 3.38697C19.7362 3.38712 19.6814 3.38724 19.625 3.38739C19.5671 3.38736 19.5094 3.38731 19.45 3.38728C19.2548 3.3872 19.0596 3.38745 18.8645 3.38771C18.7252 3.38772 18.586 3.38772 18.4468 3.38769C18.146 3.38767 17.8455 3.38782 17.5448 3.38809C17.1102 3.38847 16.6755 3.3886 16.2408 3.38866C15.5357 3.38875 14.8306 3.38907 14.1254 3.38953C13.4403 3.38996 12.7552 3.3903 12.07 3.3905C12.0067 3.39052 12.0067 3.39052 11.9421 3.39055C11.7304 3.3906 11.5187 3.39066 11.307 3.39073C9.54949 3.39122 7.79197 3.39209 6.03447 3.39313ZM3.83084 10.5082C3.74923 10.6446 3.74923 10.6446 3.68796 10.7773C3.64299 10.8364 3.59634 10.8945 3.54736 10.9511C3.44173 11.0848 3.33665 11.2188 3.23235 11.3533C3.18766 11.4107 3.14262 11.4679 3.09727 11.5248C3.03069 11.6086 2.96519 11.6929 2.8999 11.7774C2.8419 11.8513 2.8419 11.8513 2.78274 11.9268C2.69692 12.055 2.69692 12.055 2.70273 12.1758C2.79001 12.3669 2.91784 12.529 3.05018 12.6985C3.07904 12.7362 3.1079 12.7738 3.13764 12.8125C3.22972 12.9323 3.32241 13.0518 3.4151 13.1712C3.47754 13.2523 3.53992 13.3335 3.60227 13.4146C3.71609 13.5625 3.82997 13.7103 3.94439 13.8578C3.96737 13.8874 3.99036 13.9171 4.01404 13.9476C4.06592 14.016 4.06592 14.016 4.12452 14.0645C4.20019 14.0691 4.27612 14.0704 4.35196 14.0703C4.40131 14.0704 4.45065 14.0705 4.50148 14.0706C4.55631 14.0705 4.61115 14.0703 4.66765 14.0702C4.75429 14.0703 4.75429 14.0703 4.84269 14.0703C5.03784 14.0704 5.23298 14.0701 5.42813 14.0699C5.5674 14.0699 5.70664 14.0699 5.84591 14.0699C6.14653 14.0699 6.44715 14.0698 6.74778 14.0695C7.18244 14.0691 7.61711 14.069 8.05176 14.0689C8.7569 14.0688 9.46204 14.0685 10.1672 14.0681C10.8523 14.0676 11.5375 14.0673 12.2226 14.0671C12.2859 14.0671 12.2859 14.0671 12.3505 14.0671C12.5622 14.067 12.7739 14.0669 12.9856 14.0669C14.7431 14.0664 16.5007 14.0655 18.2581 14.0645C18.2581 12.8068 18.2581 11.5491 18.2581 10.2533C16.4651 10.2417 14.672 10.232 12.8788 10.2265C12.6671 10.2259 12.4553 10.2252 12.2436 10.2245C12.2014 10.2244 12.1593 10.2242 12.1158 10.2241C11.4335 10.2218 10.7512 10.2177 10.0688 10.2128C9.36855 10.2079 8.66829 10.205 7.96801 10.204C7.53595 10.2032 7.10397 10.201 6.67194 10.1967C6.34051 10.1936 6.00917 10.1933 5.67773 10.194C5.54187 10.1939 5.40601 10.1928 5.27016 10.1908C4.45731 10.1418 4.45731 10.1418 3.83084 10.5082Z" fill="#3F3F3F"/>
</g>
</g>
<defs>
<clipPath id="clip0_2291_2241">
<rect width="24" height="24" fill="white"/>
</clipPath>
</defs>
</svg>
