<svg width="40" height="34" viewBox="0 0 40 34" fill="none" xmlns="http://www.w3.org/2000/svg">
<path d="M15 31.917C11.7511 31.917 8.63526 30.6264 6.33794 28.3291C4.04062 26.0317 2.75 22.9159 2.75 19.667C2.75 16.4181 4.04062 13.3023 6.33794 11.0049C8.63526 8.70761 11.7511 7.41699 15 7.41699C18.2489 7.41699 21.3647 8.70761 23.6621 11.0049C25.9594 13.3023 27.25 16.4181 27.25 19.667C27.25 22.9159 25.9594 26.0317 23.6621 28.3291C21.3647 30.6264 18.2489 31.917 15 31.917ZM15 33.667C18.713 33.667 22.274 32.192 24.8995 29.5665C27.525 26.941 29 23.38 29 19.667C29 15.954 27.525 12.393 24.8995 9.7675C22.274 7.14199 18.713 5.66699 15 5.66699C11.287 5.66699 7.72601 7.14199 5.10051 9.7675C2.475 12.393 1 15.954 1 19.667C1 23.38 2.475 26.941 5.10051 29.5665C7.72601 32.192 11.287 33.667 15 33.667Z" fill="#00246B" stroke="#00246B" stroke-width="0.5"/>
<path d="M18.5 19.667C18.5 20.5953 18.1313 21.4855 17.4749 22.1419C16.8185 22.7982 15.9283 23.167 15 23.167C14.0717 23.167 13.1815 22.7982 12.5251 22.1419C11.8687 21.4855 11.5 20.5953 11.5 19.667C11.5 18.7387 11.8687 17.8485 12.5251 17.1921C13.1815 16.5357 14.0717 16.167 15 16.167C15.9283 16.167 16.8185 16.5357 17.4749 17.1921C18.1313 17.8485 18.5 18.7387 18.5 19.667ZM15 12.667C13.1435 12.667 11.363 13.4045 10.0503 14.7172C8.7375 16.03 8 17.8105 8 19.667C8 19.8991 7.90781 20.1216 7.74372 20.2857C7.57962 20.4498 7.35706 20.542 7.125 20.542C6.89294 20.542 6.67038 20.4498 6.50628 20.2857C6.34219 20.1216 6.25 19.8991 6.25 19.667C6.25 17.3463 7.17187 15.1208 8.81282 13.4798C10.4538 11.8389 12.6794 10.917 15 10.917C15.2321 10.917 15.4546 11.0092 15.6187 11.1733C15.7828 11.3374 15.875 11.5599 15.875 11.792C15.875 12.0241 15.7828 12.2466 15.6187 12.4107C15.4546 12.5748 15.2321 12.667 15 12.667ZM22.875 18.792C23.1071 18.792 23.3296 18.8842 23.4937 19.0483C23.6578 19.2124 23.75 19.4349 23.75 19.667C23.75 21.9876 22.8281 24.2132 21.1872 25.8542C19.5462 27.4951 17.3206 28.417 15 28.417C14.7679 28.417 14.5454 28.3248 14.3813 28.1607C14.2172 27.9966 14.125 27.7741 14.125 27.542C14.125 27.3099 14.2172 27.0874 14.3813 26.9233C14.5454 26.7592 14.7679 26.667 15 26.667C16.8565 26.667 18.637 25.9295 19.9497 24.6167C21.2625 23.304 22 21.5235 22 19.667C22 19.4349 22.0922 19.2124 22.2563 19.0483C22.4204 18.8842 22.6429 18.792 22.875 18.792Z" fill="#00246B" stroke="#00246B" stroke-width="0.5"/>
<path d="M39.2637 9.87207V12.0781H30.4922V9.87207H39.2637ZM36.082 6.40039V15.7168H33.6826V6.40039H36.082Z" fill="#00246B"/>
</svg>
