<svg width="56" height="56" viewBox="0 0 56 56" fill="none" xmlns="http://www.w3.org/2000/svg">
<g clip-path="url(#clip0_2381_2363)">
<path d="M28.006 0.115479C12.5877 0.115479 0.0874023 12.6175 0.0874023 28.0341C0.0874023 43.4577 12.5877 55.9562 28.006 55.9562C43.4279 55.9562 55.9282 43.4577 55.9282 28.0341C55.9282 12.6175 43.4279 0.115479 28.006 0.115479ZM28.006 37.4132C23.2285 37.4132 19.3497 33.5361 19.3497 28.7534C19.3497 23.9741 23.2285 20.1005 28.006 20.1005C32.787 20.1005 36.6659 23.9741 36.6659 28.7534C36.6668 33.5361 32.787 37.4132 28.006 37.4132Z" fill="#3F3F3F"/>
<path d="M28.0087 21.3982C23.9513 21.3982 20.6228 24.7293 20.6228 28.7858C20.6228 32.8432 23.9522 36.1717 28.0087 36.1717C32.0652 36.1717 35.3946 32.8423 35.3946 28.7858C35.3946 24.7293 32.0652 21.3982 28.0087 21.3982ZM28.0087 25.1528C28.4868 25.1491 28.9609 25.2405 29.4034 25.4218C29.8458 25.603 30.2478 25.8705 30.5859 26.2086C30.924 26.5467 31.1915 26.9487 31.3727 27.3911C31.554 27.8336 31.6454 28.3077 31.6417 28.7858C31.6452 29.2638 31.5536 29.7377 31.3722 30.18C31.1909 30.6222 30.9234 31.024 30.5853 31.3619C30.2472 31.6998 29.8453 31.9671 29.403 32.1483C28.9606 32.3294 28.4867 32.4208 28.0087 32.4171C27.5307 32.4209 27.0568 32.3296 26.6145 32.1485C26.1722 31.9674 25.7704 31.7 25.4324 31.3621C25.0945 31.0241 24.8271 30.6223 24.646 30.18C24.4649 29.7377 24.3736 29.2638 24.3774 28.7858C24.3737 28.3078 24.4651 27.8339 24.6462 27.3915C24.8274 26.9492 25.0947 26.5473 25.4326 26.2092C25.7705 25.8711 26.1723 25.6036 26.6145 25.4223C27.0568 25.2409 27.5307 25.1493 28.0087 25.1528Z" fill="#3F3F3F"/>
</g>
<defs>
<clipPath id="clip0_2381_2363">
<rect width="56" height="56" fill="white"/>
</clipPath>
</defs>
</svg>
