<svg width="56" height="56" viewBox="0 0 56 56" fill="none" xmlns="http://www.w3.org/2000/svg">
<path d="M6.31738 30.3624L2.48926 33.9587C2.48926 33.9587 2.48051 38.0843 5.23238 41.5274C7.69113 44.603 17.5874 50.2074 34.4136 43.3037C54.3899 35.1093 53.6286 21.8049 52.8149 18.9262C51.7299 15.0937 49.8924 12.9849 45.3249 11.4362C40.7574 9.88742 6.31738 30.3624 6.31738 30.3624Z" fill="#3F3F3F"/>
<path d="M19.5255 13.4006C6.8118 19.0881 0.118049 30.6863 3.21992 36.7194C6.6543 43.4044 20.8424 45.2069 34.7724 38.7581C49.0393 32.1519 53.8518 20.1688 50.1812 14.8663C46.5105 9.56376 33.5299 7.13564 19.5255 13.4006Z" fill="#3F3F3F"/>
<path d="M5.21074 30.7474C4.37074 31.0274 4.23949 34.3262 6.07262 36.6755C8.40449 39.6637 13.567 40.4249 13.8207 39.2568C14.0832 38.0537 10.6882 38.1499 8.04574 35.4505C6.19074 33.5562 5.81887 30.5462 5.21074 30.7474ZM18.2264 39.9305C18.6639 41.0199 23.402 40.1187 25.4189 39.6768C28.6607 38.968 33.272 36.9424 36.8682 34.7637C40.4645 32.5849 43.5532 29.3955 44.7695 27.873C45.9857 26.3549 46.5414 24.8324 45.8851 24.478C45.2245 24.1237 43.9164 26.4949 41.2257 28.9362C36.8682 32.8868 30.5901 36.3299 24.7145 37.7518C21.6739 38.4824 17.8195 38.9155 18.2264 39.9305ZM46.8389 14.9187C46.0732 15.3343 47.0926 16.1612 47.1232 17.4955C47.1451 18.4274 46.5195 20.0418 47.3464 20.1993C48.1732 20.3568 48.9782 19.0399 49.0001 17.2068C49.0176 15.9993 47.7139 14.4462 46.8389 14.9187Z" fill="#939393"/>
<path d="M19.3855 34.9344C14.4111 34.9344 10.8193 33.1538 9.6774 30.5113C7.93178 26.4863 11.5018 20.0331 21.1968 15.6581C30.7124 11.3663 39.4361 12.495 41.7943 16.4063C42.6824 17.8763 42.9055 19.9413 42.2274 22.0019C40.8361 26.2325 36.3824 30.0081 30.2049 32.5719C26.2193 34.2256 22.5268 34.9344 19.3855 34.9344ZM21.6736 16.7956C15.2249 19.7925 8.85052 25.5238 10.8018 30.0256C12.228 33.32 19.508 35.5819 29.6361 31.3775C37.9443 27.93 40.3461 23.345 40.9499 21.5031C41.5143 19.7881 41.4661 18.3444 40.7705 17.185C39.003 14.2538 31.2768 12.4644 21.6736 16.7956Z" fill="#939393"/>
<path d="M14.9012 12.8843C15.2599 13.5668 16.4674 12.438 18.5237 11.4274C20.5799 10.4168 24.8718 8.58803 30.4368 7.73053C36.0018 6.87303 41.1905 7.61678 42.7218 7.91865C44.253 8.21615 45.1105 8.25553 45.2243 7.91865C45.338 7.58178 44.9618 7.02178 42.7218 6.42678C40.4818 5.83178 34.8818 5.04428 30.1393 5.7924C25.3968 6.54053 20.7899 8.21178 18.0643 9.96615C15.3387 11.7205 14.5687 12.2455 14.9012 12.8843ZM23.008 4.62865C23.1393 5.49053 27.0418 3.80615 30.4018 3.43428C33.7487 3.0624 37.1568 3.3249 37.8305 3.3599C38.5043 3.39928 38.9155 3.28553 38.9899 2.94865C39.0643 2.61178 37.1437 1.1024 30.4018 1.71928C24.7405 2.23115 22.9293 4.13428 23.008 4.62865ZM6.61491 49.2886C6.53616 49.5993 7.76115 50.1899 9.9399 50.6318C12.1449 51.078 17.5918 51.4543 22.8243 50.7061C28.4024 49.9099 32.8255 47.9543 33.8362 47.3943C34.8424 46.8343 35.9712 45.7405 35.6343 45.3686C35.2974 44.9968 33.0574 46.3005 31.1893 46.8255C29.3212 47.3505 25.6243 48.5449 20.8468 49.0655C16.0693 49.5861 11.5105 49.2886 10.0187 49.2536C8.51803 49.2143 6.72428 48.8424 6.61491 49.2886ZM22.0368 53.6986C22.1462 54.3243 25.7949 54.8186 31.2593 52.8849C36.9074 50.8855 38.4649 48.4968 38.2418 48.1336C37.8305 47.4599 34.908 49.8618 30.4762 51.2705C24.9462 53.0249 21.923 53.0599 22.0368 53.6986Z" fill="#3F3F3F"/>
</svg>
