<svg width="56" height="56" viewBox="0 0 56 56" fill="none" xmlns="http://www.w3.org/2000/svg">
<g clip-path="url(#clip0_2381_2361)">
<path d="M4.06467 27.9581C4.06467 14.7327 14.8213 3.97608 28.042 3.97608C32.298 3.97608 36.295 5.09608 39.767 7.04908L41.6663 3.57708C37.6259 1.30161 33.0799 0.0742736 28.4433 0.00708008H27.9883C12.6233 0.0304134 0.168 12.3901 0 27.7317V28.0001C0.00291899 31.813 0.785855 35.585 2.30065 39.084C3.81545 42.5831 6.03008 45.7353 8.80833 48.3467L11.5733 45.3601C9.20181 43.1238 7.31242 40.4264 6.0212 37.4335C4.72998 34.4406 4.06417 31.2153 4.06467 27.9557V27.9581ZM47.5113 7.94508L44.8187 10.8384C47.1007 13.0673 48.9137 15.7301 50.1511 18.6702C51.3886 21.6103 52.0253 24.7682 52.024 27.9581C52.024 41.1787 41.2673 51.9354 28.0467 51.9354C23.8863 51.9354 19.9733 50.8714 16.562 49.0001L14.5693 52.5514C18.6848 54.8119 23.3045 55.9966 28 55.9954C43.4607 55.9954 56.0023 43.4584 56.0023 27.9954C56.0007 24.2554 55.2485 20.5538 53.7904 17.1098C52.3323 13.6658 50.1979 10.5493 47.5137 7.94508M4.58033 27.9581C4.58021 31.1457 5.23126 34.2997 6.49354 37.2267C7.75582 40.1537 9.60273 42.792 11.921 44.9797L14.6743 42.0024C12.7683 40.1933 11.2505 38.0152 10.2131 35.6007C9.17576 33.1863 8.64064 30.586 8.64033 27.9581C8.64033 17.2574 17.3437 8.55641 28.042 8.55641C31.5023 8.55641 34.7503 9.46875 37.5667 11.0647L39.515 7.50408C36.0136 5.53005 32.0616 4.49403 28.042 4.49641C15.1083 4.49175 4.58033 15.0197 4.58033 27.9581ZM47.4437 27.9581C47.4437 38.6587 38.7403 47.3597 28.042 47.3597C24.8131 47.3609 21.6352 46.5548 18.7973 45.0147L16.8093 48.5521C20.2527 50.4377 24.1162 51.424 28.042 51.4197C40.9757 51.4197 51.5037 40.8917 51.5037 27.9581C51.5037 21.4061 48.804 15.4817 44.4663 11.2211L41.706 14.1937C43.527 15.9933 44.9722 18.1368 45.9576 20.4997C46.943 22.8627 47.4466 25.3979 47.4437 27.9581ZM42.9007 27.9581C42.897 31.8956 41.331 35.6708 38.5465 38.4549C35.762 41.2389 31.9866 42.8043 28.049 42.8074C25.6006 42.8127 23.1896 42.2064 21.035 41.0434L19.0563 44.5597C21.8158 46.0605 24.9079 46.8444 28.049 46.8394C38.465 46.8394 46.9373 38.3694 46.9373 27.9534C46.939 25.4639 46.447 22.9988 45.4898 20.7006C44.5325 18.4025 43.1291 16.317 41.3607 14.5647L38.6097 17.5211C41.3586 20.2993 42.9005 24.0498 42.9007 27.9581ZM9.163 27.9581C9.163 33.3271 11.4193 38.1827 15.0313 41.6267L17.7683 38.6634C16.3217 37.2811 15.1705 35.6196 14.3844 33.7795C13.5983 31.9394 13.1937 29.959 13.195 27.9581C13.1987 24.0209 14.7644 20.2461 17.5484 17.4621C20.3323 14.6781 24.1072 13.1125 28.0443 13.1087C30.6181 13.1048 33.1477 13.7766 35.3803 15.0571L37.317 11.5174C34.4893 9.91472 31.2946 9.07222 28.0443 9.07208C17.6353 9.07208 9.163 17.5421 9.163 27.9581ZM38.3997 27.9581C38.3978 30.7037 37.3061 33.3363 35.3645 35.2775C33.4228 37.2188 30.79 38.3098 28.0443 38.3111C26.3684 38.3136 24.7174 37.9059 23.2353 37.1234L21.287 40.5954C23.3641 41.7119 25.6861 42.2948 28.0443 42.2917C31.8445 42.2874 35.4878 40.7759 38.175 38.0887C40.8621 35.4016 42.3737 31.7583 42.378 27.9581C42.3812 24.1947 40.8986 20.5822 38.2527 17.9061L35.5413 20.8227C37.375 22.7457 38.3978 25.301 38.3973 27.9581M13.7083 27.9581C13.707 29.8874 14.0967 31.797 14.8539 33.5716C15.611 35.3462 16.72 36.9489 18.1137 38.2831L20.8133 35.3664L20.846 35.3991C19.8456 34.4362 19.0498 33.2813 18.5065 32.0034C17.9633 30.7256 17.6836 29.3513 17.6843 27.9627C17.684 26.6031 17.9516 25.2567 18.4718 24.0005C18.992 22.7442 19.7545 21.6028 20.716 20.6414C21.6774 19.68 22.8188 18.9174 24.075 18.3972C25.3313 17.877 26.6777 17.6094 28.0373 17.6097C29.8548 17.6088 31.6399 18.0903 33.2103 19.0051L35.1237 15.5097C32.9663 14.2748 30.5231 13.6264 28.0373 13.6291C20.1413 13.6174 13.7083 20.0527 13.7083 27.9581ZM29.295 27.9581C29.2755 28.2772 29.135 28.5768 28.9022 28.7959C28.6693 29.0149 28.3617 29.1369 28.042 29.1369C27.7223 29.1369 27.4147 29.0149 27.1818 28.7959C26.949 28.5768 26.8085 28.2772 26.789 27.9581C26.789 27.6255 26.9211 27.3064 27.1563 27.0712C27.3915 26.836 27.7105 26.7039 28.0432 26.7039C28.3758 26.7039 28.6948 26.836 28.93 27.0712C29.1652 27.3064 29.295 27.6255 29.295 27.9581ZM20.104 27.9581C20.104 25.8537 20.94 23.8355 22.428 22.3475C23.916 20.8595 25.9341 20.0236 28.0385 20.0236C30.1429 20.0236 32.161 20.8595 33.649 22.3475C35.137 23.8355 35.973 25.8537 35.973 27.9581C35.973 30.0621 35.1372 32.08 33.6494 33.5678C32.1616 35.0556 30.1437 35.8914 28.0397 35.8914C25.9356 35.8914 23.9177 35.0556 22.43 33.5678C20.9422 32.08 20.104 30.0621 20.104 27.9581ZM20.454 27.9581C20.4565 29.9698 21.2567 31.8984 22.6792 33.3209C24.1017 34.7434 26.0303 35.5436 28.042 35.5461C30.0547 35.5455 31.9849 34.746 33.4085 33.3232C34.8321 31.9004 35.6328 29.9708 35.6347 27.9581C35.6347 25.945 34.835 24.0144 33.4115 22.5909C31.988 21.1674 30.0574 20.3677 28.0443 20.3677C26.0313 20.3677 24.1006 21.1674 22.6772 22.5909C21.2537 24.0144 20.454 25.945 20.454 27.9581Z" fill="#3F3F3F"/>
</g>
<defs>
<clipPath id="clip0_2381_2361">
<rect width="56" height="56" fill="white"/>
</clipPath>
</defs>
</svg>
