<svg width="24" height="24" viewBox="0 0 24 24" fill="none" xmlns="http://www.w3.org/2000/svg">
<path d="M3.36364 5.55833L4.46909 4.5L18.9091 18.4333L17.8123 19.5L15.1523 16.9333C14.1591 17.25 13.1055 17.4167 12 17.4167C7.68182 17.4167 3.99409 14.825 2.5 11.1667C3.09591 9.7 4.04591 8.40833 5.255 7.38333L3.36364 5.55833ZM12 8.66667C12.6872 8.66667 13.3462 8.93006 13.8321 9.3989C14.3179 9.86774 14.5909 10.5036 14.5909 11.1667C14.5913 11.4505 14.5417 11.7323 14.4441 12L11.1364 8.80833C11.4138 8.71415 11.7059 8.66625 12 8.66667ZM12 4.91667C16.3182 4.91667 20.0059 7.50833 21.5 11.1667C20.7947 12.8941 19.597 14.3936 18.0455 15.4917L16.8191 14.3C18.0135 13.5029 18.9767 12.4243 19.6173 11.1667C18.9192 9.79155 17.8352 8.63303 16.4886 7.82279C15.1421 7.01256 13.5869 6.58314 12 6.58333C11.0586 6.58333 10.1345 6.73333 9.27091 7L7.94091 5.725C9.18455 5.20833 10.5577 4.91667 12 4.91667ZM4.38273 11.1667C5.08084 12.5418 6.1648 13.7003 7.51137 14.5105C8.85793 15.3208 10.4131 15.7502 12 15.75C12.5959 15.75 13.1832 15.6917 13.7273 15.575L11.7582 13.6667C11.1572 13.6045 10.5964 13.3457 10.1691 12.9334C9.7417 12.521 9.47351 11.9799 9.40909 11.4L6.47273 8.55833C5.61773 9.26667 4.90091 10.15 4.38273 11.1667Z" fill="#3F3F3F"/>
</svg>
