<svg width="24" height="24" viewBox="0 0 24 24" fill="none" xmlns="http://www.w3.org/2000/svg">
<path d="M12.11 19.0547L12 19.1654L11.879 19.0547C6.654 14.2849 3.2 11.1308 3.2 7.93247C3.2 5.7191 4.85 4.05907 7.05 4.05907C8.744 4.05907 10.394 5.16576 10.977 6.67085H13.023C13.606 5.16576 15.256 4.05907 16.95 4.05907C19.15 4.05907 20.8 5.7191 20.8 7.93247C20.8 11.1308 17.346 14.2849 12.11 19.0547ZM16.95 1.8457C15.036 1.8457 13.199 2.74212 12 4.14761C10.801 2.74212 8.964 1.8457 7.05 1.8457C3.662 1.8457 1 4.51281 1 7.93247C1 12.1047 4.74 15.5244 10.405 20.6926L12 22.1534L13.595 20.6926C19.26 15.5244 23 12.1047 23 7.93247C23 4.51281 20.338 1.8457 16.95 1.8457Z" fill="#3F3F3F"/>
</svg>
