<svg width="24" height="24" viewBox="0 0 24 24" fill="none" xmlns="http://www.w3.org/2000/svg">
<path fill-rule="evenodd" clip-rule="evenodd" d="M12 2C6.47721 2 2 6.47721 2 12C2 17.5228 6.47721 22 12 22C17.5228 22 22 17.5228 22 12C22 6.47721 17.5228 2 12 2ZM3.39535 12C3.39535 9.87535 4.16558 7.93023 5.44186 6.42884L8.4214 9.40744C7.87408 10.161 7.57997 11.0687 7.5814 12C7.57997 12.9313 7.87408 13.839 8.4214 14.5926L5.44186 17.5712C4.11697 16.0177 3.39112 14.0417 3.39535 12ZM9.40744 8.4214L6.42884 5.44186C7.98232 4.11697 9.95828 3.39112 12 3.39535C14.1247 3.39535 16.0698 4.16558 17.5712 5.44186L14.5916 8.4214C13.8384 7.87427 12.931 7.58016 12 7.5814C11.0687 7.57997 10.161 7.87408 9.40744 8.4214ZM6.42884 18.5581C7.98232 19.883 9.95828 20.6089 12 20.6047C14.0417 20.6089 16.0177 19.883 17.5712 18.5581L14.5916 15.5786C13.8384 16.1257 12.931 16.4198 12 16.4186C11.0687 16.42 10.161 16.1259 9.40744 15.5786L6.42884 18.5581ZM15.5786 14.5916L18.5581 17.5712C19.883 16.0177 20.6089 14.0417 20.6047 12C20.6089 9.95828 19.883 7.98232 18.5581 6.42884L15.5786 9.40744C16.1259 10.161 16.42 11.0687 16.4186 12C16.42 12.9313 16.1259 13.8381 15.5786 14.5916ZM8.97674 12C8.97674 11.1982 9.29527 10.4292 9.86224 9.86224C10.4292 9.29527 11.1982 8.97674 12 8.97674C12.8018 8.97674 13.5708 9.29527 14.1378 9.86224C14.7047 10.4292 15.0233 11.1982 15.0233 12C15.0233 12.8018 14.7047 13.5708 14.1378 14.1378C13.5708 14.7047 12.8018 15.0233 12 15.0233C11.1982 15.0233 10.4292 14.7047 9.86224 14.1378C9.29527 13.5708 8.97674 12.8018 8.97674 12Z" fill="#3F3F3F"/>
</svg>
