<svg width="24" height="25" viewBox="0 0 24 25" fill="none" xmlns="http://www.w3.org/2000/svg">
<path d="M20.5603 10.689L13.0603 3.18899C12.779 2.9079 12.3977 2.75 12 2.75C11.6024 2.75 11.221 2.9079 10.9397 3.18899L3.4397 10.689C3.29973 10.8279 3.18878 10.9933 3.1133 11.1755C3.03782 11.3577 2.99931 11.553 3.00001 11.7502V20.7502C3.00001 20.9492 3.07903 21.1399 3.21968 21.2806C3.36033 21.4212 3.5511 21.5002 3.75001 21.5002H9.75001C9.94892 21.5002 10.1397 21.4212 10.2803 21.2806C10.421 21.1399 10.5 20.9492 10.5 20.7502V15.5002H13.5V20.7502C13.5 20.9492 13.579 21.1399 13.7197 21.2806C13.8603 21.4212 14.0511 21.5002 14.25 21.5002H20.25C20.4489 21.5002 20.6397 21.4212 20.7803 21.2806C20.921 21.1399 21 20.9492 21 20.7502V11.7502C21.0007 11.553 20.9622 11.3577 20.8867 11.1755C20.8112 10.9933 20.7003 10.8279 20.5603 10.689ZM19.5 20.0002H15V14.7502C15 14.5513 14.921 14.3606 14.7803 14.2199C14.6397 14.0793 14.4489 14.0002 14.25 14.0002H9.75001C9.5511 14.0002 9.36033 14.0793 9.21968 14.2199C9.07903 14.3606 9.00001 14.5513 9.00001 14.7502V20.0002H4.50001V11.7502L12 4.25024L19.5 11.7502V20.0002Z" fill="#3F3F3F"/>
</svg>
