<svg width="24" height="24" viewBox="0 0 24 24" fill="none" xmlns="http://www.w3.org/2000/svg">
<path fill-rule="evenodd" clip-rule="evenodd" d="M12 3C7.02945 3 3 7.02941 3 12C3 16.9705 7.02945 21 12 21C16.9706 21 21 16.9705 21 12C21 7.02941 16.9706 3 12 3ZM12 19.2C8.02993 19.2 4.80001 15.9701 4.80001 12C4.80001 8.02988 8.02988 4.80001 12 4.80001C15.9701 4.80001 19.2 8.02988 19.2 12C19.2 15.9701 15.9701 19.2 12 19.2ZM13.127 8.4C13.127 9.05255 12.6519 9.52501 12.0091 9.52501C11.3404 9.52501 10.8769 9.05251 10.8769 8.38751C10.8769 7.74837 11.353 7.27502 12.0091 7.27502C12.6519 7.27502 13.127 7.74837 13.127 8.4ZM11.102 11.1H12.9019V16.5H11.102V11.1Z" fill="#3F3F3F"/>
</svg>
