<svg width="24" height="24" viewBox="0 0 24 24" fill="none" xmlns="http://www.w3.org/2000/svg">
<g clip-path="url(#clip0_2085_1350)">
<path d="M20.4444 2H9.33333V5.47222H10.7222V3.38889H20.4444C20.8611 3.38889 21.1389 3.66667 21.1389 4.08333V11.7222C21.1389 12.1389 20.8611 12.4167 20.4444 12.4167H11.4167V17.2778H7.73611L5.16667 19.2917V17.2778H3.08333C2.66667 17.2778 2.38889 17 2.38889 16.5833V8.94444C2.38889 8.52778 2.66667 8.25 3.08333 8.25H12.1111V6.86111H3.08333C1.90278 6.86111 1 7.76389 1 8.94444V16.5833C1 17.7639 1.90278 18.6667 3.08333 18.6667H3.77778V22.2083L8.15278 18.6667H12.8056V13.8056H20.4444C21.625 13.8056 22.5278 12.9028 22.5278 11.7222V4.08333C22.5278 2.90278 21.625 2 20.4444 2Z" fill="#3F3F3F"/>
<path d="M4.13281 15.2673H5.73281L6.13281 14.2007H8.19948L8.59948 15.2673H10.1995L7.93281 9.33398H6.33281L4.13281 15.2673ZM7.13281 11.0007L7.79948 13.0673H6.46615L7.13281 11.0007Z" fill="#3F3F3F"/>
<path d="M13.332 11.3333C14.0654 11.3333 15.0654 11.1333 15.9987 10.6667C16.932 11.1333 17.9987 11.3333 18.6654 11.3333V10C18.6654 10 17.9987 10 17.2654 9.73333C18.0654 8.93333 18.6654 7.73333 18.6654 6V5.33333H16.6654V4H15.332V5.33333H13.332V6.66667H17.2654C17.132 7.86667 16.5987 8.6 15.9987 9.06667C15.5987 8.73333 15.1987 8.26667 14.932 7.66667H13.532C13.7987 8.53333 14.1987 9.2 14.732 9.73333C14.0654 10 13.4654 10 13.332 10V11.3333Z" fill="#3F3F3F"/>
</g>
<defs>
<clipPath id="clip0_2085_1350">
<rect width="24" height="24" fill="white"/>
</clipPath>
</defs>
</svg>
