<svg width="24" height="24" viewBox="0 0 24 24" fill="none" xmlns="http://www.w3.org/2000/svg">
<g clip-path="url(#clip0_2293_2313)">
<path d="M20 8.68421H14.388L15.511 5.49442C15.713 4.91842 15.611 4.27989 15.236 3.78726C14.861 3.29463 14.253 3 13.612 3H12C11.703 3 11.422 3.12505 11.231 3.34105L6.531 8.68421H4C2.897 8.68421 2 9.534 2 10.5789V19.1053C2 20.1502 2.897 21 4 21H17.307C17.7139 20.9987 18.1108 20.8805 18.4452 20.6609C18.7797 20.4413 19.0359 20.1308 19.18 19.7703L21.937 12.8062C21.9789 12.6998 22.0002 12.5872 22 12.4737V10.5789C22 9.534 21.103 8.68421 20 8.68421ZM4 10.5789H6V19.1053H4V10.5789ZM20 12.3022L17.307 19.1053H8V9.97453L12.468 4.89474H13.614L12.052 9.33126C12.0013 9.47367 11.9872 9.62547 12.0107 9.77409C12.0343 9.92271 12.095 10.0638 12.1877 10.1858C12.2803 10.3078 12.4024 10.4071 12.5436 10.4755C12.6849 10.5438 12.8414 10.5793 13 10.5789H20V12.3022Z" fill="#3F3F3F"/>
</g>
<defs>
<clipPath id="clip0_2293_2313">
<rect width="20" height="18" fill="white" transform="translate(2 3)"/>
</clipPath>
</defs>
</svg>
