<svg width="24" height="24" viewBox="0 0 24 24" fill="none" xmlns="http://www.w3.org/2000/svg">
<g clip-path="url(#clip0_2468_3201)">
<path d="M11.25 9.67521V16.5002C11.25 16.6991 11.329 16.8899 11.4697 17.0305C11.6103 17.1712 11.8011 17.2502 12 17.2502C12.1989 17.2502 12.3897 17.1712 12.5303 17.0305C12.671 16.8899 12.75 16.6991 12.75 16.5002V9.67521C13.6605 9.48935 14.4696 8.97202 15.0204 8.22352C15.5712 7.47502 15.8244 6.54867 15.731 5.62407C15.6376 4.69947 15.2042 3.84248 14.5149 3.21926C13.8255 2.59604 12.9293 2.25098 12 2.25098C11.0707 2.25098 10.1745 2.59604 9.48514 3.21926C8.79578 3.84248 8.36239 4.69947 8.26899 5.62407C8.17559 6.54867 8.42882 7.47502 8.9796 8.22352C9.53038 8.97202 10.3395 9.48935 11.25 9.67521ZM12 3.75021C12.445 3.75021 12.88 3.88217 13.25 4.1294C13.62 4.37664 13.9084 4.72804 14.0787 5.13917C14.249 5.55031 14.2936 6.00271 14.2068 6.43916C14.12 6.87562 13.9057 7.27653 13.591 7.5912C13.2763 7.90587 12.8754 8.12016 12.439 8.20698C12.0025 8.2938 11.5501 8.24924 11.139 8.07894C10.7278 7.90864 10.3764 7.62025 10.1292 7.25024C9.88196 6.88023 9.75 6.44522 9.75 6.00021C9.75 5.40347 9.98705 4.83118 10.409 4.40922C10.831 3.98726 11.4033 3.75021 12 3.75021ZM22.5 16.5002C22.5 19.4233 17.0897 21.0002 12 21.0002C6.91031 21.0002 1.5 19.4233 1.5 16.5002C1.5 15.7746 1.85719 14.7068 3.5625 13.743C4.71187 13.0924 6.2925 12.5927 8.13469 12.2974C8.23213 12.282 8.33165 12.286 8.42757 12.309C8.52349 12.3321 8.61392 12.3738 8.69371 12.4319C8.77349 12.4899 8.84107 12.5631 8.89258 12.6472C8.94408 12.7313 8.97852 12.8248 8.99391 12.9222C9.0093 13.0197 9.00534 13.1192 8.98227 13.2151C8.9592 13.311 8.91746 13.4015 8.85943 13.4813C8.80141 13.561 8.72824 13.6286 8.6441 13.6801C8.55997 13.7316 8.46651 13.7661 8.36906 13.7815C6.72469 14.0458 5.27531 14.4968 4.29844 15.0518C3.47344 15.5158 3 16.0446 3 16.5002C3 17.7527 6.42375 19.5002 12 19.5002C17.5763 19.5002 21 17.7527 21 16.5002C21 16.0446 20.5266 15.5158 19.7016 15.048C18.7209 14.493 17.2753 14.0421 15.6309 13.7777C15.5314 13.7647 15.4355 13.7319 15.3489 13.6811C15.2623 13.6304 15.1868 13.5628 15.1268 13.4823C15.0668 13.4019 15.0236 13.3102 14.9997 13.2127C14.9758 13.1153 14.9717 13.014 14.9876 12.9149C15.0035 12.8158 15.0392 12.7209 15.0925 12.6359C15.1458 12.5508 15.2156 12.4773 15.2978 12.4198C15.38 12.3622 15.4729 12.3217 15.571 12.3007C15.6691 12.2796 15.7705 12.2785 15.8691 12.2974C17.7113 12.5927 19.2919 13.0924 20.4412 13.743C22.1428 14.7068 22.5 15.7746 22.5 16.5002Z" fill="#3F3F3F"/>
</g>
<defs>
<clipPath id="clip0_2468_3201">
<rect width="24" height="24" fill="white"/>
</clipPath>
</defs>
</svg>
