<svg width="24" height="24" viewBox="0 0 24 24" fill="none" xmlns="http://www.w3.org/2000/svg">
<path d="M7.47826 10.2V7.32C7.47826 6.17426 7.91801 5.07546 8.70077 4.2653C9.48353 3.45514 10.5452 3 11.6522 3H15.8261C16.9331 3 17.9947 3.45514 18.7775 4.2653C19.5602 5.07546 20 6.17426 20 7.32V11.5392C20.0001 11.6062 19.9911 11.6729 19.973 11.7372L18.6087 16.68V20.28C18.6087 20.471 18.5354 20.6541 18.4049 20.7891C18.2745 20.9241 18.0975 21 17.913 21H8.17391C7.98941 21 7.81247 20.9241 7.68201 20.7891C7.55155 20.6541 7.47826 20.471 7.47826 20.28V16.68L4.15217 13.2771C4.05355 13.1493 3.99988 12.9906 4 12.8271V10.2C4 9.62713 4.21988 9.07773 4.61126 8.67265C5.00264 8.26757 5.53346 8.04 6.08696 8.04H7.47826" stroke="#3F3F3F" stroke-width="1.5" stroke-linecap="round" stroke-linejoin="round"/>
</svg>
