<svg width="24" height="24" viewBox="0 0 24 24" fill="none" xmlns="http://www.w3.org/2000/svg">
<mask id="mask0_2293_2390" style="mask-type:luminance" maskUnits="userSpaceOnUse" x="0" y="0" width="24" height="24">
<path d="M24 0.571289H0V23.4284H24V0.571289Z" fill="white"/>
</mask>
<g mask="url(#mask0_2293_2390)">
<path d="M20 4.38086H4C2.89543 4.38086 2 5.23365 2 6.28561V17.7142C2 18.7661 2.89543 19.6189 4 19.6189H20C21.1045 19.6189 22 18.7661 22 17.7142V6.28561C22 5.23365 21.1045 4.38086 20 4.38086ZM20 6.28561V9.14276H4V6.28561H20ZM4 17.7142V11.9999H20V17.7142H4ZM9.5 13.9046H6.5C6.22385 13.9046 6 14.1179 6 14.3808V15.3332C6 15.5963 6.22385 15.8094 6.5 15.8094H9.5C9.77615 15.8094 10 15.5963 10 15.3332V14.3808C10 14.1179 9.77615 13.9046 9.5 13.9046Z" fill="#3F3F3F"/>
</g>
</svg>
