<svg width="24" height="24" viewBox="0 0 24 24" fill="none" xmlns="http://www.w3.org/2000/svg">
<path d="M7.00002 6.0049C6.80224 6.0049 6.6089 6.06355 6.44445 6.17343C6.28 6.28331 6.15182 6.43949 6.07614 6.62222C6.00045 6.80494 5.98065 7.00601 6.01923 7.19999C6.05782 7.39397 6.15306 7.57215 6.29291 7.71201C6.43276 7.85186 6.61095 7.9471 6.80493 7.98568C6.99891 8.02427 7.19997 8.00447 7.3827 7.92878C7.56543 7.85309 7.7216 7.72492 7.83149 7.56047C7.94137 7.39602 8.00002 7.20268 8.00002 7.0049C8.00002 6.73968 7.89466 6.48533 7.70712 6.29779C7.51959 6.11026 7.26523 6.0049 7.00002 6.0049ZM21.71 11.7849L12.23 2.3249C12.1368 2.22436 12.0239 2.14407 11.8983 2.08903C11.7727 2.03398 11.6371 2.00534 11.5 2.0049H5.50002C5.36841 2.00414 5.23795 2.02936 5.11611 2.07913C4.99427 2.12889 4.88346 2.20222 4.79002 2.2949L2.29002 4.7849C2.19734 4.87834 2.12401 4.98916 2.07425 5.11099C2.02448 5.23283 1.99926 5.36329 2.00002 5.4949V11.4949C2.0037 11.7597 2.10728 12.0133 2.29002 12.2049L11.78 21.7049C11.9717 21.8876 12.2253 21.9912 12.49 21.9949C12.6216 21.9957 12.7521 21.9704 12.8739 21.9207C12.9958 21.8709 13.1066 21.7976 13.2 21.7049L21.71 13.1949C21.8027 13.1015 21.876 12.9906 21.9258 12.8688C21.9756 12.747 22.0008 12.6165 22 12.4849C21.9938 12.2236 21.8904 11.974 21.71 11.7849ZM12.49 19.5949L4.00002 11.0949V5.9049L5.90002 4.0049H11.08L19.58 12.4949L12.49 19.5949Z" fill="#3F3F3F"/>
</svg>
