<svg width="24" height="24" viewBox="0 0 24 24" fill="none" xmlns="http://www.w3.org/2000/svg">
<mask id="mask0_2293_2391" style="mask-type:luminance" maskUnits="userSpaceOnUse" x="0" y="0" width="24" height="24">
<path d="M24 0.631836H0V23.3687H24V0.631836Z" fill="white"/>
</mask>
<g mask="url(#mask0_2293_2391)">
<path d="M10.685 2.07798C10.7559 2.01185 10.8121 1.93302 10.8505 1.84609C10.8889 1.75917 10.9086 1.66587 10.9086 1.57164C10.9086 1.47741 10.8888 1.38412 10.8503 1.29722C10.8119 1.21031 10.7556 1.13152 10.6847 1.06543C10.6138 0.999331 10.5297 0.947256 10.4374 0.912233C10.345 0.877208 10.2463 0.859934 10.1468 0.861416C10.0474 0.862898 9.94921 0.883106 9.85809 0.920864C9.76696 0.958621 9.68467 1.01317 9.616 1.08135L7.866 2.76387C7.72797 2.89678 7.65063 3.07574 7.65063 3.26219C7.65063 3.44863 7.72797 3.62761 7.866 3.7605L9.616 5.44398C9.68467 5.51215 9.76696 5.56671 9.85809 5.60446C9.94921 5.64222 10.0474 5.66243 10.1468 5.66392C10.2463 5.66539 10.345 5.64812 10.4374 5.6131C10.5297 5.57807 10.6138 5.52599 10.6847 5.4599C10.7556 5.3938 10.8119 5.31501 10.8503 5.2281C10.8888 5.1412 10.9086 5.04791 10.9086 4.95369C10.9086 4.85946 10.8889 4.76617 10.8505 4.67924C10.8121 4.5923 10.7559 4.51348 10.685 4.44734L10.147 3.93008C10.711 3.92534 11.326 3.92534 12 3.92534C14.1431 3.92534 15.6731 3.92629 16.836 4.07692C17.976 4.22471 18.6511 4.50324 19.148 4.98071C19.646 5.46008 19.938 6.11282 20.092 7.21461C20.2489 8.33534 20.25 9.8104 20.25 11.87C20.25 13.9305 20.248 15.4046 20.092 16.5263C19.938 17.6272 19.646 18.2809 19.148 18.7602C18.6511 19.2377 17.9769 19.5162 16.836 19.664C15.6731 19.8137 14.1431 19.8156 12 19.8156C9.857 19.8156 8.327 19.8137 7.164 19.664C6.024 19.5162 5.349 19.2377 4.852 18.7602C4.354 18.2809 4.062 17.6272 3.908 16.5263C3.752 15.4046 3.75 13.9305 3.75 11.87C3.75 9.8104 3.752 8.33629 3.908 7.21461C4.062 6.11282 4.354 5.46008 4.852 4.98071C4.98796 4.84586 5.06251 4.66576 5.05956 4.47929C5.0566 4.29282 4.97639 4.11493 4.83621 3.98401C4.69603 3.85307 4.50715 3.77959 4.31029 3.77944C4.11344 3.77927 3.92441 3.85244 3.784 3.98313C2.964 4.77134 2.597 5.77366 2.421 7.02798C2.25 8.25292 2.25 9.82271 2.25 11.8169V11.923C2.25 13.9182 2.25 15.487 2.421 16.712C2.597 17.9672 2.964 18.9686 3.784 19.7569C4.604 20.547 5.65 20.9022 6.961 21.0718C8.237 21.2366 9.87 21.2366 11.942 21.2366H12.058C14.13 21.2366 15.7629 21.2366 17.0389 21.0718C18.3489 20.9013 19.3949 20.547 20.216 19.7569C21.036 18.9686 21.4029 17.9672 21.5789 16.712C21.75 15.487 21.75 13.9182 21.75 11.924V11.8169C21.75 9.82177 21.75 8.25292 21.5789 7.02798C21.4029 5.77271 21.036 4.77134 20.216 3.98313C19.396 3.19398 18.35 2.83871 17.0389 2.66913C15.7629 2.50429 14.13 2.50429 12.058 2.50429H11.983C11.361 2.50429 10.779 2.50429 10.237 2.50808L10.685 2.07798Z" fill="#3F3F3F"/>
<path d="M16.0302 10.1334C16.1626 9.99869 16.2347 9.82055 16.2313 9.63647C16.2279 9.45239 16.1491 9.27676 16.0118 9.14658C15.8743 9.01641 15.689 8.94183 15.4947 8.93859C15.3003 8.93534 15.1123 9.00366 14.9702 9.12917L10.5001 13.3639L9.03015 11.9713C8.96148 11.9015 8.87868 11.8455 8.78668 11.8067C8.69468 11.7678 8.59538 11.7469 8.49467 11.7452C8.39396 11.7436 8.29394 11.7611 8.20055 11.7968C8.10716 11.8326 8.02232 11.8858 7.95111 11.9532C7.8799 12.0207 7.82375 12.1011 7.78603 12.1896C7.74831 12.278 7.72978 12.3728 7.73156 12.4682C7.73334 12.5636 7.75538 12.6576 7.79636 12.7448C7.83736 12.8319 7.89646 12.9104 7.97015 12.9754L9.97015 14.8702C10.1108 15.0033 10.3014 15.078 10.5001 15.078C10.6989 15.078 10.8895 15.0033 11.0301 14.8702L16.0302 10.1334Z" fill="#3F3F3F"/>
</g>
</svg>
