<svg width="24" height="24" viewBox="0 0 24 24" fill="none" xmlns="http://www.w3.org/2000/svg">
<path d="M12 6.31543L13.434 8.94651L16.5 9.36856L14.25 11.2891L15 14.1312L12 12.5325L9 14.1312L9.75 11.2891L7.5 9.36856L10.65 8.94651L12 6.31543Z" fill="#3F3F3F"/>
<path d="M13.302 21.9473L12 21.2368L15 16.2631H19.5C19.6971 16.2634 19.8923 16.2269 20.0744 16.1555C20.2565 16.0842 20.422 15.9795 20.5613 15.8475C20.7007 15.7155 20.8112 15.5588 20.8864 15.3862C20.9617 15.2137 21.0003 15.0287 21 14.8421V6.31574C21.0003 6.12904 20.9617 5.94413 20.8864 5.7716C20.8112 5.59906 20.7007 5.44229 20.5613 5.31028C20.422 5.17826 20.2565 5.0736 20.0744 5.00228C19.8923 4.93098 19.6971 4.89441 19.5 4.89469H4.5C4.30293 4.89441 4.10775 4.93098 3.92563 5.00228C3.74351 5.0736 3.57803 5.17826 3.43868 5.31028C3.29933 5.44229 3.18885 5.59906 3.11357 5.7716C3.03831 5.94413 2.99971 6.12904 3 6.31574V14.8421C2.99971 15.0287 3.03831 15.2137 3.11357 15.3862C3.18885 15.5588 3.29933 15.7155 3.43868 15.8475C3.57803 15.9795 3.74351 16.0842 3.92563 16.1555C4.10775 16.2269 4.30293 16.2634 4.5 16.2631H11.25V17.6842H4.5C3.70435 17.6842 2.94129 17.3847 2.37868 16.8517C1.81607 16.3187 1.5 15.5958 1.5 14.8421V6.31574C1.49991 5.94247 1.57743 5.57286 1.72816 5.22801C1.87889 4.88314 2.09987 4.56979 2.37847 4.30586C2.65705 4.04193 2.98781 3.83258 3.35184 3.68978C3.71585 3.54698 4.106 3.47354 4.5 3.47363H19.5C19.894 3.47354 20.2841 3.54698 20.6481 3.68978C21.0121 3.83258 21.3429 4.04193 21.6216 4.30586C21.9001 4.56979 22.1211 4.88314 22.2719 5.22801C22.4225 5.57286 22.5001 5.94247 22.5 6.31574V14.8421C22.5 15.5958 22.1839 16.3187 21.6213 16.8517C21.0587 17.3847 20.2956 17.6842 19.5 17.6842H15.8737L13.302 21.9473Z" fill="#3F3F3F"/>
</svg>
