<svg width="24" height="24" viewBox="0 0 24 24" fill="none" xmlns="http://www.w3.org/2000/svg">
<path d="M15.076 14.5501C14.88 14.5501 14.7156 14.4872 14.5829 14.3615C14.4496 14.2358 14.3829 14.0802 14.3829 13.8945V10.105C14.3829 9.91931 14.4496 9.76362 14.5829 9.63794C14.7156 9.51162 14.88 9.44847 15.076 9.44847H17.576C17.772 9.44847 17.9363 9.51162 18.0689 9.63794C18.2023 9.76362 18.2689 9.91931 18.2689 10.105V13.8945C18.2689 14.0802 18.2023 14.2358 18.0689 14.3615C17.9363 14.4878 17.772 14.551 17.576 14.551L15.076 14.5501ZM15.268 13.7126H17.384V10.2869H15.268V13.7126ZM6.61394 13.7126H9.17195C9.29995 13.7126 9.40561 13.752 9.48894 13.831C9.57227 13.9099 9.61394 14.0097 9.61394 14.1303C9.61394 14.251 9.57227 14.3511 9.48894 14.4307C9.40561 14.5103 9.29995 14.5501 9.17195 14.5501H6.42194C6.22594 14.5501 6.06161 14.4872 5.92894 14.3615C5.79561 14.2358 5.72894 14.0802 5.72894 13.8945V12.3645C5.72894 12.1813 5.80894 12.0139 5.96894 11.8624C6.12894 11.7108 6.30561 11.635 6.49894 11.635H8.72894V10.2869H6.17294C6.04494 10.2869 5.93927 10.2474 5.85594 10.1685C5.77261 10.0895 5.73094 9.98973 5.73094 9.8691C5.73094 9.74847 5.77261 9.64836 5.85594 9.56878C5.93927 9.4892 6.04494 9.44941 6.17294 9.44941H8.92294C9.11894 9.44941 9.28327 9.51226 9.41594 9.63794C9.54927 9.76362 9.61594 9.91931 9.61594 10.105V11.635C9.61594 11.8181 9.53594 11.9855 9.37594 12.1371C9.21594 12.2887 9.03929 12.3645 8.84595 12.3645H6.61594L6.61394 13.7126ZM4.57594 18.4305C4.11594 18.4305 3.73161 18.2846 3.42294 17.9928C3.11427 17.701 2.96027 17.3369 2.96094 16.9004V7.20889C2.96094 6.77247 3.11494 6.40805 3.42294 6.11562C3.73094 5.8232 4.11527 5.67731 4.57594 5.67794H7.49895V4.25689C7.49895 4.12236 7.54695 4.00994 7.64294 3.91962C7.73894 3.82868 7.85795 3.7832 7.99995 3.7832C8.14195 3.7832 8.26062 3.82868 8.35595 3.91962C8.45129 4.01057 8.49895 4.12299 8.49895 4.25689V5.67794H15.4989V4.25689C15.4989 4.12236 15.5469 4.00994 15.6429 3.91962C15.7389 3.82868 15.858 3.7832 16 3.7832C16.142 3.7832 16.2607 3.82868 16.356 3.91962C16.4513 4.01057 16.4989 4.12299 16.4989 4.25689V5.67794H19.422C19.882 5.67794 20.2663 5.82383 20.5749 6.11562C20.8836 6.40741 21.0376 6.77152 21.0369 7.20794V16.9004C21.0369 17.3362 20.8829 17.7004 20.5749 17.9928C20.2669 18.2852 19.8827 18.4311 19.422 18.4305H4.57594ZM4.57594 17.4831H11.5559V16.7006C11.5559 16.5793 11.5979 16.4792 11.6819 16.4002C11.7653 16.3207 11.8706 16.2809 11.9979 16.2809C12.1253 16.2809 12.2309 16.3207 12.3149 16.4002C12.3989 16.4798 12.4409 16.58 12.4409 16.7006V17.4831H19.422C19.5753 17.4831 19.7163 17.4225 19.8449 17.3012C19.9736 17.18 20.0376 17.0463 20.0369 16.9004V7.20889C20.0369 7.06299 19.9729 6.9291 19.8449 6.8072C19.7169 6.68531 19.576 6.62468 19.422 6.62531H12.4419V7.40878C12.4419 7.53004 12.3999 7.63015 12.3159 7.7091C12.2326 7.78804 12.1273 7.82752 12 7.82752C11.8726 7.82752 11.7669 7.78804 11.6829 7.7091C11.5989 7.63015 11.5569 7.53004 11.5569 7.40878V6.62531H4.57594C4.42261 6.62531 4.28161 6.68594 4.15294 6.8072C4.02427 6.92847 3.96027 7.06204 3.96094 7.20794V16.9004C3.96094 17.0457 4.02494 17.1793 4.15294 17.3012C4.28094 17.4231 4.42194 17.4838 4.57594 17.4831ZM11.9989 10.9245C11.8716 10.9245 11.7659 10.885 11.6819 10.806C11.5979 10.7271 11.5559 10.6273 11.5559 10.5067C11.5559 10.386 11.5976 10.2859 11.6809 10.2064C11.7643 10.1268 11.8696 10.087 11.9969 10.087C12.1243 10.087 12.2299 10.1265 12.3139 10.2054C12.3979 10.2844 12.4399 10.3842 12.4399 10.5048C12.4399 10.6254 12.3983 10.7255 12.3149 10.8051C12.2316 10.8847 12.1263 10.9245 11.9989 10.9245ZM11.9989 14.0223C11.8716 14.0223 11.7659 13.9829 11.6819 13.904C11.5979 13.825 11.5559 13.7249 11.5559 13.6036C11.5559 13.4823 11.5976 13.3823 11.6809 13.3033C11.7643 13.2244 11.8696 13.1846 11.9969 13.184C12.1243 13.1833 12.2299 13.2228 12.3139 13.3023C12.3979 13.3819 12.4399 13.4817 12.4399 13.6017C12.4399 13.7217 12.3983 13.8221 12.3149 13.903C12.2316 13.9838 12.1263 14.0236 11.9989 14.0223Z" fill="#3F3F3F"/>
</svg>
