<svg width="25" height="25" viewBox="0 0 25 25" fill="none" xmlns="http://www.w3.org/2000/svg">
<path fill-rule="evenodd" clip-rule="evenodd" d="M3.79064 3.80861C3.65208 3.75036 3.49922 3.73509 3.35188 3.76477C3.20454 3.79446 3.06952 3.86772 2.96432 3.97508C2.85912 4.08243 2.78861 4.21891 2.76192 4.36682C2.73523 4.51474 2.7536 4.66726 2.81464 4.80461L5.90764 11.7496H13.4996C13.6986 11.7496 13.8893 11.8286 14.03 11.9693C14.1706 12.1099 14.2496 12.3007 14.2496 12.4996C14.2496 12.6985 14.1706 12.8893 14.03 13.0299C13.8893 13.1706 13.6986 13.2496 13.4996 13.2496H5.90764L2.81464 20.1946C2.7536 20.332 2.73523 20.4845 2.76192 20.6324C2.78861 20.7803 2.85912 20.9168 2.96432 21.0241C3.06952 21.1315 3.20454 21.2048 3.35188 21.2344C3.49922 21.2641 3.65208 21.2488 3.79064 21.1906L22.7906 13.1906C22.9265 13.1333 23.0425 13.0371 23.124 12.9142C23.2056 12.7913 23.2491 12.6471 23.2491 12.4996C23.2491 12.3521 23.2056 12.2079 23.124 12.085C23.0425 11.9621 22.9265 11.8659 22.7906 11.8086L3.79064 3.80861Z" fill="#3F3F3F"/>
</svg>
