<svg width="24" height="24" viewBox="0 0 24 24" fill="none" xmlns="http://www.w3.org/2000/svg">
<g clip-path="url(#clip0_2293_2392)">
<mask id="mask0_2293_2392" style="mask-type:luminance" maskUnits="userSpaceOnUse" x="0" y="0" width="24" height="24">
<path d="M24 0H0V24H24V0Z" fill="white"/>
</mask>
<g mask="url(#mask0_2293_2392)">
<path d="M20.2101 14.0742C19.7251 13.6707 19.4582 13.0617 19.4901 12.4309C19.4901 12.2906 19.4901 12.1403 19.4901 12C19.4901 11.8597 19.4901 11.7094 19.4901 11.5691C19.4582 10.9383 19.7251 10.3293 20.2101 9.92587L21.01 9.26456C21.3862 8.95336 21.4834 8.41563 21.2401 7.99202L20.08 5.98803C19.9026 5.67987 19.5752 5.48918 19.2201 5.48703C19.0998 5.48502 18.9804 5.50894 18.8701 5.55717L17.8701 5.91789C17.647 6.00535 17.4096 6.04956 17.17 6.04815C16.7869 6.04716 16.412 5.93586 16.09 5.72751C15.855 5.56478 15.6076 5.42072 15.3501 5.29665C14.7874 5.0075 14.3943 4.46874 14.29 3.84376L14.1201 2.84176C14.0408 2.35173 13.6155 1.9937 13.12 2.00008H10.8201C10.3247 1.9937 9.89931 2.35173 9.82008 2.84176L9.65008 3.84376C9.55457 4.46084 9.17742 4.99804 8.63008 5.29665C8.37258 5.42072 8.12515 5.56478 7.89007 5.72751C7.56817 5.93586 7.19331 6.04716 6.81007 6.04815C6.57061 6.04956 6.33307 6.00535 6.11008 5.91789L5.11008 5.55717C4.99978 5.50894 4.88041 5.48502 4.76008 5.48703C4.40496 5.48918 4.07763 5.67987 3.90007 5.98803L2.76007 7.99202C2.51901 8.41797 2.6205 8.95612 3.00007 9.26456L3.80008 9.92587C4.28513 10.3293 4.55195 10.9383 4.52008 11.5691C4.52008 11.7094 4.52008 11.8597 4.52008 12C4.52008 12.1403 4.52008 12.2906 4.52008 12.4309C4.55195 13.0617 4.28513 13.6707 3.80008 14.0742L3.00007 14.7355C2.6205 15.0439 2.51901 15.582 2.76007 16.008L3.92008 18.012C4.09763 18.3201 4.42497 18.5108 4.78008 18.513C4.90042 18.515 5.01977 18.491 5.13007 18.4429L6.13008 18.0822C6.35307 17.9947 6.59062 17.9504 6.83008 17.9519C7.2133 17.9528 7.58817 18.0642 7.91008 18.2725C8.14516 18.4352 8.39257 18.5793 8.65008 18.7034C9.21277 18.9925 9.60586 19.5313 9.71008 20.1563L9.88008 21.1583C9.95931 21.6483 10.3847 22.0063 10.8801 21.9999H13.18C13.6755 22.0063 14.1008 21.6483 14.1801 21.1583L14.35 20.1563C14.4543 19.5313 14.8474 18.9925 15.4101 18.7034C15.6676 18.5793 15.915 18.4352 16.15 18.2725C16.472 18.0642 16.8469 17.9528 17.23 17.9519C17.4696 17.9504 17.707 17.9947 17.9301 18.0822L18.9301 18.4429C19.0404 18.491 19.1598 18.515 19.2801 18.513C19.6352 18.5108 19.9626 18.3201 20.14 18.012L21.3001 16.008C21.5281 15.5678 21.4005 15.0269 21.0001 14.7355L20.2101 14.0742ZM12.0001 17.511C8.96251 17.511 6.50008 15.0437 6.50008 12C6.50008 8.95638 8.96251 6.48903 12.0001 6.48903C15.0376 6.48903 17.5 8.95638 17.5 12C17.5 13.4616 16.9207 14.8633 15.8892 15.8969C14.8578 16.9304 13.4588 17.511 12.0001 17.511ZM12.0001 9.99601C10.8955 9.99601 10.0001 10.8932 10.0001 12C10.0001 13.1067 10.8955 14.004 12.0001 14.004C13.1047 14.004 14.0001 13.1067 14.0001 12C14.0001 10.8932 13.1047 9.99601 12.0001 9.99601Z" fill="#3F3F3F"/>
</g>
</g>
<defs>
<clipPath id="clip0_2293_2392">
<rect width="24" height="24" fill="white"/>
</clipPath>
</defs>
</svg>
