<svg width="24" height="24" viewBox="0 0 24 24" fill="none" xmlns="http://www.w3.org/2000/svg">
<path d="M12 2.99991L12.394 2.0799C12.2695 2.02654 12.1355 1.99902 12 1.99902C11.8645 1.99902 11.7305 2.02654 11.606 2.0799L12 2.99991ZM12 20.9999L11.504 21.8679C11.6551 21.9542 11.826 21.9996 12 21.9996C12.174 21.9996 12.345 21.9542 12.496 21.8679L12 20.9999ZM11.606 2.0799L5.212 4.81991L6 6.65991L12.394 3.91991L11.606 2.0799ZM4 6.65891V13.5189H6V6.65991L4 6.65891ZM7.527 19.5959L11.504 21.8679L12.496 20.132L8.51901 17.8589L7.527 19.5959ZM12.496 21.8679L16.473 19.5959L15.481 17.8589L11.504 20.132L12.496 21.8679ZM20 13.5179V6.65991H18V13.52L20 13.5179ZM18.788 4.82091L12.394 2.0799L11.606 3.9189L18 6.65991L18.788 4.82091ZM20 6.65991C19.9999 6.26856 19.8851 5.88584 19.6697 5.55912C19.4543 5.23242 19.1477 4.9751 18.788 4.82091L18 6.65991H20ZM16.473 19.5959C17.5446 18.9836 18.4354 18.0998 19.0547 17.0321C19.6741 15.9646 20.0003 14.7521 20 13.5179H18C17.9999 14.3994 17.7667 15.2652 17.3242 16.0276C16.8816 16.7898 16.2464 17.4216 15.481 17.8589L16.473 19.5959ZM4 13.5189C3.99995 14.753 4.32615 15.9641 4.94555 17.0315C5.56494 18.0989 6.45551 18.9837 7.527 19.5959L8.51901 17.8589C7.75407 17.4218 7.11824 16.7902 6.67588 16.0282C6.23352 15.2663 6.00036 14.3999 6 13.5189H4ZM5.212 4.81991C4.85216 4.97416 4.54551 5.23164 4.33006 5.55855C4.11461 5.88545 3.99986 6.2674 4 6.65891L6 6.65991L5.212 4.81991Z" fill="#3F3F3F"/>
<path d="M15 10L11 14L9 12" stroke="#3F3F3F" stroke-width="2" stroke-linecap="round" stroke-linejoin="round"/>
</svg>
