<svg width="24" height="24" viewBox="0 0 24 24" fill="none" xmlns="http://www.w3.org/2000/svg">
<path d="M18.75 6C18.75 5.80109 18.671 5.61033 18.5304 5.46967C18.3897 5.32901 18.1989 5.25 18 5.25C17.8011 5.25 17.6103 5.32901 17.4696 5.46967C17.329 5.61033 17.25 5.80109 17.25 6V10.872L7.84949 5.418C7.03949 4.95 6 5.517 6 6.462V17.538C6 18.4831 7.038 19.0531 7.84949 18.5835L17.25 13.1295V18C17.25 18.1989 17.329 18.3897 17.4696 18.5304C17.6103 18.671 17.8011 18.75 18 18.75C18.1989 18.75 18.3897 18.671 18.5304 18.5304C18.671 18.3897 18.75 18.1989 18.75 18V6Z" fill="#3F3F3F"/>
</svg>
