<svg width="25" height="25" viewBox="0 0 25 25" fill="none" xmlns="http://www.w3.org/2000/svg">
<path d="M12.5 2.5C6.986 2.5 2.5 6.986 2.5 12.5V16.643C2.5 17.667 3.397 18.5 4.5 18.5H5.5C5.76522 18.5 6.01957 18.3946 6.20711 18.2071C6.39464 18.0196 6.5 17.7652 6.5 17.5V12.357C6.5 12.0918 6.39464 11.8374 6.20711 11.6499C6.01957 11.4624 5.76522 11.357 5.5 11.357H4.592C5.148 7.487 8.478 4.5 12.5 4.5C16.522 4.5 19.852 7.487 20.408 11.357H19.5C19.2348 11.357 18.9804 11.4624 18.7929 11.6499C18.6054 11.8374 18.5 12.0918 18.5 12.357V18.5C18.5 19.603 17.603 20.5 16.5 20.5H14.5V19.5H10.5V22.5H16.5C18.706 22.5 20.5 20.706 20.5 18.5C21.603 18.5 22.5 17.667 22.5 16.643V12.5C22.5 6.986 18.014 2.5 12.5 2.5Z" fill="#3F3F3F"/>
</svg>
