<svg width="24" height="24" viewBox="0 0 24 24" fill="none" xmlns="http://www.w3.org/2000/svg">
<path d="M20.8004 7.79663C21.8411 9.97328 22.0388 12.4583 21.355 14.7722C20.6713 17.086 19.1547 19.0645 17.098 20.3258C15.0413 21.5872 12.5903 22.042 10.2179 21.6026C7.84555 21.163 5.72013 19.8603 4.25179 17.9458C2.78344 16.0314 2.0763 13.6409 2.26682 11.2358C2.45735 8.83058 3.53204 6.58127 5.28348 4.92188C7.03492 3.26248 9.33895 2.31067 11.7509 2.25014C14.1629 2.18962 16.5117 3.02466 18.3442 4.59412L20.4695 2.46787C20.6102 2.32714 20.8011 2.24808 21.0001 2.24808C21.1991 2.24808 21.39 2.32714 21.5307 2.46787C21.6715 2.6086 21.7505 2.79947 21.7505 2.99849C21.7505 3.19752 21.6715 3.38839 21.5307 3.52912L15.7126 9.34815L12.1773 12.8835L9.93197 15.1288C10.5125 15.5128 11.1884 15.7276 11.884 15.7493C12.5796 15.7709 13.2675 15.5986 13.8708 15.2515C14.474 14.9045 14.9688 14.3963 15.2997 13.7841C15.6306 13.1718 15.7846 12.4796 15.7445 11.7848C15.7333 11.5859 15.8016 11.3906 15.9343 11.2421C16.067 11.0935 16.2534 11.0038 16.4523 10.9925C16.6512 10.9814 16.8464 11.0497 16.995 11.1824C17.1435 11.3152 17.2333 11.5015 17.2445 11.7004C17.305 12.7624 17.0414 13.8177 16.4888 14.7265C15.9361 15.6355 15.1204 16.355 14.1497 16.79C13.1789 17.2249 12.0989 17.3548 11.0528 17.1622C10.0067 16.9697 9.04367 16.4639 8.29135 15.7119C7.35571 14.7727 6.81 13.5145 6.76379 12.1896C6.71758 10.8647 7.1743 9.57135 8.04227 8.56935C8.91017 7.56728 10.1251 6.93067 11.443 6.78734C12.7609 6.64401 14.0843 7.00457 15.1473 7.79663L17.2782 5.66193C15.7152 4.36424 13.7279 3.68978 11.6979 3.76807C9.6679 3.84636 7.73845 4.6719 6.28003 6.08612C4.82163 7.50035 3.93715 9.4035 3.79646 11.4302C3.65578 13.4568 4.26881 15.4639 5.51782 17.0661C6.76684 18.6682 8.56375 19.7524 10.5635 20.1105C12.5631 20.4685 14.6246 20.0751 16.3519 19.0058C18.0792 17.9365 19.3506 16.2667 19.9218 14.3173C20.493 12.3677 20.3238 10.2759 19.4467 8.4435C19.3609 8.26395 19.3499 8.0577 19.4162 7.87013C19.4825 7.68255 19.6206 7.52895 19.8001 7.44318C19.9796 7.3574 20.1859 7.34645 20.3735 7.41273C20.561 7.47902 20.7146 7.61708 20.8004 7.79663Z" fill="#3F3F3F"/>
</svg>
