<svg width="24" height="24" viewBox="0 0 24 24" fill="none" xmlns="http://www.w3.org/2000/svg">
<path d="M19 17V19H7V17C7 17 7 13 13 13C19 13 19 17 19 17ZM16 8C16 7.40666 15.8241 6.82664 15.4944 6.3333C15.1648 5.83994 14.6962 5.45543 14.1481 5.22837C13.5998 5.0013 12.9966 4.9419 12.4147 5.05765C11.8328 5.1734 11.2982 5.45913 10.8786 5.87868C10.4591 6.29824 10.1734 6.83279 10.0577 7.41474C9.94192 7.99667 10.0013 8.59984 10.2284 9.14808C10.4554 9.69624 10.8399 10.1648 11.3333 10.4944C11.8266 10.8241 12.4066 11 13 11C13.7957 11 14.5587 10.6839 15.1214 10.1214C15.6839 9.55872 16 8.79568 16 8ZM19.2 13.06C19.7466 13.5643 20.1874 14.1725 20.4964 14.8489C20.8054 15.5254 20.9766 16.2566 21 17V19H24V17C24 17 24 13.55 19.2 13.06ZM18 5C17.6978 5.00002 17.3976 5.04726 17.11 5.14C17.695 5.97898 18.0087 6.97718 18.0087 8C18.0087 9.0228 17.695 10.021 17.11 10.86C17.3976 10.9527 17.6978 11 18 11C18.7957 11 19.5587 10.6839 20.1214 10.1214C20.6839 9.55872 21 8.79568 21 8C21 7.20435 20.6839 6.4413 20.1214 5.87868C19.5587 5.31607 18.7957 5 18 5ZM8 10H5V7H3V10H0V12H3V15H5V12H8V10Z" fill="#3F3F3F"/>
</svg>
