<svg width="25" height="25" viewBox="0 0 25 25" fill="none" xmlns="http://www.w3.org/2000/svg">
<path d="M19.7918 15.6252V19.6762C19.7918 21.9939 19.0252 22.9168 16.5512 22.9168H8.44808C6.13141 22.9168 5.2085 22.1502 5.2085 19.6762V15.6252C5.2085 14.6676 5.3971 13.7194 5.76354 12.8348C6.12998 11.9501 6.66708 11.1463 7.34418 10.4692C8.02127 9.79208 8.8251 9.25498 9.70976 8.88854C10.5944 8.5221 11.5426 8.3335 12.5002 8.3335C13.4577 8.3335 14.4059 8.5221 15.2906 8.88854C16.1752 9.25498 16.9791 9.79208 17.6561 10.4692C18.3332 11.1463 18.8703 11.9501 19.2368 12.8348C19.6032 13.7194 19.7918 14.6676 19.7918 15.6252Z" stroke="#F2F6FF" stroke-width="1.5" stroke-linecap="round" stroke-linejoin="round"/>
<path d="M16.6668 15.6252C16.6668 14.5201 16.2279 13.4603 15.4465 12.6789C14.6651 11.8975 13.6052 11.4585 12.5002 11.4585C11.3951 11.4585 10.3353 11.8975 9.5539 12.6789C8.77249 13.4603 8.33351 14.5201 8.33351 15.6252M12.5002 17.7085L13.5418 15.6252M14.5835 8.3335V5.2085M10.4168 8.3335V5.2085M16.9918 5.2085H8.00851C7.08767 5.2085 6.62726 5.2085 6.22205 5.05016C6.0879 4.99863 5.95943 4.93335 5.83872 4.85537C5.47413 4.6262 5.21892 4.2637 4.70851 3.53975C4.31059 2.9762 4.11163 2.69391 4.18038 2.4637C4.20252 2.39034 4.24058 2.32276 4.29184 2.26579C4.45851 2.0835 4.81684 2.0835 5.53455 2.0835H19.4679C20.1856 2.0835 20.5439 2.0835 20.7095 2.26579C20.7616 2.32412 20.7988 2.39009 20.821 2.4637C20.8898 2.69391 20.6908 2.9762 20.2929 3.53975C19.7825 4.2637 19.5273 4.62516 19.1627 4.85537C19.042 4.93335 18.9135 4.99863 18.7793 5.05016C18.372 5.2085 17.9127 5.2085 16.9918 5.2085Z" stroke="#F2F6FF" stroke-width="1.5" stroke-linecap="round" stroke-linejoin="round"/>
</svg>
