<svg width="24" height="24" viewBox="0 0 24 24" fill="none" xmlns="http://www.w3.org/2000/svg">
<g clip-path="url(#clip0_5175_26070)">
<path d="M12.0201 2.8125C12.2281 2.00692 12.6981 1.29338 13.3561 0.784213C14.0141 0.275046 14.8227 -0.000833469 15.6547 1.89152e-06H15.7485C15.9474 1.89152e-06 16.1382 0.0790195 16.2788 0.219672C16.4195 0.360324 16.4985 0.55109 16.4985 0.750002C16.4985 0.948914 16.4195 1.13968 16.2788 1.28033C16.1382 1.42098 15.9474 1.5 15.7485 1.5H15.6547C15.1559 1.49996 14.6712 1.6657 14.2768 1.97116C13.8824 2.27662 13.6007 2.70449 13.476 3.1875C13.4263 3.3802 13.302 3.54525 13.1306 3.64634C12.9592 3.74744 12.7546 3.77629 12.5619 3.72656C12.3692 3.67684 12.2042 3.5526 12.1031 3.38118C12.002 3.20976 11.9731 3.0052 12.0229 2.8125H12.0201ZM20.9329 15.8991C20.8766 15.7705 20.7857 15.6602 20.6704 15.5803C19.0794 14.4872 18.7485 12.6225 18.7485 11.25C18.7485 9.59344 20.0113 8.15063 20.7641 7.43719C20.8382 7.3671 20.8971 7.28265 20.9375 7.189C20.9778 7.09535 20.9985 6.99446 20.9985 6.8925C20.9985 6.79054 20.9778 6.68966 20.9375 6.59601C20.8971 6.50235 20.8382 6.4179 20.7641 6.34781C19.5754 5.22563 17.6066 4.5 15.7485 4.5C14.4137 4.50119 13.1091 4.89683 11.9985 5.63719C10.703 4.76846 9.14525 4.37832 7.5932 4.53385C6.04116 4.68938 4.59181 5.38086 3.49444 6.48938C2.83841 7.15912 2.32367 7.95387 1.9808 8.82643C1.63793 9.69899 1.47391 10.6316 1.4985 11.5688C1.5353 13.1506 1.88705 14.7093 2.53318 16.1537C3.17931 17.5981 4.10686 18.8992 5.26162 19.9809C5.95706 20.638 6.87832 21.0028 7.83506 21H16.0551C16.5665 21.001 17.0728 20.8969 17.5424 20.6942C18.012 20.4915 18.435 20.1945 18.7851 19.8216C19.4336 19.1236 19.9946 18.3491 20.4557 17.5153C21.1138 16.3125 21.0294 16.125 20.9329 15.8991Z" fill="black"/>
</g>
<defs>
<clipPath id="clip0_5175_26070">
<rect width="24" height="24" fill="white"/>
</clipPath>
</defs>
</svg>
