<svg width="24" height="24" viewBox="0 0 24 24" fill="none" xmlns="http://www.w3.org/2000/svg">
<path fill-rule="evenodd" clip-rule="evenodd" d="M8.0166 5.18756C8.26314 4.82228 8.59717 4.52277 8.98905 4.31561C9.38092 4.10844 9.81852 4.00003 10.263 4H13.737C14.1815 4.00003 14.6191 4.10844 15.011 4.31561C15.4028 4.52277 15.7369 4.82228 15.9834 5.18756L16.7142 6.27111C16.7964 6.39281 16.9078 6.49259 17.0384 6.5616C17.169 6.6306 17.3149 6.66669 17.463 6.66667H18.3C19.0161 6.66667 19.7028 6.94762 20.2092 7.44772C20.7155 7.94781 21 8.62609 21 9.33333V17.3333C21 18.0406 20.7155 18.7189 20.2092 19.219C19.7028 19.719 19.0161 20 18.3 20H5.7C4.98392 20 4.29716 19.719 3.79081 19.219C3.28446 18.7189 3 18.0406 3 17.3333V9.33333C3 8.62609 3.28446 7.94781 3.79081 7.44772C4.29716 6.94762 4.98392 6.66667 5.7 6.66667H6.537C6.68513 6.66669 6.83098 6.6306 6.9616 6.5616C7.09223 6.49259 7.20359 6.39281 7.2858 6.27111L8.0166 5.18756ZM10.2 12.8889C10.2 12.4174 10.3896 11.9652 10.7272 11.6318C11.0648 11.2984 11.5226 11.1111 12 11.1111C12.4774 11.1111 12.9352 11.2984 13.2728 11.6318C13.6104 11.9652 13.8 12.4174 13.8 12.8889C13.8 13.3604 13.6104 13.8126 13.2728 14.146C12.9352 14.4794 12.4774 14.6667 12 14.6667C11.5226 14.6667 11.0648 14.4794 10.7272 14.146C10.3896 13.8126 10.2 13.3604 10.2 12.8889ZM12 9.33333C11.0452 9.33333 10.1295 9.70794 9.45442 10.3747C8.77928 11.0415 8.4 11.9459 8.4 12.8889C8.4 13.8319 8.77928 14.7363 9.45442 15.403C10.1295 16.0698 11.0452 16.4444 12 16.4444C12.9548 16.4444 13.8705 16.0698 14.5456 15.403C15.2207 14.7363 15.6 13.8319 15.6 12.8889C15.6 11.9459 15.2207 11.0415 14.5456 10.3747C13.8705 9.70794 12.9548 9.33333 12 9.33333Z" fill="#3F3F3F"/>
</svg>
