<svg width="24" height="24" viewBox="0 0 24 24" fill="none" xmlns="http://www.w3.org/2000/svg">
<path d="M21 11.6119V20.9022C21 21.1075 20.9209 21.3044 20.7803 21.4496C20.6397 21.5948 20.4489 21.6764 20.25 21.6764H15C14.8011 21.6764 14.6103 21.5948 14.4697 21.4496C14.3291 21.3044 14.25 21.1075 14.25 20.9022V15.87C14.25 15.7673 14.2105 15.6688 14.1402 15.5962C14.0698 15.5237 13.9745 15.4829 13.875 15.4829H10.125C10.0255 15.4829 9.93015 15.5237 9.8598 15.5962C9.78953 15.6688 9.75 15.7673 9.75 15.87V20.9022C9.75 21.1075 9.67095 21.3044 9.53032 21.4496C9.3897 21.5948 9.1989 21.6764 9 21.6764H3.75C3.55108 21.6764 3.36032 21.5948 3.21967 21.4496C3.07902 21.3044 3 21.1075 3 20.9022V11.6119C3.00019 11.2013 3.15834 10.8076 3.43969 10.5173L10.9397 2.77542C11.221 2.48526 11.6024 2.32227 12 2.32227C12.3976 2.32227 12.779 2.48526 13.0603 2.77542L20.5603 10.5173C20.8417 10.8076 20.9998 11.2013 21 11.6119Z" fill="#3F3F3F"/>
</svg>
