<svg width="24" height="24" viewBox="0 0 24 24" fill="none" xmlns="http://www.w3.org/2000/svg">
<path d="M19.3027 12.4238C19.6309 11.9902 19.8125 11.459 19.8125 10.9063C19.8125 10.0293 19.3223 9.19923 18.5332 8.73634C18.3301 8.61719 18.0988 8.55448 17.8633 8.5547H13.1797L13.2969 6.15431C13.3242 5.57423 13.1191 5.02345 12.7207 4.60353C12.5252 4.39655 12.2893 4.23188 12.0276 4.11967C11.7659 4.00747 11.4839 3.95013 11.1992 3.95119C10.1836 3.95119 9.28516 4.63478 9.01562 5.6133L7.33789 11.6875H7.33203V20.0469H16.5566C16.7363 20.0469 16.9121 20.0117 17.0742 19.9414C18.0039 19.5449 18.6035 18.6367 18.6035 17.6289C18.6035 17.3828 18.5684 17.1406 18.498 16.9063C18.8262 16.4727 19.0078 15.9414 19.0078 15.3887C19.0078 15.1426 18.9727 14.9004 18.9023 14.666C19.2305 14.2324 19.4121 13.7012 19.4121 13.1485C19.4082 12.9024 19.373 12.6582 19.3027 12.4238ZM4.1875 12.3125V19.4219C4.1875 19.7676 4.4668 20.0469 4.8125 20.0469H6.08203V11.6875H4.8125C4.4668 11.6875 4.1875 11.9668 4.1875 12.3125Z" fill="#3F3F3F"/>
</svg>
