<svg width="24" height="24" viewBox="0 0 24 24" fill="none" xmlns="http://www.w3.org/2000/svg">
<path fill-rule="evenodd" clip-rule="evenodd" d="M6 3C5.86083 3 5.72441 3.03873 5.606 3.11185C5.48758 3.18496 5.39185 3.28958 5.3295 3.414L3.0795 7.914C3.02723 8.01829 3.00001 8.13334 3 8.25V11.25C3 11.4489 3.07902 11.6397 3.21967 11.7803C3.36032 11.921 3.55109 12 3.75 12H4.5V20.25C4.5 20.4489 4.57902 20.6397 4.71967 20.7803C4.86032 20.921 5.05109 21 5.25 21H18.75C18.9489 21 19.1397 20.921 19.2803 20.7803C19.421 20.6397 19.5 20.4489 19.5 20.25V12H20.25C20.4489 12 20.6397 11.921 20.7803 11.7803C20.921 11.6397 21 11.4489 21 11.25V8.25C21 8.13334 20.9728 8.01829 20.9205 7.914L18.6705 3.414C18.6082 3.28958 18.5124 3.18496 18.394 3.11185C18.2756 3.03873 18.1392 3 18 3H6ZM19.5 8.427V10.5H16.5V9H15V10.5H12.75V9H11.25V10.5H9V9H7.5V10.5H4.5V8.427L6.4635 4.5H17.5365L19.5 8.427ZM9.75 15H11.25V13.5H9.75V15ZM12.75 15H14.25V13.5H12.75V15ZM11.25 17.25H9.75V15.75H11.25V17.25ZM12.75 17.25H14.25V15.75H12.75V17.25Z" fill="#3F3F3F"/>
</svg>
