<svg width="24" height="24" viewBox="0 0 24 24" fill="none" xmlns="http://www.w3.org/2000/svg">
<g clip-path="url(#clip0_2293_2394)">
<path d="M14.7489 1.6903C13.9345 2.25911 12.9938 2.59201 11.9997 2.59201C11.0059 2.59201 10.0641 2.25926 9.2495 1.69035L9.24597 1.68788C9.07591 1.567 8.87858 1.48881 8.67127 1.4596C8.46462 1.43048 8.2537 1.45081 8.05667 1.51897C6.81179 1.96267 5.65513 2.61285 4.63816 3.44089C4.478 3.57337 4.35286 3.74241 4.27431 3.9337C4.19555 4.12549 4.16619 4.3334 4.18902 4.53915L4.18946 4.54315C4.28853 5.50983 4.11434 6.46351 3.62099 7.2949C3.12812 8.1245 2.36678 8.74873 1.4568 9.14974L1.33163 9.21157C1.01791 9.38586 0.762545 9.68709 0.692999 10.0812L0.692739 10.0827C0.464486 11.3531 0.4644 12.6524 0.692479 13.9228C0.730421 14.1262 0.818907 14.317 0.949634 14.4786C1.08059 14.6405 1.24982 14.768 1.44206 14.8507L1.45121 14.8546L1.4602 14.8589L1.73017 14.9872L1.73748 14.9906C2.52102 15.3776 3.17307 15.974 3.61755 16.7083L3.6195 16.7115C4.11438 17.5431 4.28852 18.4971 4.18945 19.4637L4.18903 19.4678C4.16619 19.6735 4.19555 19.8814 4.27431 20.0732C4.35286 20.2645 4.478 20.4335 4.63817 20.566C5.65516 21.3941 6.81185 22.0443 8.05678 22.488C8.25396 22.5563 8.46509 22.5767 8.67195 22.5476C8.87941 22.5184 9.07691 22.4401 9.24707 22.3191L9.25069 22.3165C10.0652 21.7476 11.0071 21.4149 11.9997 21.4149C12.9929 21.4149 13.9344 21.7491 14.7492 22.316L14.7535 22.319C14.9236 22.4399 15.1209 22.5181 15.3282 22.5473C15.5348 22.5764 15.7457 22.5561 15.9427 22.488C17.1882 22.0441 18.3453 21.3935 19.3626 20.5649C19.7126 20.2803 19.85 19.8541 19.8101 19.4637C19.711 18.4974 19.8839 17.5447 20.3787 16.7118C20.871 15.8844 21.6315 15.259 22.5414 14.8589L22.6665 14.7961C22.9809 14.6219 23.2369 14.3204 23.3065 13.9257L23.3068 13.9242C23.5351 12.6533 23.5351 11.3536 23.3068 10.0827C23.228 9.64062 22.9153 9.31327 22.5538 9.1546L22.5465 9.15141L22.5393 9.14799L22.2693 9.01973L22.2621 9.01632L22.255 9.0127C21.4728 8.61189 20.8178 8.03553 20.3798 7.29506C19.8835 6.46299 19.711 5.50901 19.8101 4.54315L19.8102 4.5421C19.8508 4.15383 19.7139 3.72861 19.3626 3.44199C18.3449 2.61302 17.1871 1.96223 15.941 1.51833L14.7489 1.6903ZM14.7489 1.6903C15.0735 1.46346 15.516 1.36729 15.941 1.51833L14.7489 1.6903ZM15.7875 2.88631L15.5309 2.78558L15.3002 2.93314C14.3361 3.54977 13.2104 3.92411 11.9997 3.92411C10.7894 3.92411 9.66351 3.54877 8.69901 2.93292L8.46842 2.78568L8.21199 2.88631C7.33097 3.23208 6.50464 3.69655 5.75728 4.26593L5.5456 4.4272L5.56107 4.68592C5.62803 5.80619 5.39888 6.94425 4.79219 7.96646C4.18451 8.98718 3.28672 9.74681 2.25737 10.2497L2.01517 10.368L1.9776 10.626C1.84465 11.539 1.84465 12.4656 1.9776 13.3785L2.01517 13.6366L2.25737 13.7549C3.28678 14.2578 4.18455 15.0174 4.79222 16.0405C5.39867 17.0601 5.62804 18.1982 5.56107 19.3186L5.54561 19.5772L5.7571 19.7385C6.50439 20.3083 7.33072 20.7732 8.21181 21.1194L8.46856 21.2202L8.69936 21.0726C9.66339 20.456 10.7891 20.0816 11.9997 20.0816C13.2101 20.0816 14.336 20.457 15.3005 21.0728L15.5311 21.2201L15.7875 21.1194C16.6685 20.7737 17.4948 20.3092 18.2423 19.7398L18.4539 19.5785L18.4384 19.3198C18.3714 18.1982 18.6007 17.0602 19.2073 16.0394C19.8135 15.0179 20.7125 14.2578 21.7425 13.7535L21.9844 13.6351L22.0219 13.3773C22.1547 12.4652 22.1547 11.5394 22.0219 10.6273L21.9844 10.3695L21.7425 10.2511C20.7128 9.74689 19.8149 8.9871 19.2073 7.96521C18.6007 6.94432 18.3714 5.80632 18.4384 4.68472L18.4539 4.42602L18.2423 4.26477C17.4945 3.69514 16.6682 3.23193 15.7875 2.88631ZM11.9997 7.83924C13.1319 7.83924 14.2192 8.27625 15.022 9.05643C15.825 9.83685 16.2775 10.8968 16.2775 12.0035C16.2775 13.1101 15.825 14.17 15.022 14.9505C14.2192 15.7307 13.1319 16.1677 11.9997 16.1677C10.8676 16.1677 9.78029 15.7307 8.97748 14.9505C8.17442 14.17 7.72197 13.1101 7.72197 12.0035C7.72197 10.8968 8.17442 9.83685 8.97748 9.05643C9.78029 8.27625 10.8676 7.83924 11.9997 7.83924ZM11.9997 9.17134C11.2226 9.17134 10.4787 9.47145 9.93137 10.0033C9.38431 10.535 9.07826 11.2546 9.07826 12.0035C9.07826 12.7523 9.38431 13.4719 9.93137 14.0036C10.4787 14.5355 11.2226 14.8356 11.9997 14.8356C12.7769 14.8356 13.5208 14.5355 14.0681 14.0036C14.6152 13.4719 14.9213 12.7523 14.9213 12.0035C14.9213 11.2546 14.6152 10.535 14.0681 10.0033C13.5208 9.47145 12.7769 9.17134 11.9997 9.17134Z" fill="#3F3F3F"/>
<path d="M14.7489 1.6903C13.9345 2.25911 12.9938 2.59201 11.9997 2.59201C11.0059 2.59201 10.0641 2.25926 9.2495 1.69035L9.24597 1.68788C9.07591 1.567 8.87858 1.48881 8.67127 1.4596C8.46462 1.43048 8.2537 1.45081 8.05667 1.51897C6.81179 1.96267 5.65513 2.61285 4.63816 3.44089C4.478 3.57337 4.35286 3.74241 4.27431 3.9337C4.19555 4.12549 4.16619 4.3334 4.18902 4.53915L4.18946 4.54315C4.28853 5.50983 4.11434 6.46351 3.62099 7.2949C3.12812 8.1245 2.36678 8.74873 1.4568 9.14974L1.33163 9.21157C1.01791 9.38586 0.762545 9.68709 0.692999 10.0812L0.692739 10.0827C0.464486 11.3531 0.4644 12.6524 0.692479 13.9228C0.730421 14.1262 0.818907 14.317 0.949634 14.4786C1.08059 14.6405 1.24982 14.768 1.44206 14.8507L1.45121 14.8546L1.4602 14.8589L1.73017 14.9872L1.73748 14.9906C2.52102 15.3776 3.17307 15.974 3.61755 16.7083L3.6195 16.7115C4.11438 17.5431 4.28852 18.4971 4.18945 19.4637L4.18903 19.4678C4.16619 19.6735 4.19555 19.8814 4.27431 20.0732C4.35286 20.2645 4.478 20.4335 4.63817 20.566C5.65516 21.3941 6.81185 22.0443 8.05677 22.488C8.25396 22.5563 8.46509 22.5767 8.67195 22.5476C8.87941 22.5184 9.07691 22.4401 9.24707 22.3191L9.25069 22.3165C10.0652 21.7476 11.0071 21.4149 11.9997 21.4149C12.9929 21.4149 13.9344 21.7491 14.7492 22.316L14.7535 22.319C14.9236 22.4399 15.1209 22.5181 15.3282 22.5473C15.5348 22.5764 15.7457 22.5561 15.9427 22.488C17.1882 22.0441 18.3453 21.3935 19.3626 20.5649C19.7126 20.2803 19.85 19.8541 19.8101 19.4637C19.711 18.4974 19.8838 17.5447 20.3787 16.7118C20.871 15.8844 21.6315 15.259 22.5414 14.8589L22.6665 14.7961C22.9809 14.6219 23.2369 14.3204 23.3065 13.9257L23.3068 13.9242C23.5351 12.6533 23.5351 11.3536 23.3068 10.0827C23.228 9.64062 22.9153 9.31327 22.5538 9.1546L22.5465 9.15141L22.5393 9.14799L22.2693 9.01973L22.2621 9.01632L22.255 9.0127C21.4728 8.61188 20.8178 8.03553 20.3798 7.29506C19.8835 6.46298 19.711 5.50901 19.8101 4.54315L19.8102 4.5421C19.8508 4.15383 19.7139 3.72861 19.3626 3.44199C18.3449 2.61302 17.1871 1.96223 15.941 1.51833M14.7489 1.6903L15.941 1.51833M14.7489 1.6903C15.0735 1.46346 15.516 1.36729 15.941 1.51833M15.7875 2.88631L15.5309 2.78558L15.3002 2.93314C14.3361 3.54977 13.2104 3.92411 11.9997 3.92411C10.7894 3.92411 9.66351 3.54877 8.69901 2.93292L8.46842 2.78568L8.21199 2.88631C7.33097 3.23208 6.50464 3.69655 5.75728 4.26593L5.5456 4.4272L5.56107 4.68592C5.62803 5.80619 5.39888 6.94425 4.79219 7.96646C4.18451 8.98718 3.28672 9.74681 2.25737 10.2497L2.01517 10.368L1.9776 10.626C1.84465 11.539 1.84465 12.4656 1.9776 13.3785L2.01517 13.6366L2.25737 13.7549C3.28678 14.2578 4.18455 15.0174 4.79222 16.0405C5.39867 17.0601 5.62804 18.1982 5.56107 19.3186L5.54561 19.5772L5.75711 19.7385C6.50439 20.3083 7.33072 20.7732 8.21181 21.1194L8.46856 21.2202L8.69936 21.0726C9.66339 20.456 10.7891 20.0816 11.9997 20.0816C13.2101 20.0816 14.336 20.457 15.3005 21.0728L15.5311 21.2201L15.7875 21.1194C16.6685 20.7737 17.4948 20.3092 18.2423 19.7398L18.4539 19.5785L18.4384 19.3198C18.3714 18.1982 18.6007 17.0602 19.2073 16.0394C19.8135 15.0179 20.7125 14.2578 21.7425 13.7535L21.9844 13.6351L22.0219 13.3773C22.1547 12.4652 22.1547 11.5394 22.0219 10.6273L21.9844 10.3695L21.7425 10.2511C20.7128 9.74689 19.8149 8.9871 19.2073 7.96521C18.6007 6.94432 18.3714 5.80632 18.4384 4.68472L18.4539 4.42602L18.2423 4.26477C17.4945 3.69514 16.6682 3.23193 15.7875 2.88631ZM11.9997 7.83924C13.1319 7.83924 14.2192 8.27625 15.022 9.05643C15.825 9.83685 16.2775 10.8968 16.2775 12.0035C16.2775 13.1101 15.825 14.17 15.022 14.9505C14.2192 15.7307 13.1319 16.1677 11.9997 16.1677C10.8676 16.1677 9.78029 15.7307 8.97748 14.9505C8.17442 14.17 7.72197 13.1101 7.72197 12.0035C7.72197 10.8968 8.17442 9.83685 8.97748 9.05643C9.78029 8.27625 10.8676 7.83924 11.9997 7.83924ZM11.9997 9.17134C11.2226 9.17134 10.4787 9.47145 9.93137 10.0033C9.38431 10.535 9.07826 11.2546 9.07826 12.0035C9.07826 12.7523 9.38431 13.4719 9.93137 14.0036C10.4787 14.5355 11.2226 14.8356 11.9997 14.8356C12.7769 14.8356 13.5208 14.5355 14.0681 14.0036C14.6152 13.4719 14.9213 12.7523 14.9213 12.0035C14.9213 11.2546 14.6152 10.535 14.0681 10.0033C13.5208 9.47145 12.7769 9.17134 11.9997 9.17134Z" stroke="#3F3F3F"/>
</g>
<defs>
<clipPath id="clip0_2293_2394">
<rect width="24" height="24" fill="white"/>
</clipPath>
</defs>
</svg>
