<svg width="154" height="154" viewBox="0 0 154 154" fill="none" xmlns="http://www.w3.org/2000/svg">
<g clip-path="url(#clip0_2053_1331)">
<path d="M110.019 113.107C109.153 108.023 109.962 94.8523 115.728 79.4092C119.191 70.1348 118.828 59.8646 114.719 50.8579C110.61 41.8512 103.091 34.8458 93.8168 31.3828C84.5425 27.9198 74.2723 28.2828 65.2656 32.392C56.2589 36.5012 49.2535 44.02 45.7905 53.2944C40.0224 68.7419 31.9984 79.2133 28.0121 82.4862C26.9959 83.3172 26.2168 84.4015 25.7534 85.6298C25.2899 86.858 25.1586 88.1867 25.3725 89.4819C25.5864 90.7771 26.1381 91.993 26.9719 93.0069C27.8057 94.0209 28.8921 94.797 30.1216 95.2571L47.9601 101.918C47.2928 106.167 48.1136 110.516 50.2836 114.23C52.4536 117.943 55.8397 120.794 59.8691 122.298C63.8985 123.803 68.3239 123.869 72.3968 122.487C76.4697 121.104 79.9401 118.358 82.221 114.711L100.06 121.372C101.29 121.829 102.618 121.954 103.912 121.735C105.206 121.515 106.419 120.958 107.429 120.12C108.439 119.282 109.21 118.192 109.665 116.961C110.119 115.73 110.241 114.401 110.019 113.107ZM62.4791 115.308C60.3105 114.498 58.4464 113.035 57.1434 111.121C55.8404 109.208 55.1625 106.937 55.2031 104.623L74.978 112.007C73.4916 113.781 71.4915 115.052 69.2531 115.643C67.0148 116.235 64.6482 116.118 62.4791 115.308ZM32.7331 88.2633C38.2598 83.7328 46.8954 71.6769 52.7843 55.9059C55.5547 48.4864 61.159 42.4713 68.3644 39.184C75.5697 35.8966 83.7859 35.6062 91.2053 38.3766C98.6248 41.147 104.64 46.7514 107.927 53.9567C111.215 61.1621 111.505 69.3782 108.735 76.7977C102.851 92.5556 101.462 107.318 102.671 114.378L32.7331 88.2633Z" fill="#7692C9" fill-opacity="0.8"/>
</g>
<circle cx="124.869" cy="54.9301" r="22.3964" transform="rotate(20.4756 124.869 54.9301)" fill="#00246B"/>
<circle cx="124.869" cy="54.9303" r="14.9309" transform="rotate(20.4756 124.869 54.9303)" fill="#7692C9"/>
<defs>
<clipPath id="clip0_2053_1331">
<rect width="119.447" height="119.447" fill="white" transform="translate(41.7837) rotate(20.4756)"/>
</clipPath>
</defs>
</svg>
