<svg width="225" height="53" viewBox="0 0 225 53" fill="none" xmlns="http://www.w3.org/2000/svg">
<path d="M26.3337 52.5924C22.3226 52.5924 18.7024 51.9196 15.4773 50.5656C12.2478 49.2158 9.48648 47.3615 7.18894 45.0026C4.8914 42.6437 3.11778 39.9097 1.87239 36.7875C0.626992 33.6696 0 30.3405 0 26.8043C0 23.2682 0.622698 19.9433 1.87239 16.8211C3.11778 13.7033 4.8914 10.9649 7.18894 8.60605C9.48648 6.24718 12.2521 4.39285 15.4773 3.04308C18.7067 1.6933 22.3226 1.01625 26.3337 1.01625H34.33V10.2965H26.5527C24.2036 10.2965 22.0521 10.7148 20.0981 11.5471C18.1398 12.3837 16.4435 13.548 15.0006 15.0488C13.5576 16.5452 12.4454 18.2917 11.6638 20.2797C10.8822 22.2677 10.4914 24.4411 10.4914 26.8C10.4914 29.1589 10.8822 31.3453 11.6638 33.3591C12.4454 35.373 13.5576 37.1152 15.0006 38.5901C16.4435 40.0649 18.1441 41.2163 20.0981 42.0529C22.0521 42.8895 24.2079 43.3035 26.5527 43.3035H34.33V52.5838H26.3337V52.5924Z" fill="#F2F6FF"/>
<path d="M42.03 52.5925V21.3579C42.03 16.9894 42.949 13.2161 44.7828 10.0508C46.6165 6.88119 49.1373 4.44038 52.341 2.71974C55.5447 1.00341 59.225 0.14093 63.3821 0.14093C67.5391 0.14093 71.2195 0.999099 74.4232 2.71974C77.6268 4.44038 80.1477 6.88119 81.9814 10.0508C83.8152 13.2204 84.7342 16.9894 84.7342 21.3579V52.5925H74.2428V38.6678H52.5257V52.5925H42.03ZM52.5214 29.3875H74.2385V20.6938C74.2385 18.6324 73.7962 16.7393 72.9158 15.023C72.0354 13.3066 70.79 11.9396 69.1753 10.9348C67.5606 9.93004 65.6281 9.42549 63.3778 9.42549C61.1275 9.42549 59.2551 9.93004 57.6189 10.9348C55.9784 11.9396 54.7201 13.3066 53.8398 15.023C52.9594 16.7436 52.5214 18.6324 52.5214 20.6938V29.3875Z" fill="#F2F6FF"/>
<path d="M94.6328 52.5924V1.02488H116.127C119.502 1.02488 122.568 1.7968 125.334 3.34495C128.095 4.8931 130.298 7.04067 131.939 9.79197C133.575 12.5433 134.395 15.7344 134.395 19.3698C134.395 23.0051 133.575 26.1359 131.939 28.9088C130.298 31.6859 128.1 33.8464 125.334 35.3903C122.573 36.9384 119.502 37.7103 116.127 37.7103H105.124V52.5924H94.6328ZM105.124 28.4301H114.881C116.543 28.4301 118.059 28.0722 119.429 27.3606C120.799 26.6491 121.886 25.6184 122.693 24.2687C123.5 22.9189 123.904 21.2845 123.904 19.3698C123.904 17.4551 123.5 15.8207 122.693 14.4709C121.886 13.1211 120.795 12.0905 119.429 11.3746C118.059 10.6631 116.543 10.3051 114.881 10.3051H105.124V28.4301Z" fill="#F2F6FF"/>
<path d="M151.633 52.5924V10.3051H137.328V1.02488H176.429V10.3051H162.125V52.5924H151.633Z" fill="#F2F6FF"/>
<path d="M198.366 52.5924V38.3745C195.188 37.6888 192.388 36.4339 189.966 34.6184C187.544 32.8029 185.663 30.4569 184.318 27.5849C182.974 24.7128 182.3 21.4095 182.3 17.675V1.02488H192.792V18.3348C192.792 20.3961 193.23 22.2763 194.11 23.9711C194.99 25.6659 196.249 27.0286 197.889 28.0592C199.525 29.0899 201.449 29.6074 203.648 29.6074C205.847 29.6074 207.831 29.0899 209.445 28.0592C211.06 27.0286 212.306 25.6659 213.186 23.9711C214.066 22.2763 214.509 20.3961 214.509 18.3348V1.02488H225V17.675C225 21.4095 224.326 24.7085 222.982 27.5849C221.637 30.4569 219.752 32.8158 217.334 34.6572C214.912 36.4986 212.091 37.7405 208.861 38.3788V52.5967H198.37L198.366 52.5924Z" fill="#F2F6FF"/>
</svg>
