<svg width="112" height="151" viewBox="0 0 112 151" fill="none" xmlns="http://www.w3.org/2000/svg">
<path d="M110.017 0H1.88696V22.3311H110.017V0Z" fill="#00246B"/>
<path fill-rule="evenodd" clip-rule="evenodd" d="M50.5032 151.001V0H61.1042V151.001H50.5032Z" fill="#00246B"/>
<path fill-rule="evenodd" clip-rule="evenodd" d="M19.7074 69.3893C29.269 87.1117 42.1262 97.4169 55.8036 97.4169C69.481 97.4169 82.3381 87.1117 91.8998 69.3893C101.416 51.7508 107.367 27.2373 107.367 0.0424805H111.607C111.607 27.8035 105.542 53.0406 95.629 71.4138C85.7617 89.7029 71.7771 101.67 55.8036 101.67C39.83 101.67 25.8455 89.7029 15.9781 71.4138C6.06545 53.0406 0 27.8035 0 0.0424805H4.2404C4.2404 27.2373 10.1912 51.7508 19.7074 69.3893Z" fill="#00246B"/>
<path fill-rule="evenodd" clip-rule="evenodd" d="M42.0703 90.2715C46.5209 95.0418 51.1631 97.4169 55.8035 97.4169C60.4439 97.4169 65.0861 95.0418 69.5366 90.2715C73.9905 85.4978 78.0995 78.4747 81.5948 69.6186C88.5806 51.919 92.9494 27.3213 92.9494 0.0424805H97.1898C97.1898 27.7195 92.765 52.8724 85.5375 71.1844C81.9262 80.3342 77.5736 87.8821 72.6327 93.178C67.6884 98.4774 62.0026 101.67 55.8035 101.67C49.6043 101.67 43.9185 98.4774 38.9743 93.178C34.0333 87.8821 29.6808 80.3342 26.0695 71.1844C18.842 52.8724 14.4172 27.7195 14.4172 0.0424805H18.6576C18.6576 27.3213 23.0264 51.919 30.0121 69.6186C33.5075 78.4747 37.6165 85.4978 42.0703 90.2715Z" fill="#00246B"/>
<path fill-rule="evenodd" clip-rule="evenodd" d="M52.7762 95.9255C53.9374 97.0135 54.9097 97.3744 55.7082 97.3744C56.5066 97.3744 57.479 97.0135 58.6401 95.9255C59.8119 94.8277 61.0442 93.1046 62.2838 90.7041C64.7603 85.9083 67.0537 78.8293 69.0032 69.9038C72.8948 52.0875 75.32 27.372 75.32 0H79.5604C79.5604 27.5838 77.1197 52.619 73.1454 70.8142C71.162 79.8945 68.7724 87.3867 66.0491 92.6605C64.6888 95.2948 63.192 97.4811 61.5346 99.034C59.8667 100.597 57.9098 101.628 55.7082 101.628C53.5065 101.628 51.5497 100.597 49.8817 99.034C48.2243 97.4811 46.7276 95.2948 45.3673 92.6605C42.644 87.3867 40.2544 79.8945 38.271 70.8142C34.2966 52.619 31.856 27.5838 31.856 0H36.0964C36.0964 27.372 38.5215 52.0875 42.4131 69.9038C44.3627 78.8293 46.6561 85.9083 49.1325 90.7041C50.3721 93.1046 51.6045 94.8277 52.7762 95.9255Z" fill="#00246B"/>
<path d="M101.738 116.973H9.85901L3.43481 99.533H108.173L101.738 116.973Z" fill="#00246B"/>
<path fill-rule="evenodd" clip-rule="evenodd" d="M0.390869 97.4062H111.218L103.214 119.099H8.38194L0.390869 97.4062ZM6.47837 101.66L11.3357 114.846H100.262L105.127 101.66H6.47837Z" fill="#00246B"/>
</svg>
